<?xml version="1.0" encoding="utf-8"?>
<!-- Generator: Adobe Illustrator 15.1.0, SVG Export Plug-In . SVG Version: 6.00 Build 0)  -->
<!DOCTYPE svg PUBLIC "-//W3C//DTD SVG 1.1//EN" "http://www.w3.org/Graphics/SVG/1.1/DTD/svg11.dtd">
<svg version="1.1" id="Layer_1" xmlns="http://www.w3.org/2000/svg" xmlns:xlink="http://www.w3.org/1999/xlink" x="0px" y="0px"
	 width="411px" height="367px" viewBox="0 0 411 367" enable-background="new 0 0 411 367" xml:space="preserve">
<rect x="10.293" y="10.853" fill="#FFFFFF" stroke="#000000" stroke-width="4" stroke-miterlimit="10" width="39.088" height="39.088"/>
<rect x="49.382" y="10.853" fill="#FFFFFF" stroke="#000000" stroke-width="4" stroke-miterlimit="10" width="39.088" height="39.088"/>
<rect x="88.47" y="10.853" fill="#FFFFFF" stroke="#000000" stroke-width="4" stroke-miterlimit="10" width="39.088" height="39.088"/>
<rect x="127.559" y="10.853" fill="#FFFFFF" stroke="#000000" stroke-width="4" stroke-miterlimit="10" width="39.088" height="39.088"/>
<rect x="166.646" y="10.853" fill="#FFFFFF" stroke="#000000" stroke-width="4" stroke-miterlimit="10" width="39.088" height="39.088"/>
<rect x="205.735" y="10.853" fill="#FFFFFF" stroke="#000000" stroke-width="4" stroke-miterlimit="10" width="39.088" height="39.088"/>
<rect x="244.823" y="10.853" fill="#FFFFFF" stroke="#000000" stroke-width="4" stroke-miterlimit="10" width="39.089" height="39.088"/>
<rect x="283.912" y="10.853" fill="#FFFFFF" stroke="#000000" stroke-width="4" stroke-miterlimit="10" width="39.088" height="39.088"/>
<g>
	<path d="M304.273,56.773v8.785h1.621c0.386,0,0.661,0.074,0.826,0.223c0.164,0.149,0.246,0.343,0.246,0.583
		c0,0.235-0.082,0.427-0.246,0.576c-0.165,0.149-0.44,0.223-0.826,0.223h-4.847c-0.386,0-0.661-0.074-0.826-0.223
		c-0.164-0.149-0.246-0.343-0.246-0.583c0-0.235,0.082-0.426,0.246-0.575c0.165-0.149,0.44-0.223,0.826-0.223h1.621v-6.694
		l-1.433,0.375c-0.23,0.063-0.402,0.094-0.517,0.094c-0.204,0-0.38-0.081-0.529-0.243c-0.148-0.162-0.223-0.36-0.223-0.595
		c0-0.214,0.055-0.382,0.164-0.505c0.11-0.123,0.34-0.231,0.689-0.325L304.273,56.773z"/>
</g>
<g>
	<path d="M263.269,65.558h3.516c0.193-0.157,0.376-0.235,0.548-0.235c0.245,0,0.439,0.081,0.583,0.243s0.216,0.438,0.216,0.83v0.767
		h-7.312v-1.699c2.892-2.385,4.638-3.92,5.237-4.604c0.303-0.35,0.454-0.681,0.454-0.994c0-0.392-0.171-0.737-0.513-1.038
		c-0.342-0.3-0.797-0.45-1.366-0.45c-0.574,0-1.052,0.167-1.433,0.501c-0.198,0.177-0.357,0.441-0.478,0.791
		c-0.073,0.219-0.174,0.376-0.302,0.47c-0.128,0.094-0.285,0.141-0.474,0.141c-0.219,0-0.408-0.079-0.567-0.235
		c-0.159-0.157-0.238-0.339-0.238-0.548c0-0.313,0.145-0.705,0.435-1.174c0.289-0.47,0.712-0.845,1.268-1.127
		c0.557-0.282,1.16-0.423,1.812-0.423c1.013,0,1.843,0.307,2.49,0.92c0.646,0.614,0.971,1.356,0.971,2.228
		c0,0.444-0.093,0.855-0.278,1.233s-0.63,0.901-1.335,1.57C265.949,63.251,264.871,64.196,263.269,65.558z"/>
</g>
<g>
	<path d="M227.631,57.032v6.279c0.339,0,0.59,0.074,0.752,0.223c0.162,0.149,0.243,0.341,0.243,0.576s-0.083,0.428-0.247,0.579
		c-0.165,0.151-0.414,0.227-0.748,0.227v0.642c0.339,0,0.59,0.076,0.752,0.227c0.162,0.151,0.243,0.344,0.243,0.579
		c0,0.235-0.083,0.427-0.247,0.576c-0.165,0.149-0.44,0.223-0.826,0.223H225.4c-0.387,0-0.662-0.074-0.826-0.223
		s-0.247-0.343-0.247-0.583c0-0.235,0.082-0.426,0.247-0.575s0.439-0.223,0.826-0.223h0.626v-0.642h-4.361v-1.339l3.844-6.545
		H227.631z M226.026,63.311v-3.946l-2.325,3.946H226.026z"/>
</g>
<g>
	<path d="M187.467,62.035c0.412,0.318,0.722,0.68,0.928,1.084c0.206,0.405,0.309,0.85,0.309,1.335c0,0.538-0.132,1.032-0.395,1.484
		c-0.264,0.451-0.677,0.808-1.241,1.068c-0.563,0.261-1.19,0.392-1.879,0.392s-1.31-0.13-1.863-0.392
		c-0.553-0.261-0.962-0.618-1.225-1.072c-0.264-0.454-0.396-0.948-0.396-1.48c0-0.485,0.103-0.93,0.309-1.335
		c0.206-0.404,0.516-0.766,0.928-1.084c-0.36-0.334-0.631-0.689-0.814-1.065c-0.183-0.376-0.274-0.772-0.274-1.19
		c0-0.819,0.313-1.525,0.94-2.118c0.626-0.592,1.43-0.889,2.411-0.889s1.785,0.296,2.412,0.889c0.626,0.593,0.939,1.299,0.939,2.118
		c0,0.422-0.09,0.822-0.27,1.198C188.105,61.354,187.833,61.706,187.467,62.035z M187.099,64.532c0-0.422-0.181-0.805-0.544-1.147
		c-0.363-0.342-0.813-0.513-1.351-0.513s-0.988,0.171-1.351,0.513c-0.363,0.342-0.544,0.729-0.544,1.163
		c0,0.334,0.157,0.625,0.47,0.873c0.313,0.248,0.788,0.372,1.425,0.372c0.642,0,1.118-0.124,1.429-0.372
		C186.944,65.173,187.099,64.877,187.099,64.532z M186.912,59.812c0-0.396-0.156-0.735-0.466-1.014
		c-0.311-0.279-0.729-0.419-1.257-0.419c-0.532,0-0.954,0.14-1.264,0.419c-0.311,0.279-0.466,0.618-0.466,1.014
		c0,0.402,0.155,0.743,0.466,1.021c0.31,0.279,0.732,0.419,1.264,0.419c0.527,0,0.946-0.14,1.257-0.419
		C186.756,60.554,186.912,60.213,186.912,59.812z"/>
</g>
<g>
	<path d="M143.109,56.773v8.785h1.621c0.386,0,0.662,0.074,0.826,0.223c0.165,0.149,0.247,0.343,0.247,0.583
		c0,0.235-0.082,0.427-0.247,0.576c-0.164,0.149-0.439,0.223-0.826,0.223h-4.846c-0.387,0-0.662-0.074-0.826-0.223
		s-0.247-0.343-0.247-0.583c0-0.235,0.082-0.426,0.247-0.575s0.439-0.223,0.826-0.223h1.621v-6.694l-1.433,0.375
		c-0.229,0.063-0.402,0.094-0.517,0.094c-0.204,0-0.38-0.081-0.528-0.243c-0.149-0.162-0.223-0.36-0.223-0.595
		c0-0.214,0.055-0.382,0.165-0.505c0.109-0.123,0.339-0.231,0.689-0.325L143.109,56.773z"/>
	<path d="M150.406,61.683c0.386-0.324,0.754-0.56,1.104-0.708s0.723-0.223,1.12-0.223c0.84,0,1.576,0.334,2.208,1.002
		c0.631,0.668,0.947,1.506,0.947,2.513c0,0.935-0.293,1.69-0.881,2.267c-0.587,0.577-1.384,0.865-2.392,0.865
		c-0.84,0-1.532-0.196-2.075-0.587c-0.543-0.391-0.953-0.994-1.229-1.808c-0.276-0.814-0.415-1.723-0.415-2.725
		c0-1.201,0.274-2.199,0.822-2.995c0.548-0.796,1.192-1.413,1.934-1.852s1.524-0.658,2.349-0.658c0.652,0,1.159,0.128,1.519,0.384
		c0.235,0.172,0.353,0.392,0.353,0.658c0,0.235-0.078,0.432-0.235,0.591s-0.345,0.239-0.564,0.239c-0.125,0-0.305-0.063-0.54-0.188
		c-0.141-0.073-0.277-0.11-0.407-0.11c-0.511,0-1.041,0.145-1.589,0.435c-0.548,0.29-1.023,0.735-1.425,1.335
		C150.732,60.534,150.531,61.056,150.406,61.683z M150.641,64.165c0.167,0.626,0.393,1.054,0.677,1.284
		c0.285,0.23,0.69,0.345,1.218,0.345c0.527,0,0.933-0.138,1.217-0.415c0.285-0.276,0.427-0.652,0.427-1.127
		c0-0.542-0.163-0.994-0.489-1.354c-0.326-0.36-0.693-0.54-1.1-0.54c-0.324,0-0.669,0.159-1.037,0.478
		C151.185,63.152,150.881,63.596,150.641,64.165z"/>
</g>
<g>
	<path d="M105.493,61.8c0.475,0.324,0.83,0.698,1.065,1.124c0.235,0.426,0.352,0.902,0.352,1.429c0,0.569-0.155,1.095-0.466,1.578
		c-0.311,0.482-0.761,0.848-1.351,1.096c-0.59,0.248-1.362,0.372-2.317,0.372c-1.242,0-2.176-0.193-2.803-0.58
		c-0.35-0.219-0.524-0.48-0.524-0.783c0-0.229,0.077-0.424,0.231-0.583c0.154-0.159,0.34-0.239,0.56-0.239
		c0.151,0,0.308,0.052,0.47,0.157c0.229,0.157,0.446,0.261,0.65,0.313c0.313,0.073,0.744,0.109,1.292,0.109
		c0.934,0,1.61-0.122,2.028-0.364c0.417-0.243,0.626-0.585,0.626-1.029c0-0.329-0.121-0.646-0.364-0.951
		c-0.243-0.306-0.568-0.542-0.975-0.708c-0.235-0.094-0.631-0.159-1.19-0.196c-0.266-0.016-0.471-0.098-0.614-0.247
		c-0.144-0.149-0.215-0.333-0.215-0.552c0-0.229,0.078-0.423,0.235-0.579c0.156-0.157,0.354-0.235,0.595-0.235
		c0.533,0,0.817-0.003,0.854-0.008c0.208-0.021,0.417-0.089,0.626-0.204c0.208-0.115,0.377-0.273,0.505-0.474
		c0.128-0.201,0.192-0.409,0.192-0.623c0-0.339-0.15-0.633-0.45-0.881c-0.3-0.248-0.75-0.372-1.351-0.372
		c-0.772,0-1.362,0.225-1.77,0.673c-0.12,0.131-0.217,0.214-0.29,0.251c-0.11,0.057-0.232,0.086-0.368,0.086
		c-0.219,0-0.407-0.078-0.563-0.235c-0.157-0.157-0.235-0.35-0.235-0.58c0-0.36,0.24-0.709,0.72-1.049
		c0.699-0.496,1.574-0.744,2.623-0.744c0.992,0,1.788,0.282,2.388,0.846c0.6,0.564,0.9,1.242,0.9,2.036
		c0,0.413-0.089,0.797-0.266,1.155C106.114,61.167,105.848,61.498,105.493,61.8z"/>
	<path d="M111.326,65.558h3.515c0.193-0.157,0.376-0.235,0.548-0.235c0.246,0,0.44,0.081,0.583,0.243s0.215,0.438,0.215,0.83v0.767
		h-7.312v-1.699c2.892-2.385,4.637-3.92,5.238-4.604c0.303-0.35,0.454-0.681,0.454-0.994c0-0.392-0.171-0.737-0.513-1.038
		c-0.342-0.3-0.797-0.45-1.366-0.45c-0.574,0-1.052,0.167-1.433,0.501c-0.198,0.177-0.357,0.441-0.478,0.791
		c-0.073,0.219-0.173,0.376-0.301,0.47c-0.128,0.094-0.286,0.141-0.474,0.141c-0.219,0-0.409-0.079-0.568-0.235
		c-0.159-0.157-0.239-0.339-0.239-0.548c0-0.313,0.145-0.705,0.435-1.174s0.712-0.845,1.269-1.127
		c0.556-0.282,1.16-0.423,1.812-0.423c1.012,0,1.842,0.307,2.49,0.92c0.647,0.614,0.971,1.356,0.971,2.228
		c0,0.444-0.093,0.855-0.278,1.233c-0.186,0.378-0.63,0.901-1.335,1.57C114.006,63.251,112.928,64.196,111.326,65.558z"/>
</g>
<g>
	<path d="M62.607,61.683c0.386-0.324,0.754-0.56,1.104-0.708s0.723-0.223,1.12-0.223c0.84,0,1.576,0.334,2.208,1.002
		c0.631,0.668,0.947,1.506,0.947,2.513c0,0.935-0.293,1.69-0.881,2.267c-0.587,0.577-1.384,0.865-2.392,0.865
		c-0.84,0-1.532-0.196-2.075-0.587c-0.543-0.391-0.953-0.994-1.229-1.808c-0.276-0.814-0.415-1.723-0.415-2.725
		c0-1.201,0.274-2.199,0.822-2.995c0.548-0.796,1.192-1.413,1.934-1.852s1.524-0.658,2.349-0.658c0.652,0,1.159,0.128,1.519,0.384
		c0.235,0.172,0.353,0.392,0.353,0.658c0,0.235-0.078,0.432-0.235,0.591s-0.345,0.239-0.564,0.239c-0.125,0-0.305-0.063-0.54-0.188
		c-0.141-0.073-0.277-0.11-0.407-0.11c-0.511,0-1.041,0.145-1.589,0.435c-0.548,0.29-1.023,0.735-1.425,1.335
		C62.934,60.534,62.733,61.056,62.607,61.683z M62.843,64.165c0.167,0.626,0.393,1.054,0.677,1.284
		c0.285,0.23,0.69,0.345,1.218,0.345c0.527,0,0.933-0.138,1.217-0.415c0.285-0.276,0.427-0.652,0.427-1.127
		c0-0.542-0.163-0.994-0.489-1.354c-0.326-0.36-0.693-0.54-1.1-0.54c-0.324,0-0.669,0.159-1.037,0.478
		C63.387,63.152,63.083,63.596,62.843,64.165z"/>
	<path d="M76.089,57.032v6.279c0.339,0,0.59,0.074,0.752,0.223c0.162,0.149,0.243,0.341,0.243,0.576s-0.083,0.428-0.247,0.579
		c-0.165,0.151-0.414,0.227-0.748,0.227v0.642c0.339,0,0.59,0.076,0.752,0.227c0.162,0.151,0.243,0.344,0.243,0.579
		c0,0.235-0.083,0.427-0.247,0.576c-0.165,0.149-0.44,0.223-0.826,0.223h-2.153c-0.387,0-0.662-0.074-0.826-0.223
		s-0.247-0.343-0.247-0.583c0-0.235,0.082-0.426,0.247-0.575s0.439-0.223,0.826-0.223h0.626v-0.642h-4.361v-1.339l3.844-6.545
		H76.089z M74.484,63.311v-3.946l-2.325,3.946H74.484z"/>
</g>
<g>
	<path d="M21.034,56.773v8.785h1.621c0.386,0,0.662,0.074,0.826,0.223c0.165,0.149,0.247,0.343,0.247,0.583
		c0,0.235-0.082,0.427-0.247,0.576c-0.164,0.149-0.439,0.223-0.826,0.223h-4.846c-0.387,0-0.662-0.074-0.826-0.223
		s-0.247-0.343-0.247-0.583c0-0.235,0.082-0.426,0.247-0.575s0.439-0.223,0.826-0.223h1.621v-6.694l-1.433,0.375
		c-0.229,0.063-0.402,0.094-0.517,0.094c-0.204,0-0.38-0.081-0.528-0.243c-0.149-0.162-0.223-0.36-0.223-0.595
		c0-0.214,0.055-0.382,0.165-0.505c0.109-0.123,0.339-0.231,0.689-0.325L21.034,56.773z"/>
	<path d="M28.338,65.558h3.515c0.193-0.157,0.376-0.235,0.548-0.235c0.246,0,0.44,0.081,0.583,0.243s0.215,0.438,0.215,0.83v0.767
		h-7.312v-1.699c2.892-2.385,4.637-3.92,5.238-4.604c0.303-0.35,0.454-0.681,0.454-0.994c0-0.392-0.171-0.737-0.513-1.038
		c-0.342-0.3-0.797-0.45-1.366-0.45c-0.574,0-1.052,0.167-1.433,0.501c-0.198,0.177-0.357,0.441-0.478,0.791
		c-0.073,0.219-0.173,0.376-0.301,0.47c-0.128,0.094-0.286,0.141-0.474,0.141c-0.219,0-0.409-0.079-0.568-0.235
		c-0.159-0.157-0.239-0.339-0.239-0.548c0-0.313,0.145-0.705,0.435-1.174s0.712-0.845,1.269-1.127
		c0.556-0.282,1.16-0.423,1.812-0.423c1.012,0,1.842,0.307,2.49,0.92c0.647,0.614,0.971,1.356,0.971,2.228
		c0,0.444-0.093,0.855-0.278,1.233c-0.186,0.378-0.63,0.901-1.335,1.57C31.019,63.251,29.94,64.196,28.338,65.558z"/>
	<path d="M41.734,62.035c0.412,0.318,0.722,0.68,0.928,1.084c0.206,0.405,0.309,0.85,0.309,1.335c0,0.538-0.132,1.032-0.395,1.484
		c-0.264,0.451-0.677,0.808-1.241,1.068c-0.563,0.261-1.19,0.392-1.879,0.392s-1.31-0.13-1.863-0.392
		c-0.553-0.261-0.962-0.618-1.225-1.072c-0.264-0.454-0.396-0.948-0.396-1.48c0-0.485,0.103-0.93,0.309-1.335
		c0.206-0.404,0.516-0.766,0.928-1.084c-0.36-0.334-0.631-0.689-0.814-1.065c-0.183-0.376-0.274-0.772-0.274-1.19
		c0-0.819,0.313-1.525,0.94-2.118c0.626-0.592,1.43-0.889,2.411-0.889s1.785,0.296,2.412,0.889c0.626,0.593,0.939,1.299,0.939,2.118
		c0,0.422-0.09,0.822-0.27,1.198C42.372,61.354,42.099,61.706,41.734,62.035z M41.366,64.532c0-0.422-0.181-0.805-0.544-1.147
		c-0.363-0.342-0.813-0.513-1.351-0.513s-0.988,0.171-1.351,0.513c-0.363,0.342-0.544,0.729-0.544,1.163
		c0,0.334,0.157,0.625,0.47,0.873c0.313,0.248,0.788,0.372,1.425,0.372c0.642,0,1.118-0.124,1.429-0.372
		C41.21,65.173,41.366,64.877,41.366,64.532z M41.178,59.812c0-0.396-0.156-0.735-0.466-1.014c-0.311-0.279-0.729-0.419-1.257-0.419
		c-0.532,0-0.954,0.14-1.264,0.419c-0.311,0.279-0.466,0.618-0.466,1.014c0,0.402,0.155,0.743,0.466,1.021
		c0.31,0.279,0.732,0.419,1.264,0.419c0.527,0,0.946-0.14,1.257-0.419C41.022,60.554,41.178,60.213,41.178,59.812z"/>
</g>
<rect x="363.912" y="10.853" fill="#FFFFFF" stroke="#000000" stroke-width="4" stroke-miterlimit="10" width="39.088" height="39.088"/>
<g>
	<path d="M388.699,29.288v2.637c0,1.562-0.451,3.059-1.354,4.488s-2.193,2.145-3.873,2.145c-0.969,0-1.787-0.213-2.455-0.639
		s-1.301-1.211-1.898-2.355s-0.896-2.357-0.896-3.639v-2.637c0-1.555,0.449-3.049,1.348-4.482s2.188-2.15,3.867-2.15
		c0.961,0,1.775,0.211,2.443,0.633s1.305,1.205,1.91,2.35S388.699,27.999,388.699,29.288z M386.285,29.288
		c0-1.305-0.363-2.445-1.09-3.422c-0.414-0.539-0.996-0.809-1.746-0.809c-0.727,0-1.32,0.297-1.781,0.891
		c-0.695,0.898-1.043,2.012-1.043,3.34v2.637c0,1.312,0.367,2.453,1.102,3.422c0.406,0.539,0.988,0.809,1.746,0.809
		c0.719,0,1.309-0.297,1.77-0.891c0.695-0.898,1.043-2.012,1.043-3.34V29.288z"/>
</g>
<g>
	<path d="M348.605,30.307H338.34c-0.578,0-0.99-0.111-1.236-0.334s-0.369-0.514-0.369-0.873c0-0.352,0.123-0.639,0.369-0.861
		s0.658-0.334,1.236-0.334h10.266c0.578,0,0.99,0.111,1.236,0.334s0.369,0.514,0.369,0.873c0,0.352-0.123,0.639-0.369,0.861
		S349.184,30.307,348.605,30.307z M348.605,34.831H338.34c-0.578,0-0.99-0.109-1.236-0.328s-0.369-0.508-0.369-0.867
		s0.123-0.65,0.369-0.873s0.658-0.334,1.236-0.334h10.266c0.578,0,0.99,0.111,1.236,0.334s0.369,0.514,0.369,0.873
		s-0.123,0.648-0.369,0.867S349.184,34.831,348.605,34.831z"/>
</g>
<rect x="10.293" y="82.853" fill="#FFFFFF" stroke="#000000" stroke-width="4" stroke-miterlimit="10" width="39.088" height="39.088"/>
<rect x="49.382" y="82.853" fill="#FFFFFF" stroke="#000000" stroke-width="4" stroke-miterlimit="10" width="39.088" height="39.088"/>
<rect x="88.47" y="82.853" fill="#FFFFFF" stroke="#000000" stroke-width="4" stroke-miterlimit="10" width="39.088" height="39.088"/>
<rect x="127.559" y="82.853" fill="#FFFFFF" stroke="#000000" stroke-width="4" stroke-miterlimit="10" width="39.088" height="39.088"/>
<rect x="166.646" y="82.853" fill="#FFFFFF" stroke="#000000" stroke-width="4" stroke-miterlimit="10" width="39.088" height="39.088"/>
<rect x="205.735" y="82.853" fill="#FFFFFF" stroke="#000000" stroke-width="4" stroke-miterlimit="10" width="39.088" height="39.088"/>
<rect x="244.823" y="82.853" fill="#FFFFFF" stroke="#000000" stroke-width="4" stroke-miterlimit="10" width="39.089" height="39.088"/>
<rect x="283.912" y="82.853" fill="#FFFFFF" stroke="#000000" stroke-width="4" stroke-miterlimit="10" width="39.088" height="39.088"/>
<rect x="288.698" y="87.639" width="29.516" height="29.515"/>
<g>
	<path d="M304.273,128.773v8.784h1.621c0.386,0,0.661,0.074,0.826,0.224c0.164,0.148,0.246,0.343,0.246,0.583
		c0,0.235-0.082,0.427-0.246,0.575c-0.165,0.149-0.44,0.224-0.826,0.224h-4.847c-0.386,0-0.661-0.074-0.826-0.224
		c-0.164-0.148-0.246-0.343-0.246-0.583c0-0.235,0.082-0.427,0.246-0.575c0.165-0.149,0.44-0.224,0.826-0.224h1.621v-6.693
		l-1.433,0.375c-0.23,0.063-0.402,0.095-0.517,0.095c-0.204,0-0.38-0.081-0.529-0.243c-0.148-0.162-0.223-0.36-0.223-0.595
		c0-0.214,0.055-0.383,0.164-0.505c0.11-0.123,0.34-0.231,0.689-0.325L304.273,128.773z"/>
</g>
<g>
	<path d="M263.269,137.558h3.516c0.193-0.156,0.376-0.234,0.548-0.234c0.245,0,0.439,0.081,0.583,0.242
		c0.144,0.162,0.216,0.438,0.216,0.83v0.768h-7.312v-1.699c2.892-2.385,4.638-3.92,5.237-4.604c0.303-0.35,0.454-0.682,0.454-0.994
		c0-0.392-0.171-0.737-0.513-1.038c-0.342-0.3-0.797-0.45-1.366-0.45c-0.574,0-1.052,0.168-1.433,0.502
		c-0.198,0.177-0.357,0.44-0.478,0.79c-0.073,0.22-0.174,0.376-0.302,0.47c-0.128,0.095-0.285,0.142-0.474,0.142
		c-0.219,0-0.408-0.079-0.567-0.235s-0.238-0.339-0.238-0.548c0-0.313,0.145-0.705,0.435-1.175c0.289-0.47,0.712-0.845,1.268-1.127
		c0.557-0.282,1.16-0.423,1.812-0.423c1.013,0,1.843,0.307,2.49,0.92c0.646,0.613,0.971,1.355,0.971,2.228
		c0,0.443-0.093,0.854-0.278,1.233c-0.186,0.378-0.63,0.901-1.335,1.569C265.949,135.251,264.871,136.195,263.269,137.558z"/>
</g>
<g>
	<path d="M227.631,129.032v6.278c0.339,0,0.59,0.074,0.752,0.224c0.162,0.148,0.243,0.341,0.243,0.575
		c0,0.235-0.083,0.428-0.247,0.579c-0.165,0.151-0.414,0.228-0.748,0.228v0.642c0.339,0,0.59,0.076,0.752,0.228
		c0.162,0.151,0.243,0.344,0.243,0.579s-0.083,0.427-0.247,0.575c-0.165,0.149-0.44,0.224-0.826,0.224H225.4
		c-0.387,0-0.662-0.074-0.826-0.224c-0.165-0.148-0.247-0.343-0.247-0.583c0-0.235,0.082-0.427,0.247-0.575
		c0.165-0.149,0.439-0.224,0.826-0.224h0.626v-0.642h-4.361v-1.339l3.844-6.545H227.631z M226.026,135.311v-3.945l-2.325,3.945
		H226.026z"/>
</g>
<g>
	<path d="M187.467,134.035c0.412,0.318,0.722,0.68,0.928,1.084s0.309,0.85,0.309,1.335c0,0.537-0.132,1.032-0.395,1.483
		c-0.264,0.451-0.677,0.808-1.241,1.068c-0.563,0.262-1.19,0.392-1.879,0.392s-1.31-0.13-1.863-0.392
		c-0.553-0.261-0.962-0.618-1.225-1.072c-0.264-0.454-0.396-0.947-0.396-1.479c0-0.485,0.103-0.931,0.309-1.335
		s0.516-0.766,0.928-1.084c-0.36-0.334-0.631-0.689-0.814-1.065c-0.183-0.376-0.274-0.772-0.274-1.189
		c0-0.819,0.313-1.525,0.94-2.118c0.626-0.593,1.43-0.889,2.411-0.889s1.785,0.296,2.412,0.889c0.626,0.593,0.939,1.299,0.939,2.118
		c0,0.422-0.09,0.821-0.27,1.197C188.105,133.354,187.833,133.706,187.467,134.035z M187.099,136.532
		c0-0.423-0.181-0.805-0.544-1.147c-0.363-0.342-0.813-0.513-1.351-0.513s-0.988,0.171-1.351,0.513
		c-0.363,0.343-0.544,0.729-0.544,1.163c0,0.334,0.157,0.625,0.47,0.873s0.788,0.372,1.425,0.372c0.642,0,1.118-0.124,1.429-0.372
		S187.099,136.877,187.099,136.532z M186.912,131.812c0-0.396-0.156-0.735-0.466-1.015c-0.311-0.278-0.729-0.419-1.257-0.419
		c-0.532,0-0.954,0.141-1.264,0.419c-0.311,0.279-0.466,0.618-0.466,1.015c0,0.401,0.155,0.742,0.466,1.021
		c0.31,0.279,0.732,0.419,1.264,0.419c0.527,0,0.946-0.14,1.257-0.419C186.756,132.554,186.912,132.213,186.912,131.812z"/>
</g>
<g>
	<path d="M143.109,128.773v8.784h1.621c0.386,0,0.662,0.074,0.826,0.224c0.165,0.148,0.247,0.343,0.247,0.583
		c0,0.235-0.082,0.427-0.247,0.575c-0.164,0.149-0.439,0.224-0.826,0.224h-4.846c-0.387,0-0.662-0.074-0.826-0.224
		c-0.165-0.148-0.247-0.343-0.247-0.583c0-0.235,0.082-0.427,0.247-0.575c0.165-0.149,0.439-0.224,0.826-0.224h1.621v-6.693
		l-1.433,0.375c-0.229,0.063-0.402,0.095-0.517,0.095c-0.204,0-0.38-0.081-0.528-0.243c-0.149-0.162-0.223-0.36-0.223-0.595
		c0-0.214,0.055-0.383,0.165-0.505c0.109-0.123,0.339-0.231,0.689-0.325L143.109,128.773z"/>
	<path d="M150.406,133.683c0.386-0.324,0.754-0.56,1.104-0.709c0.35-0.148,0.723-0.223,1.12-0.223c0.84,0,1.576,0.334,2.208,1.002
		c0.631,0.668,0.947,1.506,0.947,2.513c0,0.935-0.293,1.69-0.881,2.267c-0.587,0.577-1.384,0.865-2.392,0.865
		c-0.84,0-1.532-0.195-2.075-0.587c-0.543-0.392-0.953-0.994-1.229-1.809c-0.276-0.814-0.415-1.723-0.415-2.725
		c0-1.2,0.274-2.198,0.822-2.995c0.548-0.796,1.192-1.413,1.934-1.852s1.524-0.657,2.349-0.657c0.652,0,1.159,0.128,1.519,0.384
		c0.235,0.172,0.353,0.392,0.353,0.657c0,0.235-0.078,0.433-0.235,0.592s-0.345,0.238-0.564,0.238c-0.125,0-0.305-0.062-0.54-0.188
		c-0.141-0.073-0.277-0.11-0.407-0.11c-0.511,0-1.041,0.146-1.589,0.435c-0.548,0.29-1.023,0.735-1.425,1.335
		C150.732,132.534,150.531,133.056,150.406,133.683z M150.641,136.164c0.167,0.627,0.393,1.055,0.677,1.284
		c0.285,0.229,0.69,0.345,1.218,0.345c0.527,0,0.933-0.139,1.217-0.415s0.427-0.652,0.427-1.128c0-0.542-0.163-0.994-0.489-1.354
		c-0.326-0.359-0.693-0.54-1.1-0.54c-0.324,0-0.669,0.159-1.037,0.478C151.185,135.151,150.881,135.596,150.641,136.164z"/>
</g>
<g>
	<path d="M105.493,133.8c0.475,0.323,0.83,0.698,1.065,1.123c0.235,0.426,0.352,0.902,0.352,1.43c0,0.568-0.155,1.095-0.466,1.577
		s-0.761,0.849-1.351,1.096c-0.59,0.248-1.362,0.372-2.317,0.372c-1.242,0-2.176-0.193-2.803-0.579
		c-0.35-0.219-0.524-0.48-0.524-0.783c0-0.229,0.077-0.424,0.231-0.583c0.154-0.159,0.34-0.239,0.56-0.239
		c0.151,0,0.308,0.053,0.47,0.157c0.229,0.156,0.446,0.261,0.65,0.313c0.313,0.072,0.744,0.109,1.292,0.109
		c0.934,0,1.61-0.122,2.028-0.364c0.417-0.243,0.626-0.586,0.626-1.029c0-0.329-0.121-0.646-0.364-0.951
		c-0.243-0.306-0.568-0.542-0.975-0.709c-0.235-0.094-0.631-0.159-1.19-0.195c-0.266-0.016-0.471-0.099-0.614-0.247
		c-0.144-0.148-0.215-0.333-0.215-0.552c0-0.229,0.078-0.423,0.235-0.579c0.156-0.157,0.354-0.235,0.595-0.235
		c0.533,0,0.817-0.003,0.854-0.008c0.208-0.021,0.417-0.089,0.626-0.203c0.208-0.115,0.377-0.273,0.505-0.474
		c0.128-0.201,0.192-0.409,0.192-0.623c0-0.339-0.15-0.633-0.45-0.881c-0.3-0.248-0.75-0.372-1.351-0.372
		c-0.772,0-1.362,0.225-1.77,0.674c-0.12,0.131-0.217,0.214-0.29,0.251c-0.11,0.057-0.232,0.086-0.368,0.086
		c-0.219,0-0.407-0.078-0.563-0.235c-0.157-0.156-0.235-0.35-0.235-0.579c0-0.36,0.24-0.71,0.72-1.049
		c0.699-0.496,1.574-0.744,2.623-0.744c0.992,0,1.788,0.282,2.388,0.846c0.6,0.563,0.9,1.242,0.9,2.035
		c0,0.413-0.089,0.798-0.266,1.155C106.114,133.167,105.848,133.497,105.493,133.8z"/>
	<path d="M111.326,137.558h3.515c0.193-0.156,0.376-0.234,0.548-0.234c0.246,0,0.44,0.081,0.583,0.242
		c0.144,0.162,0.215,0.438,0.215,0.83v0.768h-7.312v-1.699c2.892-2.385,4.637-3.92,5.238-4.604c0.303-0.35,0.454-0.682,0.454-0.994
		c0-0.392-0.171-0.737-0.513-1.038c-0.342-0.3-0.797-0.45-1.366-0.45c-0.574,0-1.052,0.168-1.433,0.502
		c-0.198,0.177-0.357,0.44-0.478,0.79c-0.073,0.22-0.173,0.376-0.301,0.47c-0.128,0.095-0.286,0.142-0.474,0.142
		c-0.219,0-0.409-0.079-0.568-0.235s-0.239-0.339-0.239-0.548c0-0.313,0.145-0.705,0.435-1.175s0.712-0.845,1.269-1.127
		c0.556-0.282,1.16-0.423,1.812-0.423c1.012,0,1.842,0.307,2.49,0.92c0.647,0.613,0.971,1.355,0.971,2.228
		c0,0.443-0.093,0.854-0.278,1.233c-0.186,0.378-0.63,0.901-1.335,1.569C114.006,135.251,112.928,136.195,111.326,137.558z"/>
</g>
<g>
	<path d="M62.607,133.683c0.386-0.324,0.754-0.56,1.104-0.709c0.35-0.148,0.723-0.223,1.12-0.223c0.84,0,1.576,0.334,2.208,1.002
		c0.631,0.668,0.947,1.506,0.947,2.513c0,0.935-0.293,1.69-0.881,2.267c-0.587,0.577-1.384,0.865-2.392,0.865
		c-0.84,0-1.532-0.195-2.075-0.587c-0.543-0.392-0.953-0.994-1.229-1.809c-0.276-0.814-0.415-1.723-0.415-2.725
		c0-1.2,0.274-2.198,0.822-2.995c0.548-0.796,1.192-1.413,1.934-1.852s1.524-0.657,2.349-0.657c0.652,0,1.159,0.128,1.519,0.384
		c0.235,0.172,0.353,0.392,0.353,0.657c0,0.235-0.078,0.433-0.235,0.592s-0.345,0.238-0.564,0.238c-0.125,0-0.305-0.062-0.54-0.188
		c-0.141-0.073-0.277-0.11-0.407-0.11c-0.511,0-1.041,0.146-1.589,0.435c-0.548,0.29-1.023,0.735-1.425,1.335
		C62.934,132.534,62.733,133.056,62.607,133.683z M62.843,136.164c0.167,0.627,0.393,1.055,0.677,1.284
		c0.285,0.229,0.69,0.345,1.218,0.345c0.527,0,0.933-0.139,1.217-0.415s0.427-0.652,0.427-1.128c0-0.542-0.163-0.994-0.489-1.354
		c-0.326-0.359-0.693-0.54-1.1-0.54c-0.324,0-0.669,0.159-1.037,0.478C63.387,135.151,63.083,135.596,62.843,136.164z"/>
	<path d="M76.089,129.032v6.278c0.339,0,0.59,0.074,0.752,0.224c0.162,0.148,0.243,0.341,0.243,0.575
		c0,0.235-0.083,0.428-0.247,0.579c-0.165,0.151-0.414,0.228-0.748,0.228v0.642c0.339,0,0.59,0.076,0.752,0.228
		c0.162,0.151,0.243,0.344,0.243,0.579s-0.083,0.427-0.247,0.575c-0.165,0.149-0.44,0.224-0.826,0.224h-2.153
		c-0.387,0-0.662-0.074-0.826-0.224c-0.165-0.148-0.247-0.343-0.247-0.583c0-0.235,0.082-0.427,0.247-0.575
		c0.165-0.149,0.439-0.224,0.826-0.224h0.626v-0.642h-4.361v-1.339l3.844-6.545H76.089z M74.484,135.311v-3.945l-2.325,3.945H74.484
		z"/>
</g>
<g>
	<path d="M21.034,128.773v8.784h1.621c0.386,0,0.662,0.074,0.826,0.224c0.165,0.148,0.247,0.343,0.247,0.583
		c0,0.235-0.082,0.427-0.247,0.575c-0.164,0.149-0.439,0.224-0.826,0.224h-4.846c-0.387,0-0.662-0.074-0.826-0.224
		c-0.165-0.148-0.247-0.343-0.247-0.583c0-0.235,0.082-0.427,0.247-0.575c0.165-0.149,0.439-0.224,0.826-0.224h1.621v-6.693
		l-1.433,0.375c-0.229,0.063-0.402,0.095-0.517,0.095c-0.204,0-0.38-0.081-0.528-0.243c-0.149-0.162-0.223-0.36-0.223-0.595
		c0-0.214,0.055-0.383,0.165-0.505c0.109-0.123,0.339-0.231,0.689-0.325L21.034,128.773z"/>
	<path d="M28.338,137.558h3.515c0.193-0.156,0.376-0.234,0.548-0.234c0.246,0,0.44,0.081,0.583,0.242
		c0.144,0.162,0.215,0.438,0.215,0.83v0.768h-7.312v-1.699c2.892-2.385,4.637-3.92,5.238-4.604c0.303-0.35,0.454-0.682,0.454-0.994
		c0-0.392-0.171-0.737-0.513-1.038c-0.342-0.3-0.797-0.45-1.366-0.45c-0.574,0-1.052,0.168-1.433,0.502
		c-0.198,0.177-0.357,0.44-0.478,0.79c-0.073,0.22-0.173,0.376-0.301,0.47c-0.128,0.095-0.286,0.142-0.474,0.142
		c-0.219,0-0.409-0.079-0.568-0.235s-0.239-0.339-0.239-0.548c0-0.313,0.145-0.705,0.435-1.175s0.712-0.845,1.269-1.127
		c0.556-0.282,1.16-0.423,1.812-0.423c1.012,0,1.842,0.307,2.49,0.92c0.647,0.613,0.971,1.355,0.971,2.228
		c0,0.443-0.093,0.854-0.278,1.233c-0.186,0.378-0.63,0.901-1.335,1.569C31.019,135.251,29.94,136.195,28.338,137.558z"/>
	<path d="M41.734,134.035c0.412,0.318,0.722,0.68,0.928,1.084s0.309,0.85,0.309,1.335c0,0.537-0.132,1.032-0.395,1.483
		c-0.264,0.451-0.677,0.808-1.241,1.068c-0.563,0.262-1.19,0.392-1.879,0.392s-1.31-0.13-1.863-0.392
		c-0.553-0.261-0.962-0.618-1.225-1.072c-0.264-0.454-0.396-0.947-0.396-1.479c0-0.485,0.103-0.931,0.309-1.335
		s0.516-0.766,0.928-1.084c-0.36-0.334-0.631-0.689-0.814-1.065c-0.183-0.376-0.274-0.772-0.274-1.189
		c0-0.819,0.313-1.525,0.94-2.118c0.626-0.593,1.43-0.889,2.411-0.889s1.785,0.296,2.412,0.889c0.626,0.593,0.939,1.299,0.939,2.118
		c0,0.422-0.09,0.821-0.27,1.197C42.372,133.354,42.099,133.706,41.734,134.035z M41.366,136.532c0-0.423-0.181-0.805-0.544-1.147
		c-0.363-0.342-0.813-0.513-1.351-0.513s-0.988,0.171-1.351,0.513c-0.363,0.343-0.544,0.729-0.544,1.163
		c0,0.334,0.157,0.625,0.47,0.873s0.788,0.372,1.425,0.372c0.642,0,1.118-0.124,1.429-0.372S41.366,136.877,41.366,136.532z
		 M41.178,131.812c0-0.396-0.156-0.735-0.466-1.015c-0.311-0.278-0.729-0.419-1.257-0.419c-0.532,0-0.954,0.141-1.264,0.419
		c-0.311,0.279-0.466,0.618-0.466,1.015c0,0.401,0.155,0.742,0.466,1.021c0.31,0.279,0.732,0.419,1.264,0.419
		c0.527,0,0.946-0.14,1.257-0.419C41.022,132.554,41.178,132.213,41.178,131.812z"/>
</g>
<rect x="363.912" y="82.853" fill="#FFFFFF" stroke="#000000" stroke-width="4" stroke-miterlimit="10" width="39.088" height="39.088"/>
<g>
	<path d="M384.68,94.654v13.148h2.426c0.578,0,0.99,0.111,1.236,0.334s0.369,0.514,0.369,0.873c0,0.352-0.123,0.639-0.369,0.861
		s-0.658,0.334-1.236,0.334h-7.254c-0.578,0-0.99-0.111-1.236-0.334s-0.369-0.514-0.369-0.873c0-0.352,0.123-0.639,0.369-0.861
		s0.658-0.334,1.236-0.334h2.426v-10.02l-2.145,0.562c-0.344,0.094-0.602,0.141-0.773,0.141c-0.305,0-0.568-0.121-0.791-0.363
		s-0.334-0.539-0.334-0.891c0-0.32,0.082-0.572,0.246-0.756s0.508-0.346,1.031-0.486L384.68,94.654z"/>
</g>
<g>
	<path d="M348.605,102.307H338.34c-0.578,0-0.99-0.111-1.236-0.334s-0.369-0.514-0.369-0.873c0-0.352,0.123-0.639,0.369-0.861
		s0.658-0.334,1.236-0.334h10.266c0.578,0,0.99,0.111,1.236,0.334s0.369,0.514,0.369,0.873c0,0.352-0.123,0.639-0.369,0.861
		S349.184,102.307,348.605,102.307z M348.605,106.83H338.34c-0.578,0-0.99-0.109-1.236-0.328s-0.369-0.508-0.369-0.867
		s0.123-0.65,0.369-0.873s0.658-0.334,1.236-0.334h10.266c0.578,0,0.99,0.111,1.236,0.334s0.369,0.514,0.369,0.873
		s-0.123,0.648-0.369,0.867S349.184,106.83,348.605,106.83z"/>
</g>
<g>
	
		<rect x="10.293" y="154.854" fill="#FFFFFF" stroke="#000000" stroke-width="4" stroke-miterlimit="10" width="39.088" height="39.088"/>
	
		<rect x="49.382" y="154.854" fill="#FFFFFF" stroke="#000000" stroke-width="4" stroke-miterlimit="10" width="39.088" height="39.088"/>
	
		<rect x="88.47" y="154.854" fill="#FFFFFF" stroke="#000000" stroke-width="4" stroke-miterlimit="10" width="39.088" height="39.088"/>
	
		<rect x="127.559" y="154.854" fill="#FFFFFF" stroke="#000000" stroke-width="4" stroke-miterlimit="10" width="39.088" height="39.088"/>
	
		<rect x="166.646" y="154.854" fill="#FFFFFF" stroke="#000000" stroke-width="4" stroke-miterlimit="10" width="39.088" height="39.088"/>
	
		<rect x="205.735" y="154.854" fill="#FFFFFF" stroke="#000000" stroke-width="4" stroke-miterlimit="10" width="39.088" height="39.088"/>
	
		<rect x="244.823" y="154.854" fill="#FFFFFF" stroke="#000000" stroke-width="4" stroke-miterlimit="10" width="39.089" height="39.088"/>
	
		<rect x="283.912" y="154.854" fill="#FFFFFF" stroke="#000000" stroke-width="4" stroke-miterlimit="10" width="39.088" height="39.088"/>
	<rect x="249.61" y="159.639" width="29.515" height="29.516"/>
	<g>
		<path d="M304.273,200.773v8.784h1.621c0.386,0,0.661,0.074,0.826,0.224c0.164,0.148,0.246,0.343,0.246,0.583
			c0,0.235-0.082,0.427-0.246,0.575c-0.165,0.149-0.44,0.224-0.826,0.224h-4.847c-0.386,0-0.661-0.074-0.826-0.224
			c-0.164-0.148-0.246-0.343-0.246-0.583c0-0.235,0.082-0.427,0.246-0.575c0.165-0.149,0.44-0.224,0.826-0.224h1.621v-6.693
			l-1.433,0.375c-0.23,0.063-0.402,0.095-0.517,0.095c-0.204,0-0.38-0.081-0.529-0.243c-0.148-0.162-0.223-0.36-0.223-0.595
			c0-0.214,0.055-0.383,0.164-0.505c0.11-0.123,0.34-0.231,0.689-0.325L304.273,200.773z"/>
	</g>
	<g>
		<path d="M263.269,209.558h3.516c0.193-0.156,0.376-0.234,0.548-0.234c0.245,0,0.439,0.081,0.583,0.242
			c0.144,0.162,0.216,0.438,0.216,0.83v0.768h-7.312v-1.699c2.892-2.385,4.638-3.92,5.237-4.604c0.303-0.35,0.454-0.682,0.454-0.994
			c0-0.392-0.171-0.737-0.513-1.038c-0.342-0.3-0.797-0.45-1.366-0.45c-0.574,0-1.052,0.168-1.433,0.502
			c-0.198,0.177-0.357,0.44-0.478,0.79c-0.073,0.22-0.174,0.376-0.302,0.47c-0.128,0.095-0.285,0.142-0.474,0.142
			c-0.219,0-0.408-0.079-0.567-0.235s-0.238-0.339-0.238-0.548c0-0.313,0.145-0.705,0.435-1.175c0.289-0.47,0.712-0.845,1.268-1.127
			c0.557-0.282,1.16-0.423,1.812-0.423c1.013,0,1.843,0.307,2.49,0.92c0.646,0.613,0.971,1.355,0.971,2.228
			c0,0.443-0.093,0.854-0.278,1.233c-0.186,0.378-0.63,0.901-1.335,1.569C265.949,207.251,264.871,208.195,263.269,209.558z"/>
	</g>
	<g>
		<path d="M227.631,201.032v6.278c0.339,0,0.59,0.074,0.752,0.224c0.162,0.148,0.243,0.341,0.243,0.575
			c0,0.235-0.083,0.428-0.247,0.579c-0.165,0.151-0.414,0.228-0.748,0.228v0.642c0.339,0,0.59,0.076,0.752,0.228
			c0.162,0.151,0.243,0.344,0.243,0.579s-0.083,0.427-0.247,0.575c-0.165,0.149-0.44,0.224-0.826,0.224H225.4
			c-0.387,0-0.662-0.074-0.826-0.224c-0.165-0.148-0.247-0.343-0.247-0.583c0-0.235,0.082-0.427,0.247-0.575
			c0.165-0.149,0.439-0.224,0.826-0.224h0.626v-0.642h-4.361v-1.339l3.844-6.545H227.631z M226.026,207.311v-3.945l-2.325,3.945
			H226.026z"/>
	</g>
	<g>
		<path d="M187.467,206.035c0.412,0.318,0.722,0.68,0.928,1.084s0.309,0.85,0.309,1.335c0,0.537-0.132,1.032-0.395,1.483
			c-0.264,0.451-0.677,0.808-1.241,1.068c-0.563,0.262-1.19,0.392-1.879,0.392s-1.31-0.13-1.863-0.392
			c-0.553-0.261-0.962-0.618-1.225-1.072c-0.264-0.454-0.396-0.947-0.396-1.479c0-0.485,0.103-0.931,0.309-1.335
			s0.516-0.766,0.928-1.084c-0.36-0.334-0.631-0.689-0.814-1.065c-0.183-0.376-0.274-0.772-0.274-1.189
			c0-0.819,0.313-1.525,0.94-2.118c0.626-0.593,1.43-0.889,2.411-0.889s1.785,0.296,2.412,0.889
			c0.626,0.593,0.939,1.299,0.939,2.118c0,0.422-0.09,0.821-0.27,1.197C188.105,205.354,187.833,205.706,187.467,206.035z
			 M187.099,208.532c0-0.423-0.181-0.805-0.544-1.147c-0.363-0.342-0.813-0.513-1.351-0.513s-0.988,0.171-1.351,0.513
			c-0.363,0.343-0.544,0.729-0.544,1.163c0,0.334,0.157,0.625,0.47,0.873s0.788,0.372,1.425,0.372c0.642,0,1.118-0.124,1.429-0.372
			S187.099,208.877,187.099,208.532z M186.912,203.812c0-0.396-0.156-0.735-0.466-1.015c-0.311-0.278-0.729-0.419-1.257-0.419
			c-0.532,0-0.954,0.141-1.264,0.419c-0.311,0.279-0.466,0.618-0.466,1.015c0,0.401,0.155,0.742,0.466,1.021
			c0.31,0.279,0.732,0.419,1.264,0.419c0.527,0,0.946-0.14,1.257-0.419C186.756,204.554,186.912,204.213,186.912,203.812z"/>
	</g>
	<g>
		<path d="M143.109,200.773v8.784h1.621c0.386,0,0.662,0.074,0.826,0.224c0.165,0.148,0.247,0.343,0.247,0.583
			c0,0.235-0.082,0.427-0.247,0.575c-0.164,0.149-0.439,0.224-0.826,0.224h-4.846c-0.387,0-0.662-0.074-0.826-0.224
			c-0.165-0.148-0.247-0.343-0.247-0.583c0-0.235,0.082-0.427,0.247-0.575c0.165-0.149,0.439-0.224,0.826-0.224h1.621v-6.693
			l-1.433,0.375c-0.229,0.063-0.402,0.095-0.517,0.095c-0.204,0-0.38-0.081-0.528-0.243c-0.149-0.162-0.223-0.36-0.223-0.595
			c0-0.214,0.055-0.383,0.165-0.505c0.109-0.123,0.339-0.231,0.689-0.325L143.109,200.773z"/>
		<path d="M150.406,205.683c0.386-0.324,0.754-0.56,1.104-0.709c0.35-0.148,0.723-0.223,1.12-0.223c0.84,0,1.576,0.334,2.208,1.002
			c0.631,0.668,0.947,1.506,0.947,2.513c0,0.935-0.293,1.69-0.881,2.267c-0.587,0.577-1.384,0.865-2.392,0.865
			c-0.84,0-1.532-0.195-2.075-0.587c-0.543-0.392-0.953-0.994-1.229-1.809c-0.276-0.814-0.415-1.723-0.415-2.725
			c0-1.2,0.274-2.198,0.822-2.995c0.548-0.796,1.192-1.413,1.934-1.852s1.524-0.657,2.349-0.657c0.652,0,1.159,0.128,1.519,0.384
			c0.235,0.172,0.353,0.392,0.353,0.657c0,0.235-0.078,0.433-0.235,0.592s-0.345,0.238-0.564,0.238c-0.125,0-0.305-0.062-0.54-0.188
			c-0.141-0.073-0.277-0.11-0.407-0.11c-0.511,0-1.041,0.146-1.589,0.435c-0.548,0.29-1.023,0.735-1.425,1.335
			C150.732,204.534,150.531,205.056,150.406,205.683z M150.641,208.164c0.167,0.627,0.393,1.055,0.677,1.284
			c0.285,0.229,0.69,0.345,1.218,0.345c0.527,0,0.933-0.139,1.217-0.415s0.427-0.652,0.427-1.128c0-0.542-0.163-0.994-0.489-1.354
			c-0.326-0.359-0.693-0.54-1.1-0.54c-0.324,0-0.669,0.159-1.037,0.478C151.185,207.151,150.881,207.596,150.641,208.164z"/>
	</g>
	<g>
		<path d="M105.493,205.8c0.475,0.323,0.83,0.698,1.065,1.123c0.235,0.426,0.352,0.902,0.352,1.43c0,0.568-0.155,1.095-0.466,1.577
			s-0.761,0.849-1.351,1.096c-0.59,0.248-1.362,0.372-2.317,0.372c-1.242,0-2.176-0.193-2.803-0.579
			c-0.35-0.219-0.524-0.48-0.524-0.783c0-0.229,0.077-0.424,0.231-0.583c0.154-0.159,0.34-0.239,0.56-0.239
			c0.151,0,0.308,0.053,0.47,0.157c0.229,0.156,0.446,0.261,0.65,0.313c0.313,0.072,0.744,0.109,1.292,0.109
			c0.934,0,1.61-0.122,2.028-0.364c0.417-0.243,0.626-0.586,0.626-1.029c0-0.329-0.121-0.646-0.364-0.951
			c-0.243-0.306-0.568-0.542-0.975-0.709c-0.235-0.094-0.631-0.159-1.19-0.195c-0.266-0.016-0.471-0.099-0.614-0.247
			c-0.144-0.148-0.215-0.333-0.215-0.552c0-0.229,0.078-0.423,0.235-0.579c0.156-0.157,0.354-0.235,0.595-0.235
			c0.533,0,0.817-0.003,0.854-0.008c0.208-0.021,0.417-0.089,0.626-0.203c0.208-0.115,0.377-0.273,0.505-0.474
			c0.128-0.201,0.192-0.409,0.192-0.623c0-0.339-0.15-0.633-0.45-0.881c-0.3-0.248-0.75-0.372-1.351-0.372
			c-0.772,0-1.362,0.225-1.77,0.674c-0.12,0.131-0.217,0.214-0.29,0.251c-0.11,0.057-0.232,0.086-0.368,0.086
			c-0.219,0-0.407-0.078-0.563-0.235c-0.157-0.156-0.235-0.35-0.235-0.579c0-0.36,0.24-0.71,0.72-1.049
			c0.699-0.496,1.574-0.744,2.623-0.744c0.992,0,1.788,0.282,2.388,0.846c0.6,0.563,0.9,1.242,0.9,2.035
			c0,0.413-0.089,0.798-0.266,1.155C106.114,205.167,105.848,205.497,105.493,205.8z"/>
		<path d="M111.326,209.558h3.515c0.193-0.156,0.376-0.234,0.548-0.234c0.246,0,0.44,0.081,0.583,0.242
			c0.144,0.162,0.215,0.438,0.215,0.83v0.768h-7.312v-1.699c2.892-2.385,4.637-3.92,5.238-4.604c0.303-0.35,0.454-0.682,0.454-0.994
			c0-0.392-0.171-0.737-0.513-1.038c-0.342-0.3-0.797-0.45-1.366-0.45c-0.574,0-1.052,0.168-1.433,0.502
			c-0.198,0.177-0.357,0.44-0.478,0.79c-0.073,0.22-0.173,0.376-0.301,0.47c-0.128,0.095-0.286,0.142-0.474,0.142
			c-0.219,0-0.409-0.079-0.568-0.235s-0.239-0.339-0.239-0.548c0-0.313,0.145-0.705,0.435-1.175s0.712-0.845,1.269-1.127
			c0.556-0.282,1.16-0.423,1.812-0.423c1.012,0,1.842,0.307,2.49,0.92c0.647,0.613,0.971,1.355,0.971,2.228
			c0,0.443-0.093,0.854-0.278,1.233c-0.186,0.378-0.63,0.901-1.335,1.569C114.006,207.251,112.928,208.195,111.326,209.558z"/>
	</g>
	<g>
		<path d="M62.607,205.683c0.386-0.324,0.754-0.56,1.104-0.709c0.35-0.148,0.723-0.223,1.12-0.223c0.84,0,1.576,0.334,2.208,1.002
			c0.631,0.668,0.947,1.506,0.947,2.513c0,0.935-0.293,1.69-0.881,2.267c-0.587,0.577-1.384,0.865-2.392,0.865
			c-0.84,0-1.532-0.195-2.075-0.587c-0.543-0.392-0.953-0.994-1.229-1.809c-0.276-0.814-0.415-1.723-0.415-2.725
			c0-1.2,0.274-2.198,0.822-2.995c0.548-0.796,1.192-1.413,1.934-1.852s1.524-0.657,2.349-0.657c0.652,0,1.159,0.128,1.519,0.384
			c0.235,0.172,0.353,0.392,0.353,0.657c0,0.235-0.078,0.433-0.235,0.592s-0.345,0.238-0.564,0.238c-0.125,0-0.305-0.062-0.54-0.188
			c-0.141-0.073-0.277-0.11-0.407-0.11c-0.511,0-1.041,0.146-1.589,0.435c-0.548,0.29-1.023,0.735-1.425,1.335
			C62.934,204.534,62.733,205.056,62.607,205.683z M62.843,208.164c0.167,0.627,0.393,1.055,0.677,1.284
			c0.285,0.229,0.69,0.345,1.218,0.345c0.527,0,0.933-0.139,1.217-0.415s0.427-0.652,0.427-1.128c0-0.542-0.163-0.994-0.489-1.354
			c-0.326-0.359-0.693-0.54-1.1-0.54c-0.324,0-0.669,0.159-1.037,0.478C63.387,207.151,63.083,207.596,62.843,208.164z"/>
		<path d="M76.089,201.032v6.278c0.339,0,0.59,0.074,0.752,0.224c0.162,0.148,0.243,0.341,0.243,0.575
			c0,0.235-0.083,0.428-0.247,0.579c-0.165,0.151-0.414,0.228-0.748,0.228v0.642c0.339,0,0.59,0.076,0.752,0.228
			c0.162,0.151,0.243,0.344,0.243,0.579s-0.083,0.427-0.247,0.575c-0.165,0.149-0.44,0.224-0.826,0.224h-2.153
			c-0.387,0-0.662-0.074-0.826-0.224c-0.165-0.148-0.247-0.343-0.247-0.583c0-0.235,0.082-0.427,0.247-0.575
			c0.165-0.149,0.439-0.224,0.826-0.224h0.626v-0.642h-4.361v-1.339l3.844-6.545H76.089z M74.484,207.311v-3.945l-2.325,3.945
			H74.484z"/>
	</g>
	<g>
		<path d="M21.034,200.773v8.784h1.621c0.386,0,0.662,0.074,0.826,0.224c0.165,0.148,0.247,0.343,0.247,0.583
			c0,0.235-0.082,0.427-0.247,0.575c-0.164,0.149-0.439,0.224-0.826,0.224h-4.846c-0.387,0-0.662-0.074-0.826-0.224
			c-0.165-0.148-0.247-0.343-0.247-0.583c0-0.235,0.082-0.427,0.247-0.575c0.165-0.149,0.439-0.224,0.826-0.224h1.621v-6.693
			l-1.433,0.375c-0.229,0.063-0.402,0.095-0.517,0.095c-0.204,0-0.38-0.081-0.528-0.243c-0.149-0.162-0.223-0.36-0.223-0.595
			c0-0.214,0.055-0.383,0.165-0.505c0.109-0.123,0.339-0.231,0.689-0.325L21.034,200.773z"/>
		<path d="M28.338,209.558h3.515c0.193-0.156,0.376-0.234,0.548-0.234c0.246,0,0.44,0.081,0.583,0.242
			c0.144,0.162,0.215,0.438,0.215,0.83v0.768h-7.312v-1.699c2.892-2.385,4.637-3.92,5.238-4.604c0.303-0.35,0.454-0.682,0.454-0.994
			c0-0.392-0.171-0.737-0.513-1.038c-0.342-0.3-0.797-0.45-1.366-0.45c-0.574,0-1.052,0.168-1.433,0.502
			c-0.198,0.177-0.357,0.44-0.478,0.79c-0.073,0.22-0.173,0.376-0.301,0.47c-0.128,0.095-0.286,0.142-0.474,0.142
			c-0.219,0-0.409-0.079-0.568-0.235s-0.239-0.339-0.239-0.548c0-0.313,0.145-0.705,0.435-1.175s0.712-0.845,1.269-1.127
			c0.556-0.282,1.16-0.423,1.812-0.423c1.012,0,1.842,0.307,2.49,0.92c0.647,0.613,0.971,1.355,0.971,2.228
			c0,0.443-0.093,0.854-0.278,1.233c-0.186,0.378-0.63,0.901-1.335,1.569C31.019,207.251,29.94,208.195,28.338,209.558z"/>
		<path d="M41.734,206.035c0.412,0.318,0.722,0.68,0.928,1.084s0.309,0.85,0.309,1.335c0,0.537-0.132,1.032-0.395,1.483
			c-0.264,0.451-0.677,0.808-1.241,1.068c-0.563,0.262-1.19,0.392-1.879,0.392s-1.31-0.13-1.863-0.392
			c-0.553-0.261-0.962-0.618-1.225-1.072c-0.264-0.454-0.396-0.947-0.396-1.479c0-0.485,0.103-0.931,0.309-1.335
			s0.516-0.766,0.928-1.084c-0.36-0.334-0.631-0.689-0.814-1.065c-0.183-0.376-0.274-0.772-0.274-1.189
			c0-0.819,0.313-1.525,0.94-2.118c0.626-0.593,1.43-0.889,2.411-0.889s1.785,0.296,2.412,0.889
			c0.626,0.593,0.939,1.299,0.939,2.118c0,0.422-0.09,0.821-0.27,1.197C42.372,205.354,42.099,205.706,41.734,206.035z
			 M41.366,208.532c0-0.423-0.181-0.805-0.544-1.147c-0.363-0.342-0.813-0.513-1.351-0.513s-0.988,0.171-1.351,0.513
			c-0.363,0.343-0.544,0.729-0.544,1.163c0,0.334,0.157,0.625,0.47,0.873s0.788,0.372,1.425,0.372c0.642,0,1.118-0.124,1.429-0.372
			S41.366,208.877,41.366,208.532z M41.178,203.812c0-0.396-0.156-0.735-0.466-1.015c-0.311-0.278-0.729-0.419-1.257-0.419
			c-0.532,0-0.954,0.141-1.264,0.419c-0.311,0.279-0.466,0.618-0.466,1.015c0,0.401,0.155,0.742,0.466,1.021
			c0.31,0.279,0.732,0.419,1.264,0.419c0.527,0,0.946-0.14,1.257-0.419C41.022,204.554,41.178,204.213,41.178,203.812z"/>
	</g>
	
		<rect x="363.912" y="154.854" fill="#FFFFFF" stroke="#000000" stroke-width="4" stroke-miterlimit="10" width="39.088" height="39.088"/>
	<g>
		<path d="M381.211,179.803h5.262c0.289-0.234,0.562-0.352,0.82-0.352c0.367,0,0.658,0.121,0.873,0.363s0.322,0.656,0.322,1.242
			v1.148h-10.945v-2.543c4.328-3.57,6.941-5.867,7.84-6.891c0.453-0.523,0.68-1.02,0.68-1.488c0-0.586-0.256-1.104-0.768-1.553
			s-1.193-0.674-2.045-0.674c-0.859,0-1.574,0.25-2.145,0.75c-0.297,0.266-0.535,0.66-0.715,1.184
			c-0.109,0.328-0.26,0.562-0.451,0.703s-0.428,0.211-0.709,0.211c-0.328,0-0.611-0.117-0.85-0.352s-0.357-0.508-0.357-0.82
			c0-0.469,0.217-1.055,0.65-1.758s1.066-1.266,1.898-1.688s1.736-0.633,2.713-0.633c1.516,0,2.758,0.459,3.727,1.377
			s1.453,2.029,1.453,3.334c0,0.664-0.139,1.279-0.416,1.846s-0.943,1.35-1.998,2.35
			C385.223,176.35,383.609,177.764,381.211,179.803z"/>
	</g>
	<g>
		<path d="M348.605,174.307H338.34c-0.578,0-0.99-0.111-1.236-0.334s-0.369-0.514-0.369-0.873c0-0.352,0.123-0.639,0.369-0.861
			s0.658-0.334,1.236-0.334h10.266c0.578,0,0.99,0.111,1.236,0.334s0.369,0.514,0.369,0.873c0,0.352-0.123,0.639-0.369,0.861
			S349.184,174.307,348.605,174.307z M348.605,178.83H338.34c-0.578,0-0.99-0.109-1.236-0.328s-0.369-0.508-0.369-0.867
			s0.123-0.65,0.369-0.873s0.658-0.334,1.236-0.334h10.266c0.578,0,0.99,0.111,1.236,0.334s0.369,0.514,0.369,0.873
			s-0.123,0.648-0.369,0.867S349.184,178.83,348.605,178.83z"/>
	</g>
</g>
<g>
	
		<rect x="10.293" y="226.854" fill="#FFFFFF" stroke="#000000" stroke-width="4" stroke-miterlimit="10" width="39.088" height="39.088"/>
	
		<rect x="49.382" y="226.854" fill="#FFFFFF" stroke="#000000" stroke-width="4" stroke-miterlimit="10" width="39.088" height="39.088"/>
	
		<rect x="88.47" y="226.854" fill="#FFFFFF" stroke="#000000" stroke-width="4" stroke-miterlimit="10" width="39.088" height="39.088"/>
	
		<rect x="127.559" y="226.854" fill="#FFFFFF" stroke="#000000" stroke-width="4" stroke-miterlimit="10" width="39.088" height="39.088"/>
	
		<rect x="166.646" y="226.854" fill="#FFFFFF" stroke="#000000" stroke-width="4" stroke-miterlimit="10" width="39.088" height="39.088"/>
	
		<rect x="205.735" y="226.854" fill="#FFFFFF" stroke="#000000" stroke-width="4" stroke-miterlimit="10" width="39.088" height="39.088"/>
	
		<rect x="244.823" y="226.854" fill="#FFFFFF" stroke="#000000" stroke-width="4" stroke-miterlimit="10" width="39.089" height="39.088"/>
	
		<rect x="283.912" y="226.854" fill="#FFFFFF" stroke="#000000" stroke-width="4" stroke-miterlimit="10" width="39.088" height="39.088"/>
	<rect x="249.61" y="231.639" width="29.515" height="29.516"/>
	<g>
		<path d="M304.273,272.773v8.784h1.621c0.386,0,0.661,0.074,0.826,0.224c0.164,0.148,0.246,0.343,0.246,0.583
			c0,0.235-0.082,0.427-0.246,0.575c-0.165,0.149-0.44,0.224-0.826,0.224h-4.847c-0.386,0-0.661-0.074-0.826-0.224
			c-0.164-0.148-0.246-0.343-0.246-0.583c0-0.235,0.082-0.427,0.246-0.575c0.165-0.149,0.44-0.224,0.826-0.224h1.621v-6.693
			l-1.433,0.375c-0.23,0.063-0.402,0.095-0.517,0.095c-0.204,0-0.38-0.081-0.529-0.243c-0.148-0.162-0.223-0.36-0.223-0.595
			c0-0.214,0.055-0.383,0.164-0.505c0.11-0.123,0.34-0.231,0.689-0.325L304.273,272.773z"/>
	</g>
	<g>
		<path d="M263.269,281.558h3.516c0.193-0.156,0.376-0.234,0.548-0.234c0.245,0,0.439,0.081,0.583,0.242
			c0.144,0.162,0.216,0.438,0.216,0.83v0.768h-7.312v-1.699c2.892-2.385,4.638-3.92,5.237-4.604c0.303-0.35,0.454-0.682,0.454-0.994
			c0-0.392-0.171-0.737-0.513-1.038c-0.342-0.3-0.797-0.45-1.366-0.45c-0.574,0-1.052,0.168-1.433,0.502
			c-0.198,0.177-0.357,0.44-0.478,0.79c-0.073,0.22-0.174,0.376-0.302,0.47c-0.128,0.095-0.285,0.142-0.474,0.142
			c-0.219,0-0.408-0.079-0.567-0.235s-0.238-0.339-0.238-0.548c0-0.313,0.145-0.705,0.435-1.175c0.289-0.47,0.712-0.845,1.268-1.127
			c0.557-0.282,1.16-0.423,1.812-0.423c1.013,0,1.843,0.307,2.49,0.92c0.646,0.613,0.971,1.355,0.971,2.228
			c0,0.443-0.093,0.854-0.278,1.233c-0.186,0.378-0.63,0.901-1.335,1.569C265.949,279.251,264.871,280.195,263.269,281.558z"/>
	</g>
	<g>
		<path d="M227.631,273.032v6.278c0.339,0,0.59,0.074,0.752,0.224c0.162,0.148,0.243,0.341,0.243,0.575
			c0,0.235-0.083,0.428-0.247,0.579c-0.165,0.151-0.414,0.228-0.748,0.228v0.642c0.339,0,0.59,0.076,0.752,0.228
			c0.162,0.151,0.243,0.344,0.243,0.579s-0.083,0.427-0.247,0.575c-0.165,0.149-0.44,0.224-0.826,0.224H225.4
			c-0.387,0-0.662-0.074-0.826-0.224c-0.165-0.148-0.247-0.343-0.247-0.583c0-0.235,0.082-0.427,0.247-0.575
			c0.165-0.149,0.439-0.224,0.826-0.224h0.626v-0.642h-4.361v-1.339l3.844-6.545H227.631z M226.026,279.311v-3.945l-2.325,3.945
			H226.026z"/>
	</g>
	<g>
		<path d="M187.467,278.035c0.412,0.318,0.722,0.68,0.928,1.084s0.309,0.85,0.309,1.335c0,0.537-0.132,1.032-0.395,1.483
			c-0.264,0.451-0.677,0.808-1.241,1.068c-0.563,0.262-1.19,0.392-1.879,0.392s-1.31-0.13-1.863-0.392
			c-0.553-0.261-0.962-0.618-1.225-1.072c-0.264-0.454-0.396-0.947-0.396-1.479c0-0.485,0.103-0.931,0.309-1.335
			s0.516-0.766,0.928-1.084c-0.36-0.334-0.631-0.689-0.814-1.065c-0.183-0.376-0.274-0.772-0.274-1.189
			c0-0.819,0.313-1.525,0.94-2.118c0.626-0.593,1.43-0.889,2.411-0.889s1.785,0.296,2.412,0.889
			c0.626,0.593,0.939,1.299,0.939,2.118c0,0.422-0.09,0.821-0.27,1.197C188.105,277.354,187.833,277.706,187.467,278.035z
			 M187.099,280.532c0-0.423-0.181-0.805-0.544-1.147c-0.363-0.342-0.813-0.513-1.351-0.513s-0.988,0.171-1.351,0.513
			c-0.363,0.343-0.544,0.729-0.544,1.163c0,0.334,0.157,0.625,0.47,0.873s0.788,0.372,1.425,0.372c0.642,0,1.118-0.124,1.429-0.372
			S187.099,280.877,187.099,280.532z M186.912,275.812c0-0.396-0.156-0.735-0.466-1.015c-0.311-0.278-0.729-0.419-1.257-0.419
			c-0.532,0-0.954,0.141-1.264,0.419c-0.311,0.279-0.466,0.618-0.466,1.015c0,0.401,0.155,0.742,0.466,1.021
			c0.31,0.279,0.732,0.419,1.264,0.419c0.527,0,0.946-0.14,1.257-0.419C186.756,276.554,186.912,276.213,186.912,275.812z"/>
	</g>
	<g>
		<path d="M143.109,272.773v8.784h1.621c0.386,0,0.662,0.074,0.826,0.224c0.165,0.148,0.247,0.343,0.247,0.583
			c0,0.235-0.082,0.427-0.247,0.575c-0.164,0.149-0.439,0.224-0.826,0.224h-4.846c-0.387,0-0.662-0.074-0.826-0.224
			c-0.165-0.148-0.247-0.343-0.247-0.583c0-0.235,0.082-0.427,0.247-0.575c0.165-0.149,0.439-0.224,0.826-0.224h1.621v-6.693
			l-1.433,0.375c-0.229,0.063-0.402,0.095-0.517,0.095c-0.204,0-0.38-0.081-0.528-0.243c-0.149-0.162-0.223-0.36-0.223-0.595
			c0-0.214,0.055-0.383,0.165-0.505c0.109-0.123,0.339-0.231,0.689-0.325L143.109,272.773z"/>
		<path d="M150.406,277.683c0.386-0.324,0.754-0.56,1.104-0.709c0.35-0.148,0.723-0.223,1.12-0.223c0.84,0,1.576,0.334,2.208,1.002
			c0.631,0.668,0.947,1.506,0.947,2.513c0,0.935-0.293,1.69-0.881,2.267c-0.587,0.577-1.384,0.865-2.392,0.865
			c-0.84,0-1.532-0.195-2.075-0.587c-0.543-0.392-0.953-0.994-1.229-1.809c-0.276-0.814-0.415-1.723-0.415-2.725
			c0-1.2,0.274-2.198,0.822-2.995c0.548-0.796,1.192-1.413,1.934-1.852s1.524-0.657,2.349-0.657c0.652,0,1.159,0.128,1.519,0.384
			c0.235,0.172,0.353,0.392,0.353,0.657c0,0.235-0.078,0.433-0.235,0.592s-0.345,0.238-0.564,0.238c-0.125,0-0.305-0.062-0.54-0.188
			c-0.141-0.073-0.277-0.11-0.407-0.11c-0.511,0-1.041,0.146-1.589,0.435c-0.548,0.29-1.023,0.735-1.425,1.335
			C150.732,276.534,150.531,277.056,150.406,277.683z M150.641,280.164c0.167,0.627,0.393,1.055,0.677,1.284
			c0.285,0.229,0.69,0.345,1.218,0.345c0.527,0,0.933-0.139,1.217-0.415s0.427-0.652,0.427-1.128c0-0.542-0.163-0.994-0.489-1.354
			c-0.326-0.359-0.693-0.54-1.1-0.54c-0.324,0-0.669,0.159-1.037,0.478C151.185,279.151,150.881,279.596,150.641,280.164z"/>
	</g>
	<g>
		<path d="M105.493,277.8c0.475,0.323,0.83,0.698,1.065,1.123c0.235,0.426,0.352,0.902,0.352,1.43c0,0.568-0.155,1.095-0.466,1.577
			s-0.761,0.849-1.351,1.096c-0.59,0.248-1.362,0.372-2.317,0.372c-1.242,0-2.176-0.193-2.803-0.579
			c-0.35-0.219-0.524-0.48-0.524-0.783c0-0.229,0.077-0.424,0.231-0.583c0.154-0.159,0.34-0.239,0.56-0.239
			c0.151,0,0.308,0.053,0.47,0.157c0.229,0.156,0.446,0.261,0.65,0.313c0.313,0.072,0.744,0.109,1.292,0.109
			c0.934,0,1.61-0.122,2.028-0.364c0.417-0.243,0.626-0.586,0.626-1.029c0-0.329-0.121-0.646-0.364-0.951
			c-0.243-0.306-0.568-0.542-0.975-0.709c-0.235-0.094-0.631-0.159-1.19-0.195c-0.266-0.016-0.471-0.099-0.614-0.247
			c-0.144-0.148-0.215-0.333-0.215-0.552c0-0.229,0.078-0.423,0.235-0.579c0.156-0.157,0.354-0.235,0.595-0.235
			c0.533,0,0.817-0.003,0.854-0.008c0.208-0.021,0.417-0.089,0.626-0.203c0.208-0.115,0.377-0.273,0.505-0.474
			c0.128-0.201,0.192-0.409,0.192-0.623c0-0.339-0.15-0.633-0.45-0.881c-0.3-0.248-0.75-0.372-1.351-0.372
			c-0.772,0-1.362,0.225-1.77,0.674c-0.12,0.131-0.217,0.214-0.29,0.251c-0.11,0.057-0.232,0.086-0.368,0.086
			c-0.219,0-0.407-0.078-0.563-0.235c-0.157-0.156-0.235-0.35-0.235-0.579c0-0.36,0.24-0.71,0.72-1.049
			c0.699-0.496,1.574-0.744,2.623-0.744c0.992,0,1.788,0.282,2.388,0.846c0.6,0.563,0.9,1.242,0.9,2.035
			c0,0.413-0.089,0.798-0.266,1.155C106.114,277.167,105.848,277.497,105.493,277.8z"/>
		<path d="M111.326,281.558h3.515c0.193-0.156,0.376-0.234,0.548-0.234c0.246,0,0.44,0.081,0.583,0.242
			c0.144,0.162,0.215,0.438,0.215,0.83v0.768h-7.312v-1.699c2.892-2.385,4.637-3.92,5.238-4.604c0.303-0.35,0.454-0.682,0.454-0.994
			c0-0.392-0.171-0.737-0.513-1.038c-0.342-0.3-0.797-0.45-1.366-0.45c-0.574,0-1.052,0.168-1.433,0.502
			c-0.198,0.177-0.357,0.44-0.478,0.79c-0.073,0.22-0.173,0.376-0.301,0.47c-0.128,0.095-0.286,0.142-0.474,0.142
			c-0.219,0-0.409-0.079-0.568-0.235s-0.239-0.339-0.239-0.548c0-0.313,0.145-0.705,0.435-1.175s0.712-0.845,1.269-1.127
			c0.556-0.282,1.16-0.423,1.812-0.423c1.012,0,1.842,0.307,2.49,0.92c0.647,0.613,0.971,1.355,0.971,2.228
			c0,0.443-0.093,0.854-0.278,1.233c-0.186,0.378-0.63,0.901-1.335,1.569C114.006,279.251,112.928,280.195,111.326,281.558z"/>
	</g>
	<g>
		<path d="M62.607,277.683c0.386-0.324,0.754-0.56,1.104-0.709c0.35-0.148,0.723-0.223,1.12-0.223c0.84,0,1.576,0.334,2.208,1.002
			c0.631,0.668,0.947,1.506,0.947,2.513c0,0.935-0.293,1.69-0.881,2.267c-0.587,0.577-1.384,0.865-2.392,0.865
			c-0.84,0-1.532-0.195-2.075-0.587c-0.543-0.392-0.953-0.994-1.229-1.809c-0.276-0.814-0.415-1.723-0.415-2.725
			c0-1.2,0.274-2.198,0.822-2.995c0.548-0.796,1.192-1.413,1.934-1.852s1.524-0.657,2.349-0.657c0.652,0,1.159,0.128,1.519,0.384
			c0.235,0.172,0.353,0.392,0.353,0.657c0,0.235-0.078,0.433-0.235,0.592s-0.345,0.238-0.564,0.238c-0.125,0-0.305-0.062-0.54-0.188
			c-0.141-0.073-0.277-0.11-0.407-0.11c-0.511,0-1.041,0.146-1.589,0.435c-0.548,0.29-1.023,0.735-1.425,1.335
			C62.934,276.534,62.733,277.056,62.607,277.683z M62.843,280.164c0.167,0.627,0.393,1.055,0.677,1.284
			c0.285,0.229,0.69,0.345,1.218,0.345c0.527,0,0.933-0.139,1.217-0.415s0.427-0.652,0.427-1.128c0-0.542-0.163-0.994-0.489-1.354
			c-0.326-0.359-0.693-0.54-1.1-0.54c-0.324,0-0.669,0.159-1.037,0.478C63.387,279.151,63.083,279.596,62.843,280.164z"/>
		<path d="M76.089,273.032v6.278c0.339,0,0.59,0.074,0.752,0.224c0.162,0.148,0.243,0.341,0.243,0.575
			c0,0.235-0.083,0.428-0.247,0.579c-0.165,0.151-0.414,0.228-0.748,0.228v0.642c0.339,0,0.59,0.076,0.752,0.228
			c0.162,0.151,0.243,0.344,0.243,0.579s-0.083,0.427-0.247,0.575c-0.165,0.149-0.44,0.224-0.826,0.224h-2.153
			c-0.387,0-0.662-0.074-0.826-0.224c-0.165-0.148-0.247-0.343-0.247-0.583c0-0.235,0.082-0.427,0.247-0.575
			c0.165-0.149,0.439-0.224,0.826-0.224h0.626v-0.642h-4.361v-1.339l3.844-6.545H76.089z M74.484,279.311v-3.945l-2.325,3.945
			H74.484z"/>
	</g>
	<g>
		<path d="M21.034,272.773v8.784h1.621c0.386,0,0.662,0.074,0.826,0.224c0.165,0.148,0.247,0.343,0.247,0.583
			c0,0.235-0.082,0.427-0.247,0.575c-0.164,0.149-0.439,0.224-0.826,0.224h-4.846c-0.387,0-0.662-0.074-0.826-0.224
			c-0.165-0.148-0.247-0.343-0.247-0.583c0-0.235,0.082-0.427,0.247-0.575c0.165-0.149,0.439-0.224,0.826-0.224h1.621v-6.693
			l-1.433,0.375c-0.229,0.063-0.402,0.095-0.517,0.095c-0.204,0-0.38-0.081-0.528-0.243c-0.149-0.162-0.223-0.36-0.223-0.595
			c0-0.214,0.055-0.383,0.165-0.505c0.109-0.123,0.339-0.231,0.689-0.325L21.034,272.773z"/>
		<path d="M28.338,281.558h3.515c0.193-0.156,0.376-0.234,0.548-0.234c0.246,0,0.44,0.081,0.583,0.242
			c0.144,0.162,0.215,0.438,0.215,0.83v0.768h-7.312v-1.699c2.892-2.385,4.637-3.92,5.238-4.604c0.303-0.35,0.454-0.682,0.454-0.994
			c0-0.392-0.171-0.737-0.513-1.038c-0.342-0.3-0.797-0.45-1.366-0.45c-0.574,0-1.052,0.168-1.433,0.502
			c-0.198,0.177-0.357,0.44-0.478,0.79c-0.073,0.22-0.173,0.376-0.301,0.47c-0.128,0.095-0.286,0.142-0.474,0.142
			c-0.219,0-0.409-0.079-0.568-0.235s-0.239-0.339-0.239-0.548c0-0.313,0.145-0.705,0.435-1.175s0.712-0.845,1.269-1.127
			c0.556-0.282,1.16-0.423,1.812-0.423c1.012,0,1.842,0.307,2.49,0.92c0.647,0.613,0.971,1.355,0.971,2.228
			c0,0.443-0.093,0.854-0.278,1.233c-0.186,0.378-0.63,0.901-1.335,1.569C31.019,279.251,29.94,280.195,28.338,281.558z"/>
		<path d="M41.734,278.035c0.412,0.318,0.722,0.68,0.928,1.084s0.309,0.85,0.309,1.335c0,0.537-0.132,1.032-0.395,1.483
			c-0.264,0.451-0.677,0.808-1.241,1.068c-0.563,0.262-1.19,0.392-1.879,0.392s-1.31-0.13-1.863-0.392
			c-0.553-0.261-0.962-0.618-1.225-1.072c-0.264-0.454-0.396-0.947-0.396-1.479c0-0.485,0.103-0.931,0.309-1.335
			s0.516-0.766,0.928-1.084c-0.36-0.334-0.631-0.689-0.814-1.065c-0.183-0.376-0.274-0.772-0.274-1.189
			c0-0.819,0.313-1.525,0.94-2.118c0.626-0.593,1.43-0.889,2.411-0.889s1.785,0.296,2.412,0.889
			c0.626,0.593,0.939,1.299,0.939,2.118c0,0.422-0.09,0.821-0.27,1.197C42.372,277.354,42.099,277.706,41.734,278.035z
			 M41.366,280.532c0-0.423-0.181-0.805-0.544-1.147c-0.363-0.342-0.813-0.513-1.351-0.513s-0.988,0.171-1.351,0.513
			c-0.363,0.343-0.544,0.729-0.544,1.163c0,0.334,0.157,0.625,0.47,0.873s0.788,0.372,1.425,0.372c0.642,0,1.118-0.124,1.429-0.372
			S41.366,280.877,41.366,280.532z M41.178,275.812c0-0.396-0.156-0.735-0.466-1.015c-0.311-0.278-0.729-0.419-1.257-0.419
			c-0.532,0-0.954,0.141-1.264,0.419c-0.311,0.279-0.466,0.618-0.466,1.015c0,0.401,0.155,0.742,0.466,1.021
			c0.31,0.279,0.732,0.419,1.264,0.419c0.527,0,0.946-0.14,1.257-0.419C41.022,276.554,41.178,276.213,41.178,275.812z"/>
	</g>
	
		<rect x="363.912" y="226.854" fill="#FFFFFF" stroke="#000000" stroke-width="4" stroke-miterlimit="10" width="39.088" height="39.088"/>
	<g>
		<path d="M386.883,246.178c0.711,0.484,1.242,1.045,1.594,1.682s0.527,1.35,0.527,2.139c0,0.852-0.232,1.639-0.697,2.361
			s-1.139,1.27-2.021,1.641s-2.039,0.557-3.469,0.557c-1.859,0-3.258-0.289-4.195-0.867c-0.523-0.328-0.785-0.719-0.785-1.172
			c0-0.344,0.115-0.635,0.346-0.873s0.51-0.357,0.838-0.357c0.227,0,0.461,0.078,0.703,0.234c0.344,0.234,0.668,0.391,0.973,0.469
			c0.469,0.109,1.113,0.164,1.934,0.164c1.398,0,2.41-0.182,3.035-0.545s0.938-0.877,0.938-1.541c0-0.492-0.182-0.967-0.545-1.424
			s-0.85-0.811-1.459-1.061c-0.352-0.141-0.945-0.238-1.781-0.293c-0.398-0.023-0.705-0.146-0.92-0.369s-0.322-0.498-0.322-0.826
			c0-0.344,0.117-0.633,0.352-0.867s0.531-0.352,0.891-0.352c0.797,0,1.223-0.004,1.277-0.012c0.312-0.031,0.625-0.133,0.938-0.305
			s0.564-0.408,0.756-0.709s0.287-0.611,0.287-0.932c0-0.508-0.225-0.947-0.674-1.318s-1.123-0.557-2.021-0.557
			c-1.156,0-2.039,0.336-2.648,1.008c-0.18,0.195-0.324,0.32-0.434,0.375c-0.164,0.086-0.348,0.129-0.551,0.129
			c-0.328,0-0.609-0.117-0.844-0.352s-0.352-0.523-0.352-0.867c0-0.539,0.359-1.062,1.078-1.57c1.047-0.742,2.355-1.113,3.926-1.113
			c1.484,0,2.676,0.422,3.574,1.266s1.348,1.859,1.348,3.047c0,0.617-0.133,1.193-0.398,1.729S387.414,245.725,386.883,246.178z"/>
	</g>
	<g>
		<path d="M348.605,246.307H338.34c-0.578,0-0.99-0.111-1.236-0.334s-0.369-0.514-0.369-0.873c0-0.352,0.123-0.639,0.369-0.861
			s0.658-0.334,1.236-0.334h10.266c0.578,0,0.99,0.111,1.236,0.334s0.369,0.514,0.369,0.873c0,0.352-0.123,0.639-0.369,0.861
			S349.184,246.307,348.605,246.307z M348.605,250.83H338.34c-0.578,0-0.99-0.109-1.236-0.328s-0.369-0.508-0.369-0.867
			s0.123-0.65,0.369-0.873s0.658-0.334,1.236-0.334h10.266c0.578,0,0.99,0.111,1.236,0.334s0.369,0.514,0.369,0.873
			s-0.123,0.648-0.369,0.867S349.184,250.83,348.605,250.83z"/>
	</g>
	<rect x="288.698" y="231.64" width="29.516" height="29.516"/>
</g>
<g>
	
		<rect x="10.293" y="298.854" fill="#FFFFFF" stroke="#000000" stroke-width="4" stroke-miterlimit="10" width="39.088" height="39.088"/>
	
		<rect x="49.382" y="298.854" fill="#FFFFFF" stroke="#000000" stroke-width="4" stroke-miterlimit="10" width="39.088" height="39.088"/>
	
		<rect x="88.47" y="298.854" fill="#FFFFFF" stroke="#000000" stroke-width="4" stroke-miterlimit="10" width="39.088" height="39.088"/>
	
		<rect x="127.559" y="298.854" fill="#FFFFFF" stroke="#000000" stroke-width="4" stroke-miterlimit="10" width="39.088" height="39.088"/>
	
		<rect x="166.646" y="298.854" fill="#FFFFFF" stroke="#000000" stroke-width="4" stroke-miterlimit="10" width="39.088" height="39.088"/>
	
		<rect x="205.735" y="298.854" fill="#FFFFFF" stroke="#000000" stroke-width="4" stroke-miterlimit="10" width="39.088" height="39.088"/>
	
		<rect x="244.823" y="298.854" fill="#FFFFFF" stroke="#000000" stroke-width="4" stroke-miterlimit="10" width="39.089" height="39.088"/>
	
		<rect x="283.912" y="298.854" fill="#FFFFFF" stroke="#000000" stroke-width="4" stroke-miterlimit="10" width="39.088" height="39.088"/>
	<rect x="210.521" y="303.639" width="29.515" height="29.516"/>
	<g>
		<path d="M304.273,344.773v8.784h1.621c0.386,0,0.661,0.074,0.826,0.224c0.164,0.148,0.246,0.343,0.246,0.583
			c0,0.235-0.082,0.427-0.246,0.575c-0.165,0.149-0.44,0.224-0.826,0.224h-4.847c-0.386,0-0.661-0.074-0.826-0.224
			c-0.164-0.148-0.246-0.343-0.246-0.583c0-0.235,0.082-0.427,0.246-0.575c0.165-0.149,0.44-0.224,0.826-0.224h1.621v-6.693
			l-1.433,0.375c-0.23,0.063-0.402,0.095-0.517,0.095c-0.204,0-0.38-0.081-0.529-0.243c-0.148-0.162-0.223-0.36-0.223-0.595
			c0-0.214,0.055-0.383,0.164-0.505c0.11-0.123,0.34-0.231,0.689-0.325L304.273,344.773z"/>
	</g>
	<g>
		<path d="M263.269,353.558h3.516c0.193-0.156,0.376-0.234,0.548-0.234c0.245,0,0.439,0.081,0.583,0.242
			c0.144,0.162,0.216,0.438,0.216,0.83v0.768h-7.312v-1.699c2.892-2.385,4.638-3.92,5.237-4.604c0.303-0.35,0.454-0.682,0.454-0.994
			c0-0.392-0.171-0.737-0.513-1.038c-0.342-0.3-0.797-0.45-1.366-0.45c-0.574,0-1.052,0.168-1.433,0.502
			c-0.198,0.177-0.357,0.44-0.478,0.79c-0.073,0.22-0.174,0.376-0.302,0.47c-0.128,0.095-0.285,0.142-0.474,0.142
			c-0.219,0-0.408-0.079-0.567-0.235s-0.238-0.339-0.238-0.548c0-0.313,0.145-0.705,0.435-1.175c0.289-0.47,0.712-0.845,1.268-1.127
			c0.557-0.282,1.16-0.423,1.812-0.423c1.013,0,1.843,0.307,2.49,0.92c0.646,0.613,0.971,1.355,0.971,2.228
			c0,0.443-0.093,0.854-0.278,1.233c-0.186,0.378-0.63,0.901-1.335,1.569C265.949,351.251,264.871,352.195,263.269,353.558z"/>
	</g>
	<g>
		<path d="M227.631,345.032v6.278c0.339,0,0.59,0.074,0.752,0.224c0.162,0.148,0.243,0.341,0.243,0.575
			c0,0.235-0.083,0.428-0.247,0.579c-0.165,0.151-0.414,0.228-0.748,0.228v0.642c0.339,0,0.59,0.076,0.752,0.228
			c0.162,0.151,0.243,0.344,0.243,0.579s-0.083,0.427-0.247,0.575c-0.165,0.149-0.44,0.224-0.826,0.224H225.4
			c-0.387,0-0.662-0.074-0.826-0.224c-0.165-0.148-0.247-0.343-0.247-0.583c0-0.235,0.082-0.427,0.247-0.575
			c0.165-0.149,0.439-0.224,0.826-0.224h0.626v-0.642h-4.361v-1.339l3.844-6.545H227.631z M226.026,351.311v-3.945l-2.325,3.945
			H226.026z"/>
	</g>
	<g>
		<path d="M187.467,350.035c0.412,0.318,0.722,0.68,0.928,1.084s0.309,0.85,0.309,1.335c0,0.537-0.132,1.032-0.395,1.483
			c-0.264,0.451-0.677,0.808-1.241,1.068c-0.563,0.262-1.19,0.392-1.879,0.392s-1.31-0.13-1.863-0.392
			c-0.553-0.261-0.962-0.618-1.225-1.072c-0.264-0.454-0.396-0.947-0.396-1.479c0-0.485,0.103-0.931,0.309-1.335
			s0.516-0.766,0.928-1.084c-0.36-0.334-0.631-0.689-0.814-1.065c-0.183-0.376-0.274-0.772-0.274-1.189
			c0-0.819,0.313-1.525,0.94-2.118c0.626-0.593,1.43-0.889,2.411-0.889s1.785,0.296,2.412,0.889
			c0.626,0.593,0.939,1.299,0.939,2.118c0,0.422-0.09,0.821-0.27,1.197C188.105,349.354,187.833,349.706,187.467,350.035z
			 M187.099,352.532c0-0.423-0.181-0.805-0.544-1.147c-0.363-0.342-0.813-0.513-1.351-0.513s-0.988,0.171-1.351,0.513
			c-0.363,0.343-0.544,0.729-0.544,1.163c0,0.334,0.157,0.625,0.47,0.873s0.788,0.372,1.425,0.372c0.642,0,1.118-0.124,1.429-0.372
			S187.099,352.877,187.099,352.532z M186.912,347.812c0-0.396-0.156-0.735-0.466-1.015c-0.311-0.278-0.729-0.419-1.257-0.419
			c-0.532,0-0.954,0.141-1.264,0.419c-0.311,0.279-0.466,0.618-0.466,1.015c0,0.401,0.155,0.742,0.466,1.021
			c0.31,0.279,0.732,0.419,1.264,0.419c0.527,0,0.946-0.14,1.257-0.419C186.756,348.554,186.912,348.213,186.912,347.812z"/>
	</g>
	<g>
		<path d="M143.109,344.773v8.784h1.621c0.386,0,0.662,0.074,0.826,0.224c0.165,0.148,0.247,0.343,0.247,0.583
			c0,0.235-0.082,0.427-0.247,0.575c-0.164,0.149-0.439,0.224-0.826,0.224h-4.846c-0.387,0-0.662-0.074-0.826-0.224
			c-0.165-0.148-0.247-0.343-0.247-0.583c0-0.235,0.082-0.427,0.247-0.575c0.165-0.149,0.439-0.224,0.826-0.224h1.621v-6.693
			l-1.433,0.375c-0.229,0.063-0.402,0.095-0.517,0.095c-0.204,0-0.38-0.081-0.528-0.243c-0.149-0.162-0.223-0.36-0.223-0.595
			c0-0.214,0.055-0.383,0.165-0.505c0.109-0.123,0.339-0.231,0.689-0.325L143.109,344.773z"/>
		<path d="M150.406,349.683c0.386-0.324,0.754-0.56,1.104-0.709c0.35-0.148,0.723-0.223,1.12-0.223c0.84,0,1.576,0.334,2.208,1.002
			c0.631,0.668,0.947,1.506,0.947,2.513c0,0.935-0.293,1.69-0.881,2.267c-0.587,0.577-1.384,0.865-2.392,0.865
			c-0.84,0-1.532-0.195-2.075-0.587c-0.543-0.392-0.953-0.994-1.229-1.809c-0.276-0.814-0.415-1.723-0.415-2.725
			c0-1.2,0.274-2.198,0.822-2.995c0.548-0.796,1.192-1.413,1.934-1.852s1.524-0.657,2.349-0.657c0.652,0,1.159,0.128,1.519,0.384
			c0.235,0.172,0.353,0.392,0.353,0.657c0,0.235-0.078,0.433-0.235,0.592s-0.345,0.238-0.564,0.238c-0.125,0-0.305-0.062-0.54-0.188
			c-0.141-0.073-0.277-0.11-0.407-0.11c-0.511,0-1.041,0.146-1.589,0.435c-0.548,0.29-1.023,0.735-1.425,1.335
			C150.732,348.534,150.531,349.056,150.406,349.683z M150.641,352.164c0.167,0.627,0.393,1.055,0.677,1.284
			c0.285,0.229,0.69,0.345,1.218,0.345c0.527,0,0.933-0.139,1.217-0.415s0.427-0.652,0.427-1.128c0-0.542-0.163-0.994-0.489-1.354
			c-0.326-0.359-0.693-0.54-1.1-0.54c-0.324,0-0.669,0.159-1.037,0.478C151.185,351.151,150.881,351.596,150.641,352.164z"/>
	</g>
	<g>
		<path d="M105.493,349.8c0.475,0.323,0.83,0.698,1.065,1.123c0.235,0.426,0.352,0.902,0.352,1.43c0,0.568-0.155,1.095-0.466,1.577
			s-0.761,0.849-1.351,1.096c-0.59,0.248-1.362,0.372-2.317,0.372c-1.242,0-2.176-0.193-2.803-0.579
			c-0.35-0.219-0.524-0.48-0.524-0.783c0-0.229,0.077-0.424,0.231-0.583c0.154-0.159,0.34-0.239,0.56-0.239
			c0.151,0,0.308,0.053,0.47,0.157c0.229,0.156,0.446,0.261,0.65,0.313c0.313,0.072,0.744,0.109,1.292,0.109
			c0.934,0,1.61-0.122,2.028-0.364c0.417-0.243,0.626-0.586,0.626-1.029c0-0.329-0.121-0.646-0.364-0.951
			c-0.243-0.306-0.568-0.542-0.975-0.709c-0.235-0.094-0.631-0.159-1.19-0.195c-0.266-0.016-0.471-0.099-0.614-0.247
			c-0.144-0.148-0.215-0.333-0.215-0.552c0-0.229,0.078-0.423,0.235-0.579c0.156-0.157,0.354-0.235,0.595-0.235
			c0.533,0,0.817-0.003,0.854-0.008c0.208-0.021,0.417-0.089,0.626-0.203c0.208-0.115,0.377-0.273,0.505-0.474
			c0.128-0.201,0.192-0.409,0.192-0.623c0-0.339-0.15-0.633-0.45-0.881c-0.3-0.248-0.75-0.372-1.351-0.372
			c-0.772,0-1.362,0.225-1.77,0.674c-0.12,0.131-0.217,0.214-0.29,0.251c-0.11,0.057-0.232,0.086-0.368,0.086
			c-0.219,0-0.407-0.078-0.563-0.235c-0.157-0.156-0.235-0.35-0.235-0.579c0-0.36,0.24-0.71,0.72-1.049
			c0.699-0.496,1.574-0.744,2.623-0.744c0.992,0,1.788,0.282,2.388,0.846c0.6,0.563,0.9,1.242,0.9,2.035
			c0,0.413-0.089,0.798-0.266,1.155C106.114,349.167,105.848,349.497,105.493,349.8z"/>
		<path d="M111.326,353.558h3.515c0.193-0.156,0.376-0.234,0.548-0.234c0.246,0,0.44,0.081,0.583,0.242
			c0.144,0.162,0.215,0.438,0.215,0.83v0.768h-7.312v-1.699c2.892-2.385,4.637-3.92,5.238-4.604c0.303-0.35,0.454-0.682,0.454-0.994
			c0-0.392-0.171-0.737-0.513-1.038c-0.342-0.3-0.797-0.45-1.366-0.45c-0.574,0-1.052,0.168-1.433,0.502
			c-0.198,0.177-0.357,0.44-0.478,0.79c-0.073,0.22-0.173,0.376-0.301,0.47c-0.128,0.095-0.286,0.142-0.474,0.142
			c-0.219,0-0.409-0.079-0.568-0.235s-0.239-0.339-0.239-0.548c0-0.313,0.145-0.705,0.435-1.175s0.712-0.845,1.269-1.127
			c0.556-0.282,1.16-0.423,1.812-0.423c1.012,0,1.842,0.307,2.49,0.92c0.647,0.613,0.971,1.355,0.971,2.228
			c0,0.443-0.093,0.854-0.278,1.233c-0.186,0.378-0.63,0.901-1.335,1.569C114.006,351.251,112.928,352.195,111.326,353.558z"/>
	</g>
	<g>
		<path d="M62.607,349.683c0.386-0.324,0.754-0.56,1.104-0.709c0.35-0.148,0.723-0.223,1.12-0.223c0.84,0,1.576,0.334,2.208,1.002
			c0.631,0.668,0.947,1.506,0.947,2.513c0,0.935-0.293,1.69-0.881,2.267c-0.587,0.577-1.384,0.865-2.392,0.865
			c-0.84,0-1.532-0.195-2.075-0.587c-0.543-0.392-0.953-0.994-1.229-1.809c-0.276-0.814-0.415-1.723-0.415-2.725
			c0-1.2,0.274-2.198,0.822-2.995c0.548-0.796,1.192-1.413,1.934-1.852s1.524-0.657,2.349-0.657c0.652,0,1.159,0.128,1.519,0.384
			c0.235,0.172,0.353,0.392,0.353,0.657c0,0.235-0.078,0.433-0.235,0.592s-0.345,0.238-0.564,0.238c-0.125,0-0.305-0.062-0.54-0.188
			c-0.141-0.073-0.277-0.11-0.407-0.11c-0.511,0-1.041,0.146-1.589,0.435c-0.548,0.29-1.023,0.735-1.425,1.335
			C62.934,348.534,62.733,349.056,62.607,349.683z M62.843,352.164c0.167,0.627,0.393,1.055,0.677,1.284
			c0.285,0.229,0.69,0.345,1.218,0.345c0.527,0,0.933-0.139,1.217-0.415s0.427-0.652,0.427-1.128c0-0.542-0.163-0.994-0.489-1.354
			c-0.326-0.359-0.693-0.54-1.1-0.54c-0.324,0-0.669,0.159-1.037,0.478C63.387,351.151,63.083,351.596,62.843,352.164z"/>
		<path d="M76.089,345.032v6.278c0.339,0,0.59,0.074,0.752,0.224c0.162,0.148,0.243,0.341,0.243,0.575
			c0,0.235-0.083,0.428-0.247,0.579c-0.165,0.151-0.414,0.228-0.748,0.228v0.642c0.339,0,0.59,0.076,0.752,0.228
			c0.162,0.151,0.243,0.344,0.243,0.579s-0.083,0.427-0.247,0.575c-0.165,0.149-0.44,0.224-0.826,0.224h-2.153
			c-0.387,0-0.662-0.074-0.826-0.224c-0.165-0.148-0.247-0.343-0.247-0.583c0-0.235,0.082-0.427,0.247-0.575
			c0.165-0.149,0.439-0.224,0.826-0.224h0.626v-0.642h-4.361v-1.339l3.844-6.545H76.089z M74.484,351.311v-3.945l-2.325,3.945
			H74.484z"/>
	</g>
	<g>
		<path d="M21.034,344.773v8.784h1.621c0.386,0,0.662,0.074,0.826,0.224c0.165,0.148,0.247,0.343,0.247,0.583
			c0,0.235-0.082,0.427-0.247,0.575c-0.164,0.149-0.439,0.224-0.826,0.224h-4.846c-0.387,0-0.662-0.074-0.826-0.224
			c-0.165-0.148-0.247-0.343-0.247-0.583c0-0.235,0.082-0.427,0.247-0.575c0.165-0.149,0.439-0.224,0.826-0.224h1.621v-6.693
			l-1.433,0.375c-0.229,0.063-0.402,0.095-0.517,0.095c-0.204,0-0.38-0.081-0.528-0.243c-0.149-0.162-0.223-0.36-0.223-0.595
			c0-0.214,0.055-0.383,0.165-0.505c0.109-0.123,0.339-0.231,0.689-0.325L21.034,344.773z"/>
		<path d="M28.338,353.558h3.515c0.193-0.156,0.376-0.234,0.548-0.234c0.246,0,0.44,0.081,0.583,0.242
			c0.144,0.162,0.215,0.438,0.215,0.83v0.768h-7.312v-1.699c2.892-2.385,4.637-3.92,5.238-4.604c0.303-0.35,0.454-0.682,0.454-0.994
			c0-0.392-0.171-0.737-0.513-1.038c-0.342-0.3-0.797-0.45-1.366-0.45c-0.574,0-1.052,0.168-1.433,0.502
			c-0.198,0.177-0.357,0.44-0.478,0.79c-0.073,0.22-0.173,0.376-0.301,0.47c-0.128,0.095-0.286,0.142-0.474,0.142
			c-0.219,0-0.409-0.079-0.568-0.235s-0.239-0.339-0.239-0.548c0-0.313,0.145-0.705,0.435-1.175s0.712-0.845,1.269-1.127
			c0.556-0.282,1.16-0.423,1.812-0.423c1.012,0,1.842,0.307,2.49,0.92c0.647,0.613,0.971,1.355,0.971,2.228
			c0,0.443-0.093,0.854-0.278,1.233c-0.186,0.378-0.63,0.901-1.335,1.569C31.019,351.251,29.94,352.195,28.338,353.558z"/>
		<path d="M41.734,350.035c0.412,0.318,0.722,0.68,0.928,1.084s0.309,0.85,0.309,1.335c0,0.537-0.132,1.032-0.395,1.483
			c-0.264,0.451-0.677,0.808-1.241,1.068c-0.563,0.262-1.19,0.392-1.879,0.392s-1.31-0.13-1.863-0.392
			c-0.553-0.261-0.962-0.618-1.225-1.072c-0.264-0.454-0.396-0.947-0.396-1.479c0-0.485,0.103-0.931,0.309-1.335
			s0.516-0.766,0.928-1.084c-0.36-0.334-0.631-0.689-0.814-1.065c-0.183-0.376-0.274-0.772-0.274-1.189
			c0-0.819,0.313-1.525,0.94-2.118c0.626-0.593,1.43-0.889,2.411-0.889s1.785,0.296,2.412,0.889
			c0.626,0.593,0.939,1.299,0.939,2.118c0,0.422-0.09,0.821-0.27,1.197C42.372,349.354,42.099,349.706,41.734,350.035z
			 M41.366,352.532c0-0.423-0.181-0.805-0.544-1.147c-0.363-0.342-0.813-0.513-1.351-0.513s-0.988,0.171-1.351,0.513
			c-0.363,0.343-0.544,0.729-0.544,1.163c0,0.334,0.157,0.625,0.47,0.873s0.788,0.372,1.425,0.372c0.642,0,1.118-0.124,1.429-0.372
			S41.366,352.877,41.366,352.532z M41.178,347.812c0-0.396-0.156-0.735-0.466-1.015c-0.311-0.278-0.729-0.419-1.257-0.419
			c-0.532,0-0.954,0.141-1.264,0.419c-0.311,0.279-0.466,0.618-0.466,1.015c0,0.401,0.155,0.742,0.466,1.021
			c0.31,0.279,0.732,0.419,1.264,0.419c0.527,0,0.946-0.14,1.257-0.419C41.022,348.554,41.178,348.213,41.178,347.812z"/>
	</g>
	
		<rect x="363.912" y="298.854" fill="#FFFFFF" stroke="#000000" stroke-width="4" stroke-miterlimit="10" width="39.088" height="39.088"/>
	<g>
		<path d="M386.977,311.041v9.398c0.508,0,0.883,0.111,1.125,0.334s0.363,0.51,0.363,0.861s-0.123,0.641-0.369,0.867
			s-0.619,0.34-1.119,0.34v0.961c0.508,0,0.883,0.113,1.125,0.34s0.363,0.516,0.363,0.867s-0.123,0.639-0.369,0.861
			s-0.658,0.334-1.236,0.334h-3.223c-0.578,0-0.99-0.111-1.236-0.334s-0.369-0.514-0.369-0.873c0-0.352,0.123-0.639,0.369-0.861
			s0.658-0.334,1.236-0.334h0.938v-0.961h-6.527v-2.004l5.754-9.797H386.977z M384.574,320.439v-5.906l-3.48,5.906H384.574z"/>
	</g>
	<g>
		<path d="M348.605,318.307H338.34c-0.578,0-0.99-0.111-1.236-0.334s-0.369-0.514-0.369-0.873c0-0.352,0.123-0.639,0.369-0.861
			s0.658-0.334,1.236-0.334h10.266c0.578,0,0.99,0.111,1.236,0.334s0.369,0.514,0.369,0.873c0,0.352-0.123,0.639-0.369,0.861
			S349.184,318.307,348.605,318.307z M348.605,322.83H338.34c-0.578,0-0.99-0.109-1.236-0.328s-0.369-0.508-0.369-0.867
			s0.123-0.65,0.369-0.873s0.658-0.334,1.236-0.334h10.266c0.578,0,0.99,0.111,1.236,0.334s0.369,0.514,0.369,0.873
			s-0.123,0.648-0.369,0.867S349.184,322.83,348.605,322.83z"/>
	</g>
</g>
</svg>
