<?xml version="1.0" encoding="utf-8"?>
<!-- Generator: Adobe Illustrator 15.1.0, SVG Export Plug-In . SVG Version: 6.00 Build 0)  -->
<!DOCTYPE svg PUBLIC "-//W3C//DTD SVG 1.1//EN" "http://www.w3.org/Graphics/SVG/1.1/DTD/svg11.dtd">
<svg version="1.1" id="Layer_1" xmlns="http://www.w3.org/2000/svg" xmlns:xlink="http://www.w3.org/1999/xlink" x="0px" y="0px"
	 width="600px" height="178.812px" viewBox="0 0 600 178.812" enable-background="new 0 0 600 178.812" xml:space="preserve">
<rect x="6.5" y="50.618" fill="#FFFFFF" stroke="#000000" stroke-width="3" stroke-miterlimit="10" width="66" height="66"/>
<rect x="72.5" y="50.618" fill="#FFFFFF" stroke="#000000" stroke-width="3" stroke-miterlimit="10" width="65" height="66"/>
<rect x="136.5" y="50.618" fill="#FFFFFF" stroke="#000000" stroke-width="3" stroke-miterlimit="10" width="66" height="66"/>
<rect x="202.5" y="50.618" fill="#FFFFFF" stroke="#000000" stroke-width="3" stroke-miterlimit="10" width="65" height="66"/>
<rect x="267.5" y="50.618" fill="#FFFFFF" stroke="#000000" stroke-width="3" stroke-miterlimit="10" width="66" height="66"/>
<rect x="333.5" y="50.618" fill="#FFFFFF" stroke="#000000" stroke-width="3" stroke-miterlimit="10" width="65" height="66"/>
<rect x="397.5" y="50.618" fill="#FFFFFF" stroke="#000000" stroke-width="3" stroke-miterlimit="10" width="66" height="66"/>
<rect x="463.5" y="50.618" fill="#FFFFFF" stroke="#000000" stroke-width="3" stroke-miterlimit="10" width="65" height="66"/>
<rect x="528.5" y="50.618" fill="#FFFFFF" stroke="#000000" stroke-width="3" stroke-miterlimit="10" width="66" height="66"/>
<circle stroke="#FFFFFF" stroke-width="3" stroke-miterlimit="10" cx="169.5" cy="83.618" r="22.585"/>
<path stroke="#FFFFFF" stroke-width="3" stroke-miterlimit="10" d="M458.5,87.618c0,6.074-4.925,11-11,11h-163
	c-6.075,0-11-4.926-11-11v-6c0-6.075,4.925-11,11-11h163c6.075,0,11,4.925,11,11V87.618z"/>
<rect x="138.568" y="122.982" fill="none" width="61.865" height="33.898"/>
<g enable-background="new    ">
	<path d="M158.639,123.133c0.24,0,0.52,0,0.76-0.04c0.52-0.12,1.04-0.16,1.6,0c0.28,0.359,0.04,0.84,0.16,1.239
		c0.08,0.561,0.04,3.88,0.04,5.079c-0.04,2.36,0,4.72-0.16,7.119c-0.12,2.359-0.24,4.68-0.12,7.039c0.08,1.88,0.12,3.759,0.08,5.639
		c-0.56,0.08-1.08,0.12-1.6,0.12c-0.36,0-1.04,0.16-1.359-0.04c0-0.12-0.2-0.359-0.16-0.72c-0.2,0.04-0.4,0.24-0.56,0.36
		c-0.24,0.159-0.52,0.159-0.8,0.159c-0.56,0-1.12-0.119-1.6-0.279c-0.8-0.28-1.6-0.561-2-1.12c-1.4-1.88-1.92-4.439-1.96-6.679
		c0-1.36-0.04-2.76,0.08-4.119c0.12-1.28,0.24-2.88,0.96-4c0.6-0.96,1.36-1.76,2.52-2.119c1.2-0.36,2.359,0.12,3.52,0.399
		c-0.04-2.64,0.12-4.839,0-7.838C158.279,123.333,158.399,123.173,158.639,123.133z M154.6,134.411c-0.8,0.919-0.8,2.399-0.92,3.559
		c-0.12,1.32-0.2,2.64-0.16,3.92c0.04,1.159,0.2,2.839,1.12,3.64c0.84,0.76,1.799,1.079,2.719,0.239c0.2-0.16,0.36-0.359,0.52-0.56
		c0.2-0.2,0.08-0.52,0.04-0.8c-0.04-0.68-0.04-1.36-0.04-2c0.04-1.439,0.16-2.879,0.16-4.279c0-0.72-0.08-1.52-0.08-2.239
		c0-0.36,0.04-0.76,0.08-1.12c-0.16-0.24-0.4-0.359-0.64-0.479C156.32,133.731,155.52,133.331,154.6,134.411z"/>
	<path d="M173.279,147.929c-0.28,0.399-0.56,0.72-1.04,1c-0.2,0.04-0.92,0.479-0.92,0.199c-0.479,0.36-1.479,0.32-2.04,0.16
		l-0.92-0.16c-0.36-0.04-0.52-0.239-0.84-0.399c-1.919-0.8-2.759-2.56-3-4.52c-0.479-3.72-0.56-8.038,1.52-11.318
		c1.08-1.56,2.879-2.119,4.639-1.439c1.6,0.6,2.56,1.6,3.239,3.159c0.72,1.64,1.04,3.52,1.16,5.319c0.08,0.96,0.12,1.92,0.08,2.84
		c-0.04,0.399-0.2,0.72-0.28,1.08c-0.12,0.399,0,0.76-0.28,1.119C174.358,146.009,173.958,147.049,173.279,147.929z M167.52,136.051
		c-0.16,0.72-0.4,1.479-0.56,2.159c-0.16,0.8-0.32,1.76-0.2,2.56c0.16,0.76,0.04,1.52,0.16,2.279c0.12,0.96,0.32,2.6,1.12,3.32
		c0.6,0.52,2.24,0.88,2.919,0.279c0.88-0.8,0.8-2.6,0.84-3.679c0.04-1.48,0.04-2.84,0-4.279c-0.08-0.721-0.12-1.48-0.32-2.16
		c-0.2-0.64-0.04-1.12-0.4-1.72c-0.28-0.52-0.48-0.96-1.16-1.04c-0.64-0.08-1.04,0.08-1.52,0.521
		C167.919,134.771,167.68,135.45,167.52,136.051z"/>
	<path d="M181.399,130.772c0.96,0.2,2.12,0.04,3.12,0.28c0.12,0.52,0.48,1.64-0.08,2.039c-0.32,0.2-0.92,0.12-1.28,0.12
		c-0.6,0-1.2-0.08-1.8,0.08c-0.16,2.359,0,4.839,0,7.238c-0.04,1.16,0.04,2.32,0.16,3.439c0.04,0.641,0.12,2.6,1.04,2.72
		c0.36,0,0.56-0.439,0.92-0.439c0.28,0.04,1.88,1.119,1.88,1.359c0,0.32-0.28,0.76-0.48,1c-0.56,0.72-1.76,0.88-2.56,0.76
		c-0.68-0.12-1.28-0.439-1.84-0.68c-1.959-1-1.6-4.68-1.68-6.559c-0.16-2.84-0.04-5.72-0.44-8.599c-0.48-0.12-1-0.24-1.68-0.16
		c-0.4-0.24-0.2-0.68-0.2-1.04c-0.04-0.52-0.28-0.96-0.04-1.439c0.6-0.04,1.04-0.08,1.68-0.08c0.2-0.76,0.04-1.6,0.08-2.359
		c0.04-0.761-0.04-1.36,0.04-2c0.6-0.4,2-0.2,2.919-0.2C181.16,126.252,181.359,129.212,181.399,130.772z"/>
</g>
<rect x="335.568" y="122.982" fill="none" width="61.863" height="33.898"/>
<g enable-background="new    ">
	<path d="M348.779,123.133c0.24,0,0.521,0,0.76-0.04c0.521-0.12,1.041-0.16,1.601,0c0.28,0.359,0.04,0.84,0.159,1.239
		c0.08,0.561,0.041,3.88,0.041,5.079c-0.041,2.36,0,4.72-0.16,7.119c-0.12,2.359-0.24,4.68-0.12,7.039
		c0.08,1.88,0.12,3.759,0.08,5.639c-0.56,0.08-1.08,0.12-1.601,0.12c-0.359,0-1.039,0.16-1.359-0.04c0-0.12-0.199-0.359-0.16-0.72
		c-0.199,0.04-0.399,0.24-0.56,0.36c-0.239,0.159-0.52,0.159-0.8,0.159c-0.561,0-1.119-0.119-1.6-0.279c-0.8-0.28-1.6-0.561-2-1.12
		c-1.399-1.88-1.92-4.439-1.959-6.679c0-1.36-0.041-2.76,0.08-4.119c0.119-1.28,0.239-2.88,0.959-4c0.6-0.96,1.36-1.76,2.52-2.119
		c1.2-0.36,2.359,0.12,3.52,0.399c-0.039-2.64,0.12-4.839,0-7.838C348.42,123.333,348.54,123.173,348.779,123.133z M344.74,134.411
		c-0.799,0.919-0.799,2.399-0.92,3.559c-0.119,1.32-0.199,2.64-0.16,3.92c0.041,1.159,0.201,2.839,1.121,3.64
		c0.84,0.76,1.799,1.079,2.719,0.239c0.2-0.16,0.359-0.359,0.52-0.56c0.2-0.2,0.08-0.52,0.041-0.8c-0.041-0.68-0.041-1.36-0.041-2
		c0.041-1.439,0.16-2.879,0.16-4.279c0-0.72-0.08-1.52-0.08-2.239c0-0.36,0.041-0.76,0.08-1.12c-0.16-0.24-0.399-0.359-0.64-0.479
		C346.461,133.731,345.66,133.331,344.74,134.411z"/>
	<path d="M364.299,142.169v4.2c0,0.72,0.36,2.799-0.76,2.759c-0.52,0-1.16,0.44-1.6,0.28c-0.359-0.12-0.359-0.479-0.48-0.92
		c0,0-1.479,1.04-2.599,0.88c-0.96-0.16-1.96-0.68-2.56-1.399c-0.36-0.36-0.68-0.8-1-1.2c-0.359-0.439-0.48-1.16-0.641-1.68
		c-0.319-1.12-0.439-2.279-0.399-3.439c0.12-2.159,1-4.359,3.12-5.239c0.76-0.319,1.68-0.56,2.559-0.359
		c0.08,0,1.48,0.359,1.48,0.319c0.56-1.119,0.359-2.999-0.92-3.52c-1.68-0.68-1.439,1.561-2.16,2.32
		c-0.68,0.08-1.76,0.12-2.159-0.32c-0.72-2.72,2.479-5.799,5.199-5.079c1.64,0.4,2.439,1.68,2.759,3.319
		c0.36,1.68,0.561,3.68,0.201,5.319c0,0,0.039,0,0.039-0.04C364.499,139.65,364.299,140.93,364.299,142.169z M361.66,142.409
		c0-1.279-0.08-3.359-1.48-3.919c-0.76,0-1.399,0.2-1.84,0.479c0,0-0.039,0-0.039,0.04h-0.041l-0.039,0.08
		c0,0.04-0.041,0.04-0.08,0.08c0,0-0.041,0-0.08,0.04c-1.28,1.68-1.2,8.438,1.68,7.159
		C361.18,145.729,361.66,143.889,361.66,142.409z M358.301,139.01h-0.041l-0.039,0.08l-0.16,0.12c0.08-0.04,0.24-0.2,0.279-0.24
		C358.301,138.97,358.301,139.01,358.301,139.01z"/>
	<path d="M375.179,147.408c-0.36,0.521-0.56,0.84-1.64,1.48c-1.439,0.8-3.719,0.6-4.639,0.199c-0.681-0.279-1.36-0.6-1.881-1.039
		c-0.319-0.2-1.359-1.08-1.239-1.48c0-0.239,1.76-2.079,2.399-1.56c1.32,1.12,3.92,3.159,4.56-0.08
		c0.6-3.239-4.079-5.159-5.679-7.118c-0.76-1-0.961-1.96-0.961-3.16c0-1.159,0.601-2.68,1.521-3.479
		c1.439-1.319,3.279-1.56,4.599-1.199c2.36,0.6,3.24,1.959,3.2,2.079c-0.44,0.641-1.96,2.04-2.2,1.72
		c-0.959-1.039-3.239-1.6-3.719,0.16c-0.641,2.279,1.359,3.479,2.92,4.76c1.6,1.279,3.078,2.759,3.519,4.679
		C376.219,144.53,375.898,146.409,375.179,147.408z"/>
	<path d="M382.66,130.972c1.479-0.04,3.039-0.08,4.238,0.92c0.68,0.56,1.12,1.319,1.439,2.079c0.76,1.88,0.801,4.119,0.84,6.119
		c0.041,2.159,0.041,4.319-0.119,6.479c-0.04,0.601-0.04,1.16-0.12,1.72c0,0.24-0.12,0.44-0.24,0.681
		c-0.28,0.52-1.759,0.52-2.199,0.199c-0.36-0.76-0.12-2.119-0.12-2.919c-0.04-1.72,0-3.439,0-5.119c0-1.4,0.08-2.76-0.12-4.119
		c-0.08-0.96-0.479-2.08-1.159-2.8c-0.561-0.72-1.84-1.04-2.52-0.32c0,3.52-0.16,6.999-0.201,10.479c0,1.239-0.039,2.439-0.08,3.68
		c0,0.279,0.041,0.6-0.119,0.8c-0.561,0.88-1.64,0.239-2.479,0.199c-0.2-4.279-0.28-8.599-0.2-12.917
		c0.04-1.641,0.08-3.32,0.12-4.96c0.08-2.56,0-5.119,0.2-7.679c0.879-0.159,1.799-0.399,2.68-0.08
		C382.58,123.733,382.5,128.692,382.66,130.972z"/>
</g>
</svg>
