<?xml version="1.0" encoding="utf-8"?>
<!-- Generator: Adobe Illustrator 15.1.0, SVG Export Plug-In . SVG Version: 6.00 Build 0)  -->
<!DOCTYPE svg PUBLIC "-//W3C//DTD SVG 1.1//EN" "http://www.w3.org/Graphics/SVG/1.1/DTD/svg11.dtd">
<svg version="1.1" id="Layer_1" xmlns="http://www.w3.org/2000/svg" xmlns:xlink="http://www.w3.org/1999/xlink" x="0px" y="0px"
	 width="500px" height="200.5px" viewBox="0 0 500 200.5" enable-background="new 0 0 500 200.5" xml:space="preserve">
<rect x="14.977" y="15.934" fill="#FFFFFF" stroke="#000000" stroke-width="4" stroke-miterlimit="10" width="48.756" height="48.756"/>
<rect x="63.733" y="15.934" fill="#FFFFFF" stroke="#000000" stroke-width="4" stroke-miterlimit="10" width="48.756" height="48.756"/>
<rect x="112.489" y="15.934" fill="#FFFFFF" stroke="#000000" stroke-width="4" stroke-miterlimit="10" width="48.756" height="48.756"/>
<rect x="161.245" y="15.934" fill="#FFFFFF" stroke="#000000" stroke-width="4" stroke-miterlimit="10" width="48.755" height="48.756"/>
<rect x="210" y="15.934" fill="#FFFFFF" stroke="#000000" stroke-width="4" stroke-miterlimit="10" width="48.756" height="48.756"/>
<rect x="258.756" y="15.934" fill="#FFFFFF" stroke="#000000" stroke-width="4" stroke-miterlimit="10" width="48.756" height="48.756"/>
<rect x="307.512" y="15.934" fill="#FFFFFF" stroke="#000000" stroke-width="4" stroke-miterlimit="10" width="48.756" height="48.756"/>
<rect x="356.268" y="15.934" fill="#FFFFFF" stroke="#000000" stroke-width="4" stroke-miterlimit="10" width="48.757" height="48.756"/>
<rect x="14.977" y="115.934" fill="#FFFFFF" stroke="#000000" stroke-width="4" stroke-miterlimit="10" width="48.756" height="48.756"/>
<rect x="63.733" y="115.934" fill="#FFFFFF" stroke="#000000" stroke-width="4" stroke-miterlimit="10" width="48.756" height="48.756"/>
<rect x="112.489" y="115.934" fill="#FFFFFF" stroke="#000000" stroke-width="4" stroke-miterlimit="10" width="48.756" height="48.756"/>
<rect x="161.245" y="115.934" fill="#FFFFFF" stroke="#000000" stroke-width="4" stroke-miterlimit="10" width="48.755" height="48.756"/>
<rect x="210" y="115.934" fill="#FFFFFF" stroke="#000000" stroke-width="4" stroke-miterlimit="10" width="48.756" height="48.756"/>
<rect x="258.756" y="115.934" fill="#FFFFFF" stroke="#000000" stroke-width="4" stroke-miterlimit="10" width="48.756" height="48.756"/>
<rect x="307.512" y="115.934" fill="#FFFFFF" stroke="#000000" stroke-width="4" stroke-miterlimit="10" width="48.756" height="48.756"/>
<rect x="356.268" y="115.934" fill="#FFFFFF" stroke="#000000" stroke-width="4" stroke-miterlimit="10" width="48.757" height="48.756"/>
<rect x="20.947" y="121.904" width="36.815" height="36.814"/>
<rect x="69.703" y="121.904" width="36.815" height="36.814"/>
<rect x="118.459" y="121.904" width="36.815" height="36.814"/>
<rect x="167.214" y="121.904" width="36.815" height="36.814"/>
<rect x="215.971" y="121.904" width="36.814" height="36.814"/>
<rect x="264.727" y="121.904" width="36.814" height="36.814"/>
<rect x="313.482" y="121.904" width="36.813" height="36.814"/>
<rect x="362.238" y="121.904" width="36.813" height="36.814"/>
<g>
	<path d="M43.601,75.54v2.197c0,1.302-0.376,2.549-1.128,3.74s-1.828,1.787-3.228,1.787c-0.807,0-1.489-0.177-2.046-0.532
		c-0.557-0.355-1.084-1.009-1.582-1.963s-0.747-1.964-0.747-3.032V75.54c0-1.295,0.375-2.541,1.123-3.735
		c0.748-1.194,1.823-1.792,3.223-1.792c0.801,0,1.479,0.176,2.036,0.527s1.087,1.004,1.592,1.958
		C43.349,73.452,43.601,74.466,43.601,75.54z M41.589,75.54c0-1.087-0.303-2.038-0.908-2.852c-0.345-0.449-0.83-0.674-1.455-0.674
		c-0.605,0-1.1,0.248-1.484,0.742c-0.58,0.749-0.869,1.676-0.869,2.783v2.197c0,1.094,0.306,2.044,0.918,2.852
		c0.338,0.449,0.824,0.674,1.455,0.674c0.599,0,1.09-0.248,1.475-0.742c0.58-0.749,0.869-1.676,0.869-2.783L41.589,75.54
		L41.589,75.54z"/>
</g>
<g>
	<path d="M92.481,75.54v2.197c0,1.302-0.376,2.549-1.128,3.74s-1.828,1.787-3.228,1.787c-0.807,0-1.489-0.177-2.046-0.532
		s-1.084-1.009-1.582-1.963s-0.747-1.964-0.747-3.032V75.54c0-1.295,0.375-2.541,1.123-3.735c0.748-1.194,1.823-1.792,3.223-1.792
		c0.801,0,1.479,0.176,2.036,0.527c0.557,0.351,1.087,1.004,1.592,1.958S92.481,74.466,92.481,75.54z M90.469,75.54
		c0-1.087-0.303-2.038-0.908-2.852c-0.345-0.449-0.83-0.674-1.455-0.674c-0.605,0-1.1,0.248-1.484,0.742
		c-0.58,0.749-0.869,1.676-0.869,2.783v2.197c0,1.094,0.306,2.044,0.918,2.852c0.338,0.449,0.824,0.674,1.455,0.674
		c0.599,0,1.09-0.248,1.475-0.742c0.58-0.749,0.869-1.676,0.869-2.783L90.469,75.54L90.469,75.54z"/>
</g>
<g>
	<path d="M141.237,75.54v2.197c0,1.302-0.376,2.549-1.128,3.74s-1.828,1.787-3.228,1.787c-0.807,0-1.489-0.177-2.046-0.532
		s-1.084-1.009-1.582-1.963s-0.747-1.964-0.747-3.032V75.54c0-1.295,0.375-2.541,1.123-3.735c0.748-1.194,1.823-1.792,3.223-1.792
		c0.801,0,1.479,0.176,2.036,0.527c0.557,0.351,1.087,1.004,1.592,1.958S141.237,74.466,141.237,75.54z M139.225,75.54
		c0-1.087-0.303-2.038-0.908-2.852c-0.345-0.449-0.83-0.674-1.455-0.674c-0.605,0-1.1,0.248-1.484,0.742
		c-0.58,0.749-0.869,1.676-0.869,2.783v2.197c0,1.094,0.306,2.044,0.918,2.852c0.338,0.449,0.824,0.674,1.455,0.674
		c0.599,0,1.09-0.248,1.475-0.742c0.58-0.749,0.869-1.676,0.869-2.783L139.225,75.54L139.225,75.54z"/>
</g>
<g>
	<path d="M189.992,75.54v2.197c0,1.302-0.376,2.549-1.128,3.74c-0.752,1.191-1.828,1.787-3.228,1.787
		c-0.807,0-1.489-0.177-2.046-0.532c-0.557-0.355-1.084-1.009-1.582-1.963s-0.747-1.964-0.747-3.032V75.54
		c0-1.295,0.375-2.541,1.123-3.735c0.748-1.194,1.823-1.792,3.223-1.792c0.801,0,1.479,0.176,2.036,0.527s1.087,1.004,1.592,1.958
		C189.74,73.452,189.992,74.466,189.992,75.54z M187.98,75.54c0-1.087-0.303-2.038-0.908-2.852c-0.345-0.449-0.83-0.674-1.455-0.674
		c-0.605,0-1.1,0.248-1.484,0.742c-0.58,0.749-0.869,1.676-0.869,2.783v2.197c0,1.094,0.306,2.044,0.918,2.852
		c0.338,0.449,0.824,0.674,1.455,0.674c0.599,0,1.09-0.248,1.475-0.742c0.58-0.749,0.869-1.676,0.869-2.783L187.98,75.54
		L187.98,75.54z"/>
</g>
<g>
	<path d="M238.748,75.54v2.197c0,1.302-0.376,2.549-1.128,3.74s-1.828,1.787-3.228,1.787c-0.807,0-1.489-0.177-2.046-0.532
		c-0.557-0.355-1.084-1.009-1.582-1.963s-0.747-1.964-0.747-3.032V75.54c0-1.295,0.375-2.541,1.123-3.735
		c0.748-1.194,1.823-1.792,3.223-1.792c0.801,0,1.479,0.176,2.036,0.527s1.087,1.004,1.592,1.958
		C238.496,73.452,238.748,74.466,238.748,75.54z M236.736,75.54c0-1.087-0.303-2.038-0.908-2.852
		c-0.345-0.449-0.83-0.674-1.455-0.674c-0.605,0-1.1,0.248-1.484,0.742c-0.58,0.749-0.869,1.676-0.869,2.783v2.197
		c0,1.094,0.306,2.044,0.918,2.852c0.338,0.449,0.824,0.674,1.455,0.674c0.599,0,1.09-0.248,1.475-0.742
		c0.58-0.749,0.869-1.676,0.869-2.783L236.736,75.54L236.736,75.54z"/>
</g>
<g>
	<path d="M287.504,75.54v2.197c0,1.302-0.376,2.549-1.128,3.74s-1.827,1.787-3.228,1.787c-0.808,0-1.489-0.177-2.047-0.532
		c-0.557-0.355-1.084-1.009-1.582-1.963s-0.746-1.964-0.746-3.032V75.54c0-1.295,0.375-2.541,1.123-3.735
		c0.748-1.194,1.821-1.792,3.223-1.792c0.801,0,1.479,0.176,2.035,0.527c0.558,0.351,1.088,1.004,1.593,1.958
		S287.504,74.466,287.504,75.54z M285.492,75.54c0-1.087-0.303-2.038-0.908-2.852c-0.346-0.449-0.83-0.674-1.455-0.674
		c-0.605,0-1.1,0.248-1.484,0.742c-0.58,0.749-0.869,1.676-0.869,2.783v2.197c0,1.094,0.308,2.044,0.918,2.852
		c0.339,0.449,0.824,0.674,1.455,0.674c0.601,0,1.091-0.248,1.476-0.742c0.58-0.749,0.869-1.676,0.869-2.783L285.492,75.54
		L285.492,75.54z"/>
</g>
<g>
	<path d="M336.26,75.54v2.197c0,1.302-0.376,2.549-1.128,3.74s-1.827,1.787-3.228,1.787c-0.808,0-1.489-0.177-2.046-0.532
		c-0.558-0.355-1.084-1.009-1.582-1.963s-0.747-1.964-0.747-3.032V75.54c0-1.295,0.375-2.541,1.123-3.735
		c0.748-1.194,1.821-1.792,3.223-1.792c0.801,0,1.479,0.176,2.036,0.527c0.557,0.351,1.087,1.004,1.592,1.958
		S336.26,74.466,336.26,75.54z M334.248,75.54c0-1.087-0.303-2.038-0.908-2.852c-0.346-0.449-0.83-0.674-1.455-0.674
		c-0.604,0-1.1,0.248-1.483,0.742c-0.58,0.749-0.869,1.676-0.869,2.783v2.197c0,1.094,0.307,2.044,0.918,2.852
		c0.338,0.449,0.824,0.674,1.455,0.674c0.6,0,1.09-0.248,1.475-0.742c0.58-0.749,0.869-1.676,0.869-2.783L334.248,75.54
		L334.248,75.54z"/>
</g>
<g>
	<path d="M385.016,75.54v2.197c0,1.302-0.376,2.549-1.128,3.74s-1.827,1.787-3.228,1.787c-0.808,0-1.489-0.177-2.046-0.532
		c-0.558-0.355-1.084-1.009-1.582-1.963s-0.747-1.964-0.747-3.032V75.54c0-1.295,0.375-2.541,1.123-3.735
		c0.748-1.194,1.822-1.792,3.223-1.792c0.801,0,1.479,0.176,2.036,0.527s1.087,1.004,1.592,1.958S385.016,74.466,385.016,75.54z
		 M383.004,75.54c0-1.087-0.303-2.038-0.908-2.852c-0.346-0.449-0.83-0.674-1.455-0.674c-0.604,0-1.1,0.248-1.483,0.742
		c-0.58,0.749-0.869,1.676-0.869,2.783v2.197c0,1.094,0.307,2.044,0.918,2.852c0.338,0.449,0.824,0.674,1.455,0.674
		c0.6,0,1.09-0.248,1.475-0.742c0.58-0.749,0.869-1.676,0.869-2.783L383.004,75.54L383.004,75.54z"/>
</g>
<rect x="436.268" y="15.934" fill="#FFFFFF" stroke="#000000" stroke-width="4" stroke-miterlimit="10" width="48.757" height="48.756"/>
<rect x="436.268" y="115.934" fill="#FFFFFF" stroke="#000000" stroke-width="4" stroke-miterlimit="10" width="48.757" height="48.756"/>
<g>
	<path d="M467.201,38.562v3.296c0,1.953-0.564,3.823-1.692,5.61c-1.128,1.787-2.741,2.681-4.841,2.681
		c-1.211,0-2.234-0.266-3.069-0.798c-0.835-0.532-1.626-1.514-2.373-2.944c-0.746-1.43-1.119-2.947-1.119-4.548v-3.296
		c0-1.943,0.561-3.811,1.684-5.603s2.734-2.688,4.834-2.688c1.201,0,2.22,0.264,3.055,0.791s1.631,1.506,2.389,2.937
		C466.824,35.431,467.201,36.951,467.201,38.562z M464.184,38.562c0-1.631-0.455-3.057-1.362-4.277
		c-0.519-0.674-1.244-1.011-2.183-1.011c-0.907,0-1.649,0.371-2.227,1.113c-0.869,1.123-1.305,2.515-1.305,4.175v3.296
		c0,1.641,0.459,3.066,1.377,4.277c0.508,0.674,1.235,1.011,2.184,1.011c0.898,0,1.635-0.371,2.211-1.113
		c0.869-1.123,1.305-2.515,1.305-4.175V38.562z"/>
</g>
<g>
	<path d="M427.084,39.837h-12.832c-0.723,0-1.238-0.139-1.546-0.417c-0.308-0.278-0.462-0.642-0.462-1.091
		c0-0.439,0.154-0.798,0.462-1.077c0.308-0.279,0.823-0.417,1.546-0.417h12.832c0.723,0,1.237,0.139,1.545,0.417
		c0.309,0.278,0.461,0.642,0.461,1.091c0,0.439-0.152,0.798-0.461,1.077C428.321,39.699,427.807,39.837,427.084,39.837z
		 M427.084,45.491h-12.832c-0.723,0-1.238-0.137-1.546-0.41s-0.462-0.635-0.462-1.084c0-0.449,0.154-0.813,0.462-1.091
		c0.308-0.278,0.823-0.417,1.546-0.417h12.832c0.723,0,1.237,0.139,1.545,0.417c0.309,0.278,0.461,0.642,0.461,1.091
		c0,0.449-0.152,0.811-0.461,1.084C428.321,45.354,427.807,45.491,427.084,45.491z"/>
</g>
<g>
	<path d="M427.084,138.835h-12.832c-0.723,0-1.238-0.139-1.546-0.416c-0.308-0.278-0.462-0.643-0.462-1.092
		c0-0.438,0.154-0.799,0.462-1.076c0.308-0.278,0.823-0.418,1.546-0.418h12.832c0.723,0,1.237,0.14,1.545,0.418
		c0.309,0.277,0.461,0.642,0.461,1.09c0,0.439-0.152,0.8-0.461,1.078C428.321,138.697,427.807,138.835,427.084,138.835z
		 M427.084,144.492h-12.832c-0.723,0-1.238-0.138-1.546-0.41c-0.308-0.273-0.462-0.636-0.462-1.084c0-0.449,0.154-0.812,0.462-1.092
		s0.823-0.416,1.546-0.416h12.832c0.723,0,1.237,0.139,1.545,0.416c0.309,0.278,0.461,0.643,0.461,1.092
		c0,0.448-0.152,0.811-0.461,1.084C428.321,144.354,427.807,144.492,427.084,144.492z"/>
</g>
<g>
	<path d="M462.176,142.783c-0.059,0.565-0.222,0.979-0.49,1.236c-0.268,0.258-0.606,0.389-1.018,0.389
		c-0.439,0-0.799-0.154-1.077-0.462c-0.277-0.308-0.417-0.821-0.417-1.545v-1.687c2.373-0.907,3.803-1.604,4.291-2.094
		c0.488-0.488,0.732-0.986,0.732-1.494c0-0.713-0.285-1.328-0.856-1.846s-1.38-0.777-2.425-0.777c-1.104,0-2.168,0.254-3.193,0.763
		v0.438c0,0.713-0.139,1.225-0.417,1.531c-0.277,0.307-0.642,0.461-1.091,0.461c-0.438,0-0.799-0.15-1.077-0.453
		c-0.277-0.303-0.417-0.816-0.417-1.539v-2.416c1.533-0.723,2.726-1.201,3.574-1.436c0.851-0.234,1.729-0.354,2.637-0.354
		c1.896,0,3.412,0.549,4.556,1.643c1.143,1.094,1.715,2.465,1.715,4.115c0,1.172-0.345,2.168-1.033,2.988
		C465.481,141.065,464.148,141.914,462.176,142.783z M462.807,148.583c0,0.459-0.164,0.832-0.49,1.119
		c-0.327,0.289-0.872,0.434-1.635,0.434c-0.762,0-1.306-0.145-1.633-0.434c-0.327-0.287-0.49-0.66-0.49-1.119
		s0.16-0.834,0.482-1.121c0.322-0.289,0.869-0.433,1.641-0.433c0.763,0,1.308,0.144,1.635,0.433
		C462.643,147.75,462.807,148.125,462.807,148.583z"/>
</g>
<g>
	<path d="M40.251,170.011v10.957h2.021c0.482,0,0.825,0.095,1.03,0.279c0.205,0.186,0.308,0.428,0.308,0.728
		c0,0.293-0.103,0.532-0.308,0.719c-0.205,0.187-0.548,0.277-1.03,0.277h-6.045c-0.482,0-0.825-0.093-1.03-0.277
		c-0.205-0.185-0.308-0.429-0.308-0.729c0-0.293,0.103-0.53,0.308-0.717c0.205-0.186,0.548-0.279,1.03-0.279h2.021v-8.35
		l-1.787,0.469c-0.287,0.078-0.501,0.117-0.645,0.117c-0.254,0-0.474-0.101-0.659-0.303c-0.186-0.201-0.278-0.449-0.278-0.742
		c0-0.267,0.068-0.477,0.205-0.629s0.423-0.289,0.859-0.406L40.251,170.011z"/>
</g>
<g>
	<path d="M89.131,170.011v10.957h2.021c0.482,0,0.825,0.095,1.03,0.279c0.205,0.186,0.308,0.428,0.308,0.728
		c0,0.293-0.103,0.532-0.308,0.719s-0.548,0.277-1.03,0.277h-6.045c-0.482,0-0.825-0.093-1.03-0.277s-0.308-0.429-0.308-0.729
		c0-0.293,0.103-0.53,0.308-0.717c0.205-0.186,0.548-0.279,1.03-0.279h2.021v-8.35l-1.787,0.469
		c-0.287,0.078-0.501,0.117-0.645,0.117c-0.254,0-0.474-0.101-0.659-0.303c-0.186-0.201-0.278-0.449-0.278-0.742
		c0-0.267,0.068-0.477,0.205-0.629c0.137-0.152,0.423-0.289,0.859-0.406L89.131,170.011z"/>
</g>
<g>
	<path d="M137.887,170.011v10.957h2.021c0.482,0,0.825,0.095,1.03,0.279c0.205,0.186,0.308,0.428,0.308,0.728
		c0,0.293-0.103,0.532-0.308,0.719s-0.548,0.277-1.03,0.277h-6.045c-0.482,0-0.825-0.093-1.03-0.277s-0.308-0.429-0.308-0.729
		c0-0.293,0.103-0.53,0.308-0.717c0.205-0.186,0.548-0.279,1.03-0.279h2.021v-8.35l-1.787,0.469
		c-0.287,0.078-0.501,0.117-0.645,0.117c-0.254,0-0.474-0.101-0.659-0.303c-0.186-0.201-0.278-0.449-0.278-0.742
		c0-0.267,0.068-0.477,0.205-0.629c0.137-0.152,0.423-0.289,0.859-0.406L137.887,170.011z"/>
</g>
<g>
	<path d="M186.643,170.011v10.957h2.021c0.482,0,0.825,0.095,1.03,0.279c0.205,0.186,0.308,0.428,0.308,0.728
		c0,0.293-0.103,0.532-0.308,0.719s-0.548,0.277-1.03,0.277h-6.045c-0.482,0-0.825-0.093-1.03-0.277s-0.308-0.429-0.308-0.729
		c0-0.293,0.103-0.53,0.308-0.717c0.205-0.186,0.548-0.279,1.03-0.279h2.021v-8.35l-1.787,0.469
		c-0.287,0.078-0.501,0.117-0.645,0.117c-0.254,0-0.474-0.101-0.659-0.303c-0.186-0.201-0.278-0.449-0.278-0.742
		c0-0.267,0.068-0.477,0.205-0.629c0.137-0.152,0.423-0.289,0.859-0.406L186.643,170.011z"/>
</g>
<g>
	<path d="M235.398,170.011v10.957h2.021c0.482,0,0.825,0.095,1.03,0.279c0.205,0.186,0.308,0.428,0.308,0.728
		c0,0.293-0.103,0.532-0.308,0.719c-0.205,0.187-0.548,0.277-1.03,0.277h-6.045c-0.482,0-0.825-0.093-1.03-0.277
		c-0.205-0.185-0.308-0.429-0.308-0.729c0-0.293,0.103-0.53,0.308-0.717c0.205-0.186,0.548-0.279,1.03-0.279h2.021v-8.35
		l-1.787,0.469c-0.287,0.078-0.501,0.117-0.645,0.117c-0.254,0-0.474-0.101-0.659-0.303c-0.186-0.201-0.278-0.449-0.278-0.742
		c0-0.267,0.068-0.477,0.205-0.629s0.423-0.289,0.859-0.406L235.398,170.011z"/>
</g>
<g>
	<path d="M284.154,170.011v10.957h2.021c0.482,0,0.825,0.095,1.03,0.279c0.205,0.186,0.309,0.428,0.309,0.728
		c0,0.293-0.104,0.532-0.309,0.719s-0.548,0.277-1.03,0.277h-6.045c-0.481,0-0.825-0.093-1.03-0.277s-0.308-0.429-0.308-0.729
		c0-0.293,0.103-0.53,0.308-0.717c0.205-0.186,0.549-0.279,1.03-0.279h2.021v-8.35l-1.787,0.469
		c-0.286,0.078-0.502,0.117-0.645,0.117c-0.254,0-0.474-0.101-0.658-0.303c-0.187-0.201-0.278-0.449-0.278-0.742
		c0-0.267,0.067-0.477,0.204-0.629c0.138-0.152,0.425-0.289,0.859-0.406L284.154,170.011z"/>
</g>
<g>
	<path d="M332.91,170.011v10.957h2.021c0.482,0,0.825,0.095,1.03,0.279c0.205,0.186,0.308,0.428,0.308,0.728
		c0,0.293-0.103,0.532-0.308,0.719s-0.548,0.277-1.03,0.277h-6.045c-0.481,0-0.825-0.093-1.029-0.277
		c-0.205-0.185-0.309-0.429-0.309-0.729c0-0.293,0.104-0.53,0.309-0.717c0.204-0.186,0.548-0.279,1.029-0.279h2.021v-8.35
		l-1.787,0.469c-0.287,0.078-0.502,0.117-0.646,0.117c-0.254,0-0.474-0.101-0.658-0.303c-0.187-0.201-0.278-0.449-0.278-0.742
		c0-0.267,0.068-0.477,0.205-0.629s0.424-0.289,0.858-0.406L332.91,170.011z"/>
</g>
<g>
	<path d="M381.666,170.011v10.957h2.021c0.482,0,0.825,0.095,1.03,0.279c0.205,0.186,0.309,0.428,0.309,0.728
		c0,0.293-0.104,0.532-0.309,0.719s-0.548,0.277-1.03,0.277h-6.045c-0.481,0-0.824-0.093-1.029-0.277s-0.309-0.429-0.309-0.729
		c0-0.293,0.104-0.53,0.309-0.717c0.205-0.186,0.548-0.279,1.029-0.279h2.021v-8.35l-1.787,0.469
		c-0.287,0.078-0.502,0.117-0.645,0.117c-0.255,0-0.475-0.101-0.659-0.303c-0.187-0.201-0.278-0.449-0.278-0.742
		c0-0.267,0.068-0.477,0.205-0.629s0.424-0.289,0.859-0.406L381.666,170.011z"/>
</g>
</svg>
