<?xml version="1.0" encoding="utf-8"?>
<!-- Generator: Adobe Illustrator 16.0.4, SVG Export Plug-In . SVG Version: 6.00 Build 0)  -->
<!DOCTYPE svg PUBLIC "-//W3C//DTD SVG 1.1//EN" "http://www.w3.org/Graphics/SVG/1.1/DTD/svg11.dtd">
<svg version="1.1" id="Layer_1" xmlns="http://www.w3.org/2000/svg" xmlns:xlink="http://www.w3.org/1999/xlink" x="0px" y="0px"
	 width="78.834px" height="79.167px" viewBox="10 0 78.834 79.167" enable-background="new 10 0 78.834 79.167"
	 xml:space="preserve">
<path d="M50,4C29.92,4.16,13.84,20.4,14,40.24c0,3.68,0.64,7.28,1.68,10.64c0,0.479,0.16,0.96,0.48,1.36C21.2,66.08,34.48,76,50,76
	h0.24c9.6-0.08,18.64-3.84,25.359-10.721C82.32,58.4,86.08,49.36,86,39.76C85.84,20.08,69.76,4,50,4z M64.32,15.12
	c0,2.08-1.68,3.76-3.76,3.76S56.8,17.2,56.8,15.12s1.681-3.76,3.761-3.76S64.32,13.04,64.32,15.12z M50.16,71.12H50
	c-13.12,0-24.4-8.24-28.96-19.761L40.16,34.8l23.199,33.36C59.279,70.08,54.8,71.12,50.16,71.12z M72.16,61.92
	c-1.52,1.52-3.12,2.801-4.801,4L56.24,49.84l10.32-8.88L76.88,55.84C75.52,58,74,60,72.16,61.92z M79.12,51.04L68.88,36.16
	c-0.399-0.56-0.96-0.88-1.601-0.96c-0.639-0.08-1.279,0.08-1.84,0.56L53.52,46L42.48,30c-0.4-0.56-0.96-0.88-1.6-0.96
	c-0.64-0.08-1.28,0.08-1.84,0.56L19.52,46.48c-0.4-2-0.64-4.16-0.72-6.32C18.72,22.96,32.56,8.96,49.76,8.8
	c1.68,0,3.28,0.16,4.801,0.4c-1.521,1.52-2.4,3.6-2.4,5.92c0,4.64,3.76,8.4,8.4,8.4c4.56,0,8.239-3.6,8.399-8.08
	c7.36,5.68,12.08,14.48,12.16,24.4C81.2,43.68,80.48,47.44,79.12,51.04z"/>
<text transform="matrix(1 0 0 1 10 92)" font-family="'HelveticaNeue-Bold'" font-size="4">Created by Marek Polakovic</text>
<text transform="matrix(1 0 0 1 10 96)" font-family="'HelveticaNeue-Bold'" font-size="4">from the Noun Project</text>
</svg>
