<?xml version="1.0" encoding="utf-8"?>
<!-- Generator: Adobe Illustrator 15.1.0, SVG Export Plug-In . SVG Version: 6.00 Build 0)  -->
<!DOCTYPE svg PUBLIC "-//W3C//DTD SVG 1.1//EN" "http://www.w3.org/Graphics/SVG/1.1/DTD/svg11.dtd">
<svg version="1.1" id="Layer_1" xmlns="http://www.w3.org/2000/svg" xmlns:xlink="http://www.w3.org/1999/xlink" x="0px" y="0px"
	 width="1154px" height="391.397px" viewBox="-31.75 -59.959 1154 391.397" enable-background="new -31.75 -59.959 1154 391.397"
	 xml:space="preserve">
<g>
	<rect x="0" y="23.506" fill="#FFFFFF" stroke="#000000" stroke-width="4" stroke-miterlimit="10" width="48.755" height="48.756"/>
	
		<rect x="48.755" y="23.506" fill="#FFFFFF" stroke="#000000" stroke-width="4" stroke-miterlimit="10" width="48.756" height="48.756"/>
	
		<rect x="97.511" y="23.506" fill="#FFFFFF" stroke="#000000" stroke-width="4" stroke-miterlimit="10" width="48.756" height="48.756"/>
	
		<rect x="146.267" y="23.506" fill="#FFFFFF" stroke="#000000" stroke-width="4" stroke-miterlimit="10" width="48.756" height="48.756"/>
	
		<rect x="195.023" y="23.506" fill="#FFFFFF" stroke="#000000" stroke-width="4" stroke-miterlimit="10" width="48.756" height="48.756"/>
	<rect x="0" y="92.262" fill="#FFFFFF" stroke="#000000" stroke-width="4" stroke-miterlimit="10" width="48.755" height="48.755"/>
	
		<rect x="48.755" y="92.262" fill="#FFFFFF" stroke="#000000" stroke-width="4" stroke-miterlimit="10" width="48.756" height="48.755"/>
	
		<rect x="97.511" y="92.262" fill="#FFFFFF" stroke="#000000" stroke-width="4" stroke-miterlimit="10" width="48.756" height="48.755"/>
	
		<rect x="146.267" y="92.262" fill="#FFFFFF" stroke="#000000" stroke-width="4" stroke-miterlimit="10" width="48.756" height="48.755"/>
	
		<rect x="195.023" y="92.262" fill="#FFFFFF" stroke="#000000" stroke-width="4" stroke-miterlimit="10" width="48.756" height="48.755"/>
	<rect x="5.969" y="29.476" width="36.813" height="36.814"/>
	<rect x="54.726" y="98.232" width="36.813" height="36.814"/>
	<rect x="103.482" y="29.476" width="36.813" height="36.814"/>
	<rect x="152.237" y="98.232" width="36.813" height="36.814"/>
	<rect x="200.992" y="29.476" width="36.813" height="36.814"/>
	
		<rect x="0" y="161.017" fill="#FFFFFF" stroke="#000000" stroke-width="4" stroke-miterlimit="10" width="48.755" height="48.755"/>
	
		<rect x="48.755" y="161.017" fill="#FFFFFF" stroke="#000000" stroke-width="4" stroke-miterlimit="10" width="48.756" height="48.755"/>
	
		<rect x="97.511" y="161.017" fill="#FFFFFF" stroke="#000000" stroke-width="4" stroke-miterlimit="10" width="48.756" height="48.755"/>
	
		<rect x="146.267" y="161.017" fill="#FFFFFF" stroke="#000000" stroke-width="4" stroke-miterlimit="10" width="48.756" height="48.755"/>
	
		<rect x="195.023" y="161.017" fill="#FFFFFF" stroke="#000000" stroke-width="4" stroke-miterlimit="10" width="48.756" height="48.755"/>
	
		<rect x="0" y="229.772" fill="#FFFFFF" stroke="#000000" stroke-width="4" stroke-miterlimit="10" width="48.755" height="48.756"/>
	
		<rect x="48.755" y="229.772" fill="#FFFFFF" stroke="#000000" stroke-width="4" stroke-miterlimit="10" width="48.756" height="48.756"/>
	
		<rect x="97.511" y="229.772" fill="#FFFFFF" stroke="#000000" stroke-width="4" stroke-miterlimit="10" width="48.756" height="48.756"/>
	
		<rect x="146.267" y="229.772" fill="#FFFFFF" stroke="#000000" stroke-width="4" stroke-miterlimit="10" width="48.756" height="48.756"/>
	
		<rect x="195.023" y="229.772" fill="#FFFFFF" stroke="#000000" stroke-width="4" stroke-miterlimit="10" width="48.756" height="48.756"/>
	<rect x="103.482" y="98.232" width="36.813" height="36.814"/>
	<rect x="200.993" y="166.988" width="36.813" height="36.813"/>
	<rect x="5.727" y="166.988" width="36.813" height="36.814"/>
	<rect x="200.993" y="235.743" width="36.813" height="36.814"/>
	<rect x="152.237" y="235.743" width="36.813" height="36.814"/>
	
		<rect x="243.055" y="23.505" fill="#FFFFFF" stroke="#000000" stroke-width="4" stroke-miterlimit="10" width="48.755" height="48.756"/>
	
		<rect x="291.81" y="23.505" fill="#FFFFFF" stroke="#000000" stroke-width="4" stroke-miterlimit="10" width="48.756" height="48.756"/>
	
		<rect x="340.566" y="23.505" fill="#FFFFFF" stroke="#000000" stroke-width="4" stroke-miterlimit="10" width="48.756" height="48.756"/>
	
		<rect x="243.055" y="92.261" fill="#FFFFFF" stroke="#000000" stroke-width="4" stroke-miterlimit="10" width="48.755" height="48.756"/>
	
		<rect x="291.81" y="92.261" fill="#FFFFFF" stroke="#000000" stroke-width="4" stroke-miterlimit="10" width="48.756" height="48.756"/>
	
		<rect x="340.566" y="92.261" fill="#FFFFFF" stroke="#000000" stroke-width="4" stroke-miterlimit="10" width="48.756" height="48.756"/>
	
		<rect x="243.055" y="161.017" fill="#FFFFFF" stroke="#000000" stroke-width="4" stroke-miterlimit="10" width="48.755" height="48.755"/>
	
		<rect x="291.81" y="161.017" fill="#FFFFFF" stroke="#000000" stroke-width="4" stroke-miterlimit="10" width="48.756" height="48.755"/>
	
		<rect x="340.566" y="161.017" fill="#FFFFFF" stroke="#000000" stroke-width="4" stroke-miterlimit="10" width="48.756" height="48.755"/>
	
		<rect x="243.055" y="229.772" fill="#FFFFFF" stroke="#000000" stroke-width="4" stroke-miterlimit="10" width="48.755" height="48.756"/>
	
		<rect x="291.81" y="229.772" fill="#FFFFFF" stroke="#000000" stroke-width="4" stroke-miterlimit="10" width="48.756" height="48.756"/>
	
		<rect x="340.566" y="229.772" fill="#FFFFFF" stroke="#000000" stroke-width="4" stroke-miterlimit="10" width="48.756" height="48.756"/>
	<rect x="249.024" y="235.743" width="36.813" height="36.814"/>
	<rect x="346.536" y="166.988" width="36.813" height="36.813"/>
	<rect x="249.024" y="29.476" width="36.813" height="36.814"/>
	
		<rect x="441.514" y="23.505" fill="#FFFFFF" stroke="#000000" stroke-width="4" stroke-miterlimit="10" width="68.756" height="48.756"/>
	
		<rect x="441.514" y="92.261" fill="#FFFFFF" stroke="#000000" stroke-width="4" stroke-miterlimit="10" width="68.756" height="48.756"/>
	
		<rect x="441.514" y="161.017" fill="#FFFFFF" stroke="#000000" stroke-width="4" stroke-miterlimit="10" width="68.756" height="48.755"/>
	
		<rect x="441.514" y="229.772" fill="#FFFFFF" stroke="#000000" stroke-width="4" stroke-miterlimit="10" width="68.756" height="48.756"/>
	<g>
		<path d="M421.355,45.346H411.09c-0.578,0-0.99-0.111-1.236-0.334c-0.245-0.223-0.368-0.514-0.368-0.873
			c0-0.352,0.123-0.639,0.368-0.861c0.246-0.222,0.658-0.334,1.236-0.334h10.267c0.577,0,0.989,0.111,1.235,0.334
			c0.246,0.223,0.369,0.514,0.369,0.873c0,0.352-0.123,0.639-0.369,0.861C422.346,45.233,421.934,45.346,421.355,45.346z
			 M421.355,49.87H411.09c-0.578,0-0.99-0.109-1.236-0.328c-0.245-0.219-0.368-0.508-0.368-0.867c0-0.359,0.123-0.65,0.368-0.873
			c0.246-0.223,0.658-0.334,1.236-0.334h10.267c0.577,0,0.989,0.111,1.235,0.334c0.246,0.223,0.369,0.514,0.369,0.873
			c0,0.359-0.123,0.648-0.369,0.867C422.346,49.761,421.934,49.87,421.355,49.87z"/>
	</g>
	<g>
		<path d="M421.355,115.346H411.09c-0.578,0-0.99-0.111-1.236-0.334c-0.245-0.223-0.368-0.514-0.368-0.873
			c0-0.352,0.123-0.639,0.368-0.861c0.246-0.222,0.658-0.334,1.236-0.334h10.267c0.577,0,0.989,0.111,1.235,0.334
			c0.246,0.223,0.369,0.514,0.369,0.873c0,0.352-0.123,0.639-0.369,0.861C422.346,115.233,421.934,115.346,421.355,115.346z
			 M421.355,119.869H411.09c-0.578,0-0.99-0.109-1.236-0.328c-0.245-0.219-0.368-0.508-0.368-0.867c0-0.359,0.123-0.65,0.368-0.873
			c0.246-0.223,0.658-0.334,1.236-0.334h10.267c0.577,0,0.989,0.111,1.235,0.334c0.246,0.223,0.369,0.514,0.369,0.873
			c0,0.359-0.123,0.648-0.369,0.867C422.346,119.76,421.934,119.869,421.355,119.869z"/>
	</g>
	<path d="M421.355,185.346H411.09c-0.578,0-0.99-0.111-1.236-0.334c-0.245-0.223-0.368-0.514-0.368-0.873
		c0-0.352,0.123-0.639,0.368-0.861c0.246-0.222,0.658-0.334,1.236-0.334h10.267c0.577,0,0.989,0.111,1.235,0.334
		c0.246,0.223,0.369,0.514,0.369,0.873c0,0.352-0.123,0.639-0.369,0.861C422.346,185.233,421.934,185.346,421.355,185.346z
		 M421.355,189.869H411.09c-0.578,0-0.99-0.109-1.236-0.328c-0.245-0.219-0.368-0.508-0.368-0.867c0-0.359,0.123-0.65,0.368-0.873
		c0.246-0.223,0.658-0.334,1.236-0.334h10.267c0.577,0,0.989,0.111,1.235,0.334c0.246,0.223,0.369,0.514,0.369,0.873
		c0,0.359-0.123,0.648-0.369,0.867S421.934,189.869,421.355,189.869z"/>
	<path d="M421.355,255.345H411.09c-0.578,0-0.99-0.11-1.236-0.334c-0.245-0.223-0.368-0.514-0.368-0.873
		c0-0.352,0.123-0.639,0.368-0.858c0.246-0.222,0.658-0.336,1.236-0.336h10.267c0.577,0,0.989,0.11,1.235,0.336
		c0.246,0.223,0.369,0.514,0.369,0.87c0,0.354-0.123,0.642-0.369,0.861C422.346,255.233,421.934,255.345,421.355,255.345z
		 M421.355,259.868H411.09c-0.578,0-0.99-0.109-1.236-0.328c-0.245-0.219-0.368-0.508-0.368-0.867s0.123-0.65,0.368-0.873
		c0.246-0.223,0.658-0.334,1.236-0.334h10.267c0.577,0,0.989,0.111,1.235,0.334s0.369,0.514,0.369,0.873s-0.123,0.648-0.369,0.867
		S421.934,259.868,421.355,259.868z"/>
</g>
<line fill="none" stroke="#000000" stroke-width="3" stroke-miterlimit="10" x1="546.764" y1="-3.202" x2="546.764" y2="305.235"/>
<g>
	
		<rect x="703.948" y="23.506" fill="#FFFFFF" stroke="#000000" stroke-width="4" stroke-miterlimit="10" width="48.755" height="48.756"/>
	
		<rect x="752.703" y="23.506" fill="#FFFFFF" stroke="#000000" stroke-width="4" stroke-miterlimit="10" width="48.756" height="48.756"/>
	
		<rect x="801.459" y="23.506" fill="#FFFFFF" stroke="#000000" stroke-width="4" stroke-miterlimit="10" width="48.756" height="48.756"/>
	
		<rect x="850.215" y="23.506" fill="#FFFFFF" stroke="#000000" stroke-width="4" stroke-miterlimit="10" width="48.756" height="48.756"/>
	
		<rect x="898.971" y="23.506" fill="#FFFFFF" stroke="#000000" stroke-width="4" stroke-miterlimit="10" width="48.756" height="48.756"/>
	
		<rect x="703.948" y="92.262" fill="#FFFFFF" stroke="#000000" stroke-width="4" stroke-miterlimit="10" width="48.755" height="48.755"/>
	
		<rect x="752.703" y="92.262" fill="#FFFFFF" stroke="#000000" stroke-width="4" stroke-miterlimit="10" width="48.756" height="48.755"/>
	
		<rect x="801.459" y="92.262" fill="#FFFFFF" stroke="#000000" stroke-width="4" stroke-miterlimit="10" width="48.756" height="48.755"/>
	
		<rect x="850.215" y="92.262" fill="#FFFFFF" stroke="#000000" stroke-width="4" stroke-miterlimit="10" width="48.756" height="48.755"/>
	
		<rect x="898.971" y="92.262" fill="#FFFFFF" stroke="#000000" stroke-width="4" stroke-miterlimit="10" width="48.756" height="48.755"/>
	
		<rect x="703.948" y="161.017" fill="#FFFFFF" stroke="#000000" stroke-width="4" stroke-miterlimit="10" width="48.755" height="48.755"/>
	
		<rect x="752.703" y="161.017" fill="#FFFFFF" stroke="#000000" stroke-width="4" stroke-miterlimit="10" width="48.756" height="48.755"/>
	
		<rect x="801.459" y="161.017" fill="#FFFFFF" stroke="#000000" stroke-width="4" stroke-miterlimit="10" width="48.756" height="48.755"/>
	
		<rect x="850.215" y="161.017" fill="#FFFFFF" stroke="#000000" stroke-width="4" stroke-miterlimit="10" width="48.756" height="48.755"/>
	
		<rect x="898.971" y="161.017" fill="#FFFFFF" stroke="#000000" stroke-width="4" stroke-miterlimit="10" width="48.756" height="48.755"/>
	
		<rect x="703.948" y="229.772" fill="#FFFFFF" stroke="#000000" stroke-width="4" stroke-miterlimit="10" width="48.755" height="48.756"/>
	
		<rect x="752.703" y="229.772" fill="#FFFFFF" stroke="#000000" stroke-width="4" stroke-miterlimit="10" width="48.756" height="48.756"/>
	
		<rect x="801.459" y="229.772" fill="#FFFFFF" stroke="#000000" stroke-width="4" stroke-miterlimit="10" width="48.756" height="48.756"/>
	
		<rect x="850.215" y="229.772" fill="#FFFFFF" stroke="#000000" stroke-width="4" stroke-miterlimit="10" width="48.756" height="48.756"/>
	
		<rect x="898.971" y="229.772" fill="#FFFFFF" stroke="#000000" stroke-width="4" stroke-miterlimit="10" width="48.756" height="48.756"/>
	
		<rect x="947.003" y="23.505" fill="#FFFFFF" stroke="#000000" stroke-width="4" stroke-miterlimit="10" width="48.755" height="48.756"/>
	
		<rect x="995.758" y="23.505" fill="#FFFFFF" stroke="#000000" stroke-width="4" stroke-miterlimit="10" width="48.756" height="48.756"/>
	
		<rect x="1044.514" y="23.505" fill="#FFFFFF" stroke="#000000" stroke-width="4" stroke-miterlimit="10" width="48.756" height="48.756"/>
	
		<rect x="947.003" y="92.261" fill="#FFFFFF" stroke="#000000" stroke-width="4" stroke-miterlimit="10" width="48.755" height="48.756"/>
	
		<rect x="995.758" y="92.261" fill="#FFFFFF" stroke="#000000" stroke-width="4" stroke-miterlimit="10" width="48.756" height="48.756"/>
	
		<rect x="1044.514" y="92.261" fill="#FFFFFF" stroke="#000000" stroke-width="4" stroke-miterlimit="10" width="48.756" height="48.756"/>
	
		<rect x="947.003" y="161.017" fill="#FFFFFF" stroke="#000000" stroke-width="4" stroke-miterlimit="10" width="48.755" height="48.755"/>
	
		<rect x="995.758" y="161.017" fill="#FFFFFF" stroke="#000000" stroke-width="4" stroke-miterlimit="10" width="48.756" height="48.755"/>
	
		<rect x="1044.514" y="161.017" fill="#FFFFFF" stroke="#000000" stroke-width="4" stroke-miterlimit="10" width="48.756" height="48.755"/>
	
		<rect x="947.003" y="229.772" fill="#FFFFFF" stroke="#000000" stroke-width="4" stroke-miterlimit="10" width="48.755" height="48.756"/>
	
		<rect x="995.758" y="229.772" fill="#FFFFFF" stroke="#000000" stroke-width="4" stroke-miterlimit="10" width="48.756" height="48.756"/>
	
		<rect x="1044.514" y="229.772" fill="#FFFFFF" stroke="#000000" stroke-width="4" stroke-miterlimit="10" width="48.756" height="48.756"/>
	
		<rect x="583.514" y="23.505" fill="#FFFFFF" stroke="#000000" stroke-width="4" stroke-miterlimit="10" width="68.756" height="48.756"/>
	
		<rect x="583.514" y="92.261" fill="#FFFFFF" stroke="#000000" stroke-width="4" stroke-miterlimit="10" width="68.756" height="48.756"/>
	
		<rect x="583.514" y="161.017" fill="#FFFFFF" stroke="#000000" stroke-width="4" stroke-miterlimit="10" width="68.756" height="48.755"/>
	
		<rect x="583.514" y="229.772" fill="#FFFFFF" stroke="#000000" stroke-width="4" stroke-miterlimit="10" width="68.756" height="48.756"/>
	<g>
		<path d="M683.355,45.346H673.09c-0.578,0-0.99-0.111-1.236-0.334c-0.245-0.223-0.368-0.514-0.368-0.873
			c0-0.352,0.123-0.639,0.368-0.861c0.246-0.222,0.658-0.334,1.236-0.334h10.267c0.577,0,0.989,0.111,1.235,0.334
			c0.246,0.223,0.369,0.514,0.369,0.873c0,0.352-0.123,0.639-0.369,0.861C684.346,45.233,683.934,45.346,683.355,45.346z
			 M683.355,49.87H673.09c-0.578,0-0.99-0.109-1.236-0.328c-0.245-0.219-0.368-0.508-0.368-0.867c0-0.359,0.123-0.65,0.368-0.873
			c0.246-0.223,0.658-0.334,1.236-0.334h10.267c0.577,0,0.989,0.111,1.235,0.334c0.246,0.223,0.369,0.514,0.369,0.873
			c0,0.359-0.123,0.648-0.369,0.867C684.346,49.761,683.934,49.87,683.355,49.87z"/>
	</g>
	<g>
		<path d="M683.355,115.346H673.09c-0.578,0-0.99-0.111-1.236-0.334c-0.245-0.223-0.368-0.514-0.368-0.873
			c0-0.352,0.123-0.639,0.368-0.861c0.246-0.222,0.658-0.334,1.236-0.334h10.267c0.577,0,0.989,0.111,1.235,0.334
			c0.246,0.223,0.369,0.514,0.369,0.873c0,0.352-0.123,0.639-0.369,0.861C684.346,115.233,683.934,115.346,683.355,115.346z
			 M683.355,119.869H673.09c-0.578,0-0.99-0.109-1.236-0.328c-0.245-0.219-0.368-0.508-0.368-0.867c0-0.359,0.123-0.65,0.368-0.873
			c0.246-0.223,0.658-0.334,1.236-0.334h10.267c0.577,0,0.989,0.111,1.235,0.334c0.246,0.223,0.369,0.514,0.369,0.873
			c0,0.359-0.123,0.648-0.369,0.867C684.346,119.76,683.934,119.869,683.355,119.869z"/>
	</g>
	<path d="M683.355,185.346H673.09c-0.578,0-0.99-0.111-1.236-0.334c-0.245-0.223-0.368-0.514-0.368-0.873
		c0-0.352,0.123-0.639,0.368-0.861c0.246-0.222,0.658-0.334,1.236-0.334h10.267c0.577,0,0.989,0.111,1.235,0.334
		c0.246,0.223,0.369,0.514,0.369,0.873c0,0.352-0.123,0.639-0.369,0.861C684.346,185.233,683.934,185.346,683.355,185.346z
		 M683.355,189.869H673.09c-0.578,0-0.99-0.109-1.236-0.328c-0.245-0.219-0.368-0.508-0.368-0.867c0-0.359,0.123-0.65,0.368-0.873
		c0.246-0.223,0.658-0.334,1.236-0.334h10.267c0.577,0,0.989,0.111,1.235,0.334c0.246,0.223,0.369,0.514,0.369,0.873
		c0,0.359-0.123,0.648-0.369,0.867S683.934,189.869,683.355,189.869z"/>
	<path d="M683.355,255.345H673.09c-0.578,0-0.99-0.11-1.236-0.334c-0.245-0.223-0.368-0.514-0.368-0.873
		c0-0.352,0.123-0.639,0.368-0.858c0.246-0.222,0.658-0.336,1.236-0.336h10.267c0.577,0,0.989,0.11,1.235,0.336
		c0.246,0.223,0.369,0.514,0.369,0.87c0,0.354-0.123,0.642-0.369,0.861C684.346,255.233,683.934,255.345,683.355,255.345z
		 M683.355,259.868H673.09c-0.578,0-0.99-0.109-1.236-0.328c-0.245-0.219-0.368-0.508-0.368-0.867s0.123-0.65,0.368-0.873
		c0.246-0.223,0.658-0.334,1.236-0.334h10.267c0.577,0,0.989,0.111,1.235,0.334s0.369,0.514,0.369,0.873s-0.123,0.648-0.369,0.867
		S683.934,259.868,683.355,259.868z"/>
</g>
<g>
	<path d="M607.128,47.811c0.102,0,0.17,0.034,0.271,0.102c0.068,0.034,0.068,0.136,0.068,0.306c0.034,0.646,0.068,1.258,0.068,1.836
		c0,0.408-0.068,0.544-0.204,0.544c-0.204,0-0.408,0-0.612-0.034c-0.102-0.034-4.046-0.238-4.827-0.306
		c-0.477-0.034-2.38-0.068-2.822-0.034c-0.102,0-0.237,0-0.374,0.068c-0.136,0.034-0.271-0.034-0.407-0.068
		c-0.068,0-0.137-0.204-0.137-0.442c0.034-0.578,0-1.122,0-1.734c0-0.238,0.034-0.374,0.137-0.408
		c0.033-0.034,0.102-0.034,0.17-0.034l1.938,0.068h5.915C606.618,47.675,606.856,47.743,607.128,47.811z"/>
	<path d="M615.697,39.209c-2.006-0.646-2.312,3.57-2.278,4.76c0.782-0.612,1.734-1.258,3.672-0.646
		c0.952,0.272,2.38,1.53,2.754,2.448c1.733,4.012,0.782,9.893-2.618,12.511c-0.714,0.51-3.025,0.782-4.487-0.408
		c-1.155-0.986-1.699-2.142-1.869-3.569c-0.442-4.08-1.156-12.375,0.985-16.081c0.884-1.496,2.651-1.972,4.216-1.53
		c1.326,0.34,2.855,1.19,3.434,2.516c0.271,0.51,0.408,1.224,0.476,1.836c0.034,0.17,0.034,0.544-0.204,0.646
		c-0.203,0.034-2.72,0.408-2.686-0.238C617.124,40.434,616.682,39.549,615.697,39.209z M615.764,55.698
		c2.074-0.68,2.38-5.405,1.938-7.003c-1.224-4.658-4.59-1.836-4.42,2.074C613.351,52.333,612.874,56.616,615.764,55.698z"/>
	<path d="M634.974,45.737c0.068,1.36,0.17,2.686,0.306,4.012c0.103,1.462,0.034,2.855-0.102,4.317
		c-0.102,1.36-0.408,2.21-1.359,3.196c-0.782,0.85-2.414,1.258-3.536,1.394c-2.277,0.306-5.1-0.714-5.745-3.094
		c-0.34-1.156-0.34-2.38-0.477-3.57c-0.136-1.258-0.34-2.516-0.374-3.808c-0.033-2.686-0.306-5.473,0.034-8.159
		c0.136-1.02,0.477-1.564,1.021-2.414c0.646-1.054,1.972-1.224,3.127-1.36c1.088-0.068,2.38-0.272,3.366,0.306
		c0.476,0.271,1.088,0.51,1.496,0.884c1.461,1.258,1.869,3.195,2.005,4.419C634.906,43.153,634.974,44.445,634.974,45.737z
		 M626.475,49.681c0.068,1.768,0.034,4.521,0.476,5.303c0.612,0.408,0.884,0.782,1.666,0.918c0.782,0.204,1.598,0.34,2.414,0.034
		c1.292-0.51,1.462-1.734,1.462-2.958c0-1.563,0-3.162-0.17-4.726c-0.17-1.733-0.034-3.467-0.17-5.201
		c-0.068-0.85-0.238-1.666-0.34-2.516c-0.17-0.986-1.021-1.36-1.021-1.36c-1.359-0.068-2.617,0.136-3.638,0.476
		c-0.815,0.85-0.918,2.89-0.918,4.216C626.203,45.839,626.406,47.743,626.475,49.681z"/>
</g>
<g>
	<path d="M611.973,128.486c-0.51,0.238-1.496,0.272-2.074,0.034c-0.203-7.207-0.033-11.083-0.102-18.256
		c0-0.034-0.306,0.952-0.815,0.68c-0.477-0.238-0.952-0.544-1.36-0.884c-0.102-0.476,1.768-2.924,2.074-3.74
		c0.407-0.408,1.903-0.102,2.312,0.068c0.102,0.17,0,1.53,0.034,2.38C611.667,116.859,611.973,120.871,611.973,128.486z"/>
	<path d="M618.534,128.486c-0.51,0.238-1.496,0.272-2.073,0.034c-0.204-7.207-0.034-11.083-0.103-18.256
		c0-0.034-0.306,0.952-0.815,0.68c-0.477-0.238-0.952-0.544-1.36-0.884c-0.102-0.476,1.768-2.924,2.074-3.74
		c0.407-0.408,1.903-0.102,2.312,0.068c0.102,0.17,0,1.53,0.034,2.38C618.229,116.859,618.534,120.871,618.534,128.486z"/>
	<path d="M625.096,128.486c-0.51,0.238-1.496,0.272-2.074,0.034c-0.203-7.207-0.033-11.083-0.102-18.256
		c0-0.034-0.306,0.952-0.815,0.68c-0.477-0.238-0.952-0.544-1.36-0.884c-0.102-0.476,1.768-2.924,2.074-3.74
		c0.407-0.408,1.903-0.102,2.312,0.068c0.102,0.17,0,1.53,0.034,2.38C624.79,116.859,625.096,120.871,625.096,128.486z"/>
</g>
<g>
	<path d="M614.404,186.811c0.102,0,0.17,0.034,0.271,0.102c0.068,0.034,0.068,0.136,0.068,0.306
		c0.034,0.646,0.068,1.258,0.068,1.836c0,0.408-0.068,0.544-0.204,0.544c-0.204,0-0.408,0-0.612-0.034
		c-0.102-0.034-4.046-0.238-4.827-0.306c-0.477-0.034-2.38-0.068-2.822-0.034c-0.102,0-0.237,0-0.374,0.068
		c-0.136,0.034-0.271-0.034-0.407-0.068c-0.068,0-0.137-0.204-0.137-0.442c0.034-0.578,0-1.122,0-1.734
		c0-0.238,0.034-0.374,0.137-0.408c0.033-0.034,0.102-0.034,0.17-0.034l1.938,0.068h5.915
		C613.894,186.675,614.131,186.743,614.404,186.811z"/>
	<path d="M622.122,177.938c-0.307,0-0.646,0-0.986,0.068c-0.578,0.034-0.34,0.544-0.272,0.986l0.272,2.176
		c2.584,0.102,4.556-0.034,6.153,3.162c0.544,1.054,0.612,2.278,0.714,3.467c0.238,3.196-0.238,9.927-4.657,9.927
		c-3.332,0-4.691-1.769-5.508-4.624c-0.034-0.17-0.204-0.441-0.17-0.611c0.034-0.477,3.502-0.816,3.672-0.477
		c-0.034,0.408,0,0.816,0.034,1.258c0.067,1.055,0.646,1.734,1.665,1.564c2.244-0.17,2.074-3.706,2.074-5.1
		c0-1.462-0.408-3.91-1.394-4.998c-1.021-1.088-2.89-1.19-4.08-0.816c-0.374,0.136-0.952,0.408-1.02-0.068
		c-0.136-0.544-0.34-5.031-0.442-6.629c-0.033-0.986-0.17-1.666,1.021-1.598c1.088,0.102,7.717,0.136,7.717,0.136
		s0.306,1.462-0.067,2.176C625.283,178.142,623.686,177.904,622.122,177.938z"/>
</g>
<g>
	<path d="M614.164,242.136c0.034,0.034,0.068,0.103,0.068,0.136h-0.034c0.238,1.292,0.272,5.779,0.34,7.275
		c0.034,0.85,0.034,3.298,0.034,3.672c-0.034,0.307-0.136,0.646-0.102,0.918c0.544,0.033,1.666-0.271,2.107,0.068
		c0.34,0.306,0.17,0.646,0.204,0.985c0.034,0.272,0.17,0.918-0.238,0.884c-0.34-0.033-1.938-0.238-2.107,0.137
		c-0.17,0.476-0.238,5.881-0.204,6.697c0.034,0.578-0.136,0.611-0.646,0.748c-0.511,0.067-1.021,0.067-1.53,0.067
		c-0.102-0.067-0.102-0.204-0.17-0.237c0-0.918,0.102-5.609,0.204-7.311c-1.19,0.035-7.377,0.17-7.105-0.102
		c0.103-0.884,1.428-2.72,1.802-3.467c0.307-0.613,4.046-7.99,4.42-9.111c0.136-0.408,0.68-1.463,1.054-1.633
		c0.238-0.135,1.394-0.102,1.802,0.17c0-0.033,0.034-0.067,0.068-0.033C614.131,242.033,614.164,242.068,614.164,242.136z
		 M612.193,254.205c0.307-1.258,0.238-7.344,0.068-7.955c-0.136,0.305-0.306,0.51-0.442,0.781c0,0-0.033,0-0.033,0.034
		s0,0.067,0,0.067c-0.544,0.986-3.264,7.105-3.196,7.174C609.711,254.307,611.105,254.34,612.193,254.205z"/>
	<path d="M618.721,260.902c0-0.238-0.271-0.375-0.34-0.578c-0.033-0.17-0.17-0.51-0.237-0.68c-0.272-0.34-0.544-1.293-0.442-1.734
		c0.544-0.204,1.734-0.204,2.346-0.408c0,0.137,0,0.307,0.068,0.375c0.17,0.135,0.067,0.203,0.102,0.441
		c0.034,0.408,0.238,0.781,0.238,1.189c0.271,0.646,0.782,1.189,1.462,1.462c1.529,0.171,2.21-0.884,2.821-2.04
		c0.714-1.258,0.714-2.855,0.578-4.249c-0.068-0.681-0.17-1.394-0.408-2.04c-0.34-0.816-0.918-1.224-1.632-1.666
		c-0.611-0.408-1.325-0.646-2.073-0.781c-0.408-0.034-0.851,0-1.258-0.034c-0.137,0-0.748-0.068-0.748-0.068
		c-0.103-0.407,0.204-0.917,0.544-1.19c0.34-0.68,0.782-1.291,1.224-1.938c0.374-0.611,0.748-1.258,1.054-1.903
		c0.272-0.544,0.782-0.985,0.952-1.563c-0.544,0.067-1.122,0.136-1.666,0.17c-0.51,0.068-1.02,0.238-1.496,0.136
		c-0.714-0.103-1.835,0.544-2.413-0.204c0.204-0.884-0.408-1.529,0.17-2.039c0.68-0.137,1.428,0.102,2.142,0.067
		c0.85-0.067,1.733,0.067,2.584,0.034c1.699-0.034,3.365-0.238,5.065-0.204c0.17,0.272-0.136,0.815-0.238,1.054
		c-0.271,0.441-0.612,0.884-0.918,1.326l-1.02,1.563c-0.306,0.476-0.544,0.985-0.851,1.462c-0.237,0.374-0.407,0.781-0.68,1.189
		c0.137,0.17,0.34,0.17,0.578,0.307c0.068,0.033,0.714,0.238,0.748,0.306c0.034,0.136,0.374,0.17,0.544,0.237
		c0.238,0.137,0.408,0.307,0.612,0.477c0.237,0.17,0.646,0.408,0.646,0.646c0,0.033,0.068,0.033,0.068,0
		c0.544,0.85,1.088,1.666,1.359,2.617c0.136,0.51,0,1.02,0.068,1.529c0.136,0.646,0.271,1.258,0.271,1.904
		c-0.034,1.122-0.306,2.074-0.68,3.162c-0.136,0.408-0.238,0.781-0.476,1.156c-0.307,0.407-0.681,0.781-0.782,1.291
		c-0.17,0.137-0.238,0.238-0.306,0.374c-0.204,0.204-0.442,0.374-0.612,0.578c-0.238,0.272-0.646,0.612-0.952,0.782
		c-0.951,0.51-1.938,0.271-2.957,0.136c-0.477-0.067-1.53-0.646-1.666-1.19c-0.272-0.135-0.612-0.408-0.748-0.68
		c-0.136-0.203-0.544-0.476-0.578-0.714c0.068-0.034,0-0.067,0.068-0.136C618.789,260.8,618.789,260.936,618.721,260.902z"/>
</g>
<g>
	<path d="M147.451-10.396c-0.096-2.736,0.192-5.376,0.048-8.064c-0.144-2.688,0.192-5.425,0.096-8.113
		c-0.048-1.344,0.144-2.592,0.096-3.888c-0.048-1.296-0.144-2.641,0.192-3.889c0.96-0.384,2.064-0.384,3.12-0.384
		c1.2,0.048,2.4,0.096,3.6,0.24c1.68,0.24,4.033,0.672,5.041,2.208c1.152,1.776,1.152,4.128,1.296,6.192
		c0.144,2.592-0.192,5.136-0.192,7.681c0.048,2.448,0.192,4.993,0,7.393c-0.048,1.2,0.048,2.4-0.288,3.552
		c-0.384,1.008-1.008,1.968-1.68,2.784c-1.344,1.68-3.265,1.968-5.233,2.16c-0.864,0.096-4.944,0.336-5.904,0.24
		c-0.432-1.344-0.288-2.496-0.288-3.792C147.355-7.516,147.499-8.956,147.451-10.396z M150.955-13.324
		c-0.048,2.544-0.288,5.088-0.096,7.633c1.344,0.24,2.88-0.192,4.224-0.48c1.44-0.336,1.824-1.44,2.112-2.833
		c0.288-1.584,0.24-3.264,0.288-4.896c0.048-1.728,0.144-8.688,0.288-10.465c0.048-1.392-0.096-2.976-0.432-4.32
		c-0.768-2.544-3.937-2.496-6.048-2.064c-0.096,2.784-0.192,5.952-0.384,8.88C150.715-19.037,151.003-16.156,150.955-13.324z"/>
	<path d="M177.692-8.188c0,3.648-3.409,5.904-6.529,5.904c-5.712,0-6.192-8.401-6.192-12.577c0-4.368,1.536-10.609,6.96-10.609
		c4.417,0,4.752,4.032,4.993,6.769c0.144,1.2,0.24,2.448,0.24,3.648c0,0.432,0,0.816,0,1.2c-0.048,0.336-1.344,0.384-2.304,0.384
		h-1.056c-1.44,0.048-2.928,0.432-4.32,0.432h-0.384c-0.288,0-0.528,0.048-0.528,0.24c0,0.768-0.48,6.864,2.736,6.864
		c2.448,0,2.496-2.4,2.832-3.936h0.432C175.532-9.868,177.692-9.1,177.692-8.188z M168.667-16.78
		c0.672,0.096,1.44,0.144,2.208,0.144c1.152,0,2.304-0.096,3.264-0.288c0-0.192,0.048-0.432,0.048-0.624
		c0-0.576-0.096-1.056-0.24-1.584c-0.288-1.296-0.864-2.88-2.112-2.88C169.243-22.013,168.859-18.557,168.667-16.78z"/>
	<path d="M182.971-15.964c-0.384,2.352-0.864,4.896-0.24,7.249c0.288,1.2,0.912,2.4,2.112,2.977c1.296,0.624,2.208-0.048,2.88-1.104
		c0.672-0.96,1.44-0.24,2.016,0.432c0.864,0.96,0.816,1.776-0.144,2.688c-1.776,1.68-4.56,1.872-6.672,0.72
		c-2.496-1.296-2.977-3.888-3.072-6.433c-0.096-2.688-0.24-5.424,0.096-8.064c0.384-3.12,1.776-7.393,5.425-7.777
		c1.008-0.096,2.064,0.096,2.976,0.528c0.72,0.336,2.592,1.248,2.448,2.208c-0.096,0.768-1.44,1.632-1.92,2.112
		c-0.48,0.48-1.632-1.008-2.112-1.2C184.075-22.877,183.212-17.548,182.971-15.964z"/>
	<path d="M203.708-4.06c-0.336,0.48-0.672,0.864-1.248,1.2c-0.24,0.048-1.104,0.576-1.104,0.24
		c-0.576,0.432-1.776,0.384-2.448,0.192l-1.104-0.192c-0.432-0.048-0.624-0.288-1.008-0.48c-2.304-0.96-3.312-3.072-3.601-5.425
		c-0.576-4.464-0.672-9.648,1.824-13.585c1.296-1.872,3.457-2.544,5.568-1.728c1.92,0.72,3.072,1.92,3.889,3.792
		c0.864,1.968,1.248,4.225,1.392,6.385c0.096,1.152,0.144,2.304,0.096,3.408c-0.048,0.48-0.24,0.864-0.336,1.296
		c-0.144,0.48,0,0.912-0.336,1.344C205.004-6.364,204.524-5.115,203.708-4.06z M196.795-18.316c-0.192,0.864-0.48,1.776-0.672,2.592
		c-0.192,0.96-0.384,2.112-0.24,3.072c0.192,0.912,0.048,1.824,0.192,2.736c0.144,1.152,0.384,3.121,1.344,3.984
		c0.72,0.624,2.688,1.056,3.504,0.336c1.056-0.96,0.96-3.12,1.008-4.416c0.048-1.776,0.048-3.408,0-5.137
		c-0.096-0.864-0.144-1.776-0.384-2.592c-0.24-0.768-0.048-1.344-0.48-2.064c-0.336-0.624-0.576-1.152-1.392-1.248
		c-0.769-0.096-1.249,0.096-1.824,0.624C197.275-19.853,196.987-19.037,196.795-18.316z"/>
	<path d="M219.307-33.822c0.288,0,0.624,0,0.912-0.048c0.624-0.144,1.248-0.192,1.92,0c0.336,0.432,0.048,1.008,0.192,1.488
		c0.096,0.672,0.048,4.656,0.048,6.097c-0.048,2.832,0,5.665-0.192,8.544c-0.144,2.833-0.288,5.617-0.144,8.449
		c0.096,2.256,0.144,4.513,0.096,6.769c-0.672,0.096-1.296,0.144-1.92,0.144c-0.432,0-1.248,0.192-1.632-0.048
		c0-0.144-0.24-0.432-0.192-0.864c-0.24,0.048-0.48,0.288-0.672,0.432c-0.288,0.192-0.624,0.192-0.96,0.192
		c-0.672,0-1.344-0.144-1.92-0.336c-0.96-0.336-1.92-0.672-2.4-1.344c-1.68-2.256-2.304-5.329-2.353-8.017
		c0-1.632-0.048-3.312,0.096-4.944c0.144-1.536,0.288-3.456,1.152-4.8c0.72-1.152,1.632-2.112,3.024-2.544
		c1.44-0.432,2.833,0.144,4.225,0.48c-0.048-3.168,0.144-5.809,0-9.409C218.875-33.582,219.019-33.774,219.307-33.822z
		 M214.459-20.285c-0.96,1.104-0.96,2.88-1.104,4.272c-0.144,1.584-0.24,3.168-0.192,4.704c0.048,1.392,0.24,3.408,1.344,4.369
		c1.008,0.912,2.16,1.296,3.264,0.288c0.24-0.192,0.432-0.432,0.624-0.672c0.24-0.24,0.096-0.624,0.048-0.96
		c-0.048-0.816-0.048-1.632-0.048-2.4c0.048-1.728,0.192-3.456,0.192-5.136c0-0.864-0.096-1.824-0.096-2.688
		c0-0.432,0.048-0.912,0.096-1.344c-0.192-0.288-0.48-0.432-0.768-0.576C216.523-21.101,215.563-21.581,214.459-20.285z"/>
	<path d="M238.699-8.188c0,3.648-3.409,5.904-6.529,5.904c-5.712,0-6.192-8.401-6.192-12.577c0-4.368,1.536-10.609,6.96-10.609
		c4.417,0,4.752,4.032,4.993,6.769c0.144,1.2,0.24,2.448,0.24,3.648c0,0.432,0,0.816,0,1.2c-0.048,0.336-1.344,0.384-2.304,0.384
		h-1.056c-1.44,0.048-2.928,0.432-4.32,0.432h-0.384c-0.288,0-0.528,0.048-0.528,0.24c0,0.768-0.48,6.864,2.736,6.864
		c2.448,0,2.496-2.4,2.832-3.936h0.432C236.539-9.868,238.699-9.1,238.699-8.188z M229.674-16.78
		c0.672,0.096,1.44,0.144,2.208,0.144c1.152,0,2.304-0.096,3.264-0.288c0-0.192,0.048-0.432,0.048-0.624
		c0-0.576-0.096-1.056-0.24-1.584c-0.288-1.296-0.864-2.88-2.112-2.88C230.25-22.013,229.866-18.557,229.674-16.78z"/>
</g>
<g>
	<path d="M865.86-2.379c-1.871,0.24-11.424,0.096-11.713,0c-0.383-1.008-0.479-2.064-0.479-3.072
		c-0.097-1.296-0.24-2.592-0.24-3.888c0.097-2.688,0.048-5.424,0-8.113c-0.096-2.784-0.192-5.568-0.239-8.4
		c0-2.785,0.191-5.617,0.096-8.401c0.72-0.72,2.016-0.48,2.977-0.528l2.592-0.144c0.96-0.048,1.92-0.048,2.88-0.048
		c1.104-0.048,2.4-0.192,3.409,0.336c0.096,0.912,0,1.824,0.239,2.736c0.288,1.152-0.815,1.008-1.632,1.056
		c-2.305,0.048-4.561,0.096-6.816,0.288c0.144,3.648-0.721,7.777-0.336,11.377c2.16,0,4.416-0.576,6.624-0.336
		c0.192,0.672,0.192,1.392,0.336,2.016c0.048,0.336,0.479,1.296,0.048,1.536c-0.432,0.24-1.248,0.192-1.729,0.192
		c-1.728,0.144-3.504,0.144-5.184,0.24c-0.145,1.392,0.048,2.736,0.145,4.128c0.096,1.584,0.143,3.168,0.383,4.704
		c1.297,0.24,2.593,0.336,3.938,0.336c0.719,0.048,1.487,0.048,2.304,0.048c0.575,0,1.44-0.096,2.017,0.096
		C866.053-5.211,865.716-3.436,865.86-2.379z"/>
	<path d="M879.636-23.693c0.769,0.672,1.104,1.392,1.248,2.352c0.192,1.2,0.528,2.352,0.624,3.6
		c0.191,2.544,0.191,5.137,0.288,7.681c0.097,1.296,0.097,2.544-0.048,3.84c-0.096,1.152,0.048,2.4-0.145,3.553
		c-0.384,0.144-0.912,0.048-1.344,0c-0.385-0.096-0.864,0.048-1.248-0.096c-0.528-0.288-0.336-1.056-0.288-1.488
		c0-0.912,0.048-1.776,0.144-2.64c0.096-1.728,0.145-3.408,0.192-5.136c0-1.729,0.048-3.504-0.239-5.185
		c-0.193-1.296,0-3.552-1.585-3.984c-1.584-0.48-2.353,0.912-3.216,1.92c-0.48,0.576-0.48,1.584-0.528,2.353l-0.192,2.832
		c-0.096,1.872-0.287,3.745-0.336,5.617c0,2.112,0.145,4.128-0.096,6.192c-0.96-0.096-2.16,0.144-2.881-0.288
		c-0.336-1.824-0.096-3.6,0.049-5.473c0.144-1.632,0.096-3.36,0.144-5.088c0.048-3.792,0.384-7.584,0.433-11.425
		c0.432-0.576,1.584-0.528,2.207-0.72c1.057-0.336,1.297,0.672,1.297,1.536C875.844-24.797,878.004-24.941,879.636-23.693z"/>
	<path d="M889.092-15.964c-0.385,2.352-0.865,4.896-0.24,7.249c0.287,1.2,0.912,2.4,2.111,2.977
		c1.297,0.624,2.209-0.048,2.881-1.104c0.672-0.96,1.439-0.24,2.016,0.432c0.865,0.96,0.816,1.776-0.144,2.688
		c-1.776,1.68-4.56,1.872-6.673,0.72c-2.496-1.296-2.977-3.888-3.072-6.433c-0.096-2.688-0.24-5.424,0.096-8.064
		c0.385-3.12,1.777-7.393,5.426-7.777c1.008-0.096,2.063,0.096,2.976,0.528c0.72,0.336,2.593,1.248,2.448,2.208
		c-0.096,0.768-1.439,1.632-1.92,2.112s-1.633-1.008-2.112-1.2C890.196-22.877,889.332-17.548,889.092-15.964z"/>
	<path d="M909.828-4.06c-0.336,0.48-0.673,0.864-1.248,1.2c-0.24,0.048-1.105,0.576-1.105,0.24
		c-0.575,0.432-1.775,0.384-2.447,0.192l-1.104-0.192c-0.433-0.048-0.624-0.288-1.008-0.48c-2.304-0.96-3.312-3.072-3.601-5.425
		c-0.576-4.464-0.672-9.648,1.824-13.585c1.297-1.872,3.457-2.544,5.568-1.728c1.92,0.72,3.072,1.92,3.889,3.792
		c0.863,1.968,1.248,4.225,1.393,6.385c0.096,1.152,0.144,2.304,0.096,3.408c-0.049,0.48-0.24,0.864-0.336,1.296
		c-0.145,0.48,0,0.912-0.336,1.344C911.123-6.364,910.644-5.115,909.828-4.06z M902.915-18.316
		c-0.192,0.864-0.479,1.776-0.673,2.592c-0.191,0.96-0.383,2.112-0.239,3.072c0.192,0.912,0.048,1.824,0.192,2.736
		c0.144,1.152,0.384,3.121,1.344,3.984c0.721,0.624,2.688,1.056,3.504,0.336c1.057-0.96,0.961-3.12,1.008-4.416
		c0.049-1.776,0.049-3.408,0-5.137c-0.096-0.864-0.144-1.776-0.383-2.592c-0.24-0.768-0.049-1.344-0.48-2.064
		c-0.336-0.624-0.576-1.152-1.393-1.248c-0.768-0.096-1.248,0.096-1.824,0.624C903.395-19.853,903.108-19.037,902.915-18.316z"/>
	<path d="M925.427-33.822c0.288,0,0.624,0,0.912-0.048c0.624-0.144,1.248-0.192,1.921,0c0.336,0.432,0.047,1.008,0.191,1.488
		c0.096,0.672,0.048,4.656,0.048,6.097c-0.048,2.832,0,5.665-0.192,8.544c-0.144,2.833-0.287,5.617-0.144,8.449
		c0.097,2.256,0.144,4.513,0.097,6.769c-0.673,0.096-1.297,0.144-1.921,0.144c-0.433,0-1.248,0.192-1.632-0.048
		c0-0.144-0.24-0.432-0.192-0.864c-0.239,0.048-0.479,0.288-0.672,0.432c-0.288,0.192-0.624,0.192-0.96,0.192
		c-0.672,0-1.344-0.144-1.92-0.336c-0.961-0.336-1.92-0.672-2.4-1.344c-1.68-2.256-2.305-5.329-2.353-8.017
		c0-1.632-0.048-3.312,0.097-4.944c0.144-1.536,0.287-3.456,1.152-4.8c0.719-1.152,1.631-2.112,3.023-2.544
		c1.44-0.432,2.832,0.144,4.225,0.48c-0.049-3.168,0.145-5.809,0-9.409C924.995-33.582,925.139-33.774,925.427-33.822z
		 M920.578-20.285c-0.959,1.104-0.959,2.88-1.104,4.272c-0.145,1.584-0.24,3.168-0.192,4.704c0.048,1.392,0.24,3.408,1.345,4.369
		c1.008,0.912,2.16,1.296,3.264,0.288c0.24-0.192,0.432-0.432,0.624-0.672c0.24-0.24,0.097-0.624,0.048-0.96
		c-0.048-0.816-0.048-1.632-0.048-2.4c0.048-1.728,0.192-3.456,0.192-5.136c0-0.864-0.096-1.824-0.096-2.688
		c0-0.432,0.047-0.912,0.096-1.344c-0.192-0.288-0.48-0.432-0.768-0.576C922.643-21.101,921.683-21.581,920.578-20.285z"/>
	<path d="M944.819-8.188c0,3.648-3.408,5.904-6.528,5.904c-5.712,0-6.192-8.401-6.192-12.577c0-4.368,1.536-10.609,6.961-10.609
		c4.416,0,4.752,4.032,4.992,6.769c0.145,1.2,0.24,2.448,0.24,3.648c0,0.432,0,0.816,0,1.2c-0.049,0.336-1.345,0.384-2.305,0.384
		h-1.057c-1.439,0.048-2.928,0.432-4.32,0.432h-0.383c-0.289,0-0.529,0.048-0.529,0.24c0,0.768-0.479,6.864,2.736,6.864
		c2.449,0,2.496-2.4,2.832-3.936h0.433C942.658-9.868,944.819-9.1,944.819-8.188z M935.794-16.78
		c0.672,0.096,1.44,0.144,2.208,0.144c1.152,0,2.305-0.096,3.264-0.288c0-0.192,0.049-0.432,0.049-0.624
		c0-0.576-0.096-1.056-0.24-1.584c-0.288-1.296-0.863-2.88-2.111-2.88C936.37-22.013,935.987-18.557,935.794-16.78z"/>
</g>
</svg>
