<?xml version="1.0" encoding="utf-8"?>
<!-- Generator: Adobe Illustrator 15.1.0, SVG Export Plug-In . SVG Version: 6.00 Build 0)  -->
<!DOCTYPE svg PUBLIC "-//W3C//DTD SVG 1.1//EN" "http://www.w3.org/Graphics/SVG/1.1/DTD/svg11.dtd">
<svg version="1.1" id="Layer_1" xmlns="http://www.w3.org/2000/svg" xmlns:xlink="http://www.w3.org/1999/xlink" x="0px" y="0px"
	 width="299px" height="160.5px" viewBox="0 0 299 160.5" enable-background="new 0 0 299 160.5" xml:space="preserve">
<rect x="10" y="11" fill="#FFFFFF" stroke="#000000" stroke-width="3" stroke-miterlimit="10" width="140" height="140"/>
<rect x="150" y="11" fill="#FFFFFF" stroke="#000000" stroke-width="3" stroke-miterlimit="10" width="140" height="140"/>
<path d="M290,133.25c-7.188,0-13.088-44.822-13.996-50.695c-0.879-5.68-5.923-48.305-11.464-48.305s-10.79,42.875-11.464,48.305
	c-0.731,5.897-6.808,50.695-13.996,50.695c-7.188,0-13.044-44.829-13.994-50.695c-0.961-5.93-5.922-48.305-11.462-48.305
	s-10.749,42.875-11.462,48.305c-0.773,5.893-6.806,50.695-13.993,50.695s-13.229-44.802-13.993-50.694
	c-0.801-6.181-5.922-48.306-11.463-48.306c-5.54,0-8.416,43.518-11.462,48.305c-3.19,5.014-6.806,10.695-13.993,10.695
	c-7.186,0-10.801-5.682-13.991-10.695c-3.045-4.785-5.921-9.305-11.46-9.305s-8.416,4.52-11.46,9.305
	c-3.19,5.014-6.805,10.695-13.991,10.695s-10.801-5.682-13.99-10.695c-3.044-4.785-5.92-9.305-11.458-9.305
	c-5.54,0-8.416,4.52-11.461,9.305c-3.19,5.014-6.806,10.695-13.992,10.695s-10.802-5.682-13.992-10.694
	C18.416,77.77,15.54,73.25,10,73.25v-3c7.187,0,10.802,5.682,13.992,10.695c3.045,4.785,5.921,9.305,11.46,9.305
	c5.54,0,8.416-4.52,11.461-9.305c3.19-5.014,6.806-10.695,13.992-10.695c7.186,0,10.8,5.682,13.99,10.695
	c3.044,4.785,5.92,9.305,11.459,9.305s8.415-4.52,11.46-9.305c3.19-5.014,6.805-10.695,13.992-10.695s10.802,5.682,13.992,10.695
	c3.045,4.785,5.921,9.305,11.46,9.305c5.541,0,8.417-4.52,11.462-9.305c3.19-5.014,6.806-50.695,13.993-50.695
	s13.162,44.875,13.994,50.695c0.803,5.614,5.922,48.305,11.462,48.305s10.624-42.695,11.462-48.305
	c0.869-5.82,6.806-50.695,13.993-50.695s13.251,45.125,13.993,50.694c0.749,5.622,5.922,48.306,11.463,48.306
	c5.542,0,10.629-42.695,11.465-48.306c0.83-5.569,6.808-50.694,13.995-50.694s13.085,45.5,13.995,50.694
	c0.979,5.587,5.923,48.306,11.465,48.306V133.25z"/>
<g>
	<rect x="10" y="81.25" width="4" height="1"/>
	<path d="M282.943,82.25h-8.149v-1h8.149V82.25z M271.738,82.25h-8.15v-1h8.15V82.25z M260.532,82.25h-8.15v-1h8.15V82.25z
		 M249.326,82.25h-8.15v-1h8.15V82.25z M238.12,82.25h-8.15v-1h8.15V82.25z M226.914,82.25h-8.15v-1h8.15V82.25z M215.708,82.25
		h-8.15v-1h8.15V82.25z M204.502,82.25h-8.15v-1h8.15V82.25z M193.296,82.25h-8.149v-1h8.149V82.25z M182.09,82.25h-8.149v-1h8.149
		V82.25z M170.884,82.25h-8.149v-1h8.149V82.25z M159.678,82.25h-8.149v-1h8.149V82.25z M148.472,82.25h-8.149v-1h8.149V82.25z
		 M137.266,82.25h-8.15v-1h8.15V82.25z M126.06,82.25h-8.15v-1h8.15V82.25z M114.854,82.25h-8.15v-1h8.15V82.25z M103.648,82.25
		h-8.15v-1h8.15V82.25z M92.442,82.25h-8.15v-1h8.15V82.25z M81.236,82.25h-8.15v-1h8.15V82.25z M70.03,82.25h-8.15v-1h8.15V82.25z
		 M58.824,82.25h-8.149v-1h8.149V82.25z M47.618,82.25h-8.15v-1h8.15V82.25z M36.412,82.25h-8.15v-1h8.15V82.25z M25.206,82.25
		h-8.15v-1h8.15V82.25z"/>
	<rect x="286" y="81.25" width="4" height="1"/>
</g>
</svg>
