<?xml version="1.0" encoding="utf-8"?>
<!-- Generator: Adobe Illustrator 15.1.0, SVG Export Plug-In . SVG Version: 6.00 Build 0)  -->
<!DOCTYPE svg PUBLIC "-//W3C//DTD SVG 1.1//EN" "http://www.w3.org/Graphics/SVG/1.1/DTD/svg11.dtd">
<svg version="1.1" id="Layer_1" xmlns="http://www.w3.org/2000/svg" xmlns:xlink="http://www.w3.org/1999/xlink" x="0px" y="0px"
	 width="618.644px" height="170.339px" viewBox="0 0 618.644 170.339" enable-background="new 0 0 618.644 170.339"
	 xml:space="preserve">
<g>
	<path d="M54.515,33.558c0.048,0,0.145,0.048,0.265,0.12c0.168,0.264,0.264,0.552,0.264,0.84c0,0.768-0.408,1.32-1.224,1.632
		c-0.793,0.216-1.536,0.336-2.257,0.336c-0.288,0-0.552-0.024-0.768-0.048c-0.504,0-1.248,0.048-2.305,0.072
		c-1.032,0.024-1.8,0.048-2.28,0.048c-1.344,0-2.088-0.024-2.256-0.096c-0.576-0.192-0.864-0.792-0.864-1.824
		c0-0.672,0.456-1.176,1.344-1.488c0.385-0.12,0.841-0.192,1.393-0.192c0.288,0,0.72,0.048,1.32,0.072
		c0.576,0.072,1.032,0.096,1.32,0.096c0.264,0,0.672-0.048,1.2-0.12c0.479-0.12,0.888-0.168,1.176-0.168
		c0.312,0,0.552,0.048,0.744,0.168c0.384,0,1.176-0.24,1.488-0.24c0.119,0,0.216,0.024,0.336,0.096
		C53.7,33.03,54.059,33.246,54.515,33.558z"/>
	<path d="M67.355,33.558c0.048,0,0.145,0.048,0.265,0.12c0.168,0.264,0.264,0.552,0.264,0.84c0,0.768-0.408,1.32-1.224,1.632
		c-0.793,0.216-1.536,0.336-2.257,0.336c-0.288,0-0.552-0.024-0.768-0.048c-0.504,0-1.248,0.048-2.305,0.072
		c-1.032,0.024-1.8,0.048-2.28,0.048c-1.344,0-2.088-0.024-2.256-0.096c-0.576-0.192-0.864-0.792-0.864-1.824
		c0-0.672,0.456-1.176,1.344-1.488c0.385-0.12,0.841-0.192,1.393-0.192c0.288,0,0.72,0.048,1.32,0.072
		c0.576,0.072,1.032,0.096,1.32,0.096c0.264,0,0.672-0.048,1.2-0.12c0.479-0.12,0.888-0.168,1.176-0.168
		c0.312,0,0.552,0.048,0.744,0.168c0.384,0,1.176-0.24,1.488-0.24c0.119,0,0.216,0.024,0.336,0.096
		C66.54,33.03,66.899,33.246,67.355,33.558z"/>
	<path d="M74.506,32.318c1.368,0,2.185,0.504,2.473,1.512c0.12,0.36,0.168,0.696,0.168,1.008c0,0.288-0.048,0.696-0.168,1.344
		c0,0.264-0.192,0.504-0.576,0.744l-0.937,0.504c-0.119,0.048-0.216,0.072-0.336,0.072c-0.144,0-0.384-0.072-0.744-0.192
		c-0.336-0.096-0.575-0.168-0.72-0.192c-0.12-0.024-0.288-0.144-0.528-0.384v-0.432c-0.527-0.888-0.792-1.512-0.792-1.824
		c0-0.264,0.168-0.552,0.48-0.912C73.331,33.086,73.93,32.438,74.506,32.318z"/>
	<path d="M105.866,32.318c1.368,0,2.184,0.504,2.472,1.512c0.12,0.36,0.168,0.696,0.168,1.008c0,0.288-0.048,0.696-0.168,1.344
		c0,0.264-0.191,0.504-0.576,0.744l-0.936,0.504c-0.12,0.048-0.216,0.072-0.336,0.072c-0.145,0-0.384-0.072-0.744-0.192
		c-0.336-0.096-0.576-0.168-0.72-0.192c-0.12-0.024-0.288-0.144-0.528-0.384v-0.432c-0.528-0.888-0.792-1.512-0.792-1.824
		c0-0.264,0.168-0.552,0.479-0.912C104.689,33.086,105.29,32.438,105.866,32.318z"/>
	<path d="M124.394,33.558c0.048,0,0.144,0.048,0.264,0.12c0.168,0.264,0.265,0.552,0.265,0.84c0,0.768-0.408,1.32-1.225,1.632
		c-0.792,0.216-1.536,0.336-2.256,0.336c-0.288,0-0.553-0.024-0.769-0.048c-0.504,0-1.248,0.048-2.304,0.072
		c-1.032,0.024-1.801,0.048-2.28,0.048c-1.345,0-2.089-0.024-2.257-0.096c-0.575-0.192-0.863-0.792-0.863-1.824
		c0-0.672,0.456-1.176,1.344-1.488c0.384-0.12,0.84-0.192,1.393-0.192c0.287,0,0.72,0.048,1.319,0.072
		c0.576,0.072,1.032,0.096,1.32,0.096c0.264,0,0.672-0.048,1.2-0.12c0.48-0.12,0.888-0.168,1.176-0.168
		c0.312,0,0.553,0.048,0.744,0.168c0.385,0,1.177-0.24,1.488-0.24c0.12,0,0.216,0.024,0.336,0.096
		C123.578,33.03,123.938,33.246,124.394,33.558z"/>
	<path d="M131.545,32.318c1.368,0,2.184,0.504,2.472,1.512c0.12,0.36,0.168,0.696,0.168,1.008c0,0.288-0.048,0.696-0.168,1.344
		c0,0.264-0.191,0.504-0.576,0.744l-0.936,0.504c-0.12,0.048-0.216,0.072-0.336,0.072c-0.145,0-0.384-0.072-0.744-0.192
		c-0.336-0.096-0.576-0.168-0.72-0.192c-0.12-0.024-0.288-0.144-0.528-0.384v-0.432c-0.528-0.888-0.792-1.512-0.792-1.824
		c0-0.264,0.168-0.552,0.479-0.912C130.369,33.086,130.969,32.438,131.545,32.318z"/>
	<path d="M162.905,32.318c1.368,0,2.184,0.504,2.472,1.512c0.12,0.36,0.168,0.696,0.168,1.008c0,0.288-0.048,0.696-0.168,1.344
		c0,0.264-0.191,0.504-0.576,0.744l-0.936,0.504c-0.12,0.048-0.216,0.072-0.336,0.072c-0.145,0-0.384-0.072-0.744-0.192
		c-0.336-0.096-0.576-0.168-0.72-0.192c-0.12-0.024-0.288-0.144-0.528-0.384v-0.432c-0.528-0.888-0.792-1.512-0.792-1.824
		c0-0.264,0.168-0.552,0.479-0.912C161.728,33.086,162.329,32.438,162.905,32.318z"/>
	<path d="M175.745,32.318c1.368,0,2.184,0.504,2.472,1.512c0.12,0.36,0.168,0.696,0.168,1.008c0,0.288-0.048,0.696-0.168,1.344
		c0,0.264-0.191,0.504-0.576,0.744l-0.936,0.504c-0.12,0.048-0.216,0.072-0.336,0.072c-0.145,0-0.384-0.072-0.744-0.192
		c-0.336-0.096-0.576-0.168-0.72-0.192c-0.12-0.024-0.288-0.144-0.528-0.384v-0.432c-0.528-0.888-0.792-1.512-0.792-1.824
		c0-0.264,0.168-0.552,0.479-0.912C174.568,33.086,175.168,32.438,175.745,32.318z"/>
	<path d="M194.273,33.558c0.048,0,0.144,0.048,0.264,0.12c0.168,0.264,0.265,0.552,0.265,0.84c0,0.768-0.408,1.32-1.225,1.632
		c-0.792,0.216-1.536,0.336-2.256,0.336c-0.288,0-0.553-0.024-0.769-0.048c-0.504,0-1.248,0.048-2.304,0.072
		c-1.032,0.024-1.801,0.048-2.28,0.048c-1.345,0-2.089-0.024-2.257-0.096c-0.575-0.192-0.863-0.792-0.863-1.824
		c0-0.672,0.456-1.176,1.344-1.488c0.384-0.12,0.84-0.192,1.393-0.192c0.287,0,0.72,0.048,1.319,0.072
		c0.576,0.072,1.032,0.096,1.32,0.096c0.264,0,0.672-0.048,1.2-0.12c0.48-0.12,0.888-0.168,1.176-0.168
		c0.312,0,0.553,0.048,0.744,0.168c0.385,0,1.177-0.24,1.488-0.24c0.12,0,0.216,0.024,0.336,0.096
		C193.457,33.03,193.817,33.246,194.273,33.558z"/>
	<path d="M225.631,33.558c0.048,0,0.145,0.048,0.265,0.12c0.168,0.264,0.264,0.552,0.264,0.84c0,0.768-0.408,1.32-1.224,1.632
		c-0.793,0.216-1.536,0.336-2.257,0.336c-0.288,0-0.552-0.024-0.768-0.048c-0.504,0-1.248,0.048-2.305,0.072
		c-1.032,0.024-1.8,0.048-2.28,0.048c-1.344,0-2.088-0.024-2.256-0.096c-0.576-0.192-0.864-0.792-0.864-1.824
		c0-0.672,0.456-1.176,1.344-1.488c0.385-0.12,0.841-0.192,1.393-0.192c0.288,0,0.72,0.048,1.32,0.072
		c0.576,0.072,1.032,0.096,1.32,0.096c0.264,0,0.672-0.048,1.2-0.12c0.479-0.12,0.888-0.168,1.176-0.168
		c0.312,0,0.552,0.048,0.744,0.168c0.384,0,1.176-0.24,1.488-0.24c0.119,0,0.216,0.024,0.336,0.096
		C224.816,33.03,225.175,33.246,225.631,33.558z"/>
	<path d="M238.471,33.558c0.048,0,0.145,0.048,0.265,0.12c0.168,0.264,0.264,0.552,0.264,0.84c0,0.768-0.408,1.32-1.224,1.632
		c-0.793,0.216-1.536,0.336-2.257,0.336c-0.288,0-0.552-0.024-0.768-0.048c-0.504,0-1.248,0.048-2.305,0.072
		c-1.032,0.024-1.8,0.048-2.28,0.048c-1.344,0-2.088-0.024-2.256-0.096c-0.576-0.192-0.864-0.792-0.864-1.824
		c0-0.672,0.456-1.176,1.344-1.488c0.385-0.12,0.841-0.192,1.393-0.192c0.288,0,0.72,0.048,1.32,0.072
		c0.576,0.072,1.032,0.096,1.32,0.096c0.264,0,0.672-0.048,1.2-0.12c0.479-0.12,0.888-0.168,1.176-0.168
		c0.312,0,0.552,0.048,0.744,0.168c0.384,0,1.176-0.24,1.488-0.24c0.119,0,0.216,0.024,0.336,0.096
		C237.656,33.03,238.015,33.246,238.471,33.558z"/>
	<path d="M264.142,32.318c1.368,0,2.185,0.504,2.473,1.512c0.12,0.36,0.168,0.696,0.168,1.008c0,0.288-0.048,0.696-0.168,1.344
		c0,0.264-0.192,0.504-0.576,0.744l-0.937,0.504c-0.119,0.048-0.216,0.072-0.336,0.072c-0.144,0-0.384-0.072-0.744-0.192
		c-0.336-0.096-0.575-0.168-0.72-0.192c-0.12-0.024-0.288-0.144-0.528-0.384v-0.432c-0.527-0.888-0.792-1.512-0.792-1.824
		c0-0.264,0.168-0.552,0.48-0.912C262.966,33.086,263.566,32.438,264.142,32.318z"/>
	<path d="M282.67,33.558c0.048,0,0.145,0.048,0.265,0.12c0.168,0.264,0.264,0.552,0.264,0.84c0,0.768-0.408,1.32-1.224,1.632
		c-0.793,0.216-1.536,0.336-2.257,0.336c-0.288,0-0.552-0.024-0.768-0.048c-0.504,0-1.248,0.048-2.305,0.072
		c-1.032,0.024-1.8,0.048-2.28,0.048c-1.344,0-2.088-0.024-2.256-0.096c-0.576-0.192-0.864-0.792-0.864-1.824
		c0-0.672,0.456-1.176,1.344-1.488c0.385-0.12,0.841-0.192,1.393-0.192c0.288,0,0.72,0.048,1.32,0.072
		c0.576,0.072,1.032,0.096,1.32,0.096c0.264,0,0.672-0.048,1.2-0.12c0.479-0.12,0.888-0.168,1.176-0.168
		c0.312,0,0.552,0.048,0.744,0.168c0.384,0,1.176-0.24,1.488-0.24c0.119,0,0.216,0.024,0.336,0.096
		C281.855,33.03,282.214,33.246,282.67,33.558z"/>
	<path d="M295.51,33.558c0.048,0,0.145,0.048,0.265,0.12c0.168,0.264,0.264,0.552,0.264,0.84c0,0.768-0.408,1.32-1.224,1.632
		c-0.793,0.216-1.536,0.336-2.257,0.336c-0.288,0-0.552-0.024-0.768-0.048c-0.504,0-1.248,0.048-2.305,0.072
		c-1.032,0.024-1.8,0.048-2.28,0.048c-1.344,0-2.088-0.024-2.256-0.096c-0.576-0.192-0.864-0.792-0.864-1.824
		c0-0.672,0.456-1.176,1.344-1.488c0.385-0.12,0.841-0.192,1.393-0.192c0.288,0,0.72,0.048,1.32,0.072
		c0.576,0.072,1.032,0.096,1.32,0.096c0.264,0,0.672-0.048,1.2-0.12c0.479-0.12,0.888-0.168,1.176-0.168
		c0.312,0,0.552,0.048,0.744,0.168c0.384,0,1.176-0.24,1.488-0.24c0.119,0,0.216,0.024,0.336,0.096
		C294.695,33.03,295.054,33.246,295.51,33.558z"/>
	<path d="M302.662,32.318c1.368,0,2.185,0.504,2.472,1.512c0.121,0.36,0.168,0.696,0.168,1.008c0,0.288-0.047,0.696-0.168,1.344
		c0,0.264-0.191,0.504-0.576,0.744l-0.936,0.504c-0.119,0.048-0.216,0.072-0.336,0.072c-0.145,0-0.384-0.072-0.744-0.192
		c-0.336-0.096-0.576-0.168-0.72-0.192c-0.12-0.024-0.288-0.144-0.528-0.384v-0.432c-0.527-0.888-0.792-1.512-0.792-1.824
		c0-0.264,0.168-0.552,0.479-0.912C301.485,33.086,302.085,32.438,302.662,32.318z"/>
	<path d="M339.709,33.558c0.049,0,0.145,0.048,0.264,0.12c0.168,0.264,0.266,0.552,0.266,0.84c0,0.768-0.408,1.32-1.225,1.632
		c-0.793,0.216-1.537,0.336-2.256,0.336c-0.289,0-0.553-0.024-0.77-0.048c-0.504,0-1.248,0.048-2.303,0.072
		c-1.033,0.024-1.801,0.048-2.281,0.048c-1.344,0-2.088-0.024-2.256-0.096c-0.576-0.192-0.863-0.792-0.863-1.824
		c0-0.672,0.455-1.176,1.344-1.488c0.383-0.12,0.84-0.192,1.393-0.192c0.287,0,0.719,0.048,1.32,0.072
		c0.574,0.072,1.031,0.096,1.318,0.096c0.266,0,0.674-0.048,1.201-0.12c0.48-0.12,0.889-0.168,1.176-0.168
		c0.312,0,0.553,0.048,0.744,0.168c0.385,0,1.176-0.24,1.488-0.24c0.119,0,0.217,0.024,0.336,0.096
		C338.893,33.03,339.254,33.246,339.709,33.558z"/>
	<path d="M346.86,32.318c1.369,0,2.186,0.504,2.473,1.512c0.119,0.36,0.168,0.696,0.168,1.008c0,0.288-0.049,0.696-0.168,1.344
		c0,0.264-0.191,0.504-0.576,0.744l-0.936,0.504c-0.121,0.048-0.217,0.072-0.336,0.072c-0.145,0-0.385-0.072-0.744-0.192
		c-0.336-0.096-0.576-0.168-0.721-0.192c-0.119-0.024-0.287-0.144-0.527-0.384v-0.432c-0.529-0.888-0.793-1.512-0.793-1.824
		c0-0.264,0.168-0.552,0.48-0.912C345.684,33.086,346.284,32.438,346.86,32.318z"/>
	<path d="M365.389,33.558c0.047,0,0.145,0.048,0.264,0.12c0.168,0.264,0.264,0.552,0.264,0.84c0,0.768-0.408,1.32-1.225,1.632
		c-0.791,0.216-1.535,0.336-2.256,0.336c-0.287,0-0.551-0.024-0.768-0.048c-0.504,0-1.248,0.048-2.305,0.072
		c-1.031,0.024-1.799,0.048-2.279,0.048c-1.344,0-2.088-0.024-2.256-0.096c-0.576-0.192-0.865-0.792-0.865-1.824
		c0-0.672,0.457-1.176,1.344-1.488c0.385-0.12,0.84-0.192,1.393-0.192c0.289,0,0.721,0.048,1.32,0.072
		c0.576,0.072,1.031,0.096,1.32,0.096c0.264,0,0.672-0.048,1.199-0.12c0.48-0.12,0.889-0.168,1.178-0.168
		c0.311,0,0.551,0.048,0.744,0.168c0.383,0,1.176-0.24,1.486-0.24c0.121,0,0.217,0.024,0.336,0.096
		C364.573,33.03,364.932,33.246,365.389,33.558z"/>
	<path d="M378.229,33.558c0.047,0,0.145,0.048,0.264,0.12c0.168,0.264,0.264,0.552,0.264,0.84c0,0.768-0.408,1.32-1.225,1.632
		c-0.791,0.216-1.535,0.336-2.256,0.336c-0.287,0-0.551-0.024-0.768-0.048c-0.504,0-1.248,0.048-2.305,0.072
		c-1.031,0.024-1.799,0.048-2.279,0.048c-1.344,0-2.088-0.024-2.256-0.096c-0.576-0.192-0.865-0.792-0.865-1.824
		c0-0.672,0.457-1.176,1.344-1.488c0.385-0.12,0.84-0.192,1.393-0.192c0.289,0,0.721,0.048,1.32,0.072
		c0.576,0.072,1.031,0.096,1.32,0.096c0.264,0,0.672-0.048,1.199-0.12c0.48-0.12,0.889-0.168,1.178-0.168
		c0.311,0,0.551,0.048,0.744,0.168c0.383,0,1.176-0.24,1.486-0.24c0.121,0,0.217,0.024,0.336,0.096
		C377.413,33.03,377.772,33.246,378.229,33.558z"/>
	<path d="M460.948,33.558c0.047,0,0.145,0.048,0.264,0.12c0.168,0.264,0.264,0.552,0.264,0.84c0,0.768-0.408,1.32-1.225,1.632
		c-0.791,0.216-1.535,0.336-2.256,0.336c-0.287,0-0.551-0.024-0.768-0.048c-0.504,0-1.248,0.048-2.305,0.072
		c-1.031,0.024-1.799,0.048-2.279,0.048c-1.344,0-2.088-0.024-2.256-0.096c-0.576-0.192-0.865-0.792-0.865-1.824
		c0-0.672,0.457-1.176,1.344-1.488c0.385-0.12,0.84-0.192,1.393-0.192c0.289,0,0.721,0.048,1.32,0.072
		c0.576,0.072,1.031,0.096,1.32,0.096c0.264,0,0.672-0.048,1.199-0.12c0.48-0.12,0.889-0.168,1.178-0.168
		c0.311,0,0.551,0.048,0.744,0.168c0.383,0,1.176-0.24,1.486-0.24c0.121,0,0.217,0.024,0.336,0.096
		C460.131,33.03,460.491,33.246,460.948,33.558z"/>
	<path d="M468.098,32.318c1.369,0,2.186,0.504,2.473,1.512c0.119,0.36,0.168,0.696,0.168,1.008c0,0.288-0.049,0.696-0.168,1.344
		c0,0.264-0.191,0.504-0.576,0.744l-0.936,0.504c-0.121,0.048-0.217,0.072-0.336,0.072c-0.145,0-0.385-0.072-0.744-0.192
		c-0.336-0.096-0.576-0.168-0.721-0.192c-0.119-0.024-0.287-0.144-0.527-0.384v-0.432c-0.529-0.888-0.793-1.512-0.793-1.824
		c0-0.264,0.168-0.552,0.48-0.912C466.922,33.086,467.522,32.438,468.098,32.318z"/>
	<path d="M486.627,33.558c0.047,0,0.145,0.048,0.264,0.12c0.168,0.264,0.264,0.552,0.264,0.84c0,0.768-0.408,1.32-1.225,1.632
		c-0.791,0.216-1.535,0.336-2.256,0.336c-0.287,0-0.551-0.024-0.768-0.048c-0.504,0-1.248,0.048-2.305,0.072
		c-1.031,0.024-1.799,0.048-2.279,0.048c-1.344,0-2.088-0.024-2.256-0.096c-0.576-0.192-0.865-0.792-0.865-1.824
		c0-0.672,0.457-1.176,1.344-1.488c0.385-0.12,0.84-0.192,1.393-0.192c0.289,0,0.721,0.048,1.32,0.072
		c0.576,0.072,1.031,0.096,1.32,0.096c0.264,0,0.672-0.048,1.199-0.12c0.48-0.12,0.889-0.168,1.178-0.168
		c0.311,0,0.551,0.048,0.744,0.168c0.383,0,1.176-0.24,1.486-0.24c0.121,0,0.217,0.024,0.336,0.096
		C485.811,33.03,486.17,33.246,486.627,33.558z"/>
	<path d="M493.778,32.318c1.369,0,2.186,0.504,2.473,1.512c0.119,0.36,0.168,0.696,0.168,1.008c0,0.288-0.049,0.696-0.168,1.344
		c0,0.264-0.191,0.504-0.576,0.744l-0.936,0.504c-0.121,0.048-0.217,0.072-0.336,0.072c-0.145,0-0.385-0.072-0.744-0.192
		c-0.336-0.096-0.576-0.168-0.721-0.192c-0.119-0.024-0.287-0.144-0.527-0.384v-0.432c-0.529-0.888-0.793-1.512-0.793-1.824
		c0-0.264,0.168-0.552,0.48-0.912C492.602,33.086,493.202,32.438,493.778,32.318z"/>
	<path d="M525.137,32.318c1.369,0,2.186,0.504,2.473,1.512c0.119,0.36,0.168,0.696,0.168,1.008c0,0.288-0.049,0.696-0.168,1.344
		c0,0.264-0.191,0.504-0.576,0.744l-0.936,0.504c-0.121,0.048-0.217,0.072-0.336,0.072c-0.145,0-0.385-0.072-0.744-0.192
		c-0.336-0.096-0.576-0.168-0.721-0.192c-0.119-0.024-0.287-0.144-0.527-0.384v-0.432c-0.529-0.888-0.793-1.512-0.793-1.824
		c0-0.264,0.168-0.552,0.48-0.912C523.961,33.086,524.561,32.438,525.137,32.318z"/>
	<path d="M543.665,33.558c0.049,0,0.145,0.048,0.264,0.12c0.168,0.264,0.266,0.552,0.266,0.84c0,0.768-0.408,1.32-1.225,1.632
		c-0.793,0.216-1.537,0.336-2.256,0.336c-0.289,0-0.553-0.024-0.77-0.048c-0.504,0-1.248,0.048-2.303,0.072
		c-1.033,0.024-1.801,0.048-2.281,0.048c-1.344,0-2.088-0.024-2.256-0.096c-0.576-0.192-0.863-0.792-0.863-1.824
		c0-0.672,0.455-1.176,1.344-1.488c0.383-0.12,0.84-0.192,1.393-0.192c0.287,0,0.719,0.048,1.32,0.072
		c0.574,0.072,1.031,0.096,1.318,0.096c0.266,0,0.674-0.048,1.201-0.12c0.48-0.12,0.889-0.168,1.176-0.168
		c0.312,0,0.553,0.048,0.744,0.168c0.385,0,1.176-0.24,1.488-0.24c0.119,0,0.217,0.024,0.336,0.096
		C542.848,33.03,543.209,33.246,543.665,33.558z"/>
	<path d="M575.024,33.558c0.049,0,0.145,0.048,0.264,0.12c0.168,0.264,0.266,0.552,0.266,0.84c0,0.768-0.408,1.32-1.225,1.632
		c-0.793,0.216-1.537,0.336-2.256,0.336c-0.289,0-0.553-0.024-0.77-0.048c-0.504,0-1.248,0.048-2.303,0.072
		c-1.033,0.024-1.801,0.048-2.281,0.048c-1.344,0-2.088-0.024-2.256-0.096c-0.576-0.192-0.863-0.792-0.863-1.824
		c0-0.672,0.455-1.176,1.344-1.488c0.383-0.12,0.84-0.192,1.393-0.192c0.287,0,0.719,0.048,1.32,0.072
		c0.574,0.072,1.031,0.096,1.318,0.096c0.266,0,0.674-0.048,1.201-0.12c0.48-0.12,0.889-0.168,1.176-0.168
		c0.312,0,0.553,0.048,0.744,0.168c0.385,0,1.176-0.24,1.488-0.24c0.119,0,0.217,0.024,0.336,0.096
		C574.208,33.03,574.569,33.246,575.024,33.558z"/>
</g>
<g>
	<path d="M207.844,81.119c1.368,0,2.184,0.504,2.472,1.512c0.12,0.36,0.168,0.696,0.168,1.008c0,0.288-0.048,0.696-0.168,1.345
		c0,0.264-0.191,0.504-0.576,0.743l-0.936,0.505c-0.12,0.048-0.216,0.071-0.336,0.071c-0.145,0-0.384-0.071-0.744-0.191
		c-0.336-0.097-0.576-0.168-0.72-0.192c-0.12-0.023-0.288-0.144-0.528-0.384v-0.433c-0.528-0.888-0.792-1.512-0.792-1.823
		c0-0.265,0.168-0.553,0.479-0.912C206.667,81.886,207.268,81.238,207.844,81.119z"/>
	<path d="M220.684,81.119c1.368,0,2.184,0.504,2.472,1.512c0.12,0.36,0.168,0.696,0.168,1.008c0,0.288-0.048,0.696-0.168,1.345
		c0,0.264-0.191,0.504-0.576,0.743l-0.936,0.505c-0.12,0.048-0.216,0.071-0.336,0.071c-0.145,0-0.384-0.071-0.744-0.191
		c-0.336-0.097-0.576-0.168-0.72-0.192c-0.12-0.023-0.288-0.144-0.528-0.384v-0.433c-0.528-0.888-0.792-1.512-0.792-1.823
		c0-0.265,0.168-0.553,0.479-0.912C219.507,81.886,220.108,81.238,220.684,81.119z"/>
	<path d="M233.524,81.119c1.368,0,2.184,0.504,2.472,1.512c0.12,0.36,0.168,0.696,0.168,1.008c0,0.288-0.048,0.696-0.168,1.345
		c0,0.264-0.191,0.504-0.576,0.743l-0.936,0.505c-0.12,0.048-0.216,0.071-0.336,0.071c-0.145,0-0.384-0.071-0.744-0.191
		c-0.336-0.097-0.576-0.168-0.72-0.192c-0.12-0.023-0.288-0.144-0.528-0.384v-0.433c-0.528-0.888-0.792-1.512-0.792-1.823
		c0-0.265,0.168-0.553,0.479-0.912C232.347,81.886,232.948,81.238,233.524,81.119z"/>
	<path d="M246.364,81.119c1.368,0,2.184,0.504,2.472,1.512c0.12,0.36,0.168,0.696,0.168,1.008c0,0.288-0.048,0.696-0.168,1.345
		c0,0.264-0.191,0.504-0.576,0.743l-0.936,0.505c-0.12,0.048-0.216,0.071-0.336,0.071c-0.145,0-0.384-0.071-0.744-0.191
		c-0.336-0.097-0.576-0.168-0.72-0.192c-0.12-0.023-0.288-0.144-0.528-0.384v-0.433c-0.528-0.888-0.792-1.512-0.792-1.823
		c0-0.265,0.168-0.553,0.479-0.912C245.187,81.886,245.788,81.238,246.364,81.119z"/>
	<path d="M277.723,81.119c1.367,0,2.184,0.504,2.472,1.512c0.12,0.36,0.168,0.696,0.168,1.008c0,0.288-0.048,0.696-0.168,1.345
		c0,0.264-0.192,0.504-0.576,0.743l-0.937,0.505c-0.119,0.048-0.215,0.071-0.336,0.071c-0.144,0-0.383-0.071-0.744-0.191
		c-0.336-0.097-0.575-0.168-0.719-0.192c-0.121-0.023-0.289-0.144-0.529-0.384v-0.433c-0.527-0.888-0.791-1.512-0.791-1.823
		c0-0.265,0.168-0.553,0.479-0.912C276.546,81.886,277.147,81.238,277.723,81.119z"/>
	<path d="M296.25,82.358c0.049,0,0.145,0.048,0.264,0.12c0.168,0.264,0.266,0.552,0.266,0.84c0,0.768-0.408,1.32-1.225,1.632
		c-0.793,0.216-1.537,0.336-2.256,0.336c-0.289,0-0.553-0.023-0.77-0.048c-0.504,0-1.248,0.048-2.303,0.072
		c-1.033,0.023-1.801,0.048-2.281,0.048c-1.344,0-2.088-0.024-2.256-0.096c-0.576-0.192-0.863-0.792-0.863-1.824
		c0-0.672,0.455-1.177,1.344-1.488c0.384-0.12,0.84-0.192,1.393-0.192c0.287,0,0.719,0.048,1.319,0.072
		c0.576,0.072,1.032,0.096,1.32,0.096c0.264,0,0.673-0.048,1.2-0.12c0.48-0.119,0.889-0.168,1.176-0.168
		c0.312,0,0.553,0.049,0.744,0.168c0.385,0,1.176-0.239,1.488-0.239c0.119,0,0.217,0.023,0.336,0.096
		C295.434,81.83,295.795,82.045,296.25,82.358z"/>
	<path d="M327.61,82.358c0.049,0,0.145,0.048,0.264,0.12c0.168,0.264,0.266,0.552,0.266,0.84c0,0.768-0.408,1.32-1.225,1.632
		c-0.793,0.216-1.537,0.336-2.256,0.336c-0.289,0-0.553-0.023-0.77-0.048c-0.504,0-1.248,0.048-2.303,0.072
		c-1.033,0.023-1.801,0.048-2.281,0.048c-1.344,0-2.088-0.024-2.256-0.096c-0.576-0.192-0.863-0.792-0.863-1.824
		c0-0.672,0.455-1.177,1.344-1.488c0.383-0.12,0.84-0.192,1.393-0.192c0.287,0,0.719,0.048,1.32,0.072
		c0.574,0.072,1.031,0.096,1.318,0.096c0.266,0,0.674-0.048,1.201-0.12c0.48-0.119,0.889-0.168,1.176-0.168
		c0.312,0,0.553,0.049,0.744,0.168c0.385,0,1.176-0.239,1.488-0.239c0.119,0,0.217,0.023,0.336,0.096
		C326.793,81.83,327.155,82.045,327.61,82.358z"/>
	<path d="M353.28,81.119c1.369,0,2.186,0.504,2.473,1.512c0.119,0.36,0.168,0.696,0.168,1.008c0,0.288-0.049,0.696-0.168,1.345
		c0,0.264-0.191,0.504-0.576,0.743l-0.936,0.505c-0.121,0.048-0.217,0.071-0.336,0.071c-0.145,0-0.385-0.071-0.744-0.191
		c-0.336-0.097-0.576-0.168-0.721-0.192c-0.119-0.023-0.287-0.144-0.527-0.384v-0.433c-0.529-0.888-0.793-1.512-0.793-1.823
		c0-0.265,0.168-0.553,0.48-0.912C352.104,81.886,352.704,81.238,353.28,81.119z"/>
	<path d="M384.639,81.119c1.369,0,2.186,0.504,2.473,1.512c0.119,0.36,0.168,0.696,0.168,1.008c0,0.288-0.049,0.696-0.168,1.345
		c0,0.264-0.191,0.504-0.576,0.743l-0.936,0.505c-0.121,0.048-0.217,0.071-0.336,0.071c-0.145,0-0.385-0.071-0.744-0.191
		c-0.336-0.097-0.576-0.168-0.721-0.192c-0.119-0.023-0.287-0.144-0.527-0.384v-0.433c-0.529-0.888-0.793-1.512-0.793-1.823
		c0-0.265,0.168-0.553,0.48-0.912C383.463,81.886,384.063,81.238,384.639,81.119z"/>
	<path d="M397.479,81.119c1.369,0,2.186,0.504,2.473,1.512c0.119,0.36,0.168,0.696,0.168,1.008c0,0.288-0.049,0.696-0.168,1.345
		c0,0.264-0.191,0.504-0.576,0.743l-0.936,0.505c-0.121,0.048-0.217,0.071-0.336,0.071c-0.145,0-0.385-0.071-0.744-0.191
		c-0.336-0.097-0.576-0.168-0.721-0.192c-0.119-0.023-0.287-0.144-0.527-0.384v-0.433c-0.529-0.888-0.793-1.512-0.793-1.823
		c0-0.265,0.168-0.553,0.48-0.912C396.303,81.886,396.903,81.238,397.479,81.119z"/>
	<path d="M410.319,81.119c1.369,0,2.186,0.504,2.473,1.512c0.119,0.36,0.168,0.696,0.168,1.008c0,0.288-0.049,0.696-0.168,1.345
		c0,0.264-0.191,0.504-0.576,0.743l-0.936,0.505c-0.121,0.048-0.217,0.071-0.336,0.071c-0.145,0-0.385-0.071-0.744-0.191
		c-0.336-0.097-0.576-0.168-0.721-0.192c-0.119-0.023-0.287-0.144-0.527-0.384v-0.433c-0.529-0.888-0.793-1.512-0.793-1.823
		c0-0.265,0.168-0.553,0.48-0.912C409.143,81.886,409.743,81.238,410.319,81.119z"/>
</g>
<g>
	<path d="M71.667,129.917c1.368,0,2.185,0.505,2.473,1.513c0.12,0.36,0.168,0.696,0.168,1.008c0,0.288-0.048,0.696-0.168,1.345
		c0,0.264-0.192,0.504-0.576,0.744l-0.937,0.504c-0.119,0.048-0.216,0.071-0.336,0.071c-0.144,0-0.384-0.071-0.744-0.191
		c-0.336-0.097-0.575-0.168-0.72-0.192c-0.12-0.023-0.288-0.144-0.528-0.384v-0.433c-0.527-0.888-0.792-1.512-0.792-1.823
		c0-0.265,0.168-0.553,0.48-0.912C70.491,130.686,71.09,130.038,71.667,129.917z"/>
	<path d="M103.026,129.917c1.368,0,2.185,0.505,2.473,1.513c0.12,0.36,0.168,0.696,0.168,1.008c0,0.288-0.048,0.696-0.168,1.345
		c0,0.264-0.192,0.504-0.576,0.744l-0.937,0.504c-0.119,0.048-0.216,0.071-0.336,0.071c-0.144,0-0.384-0.071-0.744-0.191
		c-0.336-0.097-0.575-0.168-0.72-0.192c-0.12-0.023-0.288-0.144-0.528-0.384v-0.433c-0.527-0.888-0.792-1.512-0.792-1.823
		c0-0.265,0.168-0.553,0.48-0.912C101.85,130.686,102.45,130.038,103.026,129.917z"/>
	<path d="M115.866,129.917c1.368,0,2.185,0.505,2.473,1.513c0.12,0.36,0.168,0.696,0.168,1.008c0,0.288-0.048,0.696-0.168,1.345
		c0,0.264-0.192,0.504-0.576,0.744l-0.937,0.504c-0.119,0.048-0.216,0.071-0.336,0.071c-0.144,0-0.384-0.071-0.744-0.191
		c-0.336-0.097-0.575-0.168-0.72-0.192c-0.12-0.023-0.288-0.144-0.528-0.384v-0.433c-0.527-0.888-0.792-1.512-0.792-1.823
		c0-0.265,0.168-0.553,0.48-0.912C114.69,130.686,115.29,130.038,115.866,129.917z"/>
	<path d="M128.706,129.917c1.368,0,2.184,0.505,2.472,1.513c0.12,0.36,0.168,0.696,0.168,1.008c0,0.288-0.048,0.696-0.168,1.345
		c0,0.264-0.191,0.504-0.576,0.744l-0.936,0.504c-0.12,0.048-0.216,0.071-0.336,0.071c-0.145,0-0.384-0.071-0.744-0.191
		c-0.336-0.097-0.576-0.168-0.72-0.192c-0.12-0.023-0.288-0.144-0.528-0.384v-0.433c-0.528-0.888-0.792-1.512-0.792-1.823
		c0-0.265,0.168-0.553,0.479-0.912C127.529,130.686,128.129,130.038,128.706,129.917z"/>
	<path d="M147.234,131.158c0.048,0,0.144,0.048,0.264,0.12c0.168,0.264,0.265,0.552,0.265,0.84c0,0.768-0.408,1.32-1.225,1.632
		c-0.792,0.216-1.536,0.336-2.256,0.336c-0.288,0-0.553-0.023-0.769-0.048c-0.504,0-1.248,0.048-2.304,0.072
		c-1.032,0.023-1.801,0.048-2.28,0.048c-1.345,0-2.089-0.024-2.257-0.096c-0.575-0.192-0.863-0.792-0.863-1.824
		c0-0.672,0.456-1.177,1.344-1.488c0.384-0.12,0.84-0.192,1.393-0.192c0.287,0,0.72,0.048,1.319,0.072
		c0.576,0.072,1.032,0.096,1.32,0.096c0.264,0,0.672-0.048,1.2-0.12c0.48-0.119,0.888-0.168,1.176-0.168
		c0.312,0,0.553,0.049,0.744,0.168c0.385,0,1.177-0.239,1.488-0.239c0.12,0,0.216,0.023,0.336,0.096
		C146.417,130.629,146.778,130.845,147.234,131.158z"/>
	<path d="M172.905,129.917c1.368,0,2.184,0.505,2.472,1.513c0.12,0.36,0.168,0.696,0.168,1.008c0,0.288-0.048,0.696-0.168,1.345
		c0,0.264-0.191,0.504-0.576,0.744l-0.936,0.504c-0.12,0.048-0.216,0.071-0.336,0.071c-0.145,0-0.384-0.071-0.744-0.191
		c-0.336-0.097-0.576-0.168-0.72-0.192c-0.12-0.023-0.288-0.144-0.528-0.384v-0.433c-0.528-0.888-0.792-1.512-0.792-1.823
		c0-0.265,0.168-0.553,0.479-0.912C171.728,130.686,172.329,130.038,172.905,129.917z"/>
	<path d="M204.263,129.917c1.368,0,2.185,0.505,2.473,1.513c0.12,0.36,0.168,0.696,0.168,1.008c0,0.288-0.048,0.696-0.168,1.345
		c0,0.264-0.192,0.504-0.576,0.744l-0.937,0.504c-0.119,0.048-0.216,0.071-0.336,0.071c-0.144,0-0.384-0.071-0.744-0.191
		c-0.336-0.097-0.575-0.168-0.72-0.192c-0.12-0.023-0.288-0.144-0.528-0.384v-0.433c-0.527-0.888-0.792-1.512-0.792-1.823
		c0-0.265,0.168-0.553,0.48-0.912C203.087,130.686,203.687,130.038,204.263,129.917z"/>
	<path d="M222.792,131.158c0.048,0,0.145,0.048,0.265,0.12c0.168,0.264,0.264,0.552,0.264,0.84c0,0.768-0.408,1.32-1.224,1.632
		c-0.793,0.216-1.536,0.336-2.257,0.336c-0.288,0-0.552-0.023-0.768-0.048c-0.504,0-1.248,0.048-2.305,0.072
		c-1.032,0.023-1.8,0.048-2.28,0.048c-1.344,0-2.088-0.024-2.256-0.096c-0.576-0.192-0.864-0.792-0.864-1.824
		c0-0.672,0.456-1.177,1.344-1.488c0.385-0.12,0.841-0.192,1.393-0.192c0.288,0,0.72,0.048,1.32,0.072
		c0.576,0.072,1.032,0.096,1.32,0.096c0.264,0,0.672-0.048,1.2-0.12c0.479-0.119,0.888-0.168,1.176-0.168
		c0.312,0,0.552,0.049,0.744,0.168c0.384,0,1.176-0.239,1.488-0.239c0.119,0,0.216,0.023,0.336,0.096
		C221.976,130.629,222.335,130.845,222.792,131.158z"/>
	<path d="M229.944,129.917c1.367,0,2.184,0.505,2.472,1.513c0.12,0.36,0.168,0.696,0.168,1.008c0,0.288-0.048,0.696-0.168,1.345
		c0,0.264-0.192,0.504-0.576,0.744l-0.937,0.504c-0.119,0.048-0.215,0.071-0.336,0.071c-0.144,0-0.383-0.071-0.744-0.191
		c-0.336-0.097-0.575-0.168-0.719-0.192c-0.121-0.023-0.289-0.144-0.529-0.384v-0.433c-0.527-0.888-0.792-1.512-0.792-1.823
		c0-0.265,0.168-0.553,0.48-0.912C228.767,130.686,229.368,130.038,229.944,129.917z"/>
	<path d="M266.991,131.158c0.049,0,0.145,0.048,0.265,0.12c0.168,0.264,0.265,0.552,0.265,0.84c0,0.768-0.408,1.32-1.225,1.632
		c-0.793,0.216-1.536,0.336-2.256,0.336c-0.289,0-0.553-0.023-0.769-0.048c-0.504,0-1.248,0.048-2.304,0.072
		c-1.033,0.023-1.801,0.048-2.281,0.048c-1.344,0-2.088-0.024-2.256-0.096c-0.576-0.192-0.863-0.792-0.863-1.824
		c0-0.672,0.455-1.177,1.344-1.488c0.384-0.12,0.84-0.192,1.393-0.192c0.287,0,0.719,0.048,1.319,0.072
		c0.576,0.072,1.032,0.096,1.32,0.096c0.264,0,0.672-0.048,1.2-0.12c0.48-0.119,0.888-0.168,1.176-0.168
		c0.312,0,0.553,0.049,0.744,0.168c0.385,0,1.176-0.239,1.488-0.239c0.119,0,0.216,0.023,0.336,0.096
		C266.175,130.629,266.536,130.845,266.991,131.158z"/>
	<path d="M274.143,129.917c1.367,0,2.184,0.505,2.472,1.513c0.12,0.36,0.168,0.696,0.168,1.008c0,0.288-0.048,0.696-0.168,1.345
		c0,0.264-0.192,0.504-0.576,0.744l-0.937,0.504c-0.119,0.048-0.215,0.071-0.336,0.071c-0.144,0-0.383-0.071-0.744-0.191
		c-0.336-0.097-0.575-0.168-0.719-0.192c-0.121-0.023-0.289-0.144-0.529-0.384v-0.433c-0.527-0.888-0.791-1.512-0.791-1.823
		c0-0.265,0.168-0.553,0.479-0.912C272.966,130.686,273.567,130.038,274.143,129.917z"/>
	<path d="M292.67,131.158c0.049,0,0.145,0.048,0.265,0.12c0.168,0.264,0.265,0.552,0.265,0.84c0,0.768-0.408,1.32-1.225,1.632
		c-0.793,0.216-1.536,0.336-2.256,0.336c-0.289,0-0.553-0.023-0.769-0.048c-0.504,0-1.248,0.048-2.304,0.072
		c-1.033,0.023-1.801,0.048-2.281,0.048c-1.344,0-2.088-0.024-2.256-0.096c-0.576-0.192-0.863-0.792-0.863-1.824
		c0-0.672,0.455-1.177,1.344-1.488c0.384-0.12,0.84-0.192,1.393-0.192c0.287,0,0.719,0.048,1.319,0.072
		c0.576,0.072,1.032,0.096,1.32,0.096c0.264,0,0.672-0.048,1.2-0.12c0.48-0.119,0.888-0.168,1.176-0.168
		c0.312,0,0.553,0.049,0.744,0.168c0.385,0,1.176-0.239,1.488-0.239c0.119,0,0.216,0.023,0.336,0.096
		C291.855,130.629,292.215,130.845,292.67,131.158z"/>
	<path d="M305.51,131.158c0.049,0,0.145,0.048,0.265,0.12c0.168,0.264,0.265,0.552,0.265,0.84c0,0.768-0.408,1.32-1.225,1.632
		c-0.793,0.216-1.536,0.336-2.256,0.336c-0.289,0-0.553-0.023-0.769-0.048c-0.504,0-1.248,0.048-2.304,0.072
		c-1.033,0.023-1.801,0.048-2.281,0.048c-1.344,0-2.088-0.024-2.256-0.096c-0.576-0.192-0.863-0.792-0.863-1.824
		c0-0.672,0.455-1.177,1.344-1.488c0.384-0.12,0.84-0.192,1.393-0.192c0.287,0,0.719,0.048,1.319,0.072
		c0.576,0.072,1.032,0.096,1.32,0.096c0.264,0,0.672-0.048,1.2-0.12c0.48-0.119,0.888-0.168,1.176-0.168
		c0.312,0,0.553,0.049,0.744,0.168c0.385,0,1.176-0.239,1.488-0.239c0.119,0,0.216,0.023,0.336,0.096
		C304.695,130.629,305.055,130.845,305.51,131.158z"/>
	<path d="M336.87,131.158c0.049,0,0.145,0.048,0.264,0.12c0.168,0.264,0.266,0.552,0.266,0.84c0,0.768-0.408,1.32-1.225,1.632
		c-0.793,0.216-1.537,0.336-2.256,0.336c-0.289,0-0.553-0.023-0.77-0.048c-0.504,0-1.248,0.048-2.303,0.072
		c-1.033,0.023-1.801,0.048-2.281,0.048c-1.344,0-2.088-0.024-2.256-0.096c-0.576-0.192-0.863-0.792-0.863-1.824
		c0-0.672,0.455-1.177,1.344-1.488c0.383-0.12,0.84-0.192,1.393-0.192c0.287,0,0.719,0.048,1.32,0.072
		c0.574,0.072,1.031,0.096,1.318,0.096c0.266,0,0.674-0.048,1.201-0.12c0.48-0.119,0.889-0.168,1.176-0.168
		c0.312,0,0.553,0.049,0.744,0.168c0.385,0,1.176-0.239,1.488-0.239c0.119,0,0.217,0.023,0.336,0.096
		C336.053,130.629,336.415,130.845,336.87,131.158z"/>
	<path d="M362.54,129.917c1.369,0,2.186,0.505,2.473,1.513c0.119,0.36,0.168,0.696,0.168,1.008c0,0.288-0.049,0.696-0.168,1.345
		c0,0.264-0.191,0.504-0.576,0.744l-0.936,0.504c-0.121,0.048-0.217,0.071-0.336,0.071c-0.145,0-0.385-0.071-0.744-0.191
		c-0.336-0.097-0.576-0.168-0.721-0.192c-0.119-0.023-0.287-0.144-0.527-0.384v-0.433c-0.529-0.888-0.793-1.512-0.793-1.823
		c0-0.265,0.168-0.553,0.48-0.912C361.364,130.686,361.963,130.038,362.54,129.917z"/>
	<path d="M375.379,129.917c1.369,0,2.186,0.505,2.473,1.513c0.119,0.36,0.168,0.696,0.168,1.008c0,0.288-0.049,0.696-0.168,1.345
		c0,0.264-0.191,0.504-0.576,0.744l-0.936,0.504c-0.121,0.048-0.217,0.071-0.336,0.071c-0.145,0-0.385-0.071-0.744-0.191
		c-0.336-0.097-0.576-0.168-0.721-0.192c-0.119-0.023-0.287-0.144-0.527-0.384v-0.433c-0.529-0.888-0.793-1.512-0.793-1.823
		c0-0.265,0.168-0.553,0.48-0.912C374.204,130.686,374.803,130.038,375.379,129.917z"/>
	<path d="M388.219,129.917c1.369,0,2.186,0.505,2.473,1.513c0.119,0.36,0.168,0.696,0.168,1.008c0,0.288-0.049,0.696-0.168,1.345
		c0,0.264-0.191,0.504-0.576,0.744l-0.936,0.504c-0.121,0.048-0.217,0.071-0.336,0.071c-0.145,0-0.385-0.071-0.744-0.191
		c-0.336-0.097-0.576-0.168-0.721-0.192c-0.119-0.023-0.287-0.144-0.527-0.384v-0.433c-0.529-0.888-0.793-1.512-0.793-1.823
		c0-0.265,0.168-0.553,0.48-0.912C387.043,130.686,387.643,130.038,388.219,129.917z"/>
	<path d="M401.059,129.917c1.369,0,2.186,0.505,2.473,1.513c0.119,0.36,0.168,0.696,0.168,1.008c0,0.288-0.049,0.696-0.168,1.345
		c0,0.264-0.191,0.504-0.576,0.744l-0.936,0.504c-0.121,0.048-0.217,0.071-0.336,0.071c-0.145,0-0.385-0.071-0.744-0.191
		c-0.336-0.097-0.576-0.168-0.721-0.192c-0.119-0.023-0.287-0.144-0.527-0.384v-0.433c-0.529-0.888-0.793-1.512-0.793-1.823
		c0-0.265,0.168-0.553,0.48-0.912C399.883,130.686,400.483,130.038,401.059,129.917z"/>
	<path d="M432.418,129.917c1.369,0,2.186,0.505,2.473,1.513c0.119,0.36,0.168,0.696,0.168,1.008c0,0.288-0.049,0.696-0.168,1.345
		c0,0.264-0.191,0.504-0.576,0.744l-0.936,0.504c-0.121,0.048-0.217,0.071-0.336,0.071c-0.145,0-0.385-0.071-0.744-0.191
		c-0.336-0.097-0.576-0.168-0.721-0.192c-0.119-0.023-0.287-0.144-0.527-0.384v-0.433c-0.529-0.888-0.793-1.512-0.793-1.823
		c0-0.265,0.168-0.553,0.48-0.912C431.243,130.686,431.842,130.038,432.418,129.917z"/>
	<path d="M445.258,129.917c1.369,0,2.186,0.505,2.473,1.513c0.119,0.36,0.168,0.696,0.168,1.008c0,0.288-0.049,0.696-0.168,1.345
		c0,0.264-0.191,0.504-0.576,0.744l-0.936,0.504c-0.121,0.048-0.217,0.071-0.336,0.071c-0.145,0-0.385-0.071-0.744-0.191
		c-0.336-0.097-0.576-0.168-0.721-0.192c-0.119-0.023-0.287-0.144-0.527-0.384v-0.433c-0.529-0.888-0.793-1.512-0.793-1.823
		c0-0.265,0.168-0.553,0.48-0.912C444.083,130.686,444.682,130.038,445.258,129.917z"/>
	<path d="M482.307,131.158c0.047,0,0.145,0.048,0.264,0.12c0.168,0.264,0.264,0.552,0.264,0.84c0,0.768-0.408,1.32-1.225,1.632
		c-0.791,0.216-1.535,0.336-2.256,0.336c-0.287,0-0.551-0.023-0.768-0.048c-0.504,0-1.248,0.048-2.305,0.072
		c-1.031,0.023-1.799,0.048-2.279,0.048c-1.344,0-2.088-0.024-2.256-0.096c-0.576-0.192-0.865-0.792-0.865-1.824
		c0-0.672,0.457-1.177,1.344-1.488c0.385-0.12,0.84-0.192,1.393-0.192c0.289,0,0.721,0.048,1.32,0.072
		c0.576,0.072,1.031,0.096,1.32,0.096c0.264,0,0.672-0.048,1.199-0.12c0.48-0.119,0.889-0.168,1.178-0.168
		c0.311,0,0.551,0.049,0.744,0.168c0.383,0,1.176-0.239,1.486-0.239c0.121,0,0.217,0.023,0.336,0.096
		C481.491,130.629,481.85,130.845,482.307,131.158z"/>
	<path d="M489.458,129.917c1.369,0,2.186,0.505,2.473,1.513c0.119,0.36,0.168,0.696,0.168,1.008c0,0.288-0.049,0.696-0.168,1.345
		c0,0.264-0.191,0.504-0.576,0.744l-0.936,0.504c-0.121,0.048-0.217,0.071-0.336,0.071c-0.145,0-0.385-0.071-0.744-0.191
		c-0.336-0.097-0.576-0.168-0.721-0.192c-0.119-0.023-0.287-0.144-0.527-0.384v-0.433c-0.529-0.888-0.793-1.512-0.793-1.823
		c0-0.265,0.168-0.553,0.48-0.912C488.282,130.686,488.881,130.038,489.458,129.917z"/>
	<path d="M526.504,131.158c0.049,0,0.145,0.048,0.264,0.12c0.168,0.264,0.266,0.552,0.266,0.84c0,0.768-0.408,1.32-1.225,1.632
		c-0.793,0.216-1.537,0.336-2.256,0.336c-0.289,0-0.553-0.023-0.77-0.048c-0.504,0-1.248,0.048-2.303,0.072
		c-1.033,0.023-1.801,0.048-2.281,0.048c-1.344,0-2.088-0.024-2.256-0.096c-0.576-0.192-0.863-0.792-0.863-1.824
		c0-0.672,0.455-1.177,1.344-1.488c0.383-0.12,0.84-0.192,1.393-0.192c0.287,0,0.719,0.048,1.32,0.072
		c0.574,0.072,1.031,0.096,1.318,0.096c0.266,0,0.674-0.048,1.201-0.12c0.48-0.119,0.889-0.168,1.176-0.168
		c0.312,0,0.553,0.049,0.744,0.168c0.385,0,1.176-0.239,1.488-0.239c0.119,0,0.217,0.023,0.336,0.096
		C525.688,130.629,526.049,130.845,526.504,131.158z"/>
	<path d="M539.344,131.158c0.049,0,0.145,0.048,0.264,0.12c0.168,0.264,0.266,0.552,0.266,0.84c0,0.768-0.408,1.32-1.225,1.632
		c-0.793,0.216-1.537,0.336-2.256,0.336c-0.289,0-0.553-0.023-0.77-0.048c-0.504,0-1.248,0.048-2.303,0.072
		c-1.033,0.023-1.801,0.048-2.281,0.048c-1.344,0-2.088-0.024-2.256-0.096c-0.576-0.192-0.863-0.792-0.863-1.824
		c0-0.672,0.455-1.177,1.344-1.488c0.383-0.12,0.84-0.192,1.393-0.192c0.287,0,0.719,0.048,1.32,0.072
		c0.574,0.072,1.031,0.096,1.318,0.096c0.266,0,0.674-0.048,1.201-0.12c0.48-0.119,0.889-0.168,1.176-0.168
		c0.312,0,0.553,0.049,0.744,0.168c0.385,0,1.176-0.239,1.488-0.239c0.119,0,0.217,0.023,0.336,0.096
		C538.528,130.629,538.889,130.845,539.344,131.158z"/>
	<path d="M546.497,129.917c1.367,0,2.184,0.505,2.473,1.513c0.119,0.36,0.168,0.696,0.168,1.008c0,0.288-0.049,0.696-0.168,1.345
		c0,0.264-0.193,0.504-0.576,0.744l-0.938,0.504c-0.119,0.048-0.215,0.071-0.336,0.071c-0.143,0-0.383-0.071-0.744-0.191
		c-0.336-0.097-0.576-0.168-0.719-0.192c-0.121-0.023-0.289-0.144-0.529-0.384v-0.433c-0.527-0.888-0.791-1.512-0.791-1.823
		c0-0.265,0.168-0.553,0.48-0.912C545.321,130.686,545.92,130.038,546.497,129.917z"/>
</g>
</svg>
