<?xml version="1.0" encoding="utf-8"?>
<!-- Generator: Adobe Illustrator 16.0.4, SVG Export Plug-In . SVG Version: 6.00 Build 0)  -->
<!DOCTYPE svg PUBLIC "-//W3C//DTD SVG 1.1//EN" "http://www.w3.org/Graphics/SVG/1.1/DTD/svg11.dtd">
<svg version="1.1" id="Layer_1" xmlns:sketch="http://www.bohemiancoding.com/sketch/ns"
	 xmlns="http://www.w3.org/2000/svg" xmlns:xlink="http://www.w3.org/1999/xlink" x="0px" y="0px" width="86.25px" height="87px"
	 viewBox="6.75 -3.75 86.25 87" enable-background="new 6.75 -3.75 86.25 87" xml:space="preserve">
<title>arrows-108</title>
<desc>Created with Sketch.</desc>
<g sketch:type="MSPage">
	<g sketch:type="MSLayerGroup">
		<path sketch:type="MSShapeGroup" d="M50,80c-22.056,0-40-17.943-40-40C10,17.944,27.944,0,50,0c22.057,0,40,17.944,40,40
			C90,62.057,72.057,80,50,80L50,80z M50,2.963C29.578,2.963,12.963,19.578,12.963,40c0,20.422,16.615,37.037,37.037,37.037
			c20.422,0,37.037-16.615,37.037-37.037C87.037,19.578,70.422,2.963,50,2.963L50,2.963z"/>
		<path sketch:type="MSShapeGroup" d="M61.852,66.666c-3.268,0-5.926-2.657-5.926-5.926v-5.926H44.074v5.926
			c0,3.269-2.658,5.926-5.926,5.926c-3.268,0-5.926-2.657-5.926-5.926v-5.926h-4.444c-3.268,0-5.926-2.657-5.926-5.926
			c0-3.268,2.658-5.926,5.926-5.926h4.444v-5.926h-4.444c-3.268,0-5.926-2.658-5.926-5.926c0-3.269,2.658-5.926,5.926-5.926h4.444
			v-5.926c0-3.268,2.658-5.926,5.926-5.926c3.269,0,5.926,2.658,5.926,5.926v5.926h11.852v-5.926c0-3.268,2.658-5.926,5.926-5.926
			c3.269,0,5.926,2.658,5.926,5.926v5.926h4.445c3.268,0,5.926,2.658,5.926,5.926c0,3.268-2.658,5.926-5.926,5.926h-4.445v5.926
			h4.445c3.268,0,5.926,2.658,5.926,5.926c0,3.269-2.658,5.926-5.926,5.926h-4.445v5.926C67.777,64.009,65.12,66.666,61.852,66.666
			L61.852,66.666z M42.593,51.852h14.814c0.819,0,1.481,0.664,1.481,1.482v7.406c0,1.635,1.329,2.963,2.963,2.963
			c1.635,0,2.963-1.328,2.963-2.963v-7.406c0-0.818,0.662-1.482,1.482-1.482h5.926c1.634,0,2.963-1.328,2.963-2.963
			c0-1.634-1.329-2.963-2.963-2.963h-5.926c-0.82,0-1.482-0.664-1.482-1.481v-8.889c0-0.818,0.662-1.481,1.482-1.481h5.926
			c1.634,0,2.963-1.329,2.963-2.963c0-1.634-1.329-2.963-2.963-2.963h-5.926c-0.82,0-1.482-0.664-1.482-1.481v-7.407
			c0-1.634-1.328-2.963-2.963-2.963c-1.634,0-2.963,1.329-2.963,2.963v7.407c0,0.818-0.662,1.481-1.481,1.481H42.593
			c-0.819,0-1.481-0.664-1.481-1.481v-7.407c0-1.634-1.331-2.963-2.963-2.963c-1.634,0-2.963,1.329-2.963,2.963v7.407
			c0,0.818-0.662,1.481-1.481,1.481h-5.926c-1.634,0-2.963,1.329-2.963,2.963c0,1.634,1.329,2.963,2.963,2.963h5.926
			c0.819,0,1.481,0.664,1.481,1.481v8.889c0,0.818-0.662,1.481-1.481,1.481h-5.926c-1.634,0-2.963,1.329-2.963,2.963
			c0,1.635,1.329,2.963,2.963,2.963h5.926c0.819,0,1.481,0.664,1.481,1.482v7.406c0,1.635,1.329,2.963,2.963,2.963
			c1.633,0,2.963-1.328,2.963-2.963v-7.406C41.111,52.516,41.773,51.852,42.593,51.852L42.593,51.852z M57.407,45.926H42.593
			c-0.819,0-1.481-0.664-1.481-1.481v-8.889c0-0.818,0.662-1.481,1.481-1.481h14.814c0.819,0,1.481,0.664,1.481,1.481v8.889
			C58.889,45.262,58.227,45.926,57.407,45.926L57.407,45.926z M44.074,42.963h11.852v-5.926H44.074V42.963z"/>
	</g>
</g>
<text transform="matrix(1 0 0 1 10 102.2227)" font-family="'HelveticaNeue-Bold'" font-size="7.4074">Created by retinaicon</text>
<text transform="matrix(1 0 0 1 10 109.6299)" font-family="'HelveticaNeue-Bold'" font-size="7.4074">from the Noun Project</text>
</svg>
