<?xml version="1.0" encoding="utf-8"?>
<!-- Generator: Adobe Illustrator 15.1.0, SVG Export Plug-In . SVG Version: 6.00 Build 0)  -->
<!DOCTYPE svg PUBLIC "-//W3C//DTD SVG 1.1//EN" "http://www.w3.org/Graphics/SVG/1.1/DTD/svg11.dtd">
<svg version="1.1" id="Layer_1" xmlns="http://www.w3.org/2000/svg" xmlns:xlink="http://www.w3.org/1999/xlink" x="0px" y="0px"
	 width="299px" height="160.5px" viewBox="0 0 299 160.5" enable-background="new 0 0 299 160.5" xml:space="preserve">
<rect x="10" y="11" fill="#FFFFFF" stroke="#000000" stroke-width="3" stroke-miterlimit="10" width="140" height="140"/>
<rect x="150" y="11" fill="#FFFFFF" stroke="#000000" stroke-width="3" stroke-miterlimit="10" width="140" height="140"/>
<g>
	<g>
		<g>
			<path d="M30.932,96.482c-0.049-3.359-0.351-6.713-0.43-10.073c-0.024-1.054,0.692-10.679,1.364-10.262
				c2.417,1.501,2.493,6.729,2.717,9.16c0.282,3.057,0.095,6.167,0.486,9.21c0.172,1.341,3.275-0.082,3.714-0.537
				c2.188-2.262,2.505-6.52,3.135-9.43c1.005-4.646,1.806-10.108,4.855-13.924c2.621-3.28,3.397,6.305,3.42,7.057
				c0.092,3.05-0.052,6.193-0.397,9.222c-0.717,6.272-4.027,12.162-2.61,18.566c1.433,6.473,8.546,11.051,11.938,16.49
				c2.019,3.238,3.77,10.719-2.202,11.021c-3.026,0.153-6.109-0.418-9.143-0.476c-5.658-0.108-15.916,3.412-19.259-2.652
				c-3.914-7.1,0.891-16.537,3.403-23.128c0.052-0.175,0.011-0.325-0.121-0.451c-2.774-2.714-4.156-6.432-1.52-9.795
				c0.984-1.255-2.867-0.853-3.565,0.039c-2.65,3.38-1.945,6.986,0.54,10.285c1.349,1.79-1.683,6.22-2.317,7.969
				c-0.94,2.591-1.171,5.646-1.364,8.371c-0.269,3.81,0.271,7.824,3.193,10.502c2.47,2.265,7.539,1.549,10.514,1.409
				c4.467-0.21,8.761-0.689,13.24-0.331c3.437,0.274,6.715,0.453,10.002-0.733c9.182-3.314,1.818-14.601-1.946-18.993
				c-3.413-3.983-7.244-7.32-7.921-12.827c-0.632-5.134,2.192-10.791,2.983-15.813c0.58-3.679,2.394-17.506-2.937-18.323
				c-5.461-0.836-8.507,3.17-10.23,7.796c-1.221,3.276-1.865,6.777-2.602,10.184c-0.527,2.438-0.835,6.122-2.656,8.005
				c1.238-0.18,2.477-0.358,3.714-0.537c-0.651-5.069,1.482-20.689-7.137-19.438c-8.391,1.219-4.807,17.996-4.726,23.473
				C27.083,98.556,30.952,97.856,30.932,96.482L30.932,96.482z"/>
		</g>
	</g>
	<g>
		<g>
			<path d="M59.433,133.115c2.533,0.521,5.395,0.605,7.392-1.326c1.942-1.878,3.159-4.897,2.822-7.592
				c-0.212-1.698-1.508-3.527-3.358-3.536c-2.447-0.011-3.22,2.374-3.264,4.426c-0.021,0.958,1.933,0.629,1.95-0.174
				c0.016-0.731,0.118-3.197,1.134-2.852c1.259,0.43,1.65,2.347,1.663,3.466c0.02,1.755-0.844,3.644-1.873,5.034
				c-1.315,1.775-3.349,1.731-5.332,1.323C59.801,131.728,58.276,132.877,59.433,133.115L59.433,133.115z"/>
		</g>
	</g>
	<g>
		<g>
			<path d="M31.034,98.259c0.18,0.396,0.096,0.574,0.113,0.985c0.024,0.607,0.479,0.838,1.022,0.947
				c0.785,0.157,1.716-0.081,1.963-0.929c0.182-0.623-0.135-1.207-0.153-1.83c-0.029-1.04-1.986-0.761-1.96,0.135
				c0.01,0.369,0.053,0.726,0.135,1.085c0.049,0.216,0.151,0.412,0.032,0.547c0.298-0.144,0.595-0.286,0.893-0.429
				c-0.181-0.002-0.32-0.091-0.105,0.038c0.17,0.102,0.114,0.374,0.143,0.071c0.038-0.393,0.014-0.776-0.152-1.139
				c-0.205-0.449-0.696-0.548-1.149-0.426C31.489,97.403,30.831,97.812,31.034,98.259L31.034,98.259z"/>
		</g>
	</g>
	<g>
		<g>
			<path d="M37.528,97.099c-0.011,0.525-0.284,1.215-0.011,1.695c0.19,0.337,0.883,0.263,1.162,0.169
				c0.451-0.15,0.775-0.417,1.111-0.744c0.309-0.301,0.19-0.691-0.215-0.803c-0.461-0.128-1.027,0.035-1.366,0.365
				c-0.481,0.47-0.198-0.009,0.583,0.01c0.133,0.037,0.267,0.073,0.401,0.11c0.161,0.101,0.148,0.259,0.164,0.09
				c0.01-0.104,0.028-0.208,0.043-0.312c0.038-0.259,0.065-0.516,0.071-0.777C39.491,95.993,37.544,96.353,37.528,97.099
				L37.528,97.099z"/>
		</g>
	</g>
</g>
<g>
	<rect x="66" y="95" fill="none" stroke="#000000" stroke-width="3" stroke-miterlimit="10" width="72" height="6"/>
	<rect x="121" y="101" fill="none" stroke="#000000" stroke-width="3" stroke-miterlimit="10" width="7" height="33"/>
	<rect x="76" y="101" fill="none" stroke="#000000" stroke-width="3" stroke-miterlimit="10" width="7" height="33"/>
</g>
<g>
	<g>
		<g>
			<path d="M226.932,57.482c-0.049-3.36-0.352-6.713-0.43-10.073c-0.025-1.054,0.691-10.68,1.363-10.262
				c2.418,1.501,2.493,6.729,2.718,9.16c0.282,3.057,0.095,6.167,0.485,9.21c0.172,1.34,3.275-0.083,3.715-0.537
				c2.188-2.263,2.505-6.52,3.135-9.43c1.005-4.646,1.806-10.108,4.854-13.925c2.621-3.28,3.397,6.305,3.42,7.057
				c0.092,3.05-0.051,6.194-0.397,9.221c-0.716,6.273-4.027,12.163-2.609,18.566c1.433,6.473,8.547,11.052,11.938,16.491
				c2.019,3.238,3.77,10.719-2.203,11.021c-3.026,0.153-6.108-0.418-9.142-0.476c-5.659-0.108-15.916,3.412-19.26-2.652
				c-3.913-7.1,0.892-16.538,3.403-23.128c0.052-0.175,0.012-0.325-0.12-0.451c-2.775-2.714-4.157-6.432-1.52-9.794
				c0.983-1.255-2.867-0.853-3.566,0.038c-2.65,3.38-1.944,6.987,0.54,10.286c1.35,1.791-1.682,6.219-2.316,7.969
				c-0.939,2.591-1.171,5.645-1.363,8.371c-0.27,3.81,0.271,7.824,3.192,10.502c2.471,2.265,7.539,1.549,10.514,1.409
				c4.468-0.21,8.762-0.689,13.24-0.331c3.437,0.274,6.715,0.453,10.003-0.733c9.182-3.314,1.817-14.601-1.946-18.994
				c-3.413-3.983-7.244-7.32-7.921-12.826c-0.632-5.134,2.191-10.792,2.982-15.814c0.58-3.679,2.394-17.506-2.937-18.323
				c-5.461-0.836-8.507,3.17-10.23,7.796c-1.22,3.276-1.864,6.777-2.602,10.184c-0.527,2.438-0.835,6.123-2.656,8.004
				c1.238-0.179,2.477-0.358,3.715-0.537c-0.651-5.069,1.482-20.689-7.137-19.438c-8.392,1.219-4.808,17.997-4.727,23.473
				C223.083,59.555,226.952,58.857,226.932,57.482L226.932,57.482z"/>
		</g>
	</g>
	<g>
		<g>
			<path d="M255.433,94.115c2.533,0.521,5.395,0.605,7.393-1.326c1.942-1.878,3.158-4.897,2.821-7.592
				c-0.212-1.698-1.508-3.527-3.357-3.536c-2.447-0.011-3.22,2.374-3.264,4.426c-0.021,0.958,1.933,0.629,1.949-0.174
				c0.017-0.731,0.118-3.197,1.134-2.852c1.26,0.43,1.65,2.347,1.663,3.466c0.021,1.755-0.844,3.644-1.873,5.034
				c-1.314,1.775-3.349,1.731-5.331,1.323C255.802,92.728,254.276,93.877,255.433,94.115L255.433,94.115z"/>
		</g>
	</g>
	<g>
		<g>
			<path d="M227.034,59.259c0.18,0.395,0.096,0.574,0.112,0.985c0.025,0.607,0.479,0.838,1.023,0.947
				c0.784,0.158,1.716-0.081,1.963-0.929c0.183-0.623-0.135-1.207-0.152-1.83c-0.03-1.04-1.986-0.761-1.961,0.135
				c0.011,0.369,0.054,0.726,0.136,1.085c0.049,0.216,0.15,0.412,0.032,0.546c0.297-0.143,0.595-0.285,0.893-0.428
				c-0.182-0.002-0.32-0.091-0.105,0.038c0.17,0.102,0.113,0.374,0.143,0.071c0.038-0.393,0.014-0.776-0.151-1.138
				c-0.205-0.449-0.696-0.547-1.149-0.426C227.489,58.403,226.83,58.812,227.034,59.259L227.034,59.259z"/>
		</g>
	</g>
	<g>
		<g>
			<path d="M233.528,58.099c-0.012,0.525-0.284,1.215-0.012,1.695c0.191,0.336,0.884,0.262,1.163,0.169
				c0.451-0.15,0.775-0.417,1.111-0.745c0.308-0.301,0.19-0.69-0.216-0.803c-0.46-0.127-1.026,0.035-1.366,0.366
				c-0.48,0.469-0.197-0.01,0.584,0.009c0.134,0.037,0.268,0.074,0.401,0.111c0.16,0.101,0.147,0.259,0.163,0.09
				c0.01-0.104,0.028-0.209,0.043-0.313c0.038-0.258,0.065-0.516,0.071-0.777C235.491,56.993,233.544,57.353,233.528,58.099
				L233.528,58.099z"/>
		</g>
	</g>
</g>
<g>
	<rect x="206" y="95" fill="none" stroke="#000000" stroke-width="3" stroke-miterlimit="10" width="72" height="6"/>
	<rect x="261" y="101" fill="none" stroke="#000000" stroke-width="3" stroke-miterlimit="10" width="7" height="33"/>
	<rect x="216" y="101" fill="none" stroke="#000000" stroke-width="3" stroke-miterlimit="10" width="7" height="33"/>
</g>
</svg>
