<?xml version="1.0" encoding="utf-8"?>
<!-- Generator: Adobe Illustrator 15.1.0, SVG Export Plug-In . SVG Version: 6.00 Build 0)  -->
<!DOCTYPE svg PUBLIC "-//W3C//DTD SVG 1.1//EN" "http://www.w3.org/Graphics/SVG/1.1/DTD/svg11.dtd">
<svg version="1.1"
	 id="svg2" inkscape:version="0.43" sodipodi:version="0.32" sodipodi:docbase="C:\Documents and Settings\David Nelson\Archives\Svg" sodipodi:docname="Semaphore Alpha.svg" xmlns:inkscape="http://www.inkscape.org/namespaces/inkscape" xmlns:sodipodi="http://inkscape.sourceforge.net/DTD/sodipodi-0.dtd" xmlns:rdf="http://www.w3.org/1999/02/22-rdf-syntax-ns#" xmlns:svg="http://www.w3.org/2000/svg" xmlns:cc="http://web.resource.org/cc/" xmlns:dc="http://purl.org/dc/elements/1.1/"
	 xmlns="http://www.w3.org/2000/svg" xmlns:xlink="http://www.w3.org/1999/xlink" x="0px" y="0px" width="600px" height="500px"
	 viewBox="0 0 600 500" enable-background="new 0 0 600 500" xml:space="preserve">
<sodipodi:namedview  pagecolor="#ffffff" id="base" bordercolor="#666666" inkscape:zoom="0.5" borderopacity="1.0" inkscape:pageopacity="0.0" inkscape:pageshadow="2" inkscape:cx="277.85308" inkscape:cy="238.30965" inkscape:document-units="px" inkscape:current-layer="layer5" showgrid="true" inkscape:grid-points="true" inkscape:window-width="756" inkscape:window-height="540" inkscape:window-x="378" inkscape:window-y="253">
	</sodipodi:namedview>
<g id="layer1" inkscape:groupmode="layer" inkscape:label="Head and Torso">
	<path id="path7712" sodipodi:cx="250" sodipodi:cy="200" sodipodi:type="arc" sodipodi:rx="25" sodipodi:ry="25" d="M325,210
		c0,13.807-11.193,25-25,25c-13.808,0-25-11.193-25-25s11.192-25,25-25C313.807,185,325,196.193,325,210z"/>
	<path id="rect7718" d="M285,240h30c11.045,0,20,9.551,20,21.334v117.332c0,11.783-8.955,21.334-20,21.334h-30
		c-11.046,0-20-9.551-20-21.334V261.334C265,249.551,273.954,240,285,240z"/>
</g>
<g id="layer4" inkscape:groupmode="layer" inkscape:label="Left Hand">
	<g id="g11911">
		<path id="rect8008" d="M360,250v50c0,5.523-4.478,10-10,10l0,0c-5.523,0-10-4.477-10-10v-50c0-5.523,4.477-10,10-10l0,0
			C355.523,240,360,244.477,360,250z"/>
		<rect id="rect8010" x="345" y="300" stroke="#000000" width="10" height="200"/>
		<path id="path8014" fill="#FFFF00" d="M255,410h90v90h-90V410z"/>
		<path id="path8016" fill="#FF0000" d="M345,410v90h-90L345,410z"/>
		<path id="path11836" fill="#FFFF00" fill-opacity="0" stroke="#000000" stroke-linejoin="round" d="M255,410h90v90h-90V410z"/>
	</g>
</g>
<g id="layer5" inkscape:groupmode="layer" inkscape:label="Right Hand">
	<g id="g12037">
		<path id="rect7827" d="M245.858,242.93l-35.354-35.357c-3.907-3.903-3.905-10.237,0-14.142l0,0c3.904-3.905,10.237-3.906,14.141,0
			l35.356,35.355c3.905,3.904,3.905,10.237,0,14.143l0,0C256.095,246.834,249.763,246.835,245.858,242.93z"/>
		
			<rect id="rect7829" x="46.865" y="124.791" transform="matrix(0.7071 0.7071 -0.7071 0.7071 134.7904 -65.8339)" stroke="#000000" stroke-width="1" width="199.999" height="10"/>
		<path id="path7833" fill="#FFFF00" d="M72.618,189.895l-63.639-63.64l63.639-63.639l63.639,63.639L72.618,189.895z"/>
		<path id="path7835" fill="#FF0000" d="M8.979,126.255l63.639-63.639l63.639,63.639H8.979z"/>
		<path id="path11997" fill="#FFFF00" fill-opacity="0" stroke="#000000" stroke-linejoin="round" d="M72.618,189.895l-63.639-63.64
			l63.639-63.639l63.639,63.639L72.618,189.895z"/>
	</g>
</g>
</svg>
