<?xml version="1.0" encoding="utf-8"?>
<!-- Generator: Adobe Illustrator 15.1.0, SVG Export Plug-In . SVG Version: 6.00 Build 0)  -->
<!DOCTYPE svg PUBLIC "-//W3C//DTD SVG 1.1//EN" "http://www.w3.org/Graphics/SVG/1.1/DTD/svg11.dtd">
<svg version="1.1" id="Layer_1" xmlns="http://www.w3.org/2000/svg" xmlns:xlink="http://www.w3.org/1999/xlink" x="0px" y="0px"
	 width="600px" height="553px" viewBox="0 0 600 553" enable-background="new 0 0 600 553" xml:space="preserve">
<line opacity="0.3" fill="none" stroke="#000000" stroke-width="6" stroke-miterlimit="10" x1="289.496" y1="349.79" x2="289.496" y2="545.717"/>
<rect x="211.36" y="467.581" opacity="0.3" fill="none" stroke="#000000" stroke-width="6" stroke-miterlimit="10" width="78.135" height="78.136"/>
<line opacity="0.3" fill="none" stroke="#000000" stroke-width="6" stroke-miterlimit="10" x1="310.423" y1="349.79" x2="310.423" y2="545.717"/>
<rect x="310.423" y="467.581" opacity="0.3" fill="none" stroke="#000000" stroke-width="6" stroke-miterlimit="10" width="78.146" height="78.136"/>
<line opacity="0.3" fill="none" stroke="#000000" stroke-width="6" stroke-miterlimit="10" x1="396.819" y1="263.392" x2="592.748" y2="263.392"/>
<path fill="#241F20" d="M355.165,410.382c-1.368-83.791-15.209-154.005-34.209-181.495c14.02-6.672,23.734-20.925,23.734-37.485
	c0-22.936-18.593-41.535-41.529-41.535c-22.936,0-41.528,18.599-41.528,41.535c0,16.56,9.712,30.817,23.738,37.485
	c-19.003,27.495-32.847,97.704-34.216,181.495H355.165z"/>
<rect x="514.611" y="263.392" opacity="0.3" fill="none" stroke="#000000" stroke-width="6" stroke-miterlimit="10" width="78.137" height="78.126"/>
<line opacity="0.3" fill="none" stroke="#000000" stroke-width="6" stroke-miterlimit="10" x1="203.101" y1="263.392" x2="7.178" y2="263.392"/>
<rect x="7.178" y="263.392" opacity="0.3" fill="none" stroke="#000000" stroke-width="6" stroke-miterlimit="10" width="78.135" height="78.126"/>
<line opacity="0.3" fill="none" stroke="#000000" stroke-width="6" stroke-miterlimit="10" x1="397.885" y1="198.808" x2="536.438" y2="60.269"/>
<polygon opacity="0.3" fill="none" stroke="#000000" stroke-width="6" stroke-miterlimit="10" points="536.438,170.767 
	481.172,115.519 536.438,60.269 591.684,115.519 "/>
<line opacity="0.3" fill="none" stroke="#000000" stroke-width="6" stroke-miterlimit="10" x1="406.913" y1="344.248" x2="545.447" y2="482.79"/>
<polygon opacity="0.3" fill="none" stroke="#000000" stroke-width="6" stroke-miterlimit="10" points="434.957,482.79 
	490.201,427.539 545.447,482.79 490.201,538.035 "/>
<line opacity="0.3" fill="none" stroke="#000000" stroke-width="6" stroke-miterlimit="10" x1="195.425" y1="344.248" x2="56.882" y2="482.79"/>
<polygon opacity="0.3" fill="none" stroke="#000000" stroke-width="6" stroke-miterlimit="10" points="167.389,482.79 
	112.138,427.539 56.882,482.79 112.138,538.035 "/>
<line opacity="0.3" fill="none" stroke="#000000" stroke-width="6" stroke-miterlimit="10" x1="202.036" y1="198.808" x2="63.493" y2="60.269"/>
<polygon opacity="0.3" fill="none" stroke="#000000" stroke-width="6" stroke-miterlimit="10" points="63.493,170.767 
	118.75,115.519 63.493,60.269 8.247,115.519 "/>
<line opacity="0.3" fill="none" stroke="#000000" stroke-width="6" stroke-miterlimit="10" x1="300.423" y1="202.291" x2="300.423" y2="6.367"/>
<rect x="300.423" y="6.367" opacity="0.3" fill="none" stroke="#000000" stroke-width="6" stroke-miterlimit="10" width="78.146" height="78.135"/>
</svg>
