<?xml version="1.0" encoding="utf-8"?>
<!-- Generator: Adobe Illustrator 15.1.0, SVG Export Plug-In . SVG Version: 6.00 Build 0)  -->
<!DOCTYPE svg PUBLIC "-//W3C//DTD SVG 1.1//EN" "http://www.w3.org/Graphics/SVG/1.1/DTD/svg11.dtd">
<svg version="1.1" id="Layer_1" xmlns="http://www.w3.org/2000/svg" xmlns:xlink="http://www.w3.org/1999/xlink" x="0px" y="0px"
	 width="600px" height="600px" viewBox="0 0 600 600" enable-background="new 0 0 600 600" xml:space="preserve">
<g>
	<path fill="#419B07" d="M524.776,380.271c-22.322-12.812-68.159-24.872-99.045-35.91c-18.607-6.65,8.957-27.504,1.649-41.576
		c-11.613-22.356-110.317-45.466-110.317-45.466l46.856-180.7c0,0,98.703,23.109,110.317,45.467
		c7.308,14.07-28.904,31.6-1.65,41.576c30.802,11.273,76.724,23.097,99.045,35.91L524.776,380.271z"/>
	<path fill="#5B371B" d="M244.443,537.381c-1.732,6.683-8.555,10.695-15.237,8.963l0,0c-6.682-1.733-10.695-8.555-8.962-15.238
		L339.719,70.345c1.735-6.683,8.556-10.695,15.238-8.962l0,0c6.683,1.732,10.696,8.554,8.962,15.237L244.443,537.381z"/>
	<path fill="#48AF05" d="M474.237,122.086c-11.613-22.358-110.317-45.467-110.317-45.467L317.065,257.32
		c0,0,98.702,23.109,110.315,45.467c0.947,1.821,1.158,3.701,0.878,5.617c-0.118,0.805-0.323,1.616-0.6,2.431
		c0.012-0.03,34.119-89.88,45.219-147.068c3.448-17.77,4.676-32.385,1.971-40.175C476.244,128.174,474.237,122.086,474.237,122.086z
		"/>
	<path fill="none" d="M465.011,159.47l5.318-21.551C465.109,145.73,458.443,153.417,465.011,159.47z"/>
	<path fill="#FFFFFF" stroke="#000000" stroke-miterlimit="10" d="M462.286,153.324"/>
</g>
<g>
	<path fill="#D34802" d="M321.935,383.525c-22.322-12.813-68.158-24.872-99.045-35.911c-18.606-6.65,8.958-27.504,1.65-41.575
		c-11.613-22.356-110.316-45.467-110.316-45.467l46.856-180.7c0,0,98.702,23.109,110.317,45.467
		c7.307,14.07-28.906,31.6-1.65,41.576c30.802,11.273,76.723,23.098,99.044,35.91L321.935,383.525z"/>
	<path fill="#7A502B" d="M41.603,540.635c-1.732,6.682-8.555,10.694-15.236,8.962l0,0c-6.684-1.732-10.695-8.555-8.963-15.238
		L136.88,73.598c1.734-6.682,8.556-10.695,15.238-8.962l0,0c6.683,1.731,10.696,8.554,8.962,15.237L41.603,540.635z"/>
	<path fill="#F95D06" d="M271.397,125.34C259.783,102.982,161.08,79.873,161.08,79.873l-46.856,180.701
		c0,0,98.703,23.109,110.316,45.467c0.947,1.821,1.158,3.702,0.877,5.617c-0.118,0.806-0.323,1.616-0.599,2.431
		c0.011-0.03,34.119-89.879,45.219-147.067c3.448-17.77,4.676-32.385,1.97-40.175C273.405,131.427,271.397,125.34,271.397,125.34z"
		/>
	<path fill="none" d="M262.17,162.724l5.319-21.551C262.268,148.983,255.603,156.671,262.17,162.724z"/>
	<path fill="#FFFFFF" stroke="#000000" stroke-miterlimit="10" d="M259.446,156.577"/>
</g>
</svg>
