<?xml version="1.0" encoding="utf-8"?>
<!-- Generator: Adobe Illustrator 16.0.4, SVG Export Plug-In . SVG Version: 6.00 Build 0)  -->
<!DOCTYPE svg PUBLIC "-//W3C//DTD SVG 1.1//EN" "http://www.w3.org/Graphics/SVG/1.1/DTD/svg11.dtd">
<svg version="1.1" id="Layer_1" xmlns="http://www.w3.org/2000/svg" xmlns:xlink="http://www.w3.org/1999/xlink" x="0px" y="0px"
	 width="60.667px" height="67.834px" viewBox="19.833 6 60.667 67.834" enable-background="new 19.833 6 60.667 67.834"
	 xml:space="preserve">
<path d="M61.84,52.48c0,2.479-2,4.399-4.4,4.399H56.08V71.6h-2.16V54.8h3.52c1.281,0,2.32-1.04,2.32-2.319V33.2
	c0-1.28-1.039-2.32-2.32-2.32H42.72c-1.28,0-2.32,1.04-2.32,2.32v19.28c0,1.279,1.04,2.319,2.32,2.319H46v16.8h-2.16V56.96h-1.2
	c-2.48,0-4.4-2-4.4-4.399V33.2c0-2.48,2-4.4,4.4-4.4h14.719c2.48,0,4.4,2,4.4,4.4v19.28H61.84z M41.52,16.48
	C41.52,11.76,45.36,8,50,8c4.641,0,8.48,3.84,8.48,8.48s-3.84,8.48-8.48,8.48C45.36,24.96,41.52,21.2,41.52,16.48z M43.68,16.48
	c0,3.52,2.88,6.4,6.4,6.4c3.52,0,6.4-2.88,6.4-6.4s-2.881-6.4-6.4-6.4C46.56,10.16,43.68,12.96,43.68,16.48z M35.52,71.6h2.16
	v-12.24h0.96V57.2h-3.12V71.6z M24.4,55.439V39.12c0-0.96,0.8-1.76,1.76-1.76h9.68V35.2h-9.6c-2.16,0-3.92,1.76-3.92,3.92v16.319
	c0,2.16,1.76,3.92,3.92,3.92h0.8V71.6h2.16V57.2h-2.96C25.2,57.2,24.4,56.4,24.4,55.439z M25.04,24.96c0-4.08,3.28-7.36,7.36-7.36
	s7.36,3.28,7.36,7.36s-3.28,7.36-7.36,7.36S25.04,29.04,25.04,24.96z M27.2,24.96c0,2.88,2.32,5.2,5.2,5.2s5.2-2.32,5.2-5.2
	s-2.32-5.2-5.2-5.2S27.2,22.08,27.2,24.96z M61.359,59.359h0.961V71.6h2.16V57.2h-3.121V59.359L61.359,59.359z M73.76,35.2h-9.6
	v2.16h9.68c0.96,0,1.76,0.8,1.76,1.76v16.319c0,0.961-0.8,1.761-1.76,1.761H70.8V71.6h2.16v-12.24h0.8c2.16,0,3.92-1.76,3.92-3.92
	V39.12C77.68,36.96,75.92,35.2,73.76,35.2z M60.24,24.96c0-4.08,3.279-7.36,7.359-7.36s7.36,3.28,7.36,7.36s-3.28,7.36-7.36,7.36
	S60.24,29.04,60.24,24.96z M62.32,24.96c0,2.88,2.32,5.2,5.199,5.2c2.881,0,5.201-2.32,5.201-5.2s-2.32-5.2-5.201-5.2
	C64.721,19.68,62.32,22.08,62.32,24.96z"/>
<text transform="matrix(1 0 0 1 10 92)" font-family="'HelveticaNeue-Bold'" font-size="4">Created by Anton Scherbik</text>
<text transform="matrix(1 0 0 1 10 96)" font-family="'HelveticaNeue-Bold'" font-size="4">from the Noun Project</text>
</svg>
