<?xml version="1.0" encoding="utf-8"?>
<!-- Generator: Adobe Illustrator 15.1.0, SVG Export Plug-In . SVG Version: 6.00 Build 0)  -->
<!DOCTYPE svg PUBLIC "-//W3C//DTD SVG 1.1//EN" "http://www.w3.org/Graphics/SVG/1.1/DTD/svg11.dtd">
<svg version="1.1" id="Layer_1" xmlns="http://www.w3.org/2000/svg" xmlns:xlink="http://www.w3.org/1999/xlink" x="0px" y="0px"
	 width="622.5px" height="178.812px" viewBox="0 0 622.5 178.812" enable-background="new 0 0 622.5 178.812" xml:space="preserve">
<rect x="260.573" y="119.469" fill="none" width="67.692" height="37.092"/>
<polygon fill="#FFFFFF" stroke="#000000" stroke-width="3" stroke-miterlimit="10" points="171.694,25.906 159.707,25.906 
	147.9,25.906 136.093,25.906 135.912,25.906 124.288,25.906 112.3,25.906 100.312,25.906 88.506,25.906 76.7,25.906 76.518,25.906 
	64.894,25.906 52.906,25.906 41.1,25.906 29.293,25.906 29.112,25.906 17.488,25.906 5.5,25.906 5.5,64.087 17.488,64.087 
	29.112,64.087 29.293,64.087 41.1,64.087 52.906,64.087 64.894,64.087 76.518,64.087 76.7,64.087 88.506,64.087 100.312,64.087 
	112.3,64.087 124.288,64.087 135.912,64.087 136.093,64.087 147.9,64.087 159.707,64.087 171.694,64.087 183.5,64.087 183.5,25.906 
	"/>
<circle cx="50.161" cy="45.187" r="8.144"/>
<rect x="-20.042" y="112.062" fill="none" width="74.407" height="44.499"/>
<text transform="matrix(1 0 0 1 9.2104 142.4221)" font-family="'LunchBox-Regular'" font-size="45.9573">E</text>
<rect x="40.501" y="112.062" fill="none" width="74.407" height="44.499"/>
<text transform="matrix(1 0 0 1 68.6294 142.4221)" font-family="'LunchBox-Regular'" font-size="45.9573">A</text>
<rect x="116.13" y="115.766" fill="none" width="74.407" height="44.498"/>
<text transform="matrix(1 0 0 1 145.3843 146.1262)" font-family="'LunchBox-Regular'" font-size="45.9573">T</text>
<path d="M113.303,46.629c0,2.19-1.331,3.966-2.973,3.966H66.276c-1.642,0-2.973-1.776-2.973-3.966v-2.164
	c0-2.19,1.332-3.966,2.973-3.966h44.054c1.643,0,2.973,1.776,2.973,3.966V46.629z"/>
<polygon fill="#FFFFFF" stroke="#000000" stroke-width="3" stroke-miterlimit="10" points="604.16,25.906 591.858,25.906 
	579.557,25.906 579.367,25.906 567.255,25.906 554.953,25.906 554.764,25.906 542.651,25.906 530.511,25.906 530.16,25.906 
	518.209,25.906 518.02,25.906 505.907,25.906 493.416,25.906 481.114,25.906 468.812,25.906 468.623,25.906 456.511,25.906 
	444.209,25.906 444.02,25.906 431.907,25.906 419.767,25.906 419.416,25.906 407.465,25.906 407.275,25.906 395.163,25.906 
	382.672,25.906 370.37,25.906 358.067,25.906 357.879,25.906 345.767,25.906 333.465,25.906 333.275,25.906 321.163,25.906 
	308.672,25.906 308.672,64.087 321.163,64.087 333.275,64.087 333.465,64.087 345.767,64.087 357.879,64.087 358.067,64.087 
	370.37,64.087 382.672,64.087 395.163,64.087 407.275,64.087 407.465,64.087 419.416,64.087 419.767,64.087 431.907,64.087 
	444.02,64.087 444.209,64.087 456.511,64.087 468.623,64.087 468.812,64.087 481.114,64.087 493.416,64.087 505.907,64.087 
	518.02,64.087 518.209,64.087 530.16,64.087 530.511,64.087 542.651,64.087 554.764,64.087 554.953,64.087 567.255,64.087 
	579.367,64.087 579.557,64.087 591.858,64.087 604.16,64.087 616.651,64.087 616.651,25.906 "/>
<g>
	<polyline fill="none" stroke="#000000" stroke-width="4" stroke-miterlimit="10" points="29.299,73.156 29.299,87.109 
		7.282,87.109 7.282,73.156 	"/>
	<line fill="none" stroke="#000000" stroke-width="4" stroke-miterlimit="10" x1="18.305" y1="87.109" x2="18.305" y2="102.973"/>
</g>
<g>
	<polyline fill="none" stroke="#000000" stroke-width="4" stroke-miterlimit="10" points="113.303,73.543 113.303,87.496 
		42.018,87.496 42.018,73.543 	"/>
	<line fill="none" stroke="#000000" stroke-width="4" stroke-miterlimit="10" x1="77.705" y1="87.496" x2="77.705" y2="103.36"/>
</g>
<g>
	<polyline fill="none" stroke="#000000" stroke-width="4" stroke-miterlimit="10" points="178.303,73.2 178.303,87.154 
		128.303,87.154 128.303,73.2 	"/>
	<line fill="none" stroke="#000000" stroke-width="4" stroke-miterlimit="10" x1="153.334" y1="87.154" x2="153.334" y2="103.018"/>
</g>
<circle cx="19.161" cy="45.187" r="8.144"/>
<circle cx="320.161" cy="45.187" r="8.144"/>
<rect x="313.938" y="112.062" fill="none" width="74.407" height="44.499"/>
<text transform="matrix(1 0 0 1 342.0654 142.4221)" font-family="'LunchBox-Regular'" font-size="45.9573">A</text>
<path d="M383.303,46.629c0,2.19-1.331,3.966-2.974,3.966h-44.054c-1.642,0-2.973-1.776-2.973-3.966v-2.164
	c0-2.19,1.331-3.966,2.973-3.966h44.054c1.643,0,2.974,1.776,2.974,3.966V46.629z"/>
<g>
	<polyline fill="none" stroke="#000000" stroke-width="4" stroke-miterlimit="10" points="383.303,73.156 383.303,87.109 
		312.018,87.109 312.018,73.156 	"/>
	<line fill="none" stroke="#000000" stroke-width="4" stroke-miterlimit="10" x1="347.705" y1="87.109" x2="347.705" y2="102.973"/>
</g>
<circle cx="461.144" cy="45.187" r="8.144"/>
<rect x="398.303" y="112.062" fill="none" width="74.407" height="44.499"/>
<text transform="matrix(1 0 0 1 426.1777 142.4221)" font-family="'LunchBox-Regular'" font-size="45.9573">N</text>
<path d="M448.303,46.629c0,2.19-1.331,3.966-2.973,3.966h-44.055c-1.642,0-2.973-1.776-2.973-3.966v-2.164
	c0-2.19,1.331-3.966,2.973-3.966h44.055c1.642,0,2.973,1.776,2.973,3.966V46.629z"/>
<g>
	<polyline fill="none" stroke="#000000" stroke-width="4" stroke-miterlimit="10" points="469.287,73.156 469.287,87.109 
		398.303,87.109 398.303,73.156 	"/>
	<line fill="none" stroke="#000000" stroke-width="4" stroke-miterlimit="10" x1="433.84" y1="87.109" x2="433.84" y2="102.973"/>
</g>
<rect x="472.71" y="115.766" fill="none" width="74.407" height="44.498"/>
<text transform="matrix(1 0 0 1 501.9639 146.1262)" font-family="'LunchBox-Regular'" font-size="45.9573">T</text>
<path d="M534.144,46.078c0,2.19-1.331,3.966-2.973,3.966h-44.054c-1.643,0-2.974-1.776-2.974-3.966v-2.164
	c0-2.19,1.331-3.966,2.974-3.966h44.054c1.642,0,2.973,1.776,2.973,3.966V46.078z"/>
<g>
	<polyline fill="none" stroke="#000000" stroke-width="4" stroke-miterlimit="10" points="534.144,72.245 534.144,86.198 
		484.144,86.198 484.144,72.245 	"/>
	<line fill="none" stroke="#000000" stroke-width="4" stroke-miterlimit="10" x1="509.175" y1="86.198" x2="509.175" y2="102.063"/>
</g>
<g>
	<polyline fill="none" stroke="#000000" stroke-width="4" stroke-miterlimit="10" points="609.592,72.2 609.592,86.154 
		549.305,86.154 549.305,72.2 	"/>
	<line fill="none" stroke="#000000" stroke-width="4" stroke-miterlimit="10" x1="579.486" y1="86.154" x2="579.486" y2="102.018"/>
</g>
<g>
	<circle cx="557.448" cy="45.187" r="8.144"/>
	<circle cx="579.448" cy="45.187" r="8.144"/>
	<circle cx="601.448" cy="45.187" r="8.144"/>
</g>
<path d="M178.303,46.629c0,2.19-1.331,3.966-2.973,3.966h-44.054c-1.642,0-2.973-1.776-2.973-3.966v-2.164
	c0-2.19,1.332-3.966,2.973-3.966h44.054c1.643,0,2.973,1.776,2.973,3.966V46.629z"/>
<circle fill="#FFFFFF" stroke="#000000" stroke-width="3" stroke-miterlimit="10" cx="246.161" cy="45.187" r="8.144"/>
<rect x="542.244" y="115.766" fill="none" width="74.407" height="44.498"/>
<text transform="matrix(1 0 0 1 570.3027 146.1262)" font-family="'LunchBox-Regular'" font-size="45.9573">S</text>
<circle fill="#FFFFFF" stroke="#000000" stroke-width="3" stroke-miterlimit="10" cx="263.828" cy="45.187" r="8.144"/>
<circle fill="#FFFFFF" stroke="#000000" stroke-width="3" stroke-miterlimit="10" cx="281.495" cy="45.187" r="8.144"/>
<circle fill="#FFFFFF" stroke="#000000" stroke-width="3" stroke-miterlimit="10" cx="299.161" cy="45.187" r="8.144"/>
<circle fill="#FFFFFF" stroke="#000000" stroke-width="3" stroke-miterlimit="10" cx="228.495" cy="45.187" r="8.144"/>
<circle fill="#FFFFFF" stroke="#000000" stroke-width="3" stroke-miterlimit="10" cx="210.828" cy="45.187" r="8.144"/>
<circle fill="#FFFFFF" stroke="#000000" stroke-width="3" stroke-miterlimit="10" cx="193.161" cy="45.187" r="8.144"/>
</svg>
