<?xml version="1.0" encoding="utf-8"?>
<!-- Generator: Adobe Illustrator 15.1.0, SVG Export Plug-In . SVG Version: 6.00 Build 0)  -->
<!DOCTYPE svg PUBLIC "-//W3C//DTD SVG 1.1//EN" "http://www.w3.org/Graphics/SVG/1.1/DTD/svg11.dtd">
<svg version="1.1" id="Layer_1" xmlns="http://www.w3.org/2000/svg" xmlns:xlink="http://www.w3.org/1999/xlink" x="0px" y="0px"
	 width="299px" height="160.5px" viewBox="0 0 299 160.5" enable-background="new 0 0 299 160.5" xml:space="preserve">
<rect x="10" y="11" fill="#FFFFFF" stroke="#000000" stroke-width="3" stroke-miterlimit="10" width="140" height="140"/>
<rect x="150" y="11" fill="#FFFFFF" stroke="#000000" stroke-width="3" stroke-miterlimit="10" width="140" height="140"/>
<g>
	<path d="M106.221,74.37v13.183c0,7.813-2.256,15.293-6.768,22.441s-10.967,10.723-19.365,10.723c-4.844,0-8.936-1.064-12.275-3.193
		c-3.34-2.128-6.504-6.054-9.492-11.777c-2.988-5.722-4.482-11.786-4.482-18.193V74.37c0-7.773,2.246-15.244,6.738-22.412
		c4.492-7.167,10.937-10.752,19.336-10.752c4.805,0,8.877,1.055,12.217,3.164s6.523,6.026,9.551,11.748
		C104.707,61.841,106.221,67.924,106.221,74.37z M94.15,74.37c0-6.523-1.816-12.226-5.449-17.109
		c-2.071-2.695-4.98-4.043-8.73-4.043c-3.633,0-6.602,1.485-8.906,4.453c-3.477,4.493-5.215,10.059-5.215,16.699v13.183
		c0,6.562,1.835,12.267,5.508,17.109c2.031,2.695,4.941,4.043,8.73,4.043c3.593,0,6.542-1.483,8.848-4.453
		c3.476-4.491,5.215-10.058,5.215-16.699V74.37z"/>
</g>
<g>
	<path d="M226.123,41.206v65.742h12.129c2.891,0,4.951,0.557,6.182,1.67s1.846,2.569,1.846,4.365c0,1.758-0.615,3.193-1.846,4.307
		s-3.291,1.67-6.182,1.67h-36.27c-2.891,0-4.951-0.557-6.182-1.67s-1.846-2.567-1.846-4.365c0-1.758,0.615-3.193,1.846-4.307
		s3.291-1.67,6.182-1.67h12.129V56.85l-10.723,2.812c-1.719,0.469-3.008,0.703-3.867,0.703c-1.523,0-2.842-0.605-3.955-1.816
		c-1.113-1.21-1.67-2.695-1.67-4.453c0-1.601,0.41-2.861,1.23-3.779c0.82-0.917,2.539-1.729,5.156-2.432L226.123,41.206z"/>
</g>
</svg>
