<?xml version="1.0" encoding="utf-8"?>
<!-- Generator: Adobe Illustrator 15.1.0, SVG Export Plug-In . SVG Version: 6.00 Build 0)  -->
<!DOCTYPE svg PUBLIC "-//W3C//DTD SVG 1.1//EN" "http://www.w3.org/Graphics/SVG/1.1/DTD/svg11.dtd">
<svg version="1.1" id="Layer_1" xmlns="http://www.w3.org/2000/svg" xmlns:xlink="http://www.w3.org/1999/xlink" x="0px" y="0px"
	 width="600px" height="600px" viewBox="0 0 600 600" enable-background="new 0 0 600 600" xml:space="preserve">
<path fill="none" stroke="#000000" stroke-width="15" stroke-miterlimit="10" d="M388.846,172.595
	c33.823,17.576,84.987,38.039,108.804,56.126l-80.894,201.285c-23.82-18.091-74.849-38.81-108.805-56.129
	c-20.454-10.434,14.419-30.366,8.09-47.671"/>
<path fill="none" stroke="#000000" stroke-width="15" stroke-miterlimit="10" d="M70.29,569.354
	c-2.991,7.44-11.45,11.05-18.893,8.062l0,0c-7.446-2.991-11.054-11.453-8.062-18.896L249.607,45.272
	c2.992-7.442,11.452-11.053,18.896-8.062l0,0c7.443,2.991,11.054,11.451,8.062,18.894L70.29,569.354z"/>
<path fill="none" stroke="#000000" stroke-width="15" stroke-miterlimit="10" d="M378.515,159.147"/>
<path fill="none" stroke="#000000" stroke-width="15" stroke-miterlimit="10" d="M396.936,124.926
	c-10.055-27.497-120.371-68.821-120.371-68.821L195.668,257.39c0,0,110.317,41.324,120.371,68.819
	c0.821,2.238,0.786,4.439,0.177,6.604c-0.256,0.91,51.647-95.797,72.952-160.054c6.616-19.965,10.208-36.629,8.25-46.009
	C398.346,132.24,396.936,124.926,396.936,124.926z"/>
</svg>
