<?xml version="1.0" encoding="utf-8"?>
<!-- Generator: Adobe Illustrator 16.0.4, SVG Export Plug-In . SVG Version: 6.00 Build 0)  -->
<!DOCTYPE svg PUBLIC "-//W3C//DTD SVG 1.1//EN" "http://www.w3.org/Graphics/SVG/1.1/DTD/svg11.dtd">
<svg version="1.1" id="Layer_1" xmlns="http://www.w3.org/2000/svg" xmlns:xlink="http://www.w3.org/1999/xlink" x="0px" y="0px"
	 width="56.25px" height="76px" viewBox="22 -5.5 56.25 76" enable-background="new 22 -5.5 56.25 76" xml:space="preserve">
<path fill="#221F1F" d="M70.16,14.12c-1.2-2.88-0.16-7.36-2.32-9.52c-2.16-2.16-6.64-1.12-9.52-2.32C55.6,1.16,53.2-2.76,50-2.76
	s-5.6,3.92-8.319,5.12c-2.881,1.2-7.36,0.16-9.521,2.32c-2.16,2.16-1.12,6.64-2.32,9.52c-1.119,2.8-5.119,5.12-5.119,8.32
	s3.92,5.6,5.119,8.32c1.2,2.88,0.16,7.36,2.32,9.52c0.32,0.32,0.72,0.64,1.2,0.8v21.6v5.2L50,56.04l16.641,11.84v-5.2v-21.6
	c0.479-0.24,0.879-0.48,1.199-0.8c2.16-2.16,1.12-6.64,2.32-9.52c1.119-2.8,5.119-5.12,5.119-8.32
	C75.279,19.24,71.279,16.92,70.16,14.12z M65.6,65.88L50.641,55.24L50,54.76l-0.64,0.4L34.4,65.88v-3.92L50,50.84l15.6,11.12V65.88z
	 M65.6,60.68L50.641,49.96L50,49.561l-0.64,0.399L34.4,60.68v-19.2c2.24,0.56,5.2,0.24,7.28,1.12C44.4,43.721,46.8,47.721,50,47.721
	s5.6-3.921,8.32-5.121c2.08-0.88,4.959-0.56,7.279-1.12V60.68z M69.2,30.36c-0.56,1.36-0.64,2.88-0.8,4.4
	c-0.16,1.92-0.32,3.76-1.28,4.72s-2.8,1.12-4.72,1.28c-1.521,0.08-3.041,0.24-4.4,0.8c-1.279,0.56-2.4,1.52-3.52,2.48
	c-1.521,1.28-2.881,2.56-4.4,2.56s-2.88-1.199-4.399-2.56c-1.12-0.96-2.24-2-3.521-2.48c-1.36-0.56-2.88-0.64-4.4-0.8
	c-1.92-0.16-3.76-0.32-4.72-1.28s-1.12-2.8-1.28-4.72c-0.079-1.52-0.239-3.04-0.8-4.4c-0.56-1.28-1.52-2.4-2.479-3.52
	c-1.28-1.52-2.561-2.88-2.561-4.4s1.2-2.88,2.561-4.4c0.96-1.12,2-2.24,2.479-3.52c0.561-1.36,0.641-2.88,0.8-4.4
	c0.16-1.92,0.32-3.76,1.28-4.72s2.8-1.12,4.72-1.28c1.521-0.08,3.04-0.24,4.4-0.8c1.28-0.56,2.4-1.52,3.521-2.48
	c1.52-1.28,2.88-2.56,4.399-2.56s2.88,1.2,4.4,2.56c1.119,0.96,2.24,2,3.52,2.48c1.359,0.56,2.88,0.64,4.4,0.8
	c1.92,0.16,3.76,0.32,4.72,1.28s1.12,2.8,1.28,4.72c0.08,1.52,0.24,3.04,0.8,4.4c0.56,1.28,1.521,2.4,2.479,3.52
	c1.28,1.52,2.561,2.88,2.561,4.4s-1.2,2.88-2.561,4.4C70.721,27.96,69.68,29.16,69.2,30.36z"/>
<path fill="#221F1F" d="M50,5c-9.68,0-17.52,7.84-17.52,17.52S40.32,40.04,50,40.04s17.52-7.84,17.52-17.52S59.68,5,50,5z M50,38.92
	c-9.04,0-16.399-7.36-16.399-16.4S40.96,6.04,50,6.04s16.4,7.36,16.4,16.4S59.04,38.92,50,38.92z"/>
<path fill="#221F1F" d="M54.32,17.88c-0.4,0-0.801-0.32-0.961-0.72l-2.399-6.8C50.8,9.88,50.4,9.64,50,9.64
	c-0.399,0-0.8,0.24-0.96,0.72l-2.319,6.8c-0.16,0.4-0.48,0.72-0.961,0.72l-7.199,0.16c-0.96,0-1.36,1.28-0.561,1.84l5.76,4.32
	c0.32,0.24,0.48,0.72,0.4,1.12L42,32.28c-0.24,0.72,0.32,1.36,0.96,1.36c0.16,0,0.4-0.08,0.561-0.16l5.92-4.16
	c0.16-0.16,0.399-0.16,0.56-0.16c0.24,0,0.4,0.08,0.561,0.16l5.92,4.08c0.16,0.16,0.399,0.16,0.56,0.16c0.64,0,1.2-0.64,0.96-1.36
	l-2.08-6.88c-0.16-0.4,0-0.88,0.32-1.12l5.68-4.4c0.801-0.56,0.4-1.84-0.641-1.84L54.32,17.88z M55.76,23.32
	c-0.72,0.56-0.96,1.44-0.72,2.24l2.08,6.8l-5.841-4.08c-0.319-0.24-0.799-0.4-1.199-0.4c-0.399,0-0.88,0.16-1.2,0.4l-5.84,4.08
	l2-6.8c0.24-0.8-0.08-1.76-0.72-2.24l-5.68-4.24l7.119-0.16c0.881,0,1.681-0.56,1.921-1.44L50,10.68l2.4,6.72
	c0.32,0.8,1.039,1.36,1.92,1.36l7.119,0.08L55.76,23.32z"/>
<text transform="matrix(1 0 0 1 10 85)" font-family="'HelveticaNeue-Bold'" font-size="4">Created by Shirley Wu</text>
<text transform="matrix(1 0 0 1 10 89)" font-family="'HelveticaNeue-Bold'" font-size="4">from the Noun Project</text>
</svg>
