<?xml version="1.0" encoding="utf-8"?>
<!-- Generator: Adobe Illustrator 15.1.0, SVG Export Plug-In . SVG Version: 6.00 Build 0)  -->
<!DOCTYPE svg PUBLIC "-//W3C//DTD SVG 1.1//EN" "http://www.w3.org/Graphics/SVG/1.1/DTD/svg11.dtd">
<svg version="1.1" id="Layer_1" xmlns="http://www.w3.org/2000/svg" xmlns:xlink="http://www.w3.org/1999/xlink" x="0px" y="0px"
	 width="1091.5px" height="381.875px" viewBox="0 0 1091.5 381.875" enable-background="new 0 0 1091.5 381.875"
	 xml:space="preserve">
<g>
	
		<rect x="20.948" y="21.905" fill="#FFFFFF" stroke="#000000" stroke-width="4" stroke-miterlimit="10" width="48.755" height="48.756"/>
	
		<rect x="69.703" y="21.905" fill="#FFFFFF" stroke="#000000" stroke-width="4" stroke-miterlimit="10" width="48.756" height="48.756"/>
	
		<rect x="118.459" y="21.905" fill="#FFFFFF" stroke="#000000" stroke-width="4" stroke-miterlimit="10" width="48.756" height="48.756"/>
	
		<rect x="167.215" y="21.905" fill="#FFFFFF" stroke="#000000" stroke-width="4" stroke-miterlimit="10" width="48.756" height="48.756"/>
	
		<rect x="215.971" y="21.905" fill="#FFFFFF" stroke="#000000" stroke-width="4" stroke-miterlimit="10" width="48.756" height="48.756"/>
	
		<rect x="20.948" y="70.661" fill="#FFFFFF" stroke="#000000" stroke-width="4" stroke-miterlimit="10" width="48.755" height="48.755"/>
	
		<rect x="69.703" y="70.661" fill="#FFFFFF" stroke="#000000" stroke-width="4" stroke-miterlimit="10" width="48.756" height="48.755"/>
	
		<rect x="118.459" y="70.661" fill="#FFFFFF" stroke="#000000" stroke-width="4" stroke-miterlimit="10" width="48.756" height="48.755"/>
	
		<rect x="167.215" y="70.661" fill="#FFFFFF" stroke="#000000" stroke-width="4" stroke-miterlimit="10" width="48.756" height="48.755"/>
	
		<rect x="215.971" y="70.661" fill="#FFFFFF" stroke="#000000" stroke-width="4" stroke-miterlimit="10" width="48.756" height="48.755"/>
	<rect x="26.917" y="27.875" width="36.814" height="36.814"/>
	<rect x="75.674" y="76.631" width="36.814" height="36.814"/>
	<rect x="124.43" y="27.875" width="36.813" height="36.814"/>
	<rect x="173.185" y="76.631" width="36.813" height="36.814"/>
	<rect x="221.941" y="27.875" width="36.813" height="36.814"/>
	
		<rect x="20.948" y="119.416" fill="#FFFFFF" stroke="#000000" stroke-width="4" stroke-miterlimit="10" width="48.755" height="48.756"/>
	
		<rect x="69.703" y="119.416" fill="#FFFFFF" stroke="#000000" stroke-width="4" stroke-miterlimit="10" width="48.756" height="48.756"/>
	
		<rect x="118.459" y="119.416" fill="#FFFFFF" stroke="#000000" stroke-width="4" stroke-miterlimit="10" width="48.756" height="48.756"/>
	
		<rect x="167.215" y="119.416" fill="#FFFFFF" stroke="#000000" stroke-width="4" stroke-miterlimit="10" width="48.756" height="48.756"/>
	
		<rect x="215.971" y="119.416" fill="#FFFFFF" stroke="#000000" stroke-width="4" stroke-miterlimit="10" width="48.756" height="48.756"/>
	
		<rect x="20.948" y="168.172" fill="#FFFFFF" stroke="#000000" stroke-width="4" stroke-miterlimit="10" width="48.755" height="48.756"/>
	
		<rect x="69.703" y="168.172" fill="#FFFFFF" stroke="#000000" stroke-width="4" stroke-miterlimit="10" width="48.756" height="48.756"/>
	
		<rect x="118.459" y="168.172" fill="#FFFFFF" stroke="#000000" stroke-width="4" stroke-miterlimit="10" width="48.756" height="48.756"/>
	
		<rect x="167.215" y="168.172" fill="#FFFFFF" stroke="#000000" stroke-width="4" stroke-miterlimit="10" width="48.756" height="48.756"/>
	
		<rect x="215.971" y="168.172" fill="#FFFFFF" stroke="#000000" stroke-width="4" stroke-miterlimit="10" width="48.756" height="48.756"/>
	
		<rect x="20.948" y="216.928" fill="#FFFFFF" stroke="#000000" stroke-width="4" stroke-miterlimit="10" width="48.755" height="48.756"/>
	
		<rect x="69.703" y="216.928" fill="#FFFFFF" stroke="#000000" stroke-width="4" stroke-miterlimit="10" width="48.756" height="48.756"/>
	
		<rect x="118.459" y="216.928" fill="#FFFFFF" stroke="#000000" stroke-width="4" stroke-miterlimit="10" width="48.756" height="48.756"/>
	
		<rect x="167.215" y="216.928" fill="#FFFFFF" stroke="#000000" stroke-width="4" stroke-miterlimit="10" width="48.756" height="48.756"/>
	
		<rect x="215.971" y="216.928" fill="#FFFFFF" stroke="#000000" stroke-width="4" stroke-miterlimit="10" width="48.756" height="48.756"/>
	<rect x="75.674" y="222.898" width="36.814" height="36.814"/>
	<rect x="124.43" y="222.898" width="36.813" height="36.814"/>
	<rect x="173.185" y="222.898" width="36.813" height="36.814"/>
	<rect x="221.941" y="222.898" width="36.813" height="36.814"/>
	
		<rect x="20.948" y="265.684" fill="#FFFFFF" stroke="#000000" stroke-width="4" stroke-miterlimit="10" width="48.755" height="48.756"/>
	
		<rect x="69.703" y="265.684" fill="#FFFFFF" stroke="#000000" stroke-width="4" stroke-miterlimit="10" width="48.756" height="48.756"/>
	
		<rect x="118.459" y="265.684" fill="#FFFFFF" stroke="#000000" stroke-width="4" stroke-miterlimit="10" width="48.756" height="48.756"/>
	
		<rect x="167.215" y="265.684" fill="#FFFFFF" stroke="#000000" stroke-width="4" stroke-miterlimit="10" width="48.756" height="48.756"/>
	
		<rect x="215.971" y="265.684" fill="#FFFFFF" stroke="#000000" stroke-width="4" stroke-miterlimit="10" width="48.756" height="48.756"/>
	
		<rect x="20.948" y="314.439" fill="#FFFFFF" stroke="#000000" stroke-width="4" stroke-miterlimit="10" width="48.755" height="48.756"/>
	
		<rect x="69.702" y="314.439" fill="#FFFFFF" stroke="#000000" stroke-width="4" stroke-miterlimit="10" width="48.756" height="48.756"/>
	
		<rect x="118.458" y="314.439" fill="#FFFFFF" stroke="#000000" stroke-width="4" stroke-miterlimit="10" width="48.756" height="48.756"/>
	
		<rect x="167.214" y="314.439" fill="#FFFFFF" stroke="#000000" stroke-width="4" stroke-miterlimit="10" width="48.756" height="48.756"/>
	
		<rect x="215.97" y="314.439" fill="#FFFFFF" stroke="#000000" stroke-width="4" stroke-miterlimit="10" width="48.756" height="48.756"/>
	<rect x="75.674" y="320.41" width="36.813" height="36.814"/>
	<rect x="124.431" y="320.41" width="36.814" height="36.814"/>
	<rect x="173.187" y="320.41" width="36.812" height="36.814"/>
	<rect x="26.918" y="271.654" width="36.813" height="36.814"/>
	<rect x="173.187" y="271.654" width="36.813" height="36.814"/>
	<rect x="124.43" y="76.631" width="36.813" height="36.814"/>
	<rect x="221.942" y="125.387" width="36.813" height="36.814"/>
	<rect x="75.675" y="125.387" width="36.814" height="36.814"/>
	<rect x="221.942" y="174.143" width="36.813" height="36.814"/>
	<rect x="173.185" y="174.143" width="36.813" height="36.814"/>
</g>
<g>
	
		<rect x="555.816" y="21.905" fill="#FFFFFF" stroke="#000000" stroke-width="4" stroke-miterlimit="10" width="48.755" height="48.756"/>
	
		<rect x="604.571" y="21.905" fill="#FFFFFF" stroke="#000000" stroke-width="4" stroke-miterlimit="10" width="48.756" height="48.756"/>
	
		<rect x="653.326" y="21.905" fill="#FFFFFF" stroke="#000000" stroke-width="4" stroke-miterlimit="10" width="48.756" height="48.756"/>
	
		<rect x="702.082" y="21.905" fill="#FFFFFF" stroke="#000000" stroke-width="4" stroke-miterlimit="10" width="48.756" height="48.756"/>
	
		<rect x="750.838" y="21.905" fill="#FFFFFF" stroke="#000000" stroke-width="4" stroke-miterlimit="10" width="48.756" height="48.756"/>
	
		<rect x="555.816" y="70.661" fill="#FFFFFF" stroke="#000000" stroke-width="4" stroke-miterlimit="10" width="48.755" height="48.755"/>
	
		<rect x="604.571" y="70.661" fill="#FFFFFF" stroke="#000000" stroke-width="4" stroke-miterlimit="10" width="48.756" height="48.755"/>
	
		<rect x="653.326" y="70.661" fill="#FFFFFF" stroke="#000000" stroke-width="4" stroke-miterlimit="10" width="48.756" height="48.755"/>
	
		<rect x="702.082" y="70.661" fill="#FFFFFF" stroke="#000000" stroke-width="4" stroke-miterlimit="10" width="48.756" height="48.755"/>
	
		<rect x="750.838" y="70.661" fill="#FFFFFF" stroke="#000000" stroke-width="4" stroke-miterlimit="10" width="48.756" height="48.755"/>
	
		<rect x="555.816" y="119.416" fill="#FFFFFF" stroke="#000000" stroke-width="4" stroke-miterlimit="10" width="48.755" height="48.756"/>
	
		<rect x="604.571" y="119.416" fill="#FFFFFF" stroke="#000000" stroke-width="4" stroke-miterlimit="10" width="48.756" height="48.756"/>
	
		<rect x="653.326" y="119.416" fill="#FFFFFF" stroke="#000000" stroke-width="4" stroke-miterlimit="10" width="48.756" height="48.756"/>
	
		<rect x="702.082" y="119.416" fill="#FFFFFF" stroke="#000000" stroke-width="4" stroke-miterlimit="10" width="48.756" height="48.756"/>
	
		<rect x="750.838" y="119.416" fill="#FFFFFF" stroke="#000000" stroke-width="4" stroke-miterlimit="10" width="48.756" height="48.756"/>
	
		<rect x="555.816" y="168.172" fill="#FFFFFF" stroke="#000000" stroke-width="4" stroke-miterlimit="10" width="48.755" height="48.756"/>
	
		<rect x="604.571" y="168.172" fill="#FFFFFF" stroke="#000000" stroke-width="4" stroke-miterlimit="10" width="48.756" height="48.756"/>
	
		<rect x="653.326" y="168.172" fill="#FFFFFF" stroke="#000000" stroke-width="4" stroke-miterlimit="10" width="48.756" height="48.756"/>
	<rect x="561.785" y="76.631" width="36.814" height="36.814"/>
	<rect x="561.785" y="125.387" width="36.814" height="36.814"/>
	<rect x="659.298" y="76.631" width="36.813" height="36.814"/>
	<rect x="756.809" y="125.387" width="36.813" height="36.814"/>
	
		<rect x="702.082" y="168.172" fill="#FFFFFF" stroke="#000000" stroke-width="4" stroke-miterlimit="10" width="48.756" height="48.756"/>
	
		<rect x="750.838" y="168.172" fill="#FFFFFF" stroke="#000000" stroke-width="4" stroke-miterlimit="10" width="48.756" height="48.756"/>
	
		<rect x="555.815" y="216.929" fill="#FFFFFF" stroke="#000000" stroke-width="4" stroke-miterlimit="10" width="48.755" height="48.756"/>
	
		<rect x="604.57" y="216.929" fill="#FFFFFF" stroke="#000000" stroke-width="4" stroke-miterlimit="10" width="48.756" height="48.756"/>
	
		<rect x="653.325" y="216.929" fill="#FFFFFF" stroke="#000000" stroke-width="4" stroke-miterlimit="10" width="48.756" height="48.756"/>
	
		<rect x="702.081" y="216.929" fill="#FFFFFF" stroke="#000000" stroke-width="4" stroke-miterlimit="10" width="48.756" height="48.756"/>
	
		<rect x="750.837" y="216.929" fill="#FFFFFF" stroke="#000000" stroke-width="4" stroke-miterlimit="10" width="48.756" height="48.756"/>
	
		<rect x="555.815" y="265.685" fill="#FFFFFF" stroke="#000000" stroke-width="4" stroke-miterlimit="10" width="48.755" height="48.756"/>
	
		<rect x="604.57" y="265.685" fill="#FFFFFF" stroke="#000000" stroke-width="4" stroke-miterlimit="10" width="48.756" height="48.756"/>
	
		<rect x="653.325" y="265.685" fill="#FFFFFF" stroke="#000000" stroke-width="4" stroke-miterlimit="10" width="48.756" height="48.756"/>
	
		<rect x="702.081" y="265.685" fill="#FFFFFF" stroke="#000000" stroke-width="4" stroke-miterlimit="10" width="48.756" height="48.756"/>
	
		<rect x="750.837" y="265.685" fill="#FFFFFF" stroke="#000000" stroke-width="4" stroke-miterlimit="10" width="48.756" height="48.756"/>
	
		<rect x="555.815" y="314.44" fill="#FFFFFF" stroke="#000000" stroke-width="4" stroke-miterlimit="10" width="48.755" height="48.756"/>
	
		<rect x="604.57" y="314.44" fill="#FFFFFF" stroke="#000000" stroke-width="4" stroke-miterlimit="10" width="48.756" height="48.756"/>
	
		<rect x="653.325" y="314.44" fill="#FFFFFF" stroke="#000000" stroke-width="4" stroke-miterlimit="10" width="48.756" height="48.756"/>
	<rect x="610.541" y="271.655" width="36.814" height="36.814"/>
	<rect x="756.808" y="271.655" width="36.813" height="36.814"/>
	
		<rect x="702.081" y="314.44" fill="#FFFFFF" stroke="#000000" stroke-width="4" stroke-miterlimit="10" width="48.756" height="48.756"/>
	
		<rect x="750.837" y="314.44" fill="#FFFFFF" stroke="#000000" stroke-width="4" stroke-miterlimit="10" width="48.756" height="48.756"/>
	<rect x="561.785" y="320.411" width="36.812" height="36.814"/>
	<rect x="659.298" y="125.387" width="36.813" height="36.814"/>
	<rect x="708.053" y="174.143" width="36.813" height="36.814"/>
	<rect x="561.785" y="174.143" width="36.814" height="36.814"/>
	<rect x="659.297" y="222.899" width="36.813" height="36.814"/>
	<rect x="708.052" y="222.899" width="36.813" height="36.814"/>
	<rect x="610.541" y="222.899" width="36.813" height="36.814"/>
</g>
<g>
	
		<rect x="288.382" y="21.904" fill="#FFFFFF" stroke="#000000" stroke-width="4" stroke-miterlimit="10" width="48.755" height="48.756"/>
	
		<rect x="337.137" y="21.904" fill="#FFFFFF" stroke="#000000" stroke-width="4" stroke-miterlimit="10" width="48.756" height="48.756"/>
	
		<rect x="385.893" y="21.904" fill="#FFFFFF" stroke="#000000" stroke-width="4" stroke-miterlimit="10" width="48.756" height="48.756"/>
	
		<rect x="434.649" y="21.904" fill="#FFFFFF" stroke="#000000" stroke-width="4" stroke-miterlimit="10" width="48.756" height="48.756"/>
	
		<rect x="483.405" y="21.904" fill="#FFFFFF" stroke="#000000" stroke-width="4" stroke-miterlimit="10" width="48.756" height="48.756"/>
	
		<rect x="288.382" y="70.66" fill="#FFFFFF" stroke="#000000" stroke-width="4" stroke-miterlimit="10" width="48.755" height="48.756"/>
	
		<rect x="337.137" y="70.66" fill="#FFFFFF" stroke="#000000" stroke-width="4" stroke-miterlimit="10" width="48.756" height="48.756"/>
	
		<rect x="385.893" y="70.66" fill="#FFFFFF" stroke="#000000" stroke-width="4" stroke-miterlimit="10" width="48.756" height="48.756"/>
	
		<rect x="434.649" y="70.66" fill="#FFFFFF" stroke="#000000" stroke-width="4" stroke-miterlimit="10" width="48.756" height="48.756"/>
	
		<rect x="483.405" y="70.66" fill="#FFFFFF" stroke="#000000" stroke-width="4" stroke-miterlimit="10" width="48.756" height="48.756"/>
	
		<rect x="288.382" y="119.416" fill="#FFFFFF" stroke="#000000" stroke-width="4" stroke-miterlimit="10" width="48.755" height="48.756"/>
	
		<rect x="337.137" y="119.416" fill="#FFFFFF" stroke="#000000" stroke-width="4" stroke-miterlimit="10" width="48.756" height="48.756"/>
	
		<rect x="385.893" y="119.416" fill="#FFFFFF" stroke="#000000" stroke-width="4" stroke-miterlimit="10" width="48.756" height="48.756"/>
	
		<rect x="434.649" y="119.416" fill="#FFFFFF" stroke="#000000" stroke-width="4" stroke-miterlimit="10" width="48.756" height="48.756"/>
	
		<rect x="483.405" y="119.416" fill="#FFFFFF" stroke="#000000" stroke-width="4" stroke-miterlimit="10" width="48.756" height="48.756"/>
	
		<rect x="288.382" y="168.172" fill="#FFFFFF" stroke="#000000" stroke-width="4" stroke-miterlimit="10" width="48.755" height="48.756"/>
	
		<rect x="337.137" y="168.172" fill="#FFFFFF" stroke="#000000" stroke-width="4" stroke-miterlimit="10" width="48.756" height="48.756"/>
	
		<rect x="385.893" y="168.172" fill="#FFFFFF" stroke="#000000" stroke-width="4" stroke-miterlimit="10" width="48.756" height="48.756"/>
	
		<rect x="434.649" y="168.172" fill="#FFFFFF" stroke="#000000" stroke-width="4" stroke-miterlimit="10" width="48.756" height="48.756"/>
	
		<rect x="483.405" y="168.172" fill="#FFFFFF" stroke="#000000" stroke-width="4" stroke-miterlimit="10" width="48.756" height="48.756"/>
	<rect x="294.351" y="174.143" width="36.814" height="36.814"/>
	<rect x="391.864" y="125.387" width="36.813" height="36.814"/>
	<rect x="440.618" y="174.143" width="36.813" height="36.814"/>
	
		<rect x="288.382" y="216.928" fill="#FFFFFF" stroke="#000000" stroke-width="4" stroke-miterlimit="10" width="48.755" height="48.756"/>
	
		<rect x="337.137" y="216.928" fill="#FFFFFF" stroke="#000000" stroke-width="4" stroke-miterlimit="10" width="48.756" height="48.756"/>
	
		<rect x="385.893" y="216.928" fill="#FFFFFF" stroke="#000000" stroke-width="4" stroke-miterlimit="10" width="48.756" height="48.756"/>
	
		<rect x="434.649" y="216.928" fill="#FFFFFF" stroke="#000000" stroke-width="4" stroke-miterlimit="10" width="48.756" height="48.756"/>
	
		<rect x="483.405" y="216.928" fill="#FFFFFF" stroke="#000000" stroke-width="4" stroke-miterlimit="10" width="48.756" height="48.756"/>
	<rect x="489.375" y="27.875" width="36.813" height="36.814"/>
	<rect x="440.618" y="27.875" width="36.813" height="36.814"/>
	<rect x="294.351" y="27.875" width="36.814" height="36.814"/>
	<rect x="489.376" y="222.898" width="36.813" height="36.814"/>
	<rect x="343.109" y="222.898" width="36.813" height="36.814"/>
	
		<rect x="288.382" y="265.685" fill="#FFFFFF" stroke="#000000" stroke-width="4" stroke-miterlimit="10" width="48.755" height="48.756"/>
	
		<rect x="337.137" y="265.685" fill="#FFFFFF" stroke="#000000" stroke-width="4" stroke-miterlimit="10" width="48.756" height="48.756"/>
	
		<rect x="385.893" y="265.685" fill="#FFFFFF" stroke="#000000" stroke-width="4" stroke-miterlimit="10" width="48.756" height="48.756"/>
	
		<rect x="434.649" y="265.685" fill="#FFFFFF" stroke="#000000" stroke-width="4" stroke-miterlimit="10" width="48.756" height="48.756"/>
	
		<rect x="483.405" y="265.685" fill="#FFFFFF" stroke="#000000" stroke-width="4" stroke-miterlimit="10" width="48.756" height="48.756"/>
	
		<rect x="288.381" y="314.44" fill="#FFFFFF" stroke="#000000" stroke-width="4" stroke-miterlimit="10" width="48.755" height="48.756"/>
	
		<rect x="337.136" y="314.44" fill="#FFFFFF" stroke="#000000" stroke-width="4" stroke-miterlimit="10" width="48.756" height="48.756"/>
	
		<rect x="385.892" y="314.44" fill="#FFFFFF" stroke="#000000" stroke-width="4" stroke-miterlimit="10" width="48.756" height="48.756"/>
	
		<rect x="434.648" y="314.44" fill="#FFFFFF" stroke="#000000" stroke-width="4" stroke-miterlimit="10" width="48.756" height="48.756"/>
	
		<rect x="483.404" y="314.44" fill="#FFFFFF" stroke="#000000" stroke-width="4" stroke-miterlimit="10" width="48.756" height="48.756"/>
	<rect x="440.619" y="271.655" width="36.813" height="36.814"/>
	<rect x="391.864" y="271.655" width="36.813" height="36.814"/>
	<rect x="343.11" y="271.655" width="36.813" height="36.814"/>
	<rect x="489.374" y="320.411" width="36.813" height="36.814"/>
	<rect x="440.618" y="320.411" width="36.813" height="36.814"/>
	<rect x="343.107" y="320.411" width="36.813" height="36.814"/>
</g>
<g>
	
		<rect x="823.248" y="21.905" fill="#FFFFFF" stroke="#000000" stroke-width="4" stroke-miterlimit="10" width="48.755" height="48.756"/>
	
		<rect x="872.003" y="21.905" fill="#FFFFFF" stroke="#000000" stroke-width="4" stroke-miterlimit="10" width="48.756" height="48.756"/>
	
		<rect x="920.759" y="21.905" fill="#FFFFFF" stroke="#000000" stroke-width="4" stroke-miterlimit="10" width="48.756" height="48.756"/>
	
		<rect x="969.515" y="21.905" fill="#FFFFFF" stroke="#000000" stroke-width="4" stroke-miterlimit="10" width="48.756" height="48.756"/>
	
		<rect x="1018.271" y="21.905" fill="#FFFFFF" stroke="#000000" stroke-width="4" stroke-miterlimit="10" width="48.756" height="48.756"/>
	
		<rect x="823.248" y="70.661" fill="#FFFFFF" stroke="#000000" stroke-width="4" stroke-miterlimit="10" width="48.755" height="48.755"/>
	
		<rect x="872.003" y="70.661" fill="#FFFFFF" stroke="#000000" stroke-width="4" stroke-miterlimit="10" width="48.756" height="48.755"/>
	
		<rect x="920.759" y="70.661" fill="#FFFFFF" stroke="#000000" stroke-width="4" stroke-miterlimit="10" width="48.756" height="48.755"/>
	
		<rect x="969.515" y="70.661" fill="#FFFFFF" stroke="#000000" stroke-width="4" stroke-miterlimit="10" width="48.756" height="48.755"/>
	
		<rect x="1018.271" y="70.661" fill="#FFFFFF" stroke="#000000" stroke-width="4" stroke-miterlimit="10" width="48.756" height="48.755"/>
	
		<rect x="823.248" y="119.416" fill="#FFFFFF" stroke="#000000" stroke-width="4" stroke-miterlimit="10" width="48.755" height="48.756"/>
	
		<rect x="872.003" y="119.416" fill="#FFFFFF" stroke="#000000" stroke-width="4" stroke-miterlimit="10" width="48.756" height="48.756"/>
	
		<rect x="920.759" y="119.416" fill="#FFFFFF" stroke="#000000" stroke-width="4" stroke-miterlimit="10" width="48.756" height="48.756"/>
	
		<rect x="969.515" y="119.416" fill="#FFFFFF" stroke="#000000" stroke-width="4" stroke-miterlimit="10" width="48.756" height="48.756"/>
	
		<rect x="1018.271" y="119.416" fill="#FFFFFF" stroke="#000000" stroke-width="4" stroke-miterlimit="10" width="48.756" height="48.756"/>
	<rect x="926.73" y="76.631" width="36.813" height="36.814"/>
	<rect x="829.218" y="76.631" width="36.813" height="36.814"/>
	<rect x="1024.241" y="125.387" width="36.813" height="36.814"/>
	<rect x="926.731" y="125.387" width="36.813" height="36.814"/>
	
		<rect x="823.248" y="168.172" fill="#FFFFFF" stroke="#000000" stroke-width="4" stroke-miterlimit="10" width="48.755" height="48.756"/>
	
		<rect x="872.003" y="168.172" fill="#FFFFFF" stroke="#000000" stroke-width="4" stroke-miterlimit="10" width="48.756" height="48.756"/>
	
		<rect x="920.759" y="168.172" fill="#FFFFFF" stroke="#000000" stroke-width="4" stroke-miterlimit="10" width="48.756" height="48.756"/>
	
		<rect x="969.515" y="168.172" fill="#FFFFFF" stroke="#000000" stroke-width="4" stroke-miterlimit="10" width="48.756" height="48.756"/>
	
		<rect x="1018.271" y="168.172" fill="#FFFFFF" stroke="#000000" stroke-width="4" stroke-miterlimit="10" width="48.756" height="48.756"/>
	<rect x="1024.241" y="174.143" width="36.813" height="36.814"/>
</g>
</svg>
