<?xml version="1.0" encoding="utf-8"?>
<!-- Generator: Adobe Illustrator 16.0.4, SVG Export Plug-In . SVG Version: 6.00 Build 0)  -->
<!DOCTYPE svg PUBLIC "-//W3C//DTD SVG 1.1//EN" "http://www.w3.org/Graphics/SVG/1.1/DTD/svg11.dtd">
<svg version="1.1" id="Layer_1" xmlns="http://www.w3.org/2000/svg" xmlns:xlink="http://www.w3.org/1999/xlink" x="0px" y="0px"
	 width="388px" height="367px" viewBox="98.5 0 388 367" enable-background="new 98.5 0 388 367" xml:space="preserve">
<rect x="127.559" y="10.853" fill="#FFFFFF" stroke="#000000" stroke-width="4" stroke-miterlimit="10" width="39.087" height="39.088"/>
<rect x="166.646" y="10.853" fill="#FFFFFF" stroke="#000000" stroke-width="4" stroke-miterlimit="10" width="39.088" height="39.088"/>
<rect x="205.734" y="10.853" fill="#FFFFFF" stroke="#000000" stroke-width="4" stroke-miterlimit="10" width="39.089" height="39.088"/>
<rect x="244.823" y="10.853" fill="#FFFFFF" stroke="#000000" stroke-width="4" stroke-miterlimit="10" width="39.089" height="39.088"/>
<rect x="283.912" y="10.853" fill="#FFFFFF" stroke="#000000" stroke-width="4" stroke-miterlimit="10" width="39.088" height="39.088"/>
<g>
	<path d="M304.273,56.773v8.785h1.62c0.386,0,0.66,0.074,0.826,0.223c0.163,0.149,0.245,0.343,0.245,0.583
		c0,0.235-0.082,0.427-0.245,0.576c-0.166,0.149-0.44,0.223-0.826,0.223h-4.848c-0.386,0-0.661-0.074-0.826-0.223
		c-0.164-0.149-0.246-0.343-0.246-0.583c0-0.235,0.082-0.426,0.246-0.575c0.166-0.149,0.44-0.223,0.826-0.223h1.621v-6.694
		l-1.434,0.375c-0.229,0.063-0.401,0.094-0.518,0.094c-0.204,0-0.38-0.081-0.527-0.243c-0.148-0.162-0.225-0.36-0.225-0.595
		c0-0.214,0.056-0.382,0.164-0.505c0.11-0.123,0.341-0.231,0.688-0.325L304.273,56.773z"/>
</g>
<g>
	<path d="M263.27,65.558h3.517c0.192-0.157,0.376-0.235,0.548-0.235c0.245,0,0.438,0.081,0.583,0.243s0.216,0.438,0.216,0.83v0.767
		h-7.312v-1.699c2.893-2.385,4.639-3.92,5.236-4.604c0.303-0.35,0.455-0.681,0.455-0.994c0-0.392-0.172-0.737-0.514-1.038
		c-0.342-0.3-0.797-0.45-1.366-0.45c-0.573,0-1.052,0.167-1.433,0.501c-0.198,0.177-0.357,0.441-0.479,0.791
		c-0.071,0.219-0.174,0.376-0.302,0.47c-0.128,0.094-0.285,0.141-0.475,0.141c-0.219,0-0.407-0.079-0.566-0.235
		c-0.159-0.157-0.236-0.339-0.236-0.548c0-0.313,0.145-0.705,0.435-1.174c0.288-0.47,0.712-0.845,1.268-1.127
		c0.558-0.282,1.16-0.423,1.812-0.423c1.014,0,1.844,0.307,2.49,0.92c0.646,0.614,0.972,1.356,0.972,2.228
		c0,0.444-0.093,0.855-0.278,1.233c-0.186,0.378-0.63,0.901-1.335,1.57C265.949,63.251,264.871,64.196,263.27,65.558z"/>
</g>
<g>
	<path d="M227.631,57.032v6.279c0.34,0,0.59,0.074,0.752,0.223c0.162,0.149,0.243,0.341,0.243,0.576
		c0,0.235-0.083,0.428-0.247,0.579c-0.165,0.151-0.414,0.227-0.748,0.227v0.642c0.34,0,0.59,0.076,0.752,0.227
		c0.162,0.151,0.243,0.344,0.243,0.579c0,0.235-0.083,0.427-0.247,0.576c-0.165,0.149-0.439,0.223-0.826,0.223H225.4
		c-0.387,0-0.662-0.074-0.826-0.223s-0.247-0.343-0.247-0.583c0-0.235,0.082-0.426,0.247-0.575c0.164-0.149,0.439-0.223,0.826-0.223
		h0.625v-0.642h-4.36v-1.339l3.844-6.545L227.631,57.032L227.631,57.032z M226.025,63.311v-3.946l-2.324,3.946H226.025z"/>
</g>
<g>
	<path d="M187.467,62.035c0.412,0.318,0.723,0.68,0.928,1.084c0.207,0.405,0.31,0.85,0.31,1.335c0,0.538-0.132,1.032-0.396,1.484
		c-0.264,0.451-0.677,0.808-1.24,1.068c-0.563,0.261-1.19,0.392-1.879,0.392c-0.689,0-1.311-0.13-1.863-0.392
		c-0.553-0.261-0.963-0.618-1.225-1.072c-0.265-0.454-0.396-0.948-0.396-1.48c0-0.485,0.104-0.93,0.309-1.335
		c0.207-0.404,0.516-0.766,0.928-1.084c-0.359-0.334-0.631-0.689-0.813-1.065c-0.183-0.376-0.274-0.772-0.274-1.19
		c0-0.819,0.313-1.525,0.94-2.118c0.626-0.592,1.431-0.889,2.411-0.889s1.785,0.296,2.412,0.889
		c0.626,0.593,0.939,1.299,0.939,2.118c0,0.422-0.091,0.822-0.271,1.198C188.105,61.354,187.833,61.706,187.467,62.035z
		 M187.1,64.532c0-0.422-0.182-0.805-0.545-1.147c-0.363-0.342-0.812-0.513-1.351-0.513s-0.988,0.171-1.351,0.513
		c-0.363,0.342-0.545,0.729-0.545,1.163c0,0.334,0.157,0.625,0.471,0.873c0.312,0.248,0.787,0.372,1.425,0.372
		c0.642,0,1.118-0.124,1.429-0.372S187.1,64.877,187.1,64.532z M186.912,59.812c0-0.396-0.156-0.735-0.467-1.014
		c-0.311-0.279-0.729-0.419-1.256-0.419c-0.532,0-0.955,0.14-1.265,0.419c-0.312,0.279-0.466,0.618-0.466,1.014
		c0,0.402,0.154,0.743,0.466,1.021c0.31,0.279,0.732,0.419,1.265,0.419c0.526,0,0.945-0.14,1.256-0.419
		S186.912,60.213,186.912,59.812z"/>
</g>
<g>
	<path d="M143.109,56.773v8.785h1.621c0.386,0,0.662,0.074,0.826,0.223c0.165,0.149,0.247,0.343,0.247,0.583
		c0,0.235-0.082,0.427-0.247,0.576c-0.164,0.149-0.439,0.223-0.826,0.223h-4.846c-0.387,0-0.662-0.074-0.826-0.223
		s-0.247-0.343-0.247-0.583c0-0.235,0.082-0.426,0.247-0.575c0.165-0.149,0.439-0.223,0.826-0.223h1.621v-6.694l-1.433,0.375
		c-0.229,0.063-0.402,0.094-0.517,0.094c-0.204,0-0.38-0.081-0.528-0.243c-0.149-0.162-0.223-0.36-0.223-0.595
		c0-0.214,0.055-0.382,0.165-0.505c0.109-0.123,0.339-0.231,0.689-0.325L143.109,56.773z"/>
	<path d="M150.406,61.683c0.386-0.324,0.754-0.56,1.104-0.708s0.723-0.223,1.12-0.223c0.841,0,1.576,0.334,2.208,1.002
		c0.631,0.668,0.947,1.506,0.947,2.513c0,0.935-0.293,1.69-0.881,2.267c-0.588,0.577-1.385,0.865-2.393,0.865
		c-0.84,0-1.531-0.196-2.074-0.587s-0.953-0.994-1.229-1.808s-0.415-1.723-0.415-2.725c0-1.201,0.273-2.199,0.822-2.995
		c0.548-0.796,1.191-1.413,1.934-1.852s1.524-0.658,2.35-0.658c0.651,0,1.158,0.128,1.519,0.384
		c0.235,0.172,0.353,0.392,0.353,0.658c0,0.235-0.078,0.432-0.234,0.591c-0.157,0.159-0.346,0.239-0.564,0.239
		c-0.125,0-0.305-0.063-0.539-0.188c-0.142-0.073-0.277-0.11-0.408-0.11c-0.51,0-1.041,0.145-1.588,0.435
		c-0.549,0.29-1.023,0.735-1.426,1.335C150.732,60.534,150.531,61.056,150.406,61.683z M150.641,64.165
		c0.168,0.626,0.394,1.054,0.678,1.284c0.285,0.23,0.689,0.345,1.218,0.345c0.526,0,0.933-0.138,1.217-0.415
		c0.285-0.276,0.427-0.652,0.427-1.127c0-0.542-0.162-0.994-0.488-1.354s-0.693-0.54-1.101-0.54c-0.323,0-0.669,0.159-1.036,0.478
		C151.186,63.152,150.881,63.596,150.641,64.165z"/>
</g>
<rect x="363.912" y="10.853" fill="#FFFFFF" stroke="#000000" stroke-width="4" stroke-miterlimit="10" width="39.088" height="39.088"/>
<g>
	<path d="M388.699,29.288v2.637c0,1.562-0.451,3.059-1.354,4.488c-0.903,1.429-2.192,2.145-3.873,2.145
		c-0.97,0-1.787-0.213-2.455-0.639c-0.668-0.426-1.302-1.211-1.897-2.355c-0.598-1.144-0.896-2.357-0.896-3.639v-2.637
		c0-1.555,0.449-3.049,1.349-4.482s2.188-2.15,3.867-2.15c0.961,0,1.774,0.211,2.442,0.633s1.305,1.205,1.91,2.35
		S388.699,27.999,388.699,29.288z M386.285,29.288c0-1.305-0.363-2.445-1.09-3.422c-0.414-0.539-0.996-0.809-1.746-0.809
		c-0.728,0-1.32,0.297-1.781,0.891c-0.695,0.898-1.043,2.012-1.043,3.34v2.637c0,1.312,0.367,2.453,1.102,3.422
		c0.406,0.539,0.988,0.809,1.746,0.809c0.72,0,1.311-0.297,1.771-0.891c0.693-0.898,1.043-2.012,1.043-3.34L386.285,29.288
		L386.285,29.288z"/>
</g>
<g>
	<path d="M348.605,30.307H338.34c-0.578,0-0.99-0.111-1.236-0.334c-0.245-0.223-0.368-0.514-0.368-0.873
		c0-0.352,0.123-0.639,0.368-0.861c0.246-0.222,0.658-0.334,1.236-0.334h10.267c0.577,0,0.989,0.111,1.235,0.334
		c0.246,0.223,0.369,0.514,0.369,0.873c0,0.352-0.123,0.639-0.369,0.861C349.596,30.195,349.184,30.307,348.605,30.307z
		 M348.605,34.831H338.34c-0.578,0-0.99-0.109-1.236-0.328c-0.245-0.219-0.368-0.508-0.368-0.867c0-0.359,0.123-0.65,0.368-0.873
		c0.246-0.223,0.658-0.334,1.236-0.334h10.267c0.577,0,0.989,0.111,1.235,0.334c0.246,0.223,0.369,0.514,0.369,0.873
		c0,0.359-0.123,0.648-0.369,0.867C349.596,34.722,349.184,34.831,348.605,34.831z"/>
</g>
<rect x="127.559" y="82.853" fill="#FFFFFF" stroke="#000000" stroke-width="4" stroke-miterlimit="10" width="39.087" height="39.088"/>
<rect x="166.646" y="82.853" fill="#FFFFFF" stroke="#000000" stroke-width="4" stroke-miterlimit="10" width="39.088" height="39.088"/>
<rect x="205.734" y="82.853" fill="#FFFFFF" stroke="#000000" stroke-width="4" stroke-miterlimit="10" width="39.089" height="39.088"/>
<rect x="244.823" y="82.853" fill="#FFFFFF" stroke="#000000" stroke-width="4" stroke-miterlimit="10" width="39.089" height="39.088"/>
<rect x="283.912" y="82.853" fill="#FFFFFF" stroke="#000000" stroke-width="4" stroke-miterlimit="10" width="39.088" height="39.088"/>
<rect x="288.698" y="87.639" width="29.516" height="29.515"/>
<g>
	<path d="M304.273,128.773v8.784h1.62c0.386,0,0.66,0.074,0.826,0.224c0.163,0.148,0.245,0.343,0.245,0.583
		c0,0.235-0.082,0.427-0.245,0.575c-0.166,0.149-0.44,0.224-0.826,0.224h-4.848c-0.386,0-0.661-0.074-0.826-0.224
		c-0.164-0.148-0.246-0.343-0.246-0.583c0-0.235,0.082-0.427,0.246-0.575c0.166-0.149,0.44-0.224,0.826-0.224h1.621v-6.693
		l-1.434,0.375c-0.229,0.062-0.401,0.095-0.518,0.095c-0.204,0-0.38-0.081-0.527-0.243c-0.148-0.162-0.225-0.36-0.225-0.595
		c0-0.214,0.056-0.383,0.164-0.505c0.11-0.123,0.341-0.231,0.688-0.325L304.273,128.773z"/>
</g>
<g>
	<path d="M263.27,137.558h3.517c0.192-0.156,0.376-0.234,0.548-0.234c0.245,0,0.438,0.081,0.583,0.242
		c0.146,0.162,0.216,0.438,0.216,0.83v0.768h-7.312v-1.699c2.893-2.385,4.639-3.92,5.236-4.604c0.303-0.35,0.455-0.682,0.455-0.994
		c0-0.392-0.172-0.737-0.514-1.038c-0.342-0.3-0.797-0.45-1.366-0.45c-0.573,0-1.052,0.168-1.433,0.502
		c-0.198,0.177-0.357,0.44-0.479,0.79c-0.071,0.22-0.174,0.376-0.302,0.47c-0.128,0.095-0.285,0.142-0.475,0.142
		c-0.219,0-0.407-0.079-0.566-0.235c-0.159-0.156-0.236-0.339-0.236-0.548c0-0.313,0.145-0.705,0.435-1.175
		c0.288-0.47,0.712-0.845,1.268-1.127c0.558-0.282,1.16-0.423,1.812-0.423c1.014,0,1.844,0.307,2.49,0.92
		c0.646,0.613,0.972,1.355,0.972,2.228c0,0.443-0.093,0.854-0.278,1.233c-0.186,0.378-0.63,0.901-1.335,1.569
		C265.949,135.251,264.871,136.195,263.27,137.558z"/>
</g>
<g>
	<path d="M227.631,129.032v6.278c0.34,0,0.59,0.074,0.752,0.224c0.162,0.148,0.243,0.341,0.243,0.575
		c0,0.235-0.083,0.428-0.247,0.579c-0.165,0.151-0.414,0.228-0.748,0.228v0.642c0.34,0,0.59,0.076,0.752,0.228
		c0.162,0.151,0.243,0.344,0.243,0.579c0,0.235-0.083,0.427-0.247,0.575c-0.165,0.149-0.439,0.224-0.826,0.224H225.4
		c-0.387,0-0.662-0.074-0.826-0.224c-0.165-0.148-0.247-0.343-0.247-0.583c0-0.235,0.082-0.427,0.247-0.575
		c0.164-0.149,0.439-0.224,0.826-0.224h0.625v-0.642h-4.36v-1.339l3.844-6.545H227.631L227.631,129.032z M226.025,135.311v-3.945
		l-2.324,3.945H226.025z"/>
</g>
<g>
	<path d="M187.467,134.035c0.412,0.318,0.723,0.68,0.928,1.084c0.207,0.404,0.31,0.85,0.31,1.335c0,0.537-0.132,1.032-0.396,1.483
		s-0.677,0.808-1.24,1.068c-0.563,0.262-1.19,0.392-1.879,0.392c-0.689,0-1.311-0.13-1.863-0.392
		c-0.553-0.261-0.963-0.618-1.225-1.072c-0.265-0.454-0.396-0.947-0.396-1.479c0-0.485,0.104-0.931,0.309-1.335
		c0.207-0.404,0.516-0.766,0.928-1.084c-0.359-0.334-0.631-0.689-0.813-1.065c-0.183-0.376-0.274-0.771-0.274-1.188
		c0-0.819,0.313-1.525,0.94-2.118c0.626-0.593,1.431-0.889,2.411-0.889s1.785,0.296,2.412,0.889
		c0.626,0.593,0.939,1.299,0.939,2.118c0,0.422-0.091,0.821-0.271,1.197C188.105,133.354,187.833,133.706,187.467,134.035z
		 M187.1,136.532c0-0.423-0.182-0.805-0.545-1.147c-0.363-0.342-0.812-0.513-1.351-0.513s-0.988,0.171-1.351,0.513
		c-0.363,0.343-0.545,0.729-0.545,1.163c0,0.334,0.157,0.625,0.471,0.873c0.312,0.248,0.787,0.372,1.425,0.372
		c0.642,0,1.118-0.124,1.429-0.372S187.1,136.877,187.1,136.532z M186.912,131.812c0-0.396-0.156-0.735-0.467-1.015
		c-0.311-0.278-0.729-0.419-1.256-0.419c-0.532,0-0.955,0.141-1.265,0.419c-0.312,0.279-0.466,0.618-0.466,1.015
		c0,0.401,0.154,0.742,0.466,1.021c0.31,0.279,0.732,0.419,1.265,0.419c0.526,0,0.945-0.14,1.256-0.419
		S186.912,132.213,186.912,131.812z"/>
</g>
<g>
	<path d="M143.109,128.773v8.784h1.621c0.386,0,0.662,0.074,0.826,0.224c0.165,0.148,0.247,0.343,0.247,0.583
		c0,0.235-0.082,0.427-0.247,0.575c-0.164,0.149-0.439,0.224-0.826,0.224h-4.846c-0.387,0-0.662-0.074-0.826-0.224
		c-0.165-0.148-0.247-0.343-0.247-0.583c0-0.235,0.082-0.427,0.247-0.575c0.165-0.149,0.439-0.224,0.826-0.224h1.621v-6.693
		l-1.433,0.375c-0.229,0.062-0.402,0.095-0.517,0.095c-0.204,0-0.38-0.081-0.528-0.243c-0.149-0.162-0.223-0.36-0.223-0.595
		c0-0.214,0.055-0.383,0.165-0.505c0.109-0.123,0.339-0.231,0.689-0.325L143.109,128.773z"/>
	<path d="M150.406,133.683c0.386-0.324,0.754-0.56,1.104-0.709c0.35-0.148,0.723-0.223,1.12-0.223c0.841,0,1.576,0.334,2.208,1.002
		c0.631,0.668,0.947,1.506,0.947,2.513c0,0.935-0.293,1.69-0.881,2.267c-0.588,0.577-1.385,0.865-2.393,0.865
		c-0.84,0-1.531-0.195-2.074-0.587s-0.953-0.994-1.229-1.809c-0.276-0.814-0.415-1.723-0.415-2.725c0-1.2,0.273-2.198,0.822-2.995
		c0.548-0.796,1.191-1.413,1.934-1.852s1.524-0.657,2.35-0.657c0.651,0,1.158,0.128,1.519,0.384
		c0.235,0.172,0.353,0.392,0.353,0.657c0,0.235-0.078,0.433-0.234,0.592c-0.157,0.159-0.346,0.238-0.564,0.238
		c-0.125,0-0.305-0.062-0.539-0.188c-0.142-0.073-0.277-0.11-0.408-0.11c-0.51,0-1.041,0.146-1.588,0.435
		c-0.549,0.29-1.023,0.735-1.426,1.335C150.732,132.534,150.531,133.056,150.406,133.683z M150.641,136.164
		c0.168,0.627,0.394,1.055,0.678,1.284c0.285,0.229,0.689,0.345,1.218,0.345c0.526,0,0.933-0.139,1.217-0.415
		s0.427-0.652,0.427-1.128c0-0.542-0.162-0.994-0.488-1.354c-0.326-0.359-0.693-0.54-1.101-0.54c-0.323,0-0.669,0.159-1.036,0.478
		C151.186,135.151,150.881,135.596,150.641,136.164z"/>
</g>
<rect x="363.912" y="82.853" fill="#FFFFFF" stroke="#000000" stroke-width="4" stroke-miterlimit="10" width="39.088" height="39.088"/>
<g>
	<path d="M384.68,94.654v13.148h2.427c0.577,0,0.989,0.111,1.235,0.334c0.246,0.223,0.369,0.514,0.369,0.873
		c0,0.352-0.123,0.639-0.369,0.861c-0.246,0.222-0.658,0.334-1.235,0.334h-7.255c-0.577,0-0.989-0.111-1.234-0.334
		c-0.246-0.223-0.369-0.514-0.369-0.873c0-0.352,0.123-0.639,0.369-0.861c0.245-0.222,0.657-0.334,1.234-0.334h2.427v-10.02
		l-2.146,0.562c-0.344,0.094-0.602,0.141-0.772,0.141c-0.306,0-0.567-0.121-0.791-0.363c-0.224-0.242-0.334-0.539-0.334-0.891
		c0-0.32,0.082-0.572,0.246-0.756c0.163-0.184,0.508-0.346,1.03-0.486L384.68,94.654z"/>
</g>
<g>
	<path d="M348.605,102.307H338.34c-0.578,0-0.99-0.111-1.236-0.334c-0.245-0.223-0.368-0.514-0.368-0.873
		c0-0.352,0.123-0.639,0.368-0.861c0.246-0.222,0.658-0.334,1.236-0.334h10.267c0.577,0,0.989,0.111,1.235,0.334
		c0.246,0.223,0.369,0.514,0.369,0.873c0,0.352-0.123,0.639-0.369,0.861C349.596,102.195,349.184,102.307,348.605,102.307z
		 M348.605,106.83H338.34c-0.578,0-0.99-0.109-1.236-0.328c-0.245-0.219-0.368-0.508-0.368-0.867c0-0.359,0.123-0.65,0.368-0.873
		c0.246-0.223,0.658-0.334,1.236-0.334h10.267c0.577,0,0.989,0.111,1.235,0.334c0.246,0.223,0.369,0.514,0.369,0.873
		c0,0.359-0.123,0.648-0.369,0.867C349.596,106.721,349.184,106.83,348.605,106.83z"/>
</g>
<rect x="127.559" y="154.854" fill="#FFFFFF" stroke="#000000" stroke-width="4" stroke-miterlimit="10" width="39.087" height="39.087"/>
<rect x="166.646" y="154.854" fill="#FFFFFF" stroke="#000000" stroke-width="4" stroke-miterlimit="10" width="39.088" height="39.087"/>
<rect x="205.734" y="154.854" fill="#FFFFFF" stroke="#000000" stroke-width="4" stroke-miterlimit="10" width="39.089" height="39.087"/>
<rect x="244.823" y="154.854" fill="#FFFFFF" stroke="#000000" stroke-width="4" stroke-miterlimit="10" width="39.089" height="39.087"/>
<rect x="283.912" y="154.854" fill="#FFFFFF" stroke="#000000" stroke-width="4" stroke-miterlimit="10" width="39.088" height="39.087"/>
<rect x="249.609" y="159.639" width="29.516" height="29.515"/>
<path d="M304.273,200.773v8.783h1.62c0.386,0,0.66,0.073,0.826,0.225c0.163,0.148,0.245,0.343,0.245,0.582
	c0,0.236-0.082,0.428-0.245,0.576c-0.166,0.147-0.44,0.224-0.826,0.224h-4.848c-0.386,0-0.661-0.074-0.826-0.224
	c-0.164-0.148-0.246-0.344-0.246-0.584c0-0.234,0.082-0.426,0.246-0.574c0.166-0.149,0.44-0.225,0.826-0.225h1.621v-6.693
	l-1.434,0.375c-0.229,0.062-0.401,0.096-0.518,0.096c-0.204,0-0.38-0.081-0.527-0.243c-0.148-0.161-0.225-0.36-0.225-0.595
	c0-0.214,0.056-0.383,0.164-0.505c0.11-0.123,0.341-0.231,0.688-0.325L304.273,200.773z"/>
<path d="M263.27,209.559h3.517c0.192-0.156,0.376-0.233,0.548-0.233c0.245,0,0.438,0.08,0.583,0.241
	c0.146,0.162,0.216,0.438,0.216,0.83v0.769h-7.312v-1.699c2.893-2.385,4.639-3.92,5.236-4.604c0.303-0.35,0.455-0.682,0.455-0.993
	c0-0.394-0.172-0.737-0.514-1.038c-0.342-0.3-0.797-0.45-1.366-0.45c-0.573,0-1.052,0.168-1.433,0.502
	c-0.198,0.179-0.357,0.438-0.479,0.79c-0.071,0.221-0.174,0.376-0.302,0.471c-0.128,0.096-0.285,0.143-0.475,0.143
	c-0.219,0-0.407-0.079-0.566-0.235c-0.159-0.155-0.236-0.339-0.236-0.548c0-0.312,0.145-0.705,0.435-1.175
	c0.288-0.47,0.712-0.845,1.268-1.127c0.558-0.282,1.16-0.423,1.812-0.423c1.014,0,1.844,0.307,2.49,0.92
	c0.646,0.613,0.972,1.354,0.972,2.228c0,0.443-0.093,0.854-0.278,1.233c-0.186,0.378-0.63,0.9-1.335,1.568
	C265.949,207.251,264.871,208.195,263.27,209.559z"/>
<path d="M227.631,201.032v6.278c0.34,0,0.59,0.072,0.752,0.224c0.162,0.147,0.243,0.341,0.243,0.575
	c0,0.233-0.083,0.428-0.247,0.578c-0.165,0.15-0.414,0.229-0.748,0.229v0.643c0.34,0,0.59,0.075,0.752,0.229
	c0.162,0.15,0.243,0.344,0.243,0.579c0,0.233-0.083,0.427-0.247,0.573c-0.165,0.149-0.439,0.226-0.826,0.226H225.4
	c-0.387,0-0.662-0.074-0.826-0.226c-0.165-0.146-0.247-0.342-0.247-0.582c0-0.234,0.082-0.428,0.247-0.574
	c0.164-0.149,0.439-0.225,0.826-0.225h0.625v-0.643h-4.36v-1.339l3.844-6.545H227.631L227.631,201.032z M226.025,207.311v-3.943
	l-2.324,3.943H226.025z"/>
<path d="M187.467,206.035c0.412,0.318,0.723,0.68,0.928,1.084c0.207,0.404,0.31,0.85,0.31,1.335c0,0.537-0.132,1.032-0.396,1.483
	s-0.677,0.808-1.24,1.066c-0.563,0.264-1.19,0.393-1.879,0.393c-0.689,0-1.311-0.129-1.863-0.393
	c-0.553-0.261-0.963-0.617-1.225-1.07c-0.265-0.455-0.396-0.947-0.396-1.479c0-0.485,0.104-0.931,0.309-1.335
	c0.207-0.404,0.516-0.766,0.928-1.084c-0.359-0.334-0.631-0.689-0.813-1.064c-0.183-0.377-0.274-0.772-0.274-1.188
	c0-0.819,0.313-1.525,0.94-2.118c0.626-0.594,1.431-0.891,2.411-0.891s1.785,0.297,2.412,0.891c0.626,0.593,0.939,1.299,0.939,2.118
	c0,0.422-0.091,0.819-0.271,1.196C188.105,205.354,187.833,205.706,187.467,206.035z M187.1,208.532
	c0-0.423-0.182-0.806-0.545-1.147s-0.812-0.513-1.351-0.513s-0.988,0.171-1.351,0.513c-0.363,0.344-0.545,0.729-0.545,1.163
	c0,0.334,0.157,0.625,0.471,0.873c0.312,0.248,0.787,0.372,1.425,0.372c0.642,0,1.118-0.124,1.429-0.372
	S187.1,208.877,187.1,208.532z M186.912,203.812c0-0.396-0.156-0.735-0.467-1.017c-0.311-0.276-0.729-0.419-1.256-0.419
	c-0.532,0-0.955,0.143-1.265,0.419c-0.312,0.279-0.466,0.618-0.466,1.017c0,0.399,0.154,0.742,0.466,1.021
	c0.31,0.278,0.732,0.419,1.265,0.419c0.526,0,0.945-0.141,1.256-0.419S186.912,204.213,186.912,203.812z"/>
<path d="M143.109,200.773v8.783h1.621c0.386,0,0.662,0.073,0.826,0.225c0.165,0.148,0.247,0.343,0.247,0.582
	c0,0.236-0.082,0.428-0.247,0.576c-0.164,0.147-0.439,0.224-0.826,0.224h-4.846c-0.387,0-0.662-0.074-0.826-0.224
	c-0.165-0.148-0.247-0.344-0.247-0.584c0-0.234,0.082-0.426,0.247-0.574c0.165-0.149,0.439-0.225,0.826-0.225h1.621v-6.693
	l-1.433,0.375c-0.229,0.062-0.402,0.096-0.517,0.096c-0.204,0-0.38-0.081-0.528-0.243c-0.149-0.161-0.223-0.36-0.223-0.595
	c0-0.214,0.055-0.383,0.165-0.505c0.109-0.123,0.339-0.231,0.689-0.325L143.109,200.773z"/>
<path d="M150.406,205.684c0.386-0.324,0.754-0.561,1.104-0.709c0.35-0.147,0.723-0.224,1.12-0.224c0.841,0,1.576,0.334,2.208,1.002
	c0.631,0.668,0.947,1.506,0.947,2.513c0,0.937-0.293,1.69-0.881,2.269c-0.588,0.575-1.385,0.864-2.393,0.864
	c-0.84,0-1.531-0.194-2.074-0.588c-0.543-0.392-0.953-0.994-1.229-1.809s-0.415-1.723-0.415-2.725c0-1.2,0.273-2.198,0.822-2.995
	c0.548-0.796,1.191-1.413,1.934-1.853c0.742-0.438,1.524-0.656,2.35-0.656c0.651,0,1.158,0.127,1.519,0.384
	c0.235,0.172,0.353,0.392,0.353,0.657c0,0.233-0.078,0.433-0.234,0.592c-0.157,0.158-0.346,0.238-0.564,0.238
	c-0.125,0-0.305-0.062-0.539-0.188c-0.142-0.073-0.277-0.11-0.408-0.11c-0.51,0-1.041,0.146-1.588,0.437
	c-0.549,0.29-1.023,0.733-1.426,1.335C150.732,204.534,150.531,205.057,150.406,205.684z M150.641,208.164
	c0.168,0.627,0.394,1.055,0.678,1.284c0.285,0.229,0.689,0.345,1.218,0.345c0.526,0,0.933-0.139,1.217-0.415
	s0.427-0.651,0.427-1.128c0-0.542-0.162-0.994-0.488-1.354s-0.693-0.541-1.101-0.541c-0.323,0-0.669,0.16-1.036,0.479
	C151.186,207.15,150.881,207.596,150.641,208.164z"/>
<rect x="363.912" y="154.854" fill="#FFFFFF" stroke="#000000" stroke-width="4" stroke-miterlimit="10" width="39.088" height="39.087"/>
<path d="M381.211,179.803h5.262c0.289-0.234,0.562-0.352,0.82-0.352c0.367,0,0.658,0.121,0.873,0.363s0.322,0.656,0.322,1.242v1.148
	h-10.945v-2.543c4.328-3.57,6.941-5.867,7.84-6.891c0.453-0.523,0.68-1.02,0.68-1.488c0-0.586-0.256-1.104-0.768-1.553
	c-0.512-0.449-1.193-0.674-2.045-0.674c-0.859,0-1.574,0.25-2.146,0.75c-0.297,0.266-0.534,0.66-0.715,1.184
	c-0.108,0.328-0.261,0.562-0.45,0.703c-0.191,0.141-0.43,0.211-0.71,0.211c-0.327,0-0.61-0.117-0.851-0.352
	c-0.239-0.235-0.355-0.508-0.355-0.82c0-0.469,0.217-1.055,0.648-1.758c0.433-0.703,1.065-1.266,1.897-1.688
	c0.832-0.422,1.735-0.633,2.714-0.633c1.516,0,2.758,0.459,3.727,1.377c0.97,0.918,1.453,2.029,1.453,3.334
	c0,0.664-0.139,1.279-0.416,1.846c-0.276,0.567-0.942,1.35-1.998,2.35C385.223,176.35,383.609,177.764,381.211,179.803z"/>
<path d="M348.605,174.307H338.34c-0.578,0-0.99-0.111-1.236-0.334c-0.245-0.223-0.368-0.514-0.368-0.873
	c0-0.352,0.123-0.639,0.368-0.861c0.246-0.222,0.658-0.334,1.236-0.334h10.267c0.577,0,0.989,0.111,1.235,0.334
	c0.246,0.223,0.369,0.514,0.369,0.873c0,0.352-0.123,0.639-0.369,0.861C349.596,174.195,349.184,174.307,348.605,174.307z
	 M348.605,178.83H338.34c-0.578,0-0.99-0.109-1.236-0.328c-0.245-0.219-0.368-0.508-0.368-0.867c0-0.359,0.123-0.65,0.368-0.873
	c0.246-0.223,0.658-0.334,1.236-0.334h10.267c0.577,0,0.989,0.111,1.235,0.334c0.246,0.223,0.369,0.514,0.369,0.873
	c0,0.359-0.123,0.648-0.369,0.867C349.596,178.721,349.184,178.83,348.605,178.83z"/>
<rect x="127.559" y="226.854" fill="#FFFFFF" stroke="#000000" stroke-width="4" stroke-miterlimit="10" width="39.087" height="39.088"/>
<rect x="166.646" y="226.854" fill="#FFFFFF" stroke="#000000" stroke-width="4" stroke-miterlimit="10" width="39.088" height="39.088"/>
<rect x="205.734" y="226.854" fill="#FFFFFF" stroke="#000000" stroke-width="4" stroke-miterlimit="10" width="39.089" height="39.088"/>
<rect x="244.823" y="226.854" fill="#FFFFFF" stroke="#000000" stroke-width="4" stroke-miterlimit="10" width="39.089" height="39.088"/>
<rect x="283.912" y="226.854" fill="#FFFFFF" stroke="#000000" stroke-width="4" stroke-miterlimit="10" width="39.088" height="39.088"/>
<rect x="249.609" y="231.639" width="29.516" height="29.516"/>
<path d="M304.273,272.773v8.783h1.62c0.386,0,0.66,0.073,0.826,0.225c0.163,0.148,0.245,0.343,0.245,0.583
	c0,0.235-0.082,0.427-0.245,0.575c-0.166,0.147-0.44,0.224-0.826,0.224h-4.848c-0.386,0-0.661-0.074-0.826-0.224
	c-0.164-0.148-0.246-0.344-0.246-0.584c0-0.234,0.082-0.426,0.246-0.574c0.166-0.149,0.44-0.225,0.826-0.225h1.621v-6.692
	l-1.434,0.375c-0.229,0.062-0.401,0.095-0.518,0.095c-0.204,0-0.38-0.081-0.527-0.243c-0.148-0.161-0.225-0.36-0.225-0.595
	c0-0.214,0.056-0.383,0.164-0.505c0.11-0.123,0.341-0.231,0.688-0.325L304.273,272.773z"/>
<path d="M263.27,281.559h3.517c0.192-0.156,0.376-0.233,0.548-0.233c0.245,0,0.438,0.079,0.583,0.241s0.216,0.438,0.216,0.83v0.769
	h-7.312v-1.699c2.893-2.385,4.639-3.92,5.236-4.604c0.303-0.351,0.455-0.682,0.455-0.993c0-0.394-0.172-0.737-0.514-1.038
	s-0.797-0.45-1.366-0.45c-0.573,0-1.052,0.168-1.433,0.502c-0.198,0.179-0.357,0.438-0.479,0.79
	c-0.071,0.221-0.174,0.376-0.302,0.471c-0.128,0.096-0.285,0.143-0.475,0.143c-0.219,0-0.407-0.079-0.566-0.235
	c-0.159-0.155-0.236-0.339-0.236-0.548c0-0.312,0.145-0.705,0.435-1.175c0.288-0.47,0.712-0.845,1.268-1.127
	c0.558-0.282,1.16-0.423,1.812-0.423c1.014,0,1.844,0.307,2.49,0.92c0.646,0.613,0.972,1.354,0.972,2.228
	c0,0.443-0.093,0.854-0.278,1.233c-0.186,0.378-0.63,0.9-1.335,1.568C265.949,279.251,264.871,280.195,263.27,281.559z"/>
<path d="M227.631,273.032v6.278c0.34,0,0.59,0.072,0.752,0.224c0.162,0.147,0.243,0.341,0.243,0.575
	c0,0.233-0.083,0.428-0.247,0.578c-0.165,0.15-0.414,0.229-0.748,0.229v0.643c0.34,0,0.59,0.075,0.752,0.229
	c0.162,0.15,0.243,0.344,0.243,0.579c0,0.233-0.083,0.427-0.247,0.573c-0.165,0.149-0.439,0.226-0.826,0.226H225.4
	c-0.387,0-0.662-0.074-0.826-0.226c-0.165-0.146-0.247-0.342-0.247-0.582c0-0.234,0.082-0.428,0.247-0.574
	c0.164-0.149,0.439-0.225,0.826-0.225h0.625v-0.643h-4.36v-1.339l3.844-6.545H227.631z M226.025,279.311v-3.943l-2.324,3.943
	H226.025z"/>
<path d="M187.467,278.035c0.412,0.318,0.723,0.68,0.928,1.084c0.207,0.404,0.31,0.85,0.31,1.335c0,0.537-0.132,1.032-0.396,1.483
	s-0.677,0.808-1.24,1.066c-0.563,0.264-1.19,0.393-1.879,0.393c-0.689,0-1.311-0.129-1.863-0.393
	c-0.553-0.261-0.963-0.618-1.225-1.07c-0.265-0.455-0.396-0.947-0.396-1.479c0-0.485,0.104-0.931,0.309-1.335
	c0.207-0.404,0.516-0.766,0.928-1.084c-0.359-0.334-0.631-0.689-0.813-1.064c-0.183-0.377-0.274-0.771-0.274-1.188
	c0-0.819,0.313-1.525,0.94-2.118c0.626-0.594,1.431-0.891,2.411-0.891s1.785,0.297,2.412,0.891c0.626,0.593,0.939,1.299,0.939,2.118
	c0,0.422-0.091,0.819-0.271,1.196C188.105,277.354,187.833,277.706,187.467,278.035z M187.1,280.532
	c0-0.423-0.182-0.806-0.545-1.147s-0.812-0.513-1.351-0.513s-0.988,0.171-1.351,0.513c-0.363,0.344-0.545,0.729-0.545,1.163
	c0,0.334,0.157,0.625,0.471,0.873c0.312,0.248,0.787,0.372,1.425,0.372c0.642,0,1.118-0.124,1.429-0.372
	S187.1,280.877,187.1,280.532z M186.912,275.812c0-0.396-0.156-0.735-0.467-1.017c-0.311-0.276-0.729-0.419-1.256-0.419
	c-0.532,0-0.955,0.143-1.265,0.419c-0.312,0.279-0.466,0.618-0.466,1.017c0,0.399,0.154,0.742,0.466,1.021
	c0.31,0.278,0.732,0.419,1.265,0.419c0.526,0,0.945-0.141,1.256-0.419S186.912,276.213,186.912,275.812z"/>
<path d="M143.109,272.773v8.783h1.621c0.386,0,0.662,0.073,0.826,0.225c0.165,0.148,0.247,0.343,0.247,0.583
	c0,0.235-0.082,0.427-0.247,0.575c-0.164,0.147-0.439,0.224-0.826,0.224h-4.846c-0.387,0-0.662-0.074-0.826-0.224
	c-0.165-0.148-0.247-0.344-0.247-0.584c0-0.234,0.082-0.426,0.247-0.574c0.165-0.149,0.439-0.225,0.826-0.225h1.621v-6.692
	l-1.433,0.375c-0.229,0.062-0.402,0.095-0.517,0.095c-0.204,0-0.38-0.081-0.528-0.243c-0.149-0.161-0.223-0.36-0.223-0.595
	c0-0.214,0.055-0.383,0.165-0.505c0.109-0.123,0.339-0.231,0.689-0.325L143.109,272.773z"/>
<path d="M150.406,277.684c0.386-0.324,0.754-0.561,1.104-0.709c0.35-0.147,0.723-0.224,1.12-0.224c0.841,0,1.576,0.334,2.208,1.002
	c0.631,0.668,0.947,1.506,0.947,2.513c0,0.937-0.293,1.69-0.881,2.269c-0.588,0.575-1.385,0.864-2.393,0.864
	c-0.84,0-1.531-0.194-2.074-0.588c-0.543-0.392-0.953-0.994-1.229-1.809s-0.415-1.723-0.415-2.725c0-1.2,0.273-2.198,0.822-2.995
	c0.548-0.796,1.191-1.413,1.934-1.853c0.742-0.438,1.524-0.656,2.35-0.656c0.651,0,1.158,0.127,1.519,0.384
	c0.235,0.172,0.353,0.392,0.353,0.657c0,0.233-0.078,0.433-0.234,0.592c-0.157,0.158-0.346,0.238-0.564,0.238
	c-0.125,0-0.305-0.062-0.539-0.188c-0.142-0.073-0.277-0.11-0.408-0.11c-0.51,0-1.041,0.146-1.588,0.437
	c-0.549,0.29-1.023,0.733-1.426,1.335C150.732,276.534,150.531,277.057,150.406,277.684z M150.641,280.164
	c0.168,0.627,0.394,1.055,0.678,1.284c0.285,0.229,0.689,0.345,1.218,0.345c0.526,0,0.933-0.139,1.217-0.415
	s0.427-0.651,0.427-1.128c0-0.542-0.162-0.994-0.488-1.354s-0.693-0.541-1.101-0.541c-0.323,0-0.669,0.16-1.036,0.479
	C151.186,279.15,150.881,279.596,150.641,280.164z"/>
<rect x="363.912" y="226.854" fill="#FFFFFF" stroke="#000000" stroke-width="4" stroke-miterlimit="10" width="39.088" height="39.088"/>
<path d="M386.883,246.178c0.711,0.484,1.242,1.045,1.594,1.682c0.354,0.639,0.527,1.352,0.527,2.141
	c0,0.854-0.231,1.641-0.697,2.359c-0.465,0.724-1.139,1.271-2.021,1.643s-2.039,0.559-3.47,0.559c-1.858,0-3.259-0.289-4.194-0.867
	c-0.522-0.328-0.785-0.719-0.785-1.172c0-0.346,0.115-0.637,0.347-0.873c0.23-0.238,0.511-0.357,0.839-0.357
	c0.227,0,0.461,0.078,0.702,0.234c0.345,0.232,0.668,0.391,0.974,0.469c0.469,0.109,1.112,0.164,1.934,0.164
	c1.398,0,2.41-0.182,3.035-0.545s0.938-0.877,0.938-1.541c0-0.492-0.183-0.967-0.546-1.424c-0.362-0.457-0.85-0.812-1.459-1.062
	c-0.352-0.143-0.944-0.236-1.78-0.293c-0.397-0.021-0.705-0.146-0.92-0.369c-0.216-0.223-0.321-0.498-0.321-0.824
	c0-0.346,0.116-0.635,0.352-0.867c0.235-0.234,0.531-0.354,0.893-0.354c0.797,0,1.223-0.004,1.276-0.012
	c0.312-0.031,0.625-0.135,0.938-0.307c0.312-0.172,0.563-0.408,0.756-0.709s0.287-0.609,0.287-0.932
	c0-0.508-0.226-0.947-0.674-1.318c-0.449-0.371-1.123-0.557-2.021-0.557c-1.156,0-2.039,0.336-2.647,1.008
	c-0.181,0.195-0.323,0.32-0.435,0.375c-0.164,0.086-0.348,0.129-0.551,0.129c-0.328,0-0.609-0.117-0.844-0.352
	c-0.235-0.234-0.354-0.523-0.354-0.867c0-0.539,0.359-1.062,1.078-1.57c1.047-0.742,2.354-1.113,3.927-1.113
	c1.483,0,2.677,0.424,3.573,1.268c0.897,0.846,1.349,1.857,1.349,3.047c0,0.617-0.133,1.193-0.397,1.729
	C387.816,245.232,387.414,245.725,386.883,246.178z"/>
<path d="M348.605,246.307H338.34c-0.578,0-0.99-0.111-1.236-0.334c-0.245-0.223-0.368-0.514-0.368-0.873
	c0-0.352,0.123-0.639,0.368-0.859c0.246-0.221,0.658-0.336,1.236-0.336h10.267c0.577,0,0.989,0.111,1.235,0.336
	c0.246,0.223,0.369,0.514,0.369,0.871c0,0.354-0.123,0.641-0.369,0.861C349.596,246.195,349.184,246.307,348.605,246.307z
	 M348.605,250.83H338.34c-0.578,0-0.99-0.109-1.236-0.328c-0.245-0.219-0.368-0.508-0.368-0.867s0.123-0.65,0.368-0.873
	c0.246-0.223,0.658-0.334,1.236-0.334h10.267c0.577,0,0.989,0.111,1.235,0.334s0.369,0.514,0.369,0.873s-0.123,0.648-0.369,0.867
	S349.184,250.83,348.605,250.83z"/>
<rect x="288.698" y="231.641" width="29.516" height="29.517"/>
<rect x="127.559" y="298.854" fill="#FFFFFF" stroke="#000000" stroke-width="4" stroke-miterlimit="10" width="39.087" height="39.09"/>
<rect x="166.646" y="298.854" fill="#FFFFFF" stroke="#000000" stroke-width="4" stroke-miterlimit="10" width="39.088" height="39.09"/>
<rect x="205.734" y="298.854" fill="#FFFFFF" stroke="#000000" stroke-width="4" stroke-miterlimit="10" width="39.089" height="39.09"/>
<rect x="244.823" y="298.854" fill="#FFFFFF" stroke="#000000" stroke-width="4" stroke-miterlimit="10" width="39.089" height="39.09"/>
<rect x="283.912" y="298.854" fill="#FFFFFF" stroke="#000000" stroke-width="4" stroke-miterlimit="10" width="39.088" height="39.09"/>
<rect x="210.521" y="303.639" width="29.515" height="29.518"/>
<path d="M304.273,344.773v8.783h1.62c0.386,0,0.66,0.073,0.826,0.225c0.163,0.146,0.245,0.343,0.245,0.583
	c0,0.233-0.082,0.427-0.245,0.575c-0.166,0.147-0.44,0.224-0.826,0.224h-4.848c-0.386,0-0.661-0.074-0.826-0.224
	c-0.164-0.148-0.246-0.344-0.246-0.584c0-0.234,0.082-0.428,0.246-0.574c0.166-0.149,0.44-0.225,0.826-0.225h1.621v-6.692
	l-1.434,0.375c-0.229,0.062-0.401,0.095-0.518,0.095c-0.204,0-0.38-0.081-0.527-0.243c-0.148-0.161-0.225-0.358-0.225-0.595
	c0-0.214,0.056-0.383,0.164-0.505c0.11-0.123,0.341-0.231,0.688-0.325L304.273,344.773z"/>
<path d="M263.27,353.559h3.517c0.192-0.156,0.376-0.233,0.548-0.233c0.245,0,0.438,0.081,0.583,0.241
	c0.146,0.162,0.216,0.438,0.216,0.83v0.769h-7.312v-1.699c2.893-2.385,4.639-3.92,5.236-4.604c0.303-0.351,0.455-0.682,0.455-0.993
	c0-0.394-0.172-0.737-0.514-1.038c-0.342-0.3-0.797-0.45-1.366-0.45c-0.573,0-1.052,0.168-1.433,0.502
	c-0.198,0.177-0.357,0.44-0.479,0.79c-0.071,0.221-0.174,0.376-0.302,0.471c-0.128,0.096-0.285,0.143-0.475,0.143
	c-0.219,0-0.407-0.079-0.566-0.235c-0.159-0.155-0.236-0.339-0.236-0.548c0-0.312,0.145-0.705,0.435-1.175
	c0.288-0.47,0.712-0.845,1.268-1.127c0.558-0.282,1.16-0.423,1.812-0.423c1.014,0,1.844,0.307,2.49,0.92
	c0.646,0.611,0.972,1.354,0.972,2.228c0,0.443-0.093,0.854-0.278,1.233c-0.186,0.378-0.63,0.9-1.335,1.568
	C265.949,351.251,264.871,352.195,263.27,353.559z"/>
<path d="M227.631,345.032v6.276c0.34,0,0.59,0.074,0.752,0.226c0.162,0.147,0.243,0.341,0.243,0.575s-0.083,0.428-0.247,0.578
	c-0.165,0.15-0.414,0.229-0.748,0.229v0.643c0.34,0,0.59,0.075,0.752,0.229c0.162,0.15,0.243,0.344,0.243,0.579
	c0,0.233-0.083,0.427-0.247,0.575c-0.165,0.147-0.439,0.224-0.826,0.224H225.4c-0.387,0-0.662-0.074-0.826-0.224
	c-0.165-0.148-0.247-0.344-0.247-0.584c0-0.234,0.082-0.428,0.247-0.574c0.164-0.148,0.439-0.225,0.826-0.225h0.625v-0.643h-4.36
	v-1.339l3.844-6.545H227.631L227.631,345.032z M226.025,351.311v-3.943l-2.324,3.943H226.025z"/>
<path d="M187.467,350.035c0.412,0.316,0.723,0.68,0.928,1.084c0.207,0.404,0.31,0.85,0.31,1.335c0,0.537-0.132,1.032-0.396,1.483
	c-0.264,0.449-0.677,0.808-1.24,1.066c-0.563,0.262-1.19,0.393-1.879,0.393c-0.689,0-1.311-0.131-1.863-0.393
	c-0.553-0.261-0.963-0.618-1.225-1.072c-0.265-0.453-0.396-0.945-0.396-1.479c0-0.485,0.104-0.932,0.309-1.335
	c0.207-0.404,0.516-0.767,0.928-1.084c-0.359-0.334-0.631-0.688-0.813-1.065c-0.183-0.376-0.274-0.771-0.274-1.188
	c0-0.819,0.313-1.525,0.94-2.118c0.626-0.593,1.431-0.89,2.411-0.89s1.785,0.297,2.412,0.89c0.626,0.593,0.939,1.299,0.939,2.118
	c0,0.422-0.091,0.82-0.271,1.195C188.105,349.354,187.833,349.706,187.467,350.035z M187.1,352.532c0-0.423-0.182-0.806-0.545-1.147
	s-0.812-0.513-1.351-0.513s-0.988,0.171-1.351,0.513c-0.363,0.344-0.545,0.729-0.545,1.163c0,0.334,0.157,0.625,0.471,0.873
	c0.312,0.248,0.787,0.372,1.425,0.372c0.642,0,1.118-0.124,1.429-0.372S187.1,352.877,187.1,352.532z M186.912,347.812
	c0-0.396-0.156-0.735-0.467-1.017c-0.311-0.278-0.729-0.419-1.256-0.419c-0.532,0-0.955,0.141-1.265,0.419
	c-0.312,0.279-0.466,0.618-0.466,1.017c0,0.399,0.154,0.74,0.466,1.021c0.31,0.278,0.732,0.419,1.265,0.419
	c0.526,0,0.945-0.141,1.256-0.419S186.912,348.213,186.912,347.812z"/>
<path d="M143.109,344.773v8.783h1.621c0.386,0,0.662,0.073,0.826,0.225c0.165,0.146,0.247,0.343,0.247,0.583
	c0,0.233-0.082,0.427-0.247,0.575c-0.164,0.147-0.439,0.224-0.826,0.224h-4.846c-0.387,0-0.662-0.074-0.826-0.224
	c-0.165-0.148-0.247-0.344-0.247-0.584c0-0.234,0.082-0.428,0.247-0.574c0.165-0.149,0.439-0.225,0.826-0.225h1.621v-6.692
	l-1.433,0.375c-0.229,0.062-0.402,0.095-0.517,0.095c-0.204,0-0.38-0.081-0.528-0.243c-0.149-0.161-0.223-0.358-0.223-0.595
	c0-0.214,0.055-0.383,0.165-0.505c0.109-0.123,0.339-0.231,0.689-0.325L143.109,344.773z"/>
<path d="M150.406,349.684c0.386-0.324,0.754-0.561,1.104-0.709c0.35-0.147,0.723-0.224,1.12-0.224c0.841,0,1.576,0.334,2.208,1.002
	c0.631,0.668,0.947,1.506,0.947,2.513c0,0.937-0.293,1.69-0.881,2.269c-0.588,0.577-1.385,0.864-2.393,0.864
	c-0.84,0-1.531-0.194-2.074-0.588c-0.543-0.392-0.953-0.992-1.229-1.809c-0.276-0.812-0.415-1.723-0.415-2.725
	c0-1.2,0.273-2.198,0.822-2.995c0.548-0.796,1.191-1.413,1.934-1.853c0.742-0.438,1.524-0.656,2.35-0.656
	c0.651,0,1.158,0.127,1.519,0.384c0.235,0.172,0.353,0.392,0.353,0.657c0,0.233-0.078,0.433-0.234,0.592
	c-0.157,0.158-0.346,0.238-0.564,0.238c-0.125,0-0.305-0.062-0.539-0.188c-0.142-0.073-0.277-0.11-0.408-0.11
	c-0.51,0-1.041,0.146-1.588,0.437c-0.549,0.29-1.023,0.733-1.426,1.335C150.732,348.534,150.531,349.057,150.406,349.684z
	 M150.641,352.164c0.168,0.627,0.394,1.055,0.678,1.284c0.285,0.229,0.689,0.345,1.218,0.345c0.526,0,0.933-0.139,1.217-0.415
	s0.427-0.651,0.427-1.128c0-0.542-0.162-0.994-0.488-1.354s-0.693-0.541-1.101-0.541c-0.323,0-0.669,0.158-1.036,0.479
	C151.186,351.15,150.881,351.596,150.641,352.164z"/>
<rect x="363.912" y="298.854" fill="#FFFFFF" stroke="#000000" stroke-width="4" stroke-miterlimit="10" width="39.088" height="39.09"/>
<path d="M386.977,311.041v9.398c0.509,0,0.884,0.109,1.125,0.334c0.242,0.223,0.363,0.51,0.363,0.859
	c0,0.352-0.123,0.643-0.369,0.867s-0.619,0.34-1.119,0.34v0.961c0.509,0,0.884,0.113,1.125,0.34
	c0.242,0.229,0.363,0.518,0.363,0.867c0,0.352-0.123,0.641-0.369,0.861s-0.657,0.334-1.235,0.334h-3.224
	c-0.578,0-0.989-0.111-1.235-0.334c-0.245-0.225-0.368-0.514-0.368-0.873c0-0.354,0.123-0.639,0.368-0.861
	c0.246-0.222,0.657-0.334,1.235-0.334h0.938v-0.961h-6.527v-2.004l5.755-9.797L386.977,311.041L386.977,311.041z M384.574,320.439
	v-5.906l-3.48,5.906H384.574z"/>
<path d="M348.605,318.307H338.34c-0.578,0-0.99-0.109-1.236-0.334c-0.245-0.223-0.368-0.514-0.368-0.873
	c0-0.352,0.123-0.639,0.368-0.859c0.246-0.223,0.658-0.334,1.236-0.334h10.267c0.577,0,0.989,0.109,1.235,0.334
	c0.246,0.223,0.369,0.514,0.369,0.873c0,0.352-0.123,0.639-0.369,0.859C349.596,318.195,349.184,318.307,348.605,318.307z
	 M348.605,322.83H338.34c-0.578,0-0.99-0.109-1.236-0.328c-0.245-0.219-0.368-0.508-0.368-0.867c0-0.357,0.123-0.648,0.368-0.873
	c0.246-0.223,0.658-0.334,1.236-0.334h10.267c0.577,0,0.989,0.111,1.235,0.334c0.246,0.225,0.369,0.516,0.369,0.873
	c0,0.359-0.123,0.648-0.369,0.867S349.184,322.83,348.605,322.83z"/>
<g>
	<path d="M428.605,102.307H418.34c-0.578,0-0.99-0.111-1.236-0.334c-0.245-0.223-0.368-0.514-0.368-0.873
		c0-0.352,0.123-0.639,0.368-0.861c0.246-0.222,0.658-0.334,1.236-0.334h10.267c0.577,0,0.989,0.111,1.235,0.334
		c0.246,0.223,0.369,0.514,0.369,0.873c0,0.352-0.123,0.639-0.369,0.861C429.596,102.195,429.184,102.307,428.605,102.307z
		 M428.605,106.83H418.34c-0.578,0-0.99-0.109-1.236-0.328c-0.245-0.219-0.368-0.508-0.368-0.867c0-0.359,0.123-0.65,0.368-0.873
		c0.246-0.223,0.658-0.334,1.236-0.334h10.267c0.577,0,0.989,0.111,1.235,0.334c0.246,0.223,0.369,0.514,0.369,0.873
		c0,0.359-0.123,0.648-0.369,0.867C429.596,106.721,429.184,106.83,428.605,106.83z"/>
</g>
<path d="M428.605,174.307H418.34c-0.578,0-0.99-0.111-1.236-0.334c-0.245-0.223-0.368-0.514-0.368-0.873
	c0-0.352,0.123-0.639,0.368-0.861c0.246-0.222,0.658-0.334,1.236-0.334h10.267c0.577,0,0.989,0.111,1.235,0.334
	c0.246,0.223,0.369,0.514,0.369,0.873c0,0.352-0.123,0.639-0.369,0.861C429.596,174.195,429.184,174.307,428.605,174.307z
	 M428.605,178.83H418.34c-0.578,0-0.99-0.109-1.236-0.328c-0.245-0.219-0.368-0.508-0.368-0.867c0-0.359,0.123-0.65,0.368-0.873
	c0.246-0.223,0.658-0.334,1.236-0.334h10.267c0.577,0,0.989,0.111,1.235,0.334c0.246,0.223,0.369,0.514,0.369,0.873
	c0,0.359-0.123,0.648-0.369,0.867C429.596,178.721,429.184,178.83,428.605,178.83z"/>
<path d="M428.605,246.307H418.34c-0.578,0-0.99-0.111-1.236-0.334c-0.245-0.223-0.368-0.514-0.368-0.873
	c0-0.352,0.123-0.639,0.368-0.859c0.246-0.221,0.658-0.336,1.236-0.336h10.267c0.577,0,0.989,0.111,1.235,0.336
	c0.246,0.223,0.369,0.514,0.369,0.871c0,0.354-0.123,0.641-0.369,0.861C429.596,246.195,429.184,246.307,428.605,246.307z
	 M428.605,250.83H418.34c-0.578,0-0.99-0.109-1.236-0.328c-0.245-0.219-0.368-0.508-0.368-0.867s0.123-0.65,0.368-0.873
	c0.246-0.223,0.658-0.334,1.236-0.334h10.267c0.577,0,0.989,0.111,1.235,0.334s0.369,0.514,0.369,0.873s-0.123,0.648-0.369,0.867
	S429.184,250.83,428.605,250.83z"/>
<path d="M428.605,318.307H418.34c-0.578,0-0.99-0.109-1.236-0.334c-0.245-0.223-0.368-0.514-0.368-0.873
	c0-0.352,0.123-0.639,0.368-0.859c0.246-0.223,0.658-0.334,1.236-0.334h10.267c0.577,0,0.989,0.109,1.235,0.334
	c0.246,0.223,0.369,0.514,0.369,0.873c0,0.352-0.123,0.639-0.369,0.859C429.596,318.195,429.184,318.307,428.605,318.307z
	 M428.605,322.83H418.34c-0.578,0-0.99-0.109-1.236-0.328c-0.245-0.219-0.368-0.508-0.368-0.867c0-0.357,0.123-0.648,0.368-0.873
	c0.246-0.223,0.658-0.334,1.236-0.334h10.267c0.577,0,0.989,0.111,1.235,0.334c0.246,0.225,0.369,0.516,0.369,0.873
	c0,0.359-0.123,0.648-0.369,0.867S429.184,322.83,428.605,322.83z"/>
<g>
	<path d="M449.092,106.812l-1.856,6.111h-4.063l6.911-21.566h5.024l7.007,21.566h-4.224l-1.951-6.111H449.092z M455.267,103.836
		l-1.695-5.312c-0.416-1.312-0.768-2.784-1.088-4.032h-0.064c-0.319,1.248-0.64,2.752-1.023,4.032l-1.664,5.312H455.267z"/>
</g>
<g>
	<path d="M444.771,163.646c1.248-0.256,3.521-0.448,5.728-0.448c2.912,0,4.704,0.352,6.176,1.376c1.344,0.8,2.24,2.208,2.24,4.032
		c0,1.984-1.248,3.808-3.584,4.672v0.064c2.271,0.576,4.352,2.368,4.352,5.343c0,1.92-0.832,3.424-2.08,4.448
		c-1.535,1.345-4.063,2.017-7.999,2.017c-2.176,0-3.84-0.16-4.832-0.289V163.646z M448.676,172.157h2.016
		c2.72,0,4.256-1.28,4.256-3.104c0-2.016-1.536-2.943-4.032-2.943c-1.151,0-1.823,0.064-2.239,0.16V172.157z M448.676,182.076
		c0.512,0.064,1.184,0.096,2.08,0.096c2.527,0,4.768-0.96,4.768-3.616c0-2.496-2.176-3.52-4.896-3.52h-1.951V182.076z"/>
</g>
<g>
	<path d="M460.227,256.641c-0.928,0.479-2.976,0.959-5.567,0.959c-6.848,0-11.007-4.287-11.007-10.847
		c0-7.104,4.927-11.392,11.519-11.392c2.592,0,4.448,0.545,5.248,0.961l-0.864,3.135c-1.023-0.447-2.432-0.832-4.224-0.832
		c-4.384,0-7.552,2.752-7.552,7.936c0,4.736,2.784,7.775,7.52,7.775c1.601,0,3.264-0.319,4.288-0.799L460.227,256.641z"/>
</g>
<g>
	<path d="M444.771,307.645c1.729-0.288,3.937-0.448,6.271-0.448c4.032,0,6.816,0.832,8.8,2.496c2.08,1.696,3.359,4.255,3.359,7.935
		c0,3.84-1.312,6.721-3.359,8.576c-2.144,1.951-5.567,2.943-9.76,2.943c-2.304,0-4.031-0.127-5.312-0.287V307.645z M448.708,325.915
		c0.544,0.097,1.375,0.097,2.176,0.097c5.119,0.031,8.159-2.785,8.159-8.256c0.032-4.768-2.72-7.488-7.647-7.488
		c-1.248,0-2.144,0.097-2.688,0.225V325.915z"/>
</g>
</svg>
