<?xml version="1.0" encoding="utf-8"?>
<!-- Generator: Adobe Illustrator 15.1.0, SVG Export Plug-In . SVG Version: 6.00 Build 0)  -->
<!DOCTYPE svg PUBLIC "-//W3C//DTD SVG 1.1//EN" "http://www.w3.org/Graphics/SVG/1.1/DTD/svg11.dtd">
<svg version="1.1" id="Layer_1" xmlns="http://www.w3.org/2000/svg" xmlns:xlink="http://www.w3.org/1999/xlink" x="0px" y="0px"
	 width="411px" height="224.118px" viewBox="0 0 411 224.118" enable-background="new 0 0 411 224.118" xml:space="preserve">
<g>
	
		<rect x="10.293" y="82.1" fill="#FFFFFF" stroke="#000000" stroke-width="4" stroke-miterlimit="10" width="48.756" height="48.756"/>
	
		<rect x="59.049" y="82.1" fill="#FFFFFF" stroke="#000000" stroke-width="4" stroke-miterlimit="10" width="48.756" height="48.756"/>
	
		<rect x="107.805" y="82.1" fill="#FFFFFF" stroke="#000000" stroke-width="4" stroke-miterlimit="10" width="48.756" height="48.756"/>
	
		<rect x="156.561" y="82.1" fill="#FFFFFF" stroke="#000000" stroke-width="4" stroke-miterlimit="10" width="48.755" height="48.756"/>
	
		<rect x="205.316" y="82.1" fill="#FFFFFF" stroke="#000000" stroke-width="4" stroke-miterlimit="10" width="48.756" height="48.756"/>
	
		<rect x="254.072" y="82.1" fill="#FFFFFF" stroke="#000000" stroke-width="4" stroke-miterlimit="10" width="48.756" height="48.756"/>
	
		<rect x="302.828" y="82.1" fill="#FFFFFF" stroke="#000000" stroke-width="4" stroke-miterlimit="10" width="48.756" height="48.756"/>
	
		<rect x="351.584" y="82.1" fill="#FFFFFF" stroke="#000000" stroke-width="4" stroke-miterlimit="10" width="48.756" height="48.756"/>
	<rect x="16.264" y="88.07" width="36.815" height="36.815"/>
	<rect x="162.531" y="88.07" width="36.815" height="36.815"/>
	<rect x="211.287" y="88.07" width="36.814" height="36.815"/>
	<rect x="308.799" y="88.07" width="36.814" height="36.815"/>
	<g>
		<path d="M35.567,136.178v10.957h2.021c0.482,0,0.825,0.094,1.03,0.279s0.308,0.428,0.308,0.727c0,0.293-0.103,0.533-0.308,0.719
			s-0.548,0.277-1.03,0.277h-6.045c-0.482,0-0.825-0.092-1.03-0.277s-0.308-0.429-0.308-0.729c0-0.293,0.103-0.531,0.308-0.717
			s0.548-0.279,1.03-0.279h2.021v-8.35l-1.787,0.469c-0.287,0.078-0.501,0.117-0.645,0.117c-0.254,0-0.474-0.101-0.659-0.303
			c-0.186-0.201-0.278-0.449-0.278-0.742c0-0.267,0.068-0.477,0.205-0.629c0.137-0.153,0.423-0.289,0.859-0.406L35.567,136.178z"/>
	</g>
	<g>
		<path d="M87.797,141.705v2.197c0,1.303-0.376,2.549-1.128,3.74s-1.828,1.787-3.228,1.787c-0.807,0-1.489-0.177-2.046-0.531
			c-0.557-0.355-1.084-1.01-1.582-1.963c-0.498-0.954-0.747-1.965-0.747-3.033v-2.197c0-1.295,0.375-2.54,1.123-3.734
			c0.749-1.195,1.823-1.793,3.223-1.793c0.801,0,1.479,0.176,2.036,0.527s1.087,1.005,1.592,1.959
			C87.545,139.617,87.797,140.631,87.797,141.705z M85.786,141.705c0-1.087-0.303-2.037-0.908-2.852
			c-0.345-0.449-0.83-0.674-1.455-0.674c-0.605,0-1.1,0.248-1.484,0.742c-0.58,0.749-0.869,1.677-0.869,2.783v2.197
			c0,1.094,0.306,2.045,0.918,2.852c0.338,0.449,0.824,0.674,1.455,0.674c0.599,0,1.09-0.247,1.475-0.742
			c0.58-0.748,0.869-1.676,0.869-2.783V141.705z"/>
	</g>
	<g>
		<path d="M136.553,141.705v2.197c0,1.303-0.376,2.549-1.128,3.74s-1.828,1.787-3.228,1.787c-0.807,0-1.489-0.177-2.046-0.531
			c-0.557-0.355-1.084-1.01-1.582-1.963c-0.498-0.954-0.747-1.965-0.747-3.033v-2.197c0-1.295,0.375-2.54,1.123-3.734
			c0.749-1.195,1.823-1.793,3.223-1.793c0.801,0,1.479,0.176,2.036,0.527s1.087,1.005,1.592,1.959
			C136.301,139.617,136.553,140.631,136.553,141.705z M134.542,141.705c0-1.087-0.303-2.037-0.908-2.852
			c-0.345-0.449-0.83-0.674-1.455-0.674c-0.605,0-1.1,0.248-1.484,0.742c-0.58,0.749-0.869,1.677-0.869,2.783v2.197
			c0,1.094,0.306,2.045,0.918,2.852c0.338,0.449,0.824,0.674,1.455,0.674c0.599,0,1.09-0.247,1.475-0.742
			c0.58-0.748,0.869-1.676,0.869-2.783V141.705z"/>
	</g>
	<g>
		<path d="M181.959,136.178v10.957h2.021c0.482,0,0.825,0.094,1.03,0.279s0.308,0.428,0.308,0.727c0,0.293-0.103,0.533-0.308,0.719
			s-0.548,0.277-1.03,0.277h-6.045c-0.482,0-0.825-0.092-1.03-0.277s-0.308-0.429-0.308-0.729c0-0.293,0.103-0.531,0.308-0.717
			s0.548-0.279,1.03-0.279h2.021v-8.35l-1.787,0.469c-0.287,0.078-0.501,0.117-0.645,0.117c-0.254,0-0.474-0.101-0.659-0.303
			c-0.186-0.201-0.278-0.449-0.278-0.742c0-0.267,0.068-0.477,0.205-0.629c0.137-0.153,0.423-0.289,0.859-0.406L181.959,136.178z"/>
	</g>
	<g>
		<path d="M230.715,136.178v10.957h2.021c0.482,0,0.825,0.094,1.03,0.279s0.308,0.428,0.308,0.727c0,0.293-0.103,0.533-0.308,0.719
			s-0.548,0.277-1.03,0.277h-6.045c-0.482,0-0.825-0.092-1.03-0.277s-0.308-0.429-0.308-0.729c0-0.293,0.103-0.531,0.308-0.717
			s0.548-0.279,1.03-0.279h2.021v-8.35l-1.787,0.469c-0.287,0.078-0.501,0.117-0.645,0.117c-0.254,0-0.474-0.101-0.659-0.303
			c-0.186-0.201-0.278-0.449-0.278-0.742c0-0.267,0.068-0.477,0.205-0.629c0.137-0.153,0.423-0.289,0.859-0.406L230.715,136.178z"/>
	</g>
	<g>
		<path d="M282.82,141.705v2.197c0,1.303-0.376,2.549-1.128,3.74s-1.827,1.787-3.228,1.787c-0.807,0-1.489-0.177-2.046-0.531
			c-0.557-0.355-1.084-1.01-1.582-1.963c-0.498-0.954-0.747-1.965-0.747-3.033v-2.197c0-1.295,0.375-2.54,1.123-3.734
			c0.748-1.195,1.822-1.793,3.223-1.793c0.801,0,1.479,0.176,2.036,0.527s1.087,1.005,1.592,1.959
			C282.568,139.617,282.82,140.631,282.82,141.705z M280.809,141.705c0-1.087-0.303-2.037-0.908-2.852
			c-0.346-0.449-0.83-0.674-1.455-0.674c-0.605,0-1.1,0.248-1.484,0.742c-0.58,0.749-0.869,1.677-0.869,2.783v2.197
			c0,1.094,0.307,2.045,0.918,2.852c0.338,0.449,0.824,0.674,1.455,0.674c0.6,0,1.09-0.247,1.475-0.742
			c0.58-0.748,0.869-1.676,0.869-2.783V141.705z"/>
	</g>
	<g>
		<path d="M328.227,136.178v10.957h2.021c0.482,0,0.825,0.094,1.03,0.279s0.308,0.428,0.308,0.727c0,0.293-0.103,0.533-0.308,0.719
			s-0.548,0.277-1.03,0.277h-6.045c-0.482,0-0.825-0.092-1.03-0.277s-0.308-0.429-0.308-0.729c0-0.293,0.103-0.531,0.308-0.717
			s0.548-0.279,1.03-0.279h2.021v-8.35l-1.787,0.469c-0.287,0.078-0.502,0.117-0.645,0.117c-0.254,0-0.474-0.101-0.659-0.303
			c-0.186-0.201-0.278-0.449-0.278-0.742c0-0.267,0.068-0.477,0.205-0.629c0.137-0.153,0.424-0.289,0.859-0.406L328.227,136.178z"/>
	</g>
	<g>
		<path d="M380.332,141.705v2.197c0,1.303-0.376,2.549-1.128,3.74s-1.827,1.787-3.228,1.787c-0.807,0-1.489-0.177-2.046-0.531
			c-0.557-0.355-1.084-1.01-1.582-1.963c-0.498-0.954-0.747-1.965-0.747-3.033v-2.197c0-1.295,0.375-2.54,1.123-3.734
			c0.748-1.195,1.822-1.793,3.223-1.793c0.801,0,1.479,0.176,2.036,0.527s1.087,1.005,1.592,1.959
			C380.08,139.617,380.332,140.631,380.332,141.705z M378.32,141.705c0-1.087-0.303-2.037-0.908-2.852
			c-0.346-0.449-0.83-0.674-1.455-0.674c-0.605,0-1.1,0.248-1.484,0.742c-0.58,0.749-0.869,1.677-0.869,2.783v2.197
			c0,1.094,0.307,2.045,0.918,2.852c0.338,0.449,0.824,0.674,1.455,0.674c0.6,0,1.09-0.247,1.475-0.742
			c0.58-0.748,0.869-1.676,0.869-2.783V141.705z"/>
	</g>
</g>
<polyline fill="none" stroke="#000000" stroke-width="4" stroke-miterlimit="10" points="156.312,65.5 156.312,52.747 
	107.556,52.747 107.556,65.5 "/>
<line fill="none" stroke="#000000" stroke-width="4" stroke-miterlimit="10" x1="132.183" y1="52.747" x2="132.183" y2="38.25"/>
<g>
	<path d="M110.809,32.036c-0.156,0.078-0.416,0.234-0.624,0.234c-0.026,0-0.052,0-0.078-0.026c-0.156,0.026-0.338,0.052-0.494,0.052
		c-0.234,0-0.442,0-0.624-0.078l-0.624-0.104h0.026c-0.208-0.026-0.338-0.13-0.52-0.234c-2.002-0.962-2.262-2.86-2.262-5.512
		c0-2.132,0.598-5.85,3.354-5.85c0.338,0,0.702,0.026,1.04,0.156h-0.026c2.574,1.014,2.964,4.316,2.964,6.734
		c0,0.598-0.416,3.848-2.158,4.628H110.809z M107.767,26.654c0.234,1.248-0.234,3.536,1.638,3.536c1.144,0,0.858-2.704,0.858-3.667
		c0-1.248-0.078-3.822-1.04-3.822c-1.014,0-1.482,2.808-1.482,3.614C107.741,26.42,107.741,26.55,107.767,26.654z"/>
	<path d="M117.621,20.543c0.39-0.156,0.78-0.26,1.196-0.26c1.196,0,2.132,0.78,2.314,1.924c0.494,2.184,0.494,4.55,0.494,6.682
		c0,0.364,0,0.754-0.052,1.118v-0.026c-0.026,0.676,0.026,1.352-0.104,2.028c-0.26,0.104-0.546,0.104-0.858,0.104
		c-0.624,0-1.222-0.052-1.222-0.858c0-1.482,0.208-3.016,0.208-4.524c0-0.962-0.078-1.872-0.182-2.808v0.026
		c-0.052-0.468-0.078-1.352-0.728-1.352c-0.468,0-0.858,0.598-1.144,0.91v-0.026c-0.442,0.624-0.39,7.462-0.546,8.866
		c-0.65-0.052-1.456,0.026-2.028-0.286c-0.078-0.416-0.104-0.832-0.104-1.248c0-3.458,0.312-6.864,0.416-10.296
		c0.338-0.416,1.092-0.598,1.612-0.598C117.257,19.919,117.517,20.18,117.621,20.543z"/>
	<path d="M130.647,28.968c0,1.95-1.768,3.328-3.64,3.328c-3.198,0-3.458-4.394-3.458-6.734c0-2.418,0.884-5.72,3.848-5.72
		c3.094,0,2.99,3.744,2.99,6.084c0,0.754-2.522,0.858-4.394,0.858v0.494c0,0.728,0.052,2.548,1.092,2.548
		c0.962,0,1.04-1.326,1.196-2.028C128.931,27.798,130.647,28.084,130.647,28.968z M126.071,24.313c0.26,0.052,0.52,0.052,0.78,0.052
		c0.494,0,0.936-0.052,1.404-0.13c0-0.468-0.26-2.028-0.91-2.028C126.383,22.208,126.149,23.585,126.071,24.313z"/>
	<path d="M140.059,32.27c-0.78,0-1.04-0.13-1.04-0.884c0-2.574-0.234-5.174-0.234-7.774c0-1.794,0.26-3.64,0.26-5.408
		c0-0.364-0.052-0.702-0.052-1.066c0-0.988,0.312-1.3,1.274-1.3c0.832,0,1.092,0.468,1.092,1.274c0,0.286-0.026,0.624-0.078,0.91
		v-0.026c-0.052,0.26-0.052,0.494-0.052,0.754v0.728c0,0.182,0,0.364-0.026,0.546c0.286-0.078,0.572-0.104,0.858-0.104
		c2.574,0,3.432,2.158,3.432,4.42c0,0.962-0.104,1.976-0.234,2.938c-0.286,1.898-0.156,4.524-3.328,4.524
		c-0.208,0-0.39-0.026-0.572-0.052C141.359,32.296,140.475,32.27,140.059,32.27z M141.307,28.994v-0.026
		c0.156,0.312,0.494,0.416,0.806,0.416c1.222,0,1.04-4.16,1.04-5.98c0-0.676-0.26-1.3-1.04-1.3c-0.676,0-1.118,0.52-1.118,1.17
		C140.995,23.872,141.021,28.552,141.307,28.994z"/>
	<path d="M148.821,16.773c0.65,0,1.118,0.468,1.118,1.014c0,0.416-0.338,1.274-1.3,1.274c-1.04,0-1.196-0.39-1.196-1.014
		c0-0.338,0.156-0.702,0.546-1.04C148.275,16.852,148.587,16.773,148.821,16.773z M149.133,19.841c0.858,0,1.04,0.156,1.04,0.988
		c0,2.678-0.338,5.356-0.338,8.034c0,0.884,0.13,1.768,0.13,2.626c0,0.624-0.364,0.728-0.91,0.728c-0.312,0-0.65,0-0.962-0.104
		h0.026c-0.052,0-0.13-0.026-0.182-0.026c-0.078,0-0.156,0.026-0.234,0.026c-0.104-0.39-0.156-0.78-0.156-1.144
		c0-2.418,0.078-4.836,0.078-7.254c0-0.988-0.078-1.977-0.078-2.938c0-0.936,0.832-0.858,0.91-0.884L149.133,19.841z"/>
	<path d="M155.633,20.31c0.65,0.052,1.274,0,1.898,0.156l-0.026,0.26c0.078,0.26,0.13,0.52,0.13,0.806
		c0,0.806-0.468,0.832-1.092,0.832h-0.962c-0.026,0.468-0.026,0.962-0.026,1.43c0,1.95-0.078,6.11,0.494,6.214
		c0.234-0.078,0.234-0.26,0.572-0.26c0.208,0,1.43,0.962,1.43,1.144c0,0.91-1.17,1.404-1.95,1.404c-0.416,0-0.936-0.234-1.326-0.416
		l-0.104-0.026c-1.196-0.676-1.248-2.444-1.248-3.667c0-1.82,0-3.796-0.234-5.72c-0.104-0.026-0.234-0.026-0.338-0.026
		c-0.156,0-0.312,0.026-0.468,0.026c-0.312,0-0.468-0.729-0.468-1.353c0-1.144,0.624-0.832,1.144-0.832
		c0-0.624-0.026-1.196-0.026-1.794c0-1.118,0.728-1.04,1.43-1.04c0.234,0,0.468,0.026,0.988,0.312
		C155.529,18.593,155.581,19.451,155.633,20.31z"/>
</g>
<g>
	<path d="M177.978,205.821c-0.156,0.077-0.416,0.233-0.624,0.233c-0.026,0-0.052,0-0.078-0.025
		c-0.156,0.025-0.338,0.052-0.494,0.052c-0.234,0-0.442,0-0.624-0.078l-0.624-0.104h0.026c-0.208-0.025-0.338-0.129-0.52-0.233
		c-2.002-0.962-2.262-2.86-2.262-5.513c0-2.132,0.598-5.85,3.354-5.85c0.338,0,0.702,0.025,1.04,0.156h-0.026
		c2.574,1.014,2.964,4.316,2.964,6.734c0,0.598-0.416,3.848-2.158,4.628H177.978z M174.936,200.439
		c0.234,1.248-0.234,3.535,1.638,3.535c1.144,0,0.858-2.703,0.858-3.666c0-1.248-0.078-3.822-1.04-3.822
		c-1.014,0-1.482,2.809-1.482,3.614C174.91,200.205,174.91,200.335,174.936,200.439z"/>
	<path d="M184.79,194.328c0.39-0.155,0.78-0.26,1.196-0.26c1.196,0,2.132,0.78,2.314,1.924c0.494,2.185,0.494,4.551,0.494,6.683
		c0,0.364,0,0.754-0.052,1.118v-0.025c-0.026,0.676,0.026,1.352-0.104,2.027c-0.26,0.104-0.546,0.104-0.858,0.104
		c-0.624,0-1.222-0.051-1.222-0.857c0-1.482,0.208-3.016,0.208-4.524c0-0.962-0.078-1.872-0.182-2.808v0.025
		c-0.052-0.468-0.078-1.352-0.728-1.352c-0.468,0-0.858,0.598-1.144,0.91v-0.026c-0.442,0.624-0.39,7.462-0.546,8.866
		c-0.65-0.052-1.456,0.026-2.028-0.285c-0.078-0.416-0.104-0.832-0.104-1.248c0-3.459,0.312-6.865,0.416-10.297
		c0.338-0.416,1.092-0.598,1.612-0.598C184.425,193.705,184.685,193.965,184.79,194.328z"/>
	<path d="M197.815,202.753c0,1.95-1.768,3.328-3.64,3.328c-3.198,0-3.458-4.394-3.458-6.734c0-2.418,0.884-5.72,3.848-5.72
		c3.094,0,2.99,3.744,2.99,6.084c0,0.754-2.522,0.857-4.394,0.857v0.494c0,0.729,0.052,2.549,1.092,2.549
		c0.962,0,1.04-1.326,1.196-2.028C196.1,201.583,197.815,201.869,197.815,202.753z M193.239,198.099
		c0.26,0.052,0.52,0.052,0.78,0.052c0.494,0,0.936-0.052,1.404-0.13c0-0.468-0.26-2.028-0.91-2.028
		C193.551,195.992,193.317,197.371,193.239,198.099z"/>
	<path d="M207.228,206.055c-0.78,0-1.04-0.13-1.04-0.884c0-2.574-0.234-5.174-0.234-7.774c0-1.794,0.26-3.64,0.26-5.408
		c0-0.363-0.052-0.701-0.052-1.066c0-0.987,0.312-1.299,1.274-1.299c0.832,0,1.092,0.467,1.092,1.273
		c0,0.286-0.026,0.624-0.078,0.91v-0.026c-0.052,0.261-0.052,0.494-0.052,0.755v0.728c0,0.182,0,0.364-0.026,0.546
		c0.286-0.078,0.572-0.104,0.858-0.104c2.574,0,3.432,2.158,3.432,4.42c0,0.962-0.104,1.976-0.234,2.938
		c-0.286,1.898-0.156,4.524-3.328,4.524c-0.208,0-0.39-0.026-0.572-0.052C208.528,206.081,207.644,206.055,207.228,206.055z
		 M208.476,202.779v-0.026c0.156,0.312,0.494,0.416,0.806,0.416c1.222,0,1.04-4.16,1.04-5.98c0-0.676-0.26-1.3-1.04-1.3
		c-0.676,0-1.118,0.52-1.118,1.17C208.164,197.656,208.19,202.337,208.476,202.779z"/>
	<path d="M216.406,208.395c-0.312-0.207-0.442-0.312-0.546-0.701c0.104-0.208,0.182-0.416,0.286-0.572h-0.026l0.052-0.052
		l0.052-0.078c0.182-0.338,0.546-0.884,0.962-0.988l0.416,0.261h-0.026c0.182,0.129,0.364,0.285,0.598,0.285
		c0.494,0,0.65-0.52,0.729-0.91c-0.234,0.078-0.494,0.104-0.729,0.104c-3.25,0-3.458-4.29-3.458-7.15v-1.274
		c0-0.936-0.104-1.924-0.104-2.859c0-0.312,0.052-0.807,0.234-1.041c0.286,0.026,0.572,0.053,0.884,0.053
		c0.286,0,0.598-0.026,0.884-0.053c0.208,0.521,0.286,1.041,0.286,1.561c0,0.469-0.026,0.936-0.026,1.404
		c0,1.977,0.104,6.292,1.222,6.292c1.04,0,1.066-1.897,1.066-3.017c0-1.508-0.078-3.041-0.13-4.55v-0.104
		c0-0.104-0.026-0.234-0.026-0.339c0-0.077,0.026-0.207,0.026-0.285c-0.026-0.104-0.026-0.234-0.026-0.338
		c0-0.599,0.78-0.676,1.274-0.676c0.338,0,0.65,0.051,1.014,0.077c0.182,0.806,0.26,1.664,0.26,2.496
		c0,0.755-0.026,1.482-0.026,2.236c0,0.78,0.026,1.56,0.026,2.366c0,1.638,0.572,8.424-3.744,8.424
		c-0.312,0-1.196-0.416-1.456-0.598L216.406,208.395z"/>
	<path d="M227.247,194.095c0.65,0.052,1.274,0,1.898,0.155l-0.026,0.261c0.078,0.26,0.13,0.521,0.13,0.806
		c0,0.807-0.468,0.832-1.092,0.832h-0.962c-0.026,0.469-0.026,0.963-0.026,1.43c0,1.951-0.078,6.111,0.494,6.215
		c0.234-0.078,0.234-0.26,0.572-0.26c0.208,0,1.43,0.962,1.43,1.144c0,0.91-1.17,1.404-1.95,1.404c-0.416,0-0.937-0.233-1.326-0.416
		l-0.104-0.026c-1.196-0.676-1.248-2.443-1.248-3.666c0-1.82,0-3.796-0.234-5.72c-0.104-0.026-0.234-0.026-0.338-0.026
		c-0.156,0-0.312,0.026-0.468,0.026c-0.312,0-0.468-0.729-0.468-1.353c0-1.144,0.624-0.832,1.144-0.832
		c0-0.624-0.026-1.195-0.026-1.794c0-1.118,0.728-1.04,1.43-1.04c0.234,0,0.468,0.026,0.988,0.312
		C227.143,192.379,227.195,193.236,227.247,194.095z"/>
	<path d="M237.569,202.753c0,1.95-1.768,3.328-3.64,3.328c-3.198,0-3.458-4.394-3.458-6.734c0-2.418,0.884-5.72,3.848-5.72
		c3.094,0,2.99,3.744,2.99,6.084c0,0.754-2.522,0.857-4.394,0.857v0.494c0,0.729,0.052,2.549,1.092,2.549
		c0.962,0,1.04-1.326,1.196-2.028C235.854,201.583,237.569,201.869,237.569,202.753z M232.993,198.099
		c0.26,0.052,0.52,0.052,0.78,0.052c0.494,0,0.936-0.052,1.404-0.13c0-0.468-0.26-2.028-0.91-2.028
		C233.305,195.992,233.071,197.371,232.993,198.099z"/>
</g>
<polyline fill="none" stroke="#000000" stroke-width="4" stroke-miterlimit="10" points="400.445,156.506 400.445,169.259 
	9.69,169.259 9.69,156.506 "/>
<line fill="none" stroke="#000000" stroke-width="4" stroke-miterlimit="10" x1="205.317" y1="169.259" x2="205.317" y2="183.756"/>
</svg>
