<?xml version="1.0" encoding="utf-8"?>
<!-- Generator: Adobe Illustrator 16.0.4, SVG Export Plug-In . SVG Version: 6.00 Build 0)  -->
<!DOCTYPE svg PUBLIC "-//W3C//DTD SVG 1.1//EN" "http://www.w3.org/Graphics/SVG/1.1/DTD/svg11.dtd">
<svg version="1.1" id="Layer_1" xmlns="http://www.w3.org/2000/svg" xmlns:xlink="http://www.w3.org/1999/xlink" x="0px" y="0px"
	 width="67.25px" height="86px" viewBox="16.25 -3 67.25 86" enable-background="new 16.25 -3 67.25 86" xml:space="preserve">
<g>
	<path fill="none" d="M69.408,16.881l7.49,0.005L67.809,5.4v9.881C67.809,16.165,68.525,16.881,69.408,16.881z"/>
	<path fill="none" d="M67.488,18.801c-0.884,0-1.6-0.716-1.6-1.6V2.974V1.911h-43.38c-0.961,0-1.74,0.779-1.74,1.738v0v61.325V76.35
		c0,0.961,0.78,1.739,1.74,1.739h9.785h45.198c0.96,0,1.739-0.779,1.739-1.739V18.801h-0.816H67.488z M29.846,15.539
		c0-0.849,0.688-1.539,1.539-1.539h15.692c0.85,0,1.538,0.689,1.538,1.539V16c0,0.85-0.688,1.539-1.538,1.539H31.385
		c-0.85,0-1.539-0.689-1.539-1.539V15.539z M70.154,64.461c0,0.851-0.689,1.539-1.539,1.539h-37.23c-0.85,0-1.539-0.688-1.539-1.539
		V64c0-0.85,0.688-1.539,1.539-1.539h37.23c0.85,0,1.539,0.689,1.539,1.539V64.461z M70.154,54.77c0,0.85-0.689,1.538-1.539,1.538
		h-37.23c-0.85,0-1.539-0.688-1.539-1.538v-0.462c0-0.85,0.688-1.538,1.539-1.538h37.23c0.85,0,1.539,0.688,1.539,1.538V54.77z
		 M70.154,45.077c0,0.85-0.689,1.538-1.539,1.538h-37.23c-0.85,0-1.539-0.688-1.539-1.538v-0.462c0-0.85,0.688-1.538,1.539-1.538
		h37.23c0.85,0,1.539,0.688,1.539,1.538V45.077z M70.154,35.385c0,0.85-0.689,1.538-1.539,1.538h-37.23
		c-0.85,0-1.539-0.688-1.539-1.538v-0.462c0-0.849,0.688-1.538,1.539-1.538h37.23c0.85,0,1.539,0.689,1.539,1.538V35.385z
		 M70.154,25.692c0,0.85-0.689,1.539-1.539,1.539h-37.23c-0.85,0-1.539-0.689-1.539-1.539v-0.461c0-0.85,0.688-1.539,1.539-1.539
		h37.23c0.85,0,1.539,0.689,1.539,1.539V25.692z"/>
	<path d="M68.615,23.692h-37.23c-0.85,0-1.539,0.689-1.539,1.539v0.461c0,0.85,0.688,1.539,1.539,1.539h37.23
		c0.85,0,1.539-0.689,1.539-1.539v-0.461C70.154,24.381,69.465,23.692,68.615,23.692z"/>
	<path d="M31.385,17.539h15.692c0.85,0,1.538-0.689,1.538-1.539v-0.461c0-0.849-0.688-1.539-1.538-1.539H31.385
		c-0.85,0-1.539,0.689-1.539,1.539V16C29.846,16.85,30.535,17.539,31.385,17.539z"/>
	<path d="M68.615,33.385h-37.23c-0.85,0-1.539,0.689-1.539,1.538v0.462c0,0.85,0.688,1.538,1.539,1.538h37.23
		c0.85,0,1.539-0.688,1.539-1.538v-0.462C70.154,34.074,69.465,33.385,68.615,33.385z"/>
	<path d="M68.615,43.077h-37.23c-0.85,0-1.539,0.688-1.539,1.538v0.462c0,0.85,0.688,1.538,1.539,1.538h37.23
		c0.85,0,1.539-0.688,1.539-1.538v-0.462C70.154,43.766,69.465,43.077,68.615,43.077z"/>
	<path d="M68.615,52.77h-37.23c-0.85,0-1.539,0.688-1.539,1.538v0.462c0,0.85,0.688,1.538,1.539,1.538h37.23
		c0.85,0,1.539-0.688,1.539-1.538v-0.462C70.154,53.458,69.465,52.77,68.615,52.77z"/>
	<path d="M68.615,62.461h-37.23c-0.85,0-1.539,0.689-1.539,1.539v0.461c0,0.851,0.688,1.539,1.539,1.539h37.23
		c0.85,0,1.539-0.688,1.539-1.539V64C70.154,63.15,69.465,62.461,68.615,62.461z"/>
	<path d="M79.255,16.887l-0.024-0.029L67.809,2.426l-0.407-0.515L65.889,0H21.062c-1.012,0-1.831,0.817-1.831,1.826v0.001v64.402
		v11.945c0,1.009,0.82,1.826,1.831,1.826h10.3h47.575c1.012,0,1.832-0.817,1.832-1.826V18.801L79.255,16.887z M67.809,5.4
		l9.09,11.486l-7.49-0.005c-0.883,0-1.601-0.716-1.601-1.6L67.809,5.4L67.809,5.4z M79.23,76.35c0,0.961-0.779,1.739-1.738,1.739
		H32.294H22.51c-0.96,0-1.74-0.779-1.74-1.739V64.975V3.65v0c0-0.959,0.778-1.738,1.74-1.738h43.379v1.063v14.227
		c0,0.884,0.717,1.6,1.6,1.6h10.928h0.814V76.35z"/>
</g>
<text transform="matrix(1 0 0 1 19.2314 89.2314)" font-family="'HelveticaNeue-Bold'" font-size="3.0769">Created by Wilson Joseph</text>
<text transform="matrix(1 0 0 1 19.2314 92.3086)" font-family="'HelveticaNeue-Bold'" font-size="3.0769">from the Noun Project</text>
</svg>
