<?xml version="1.0" encoding="utf-8"?>
<!-- Generator: Adobe Illustrator 15.1.0, SVG Export Plug-In . SVG Version: 6.00 Build 0)  -->
<!DOCTYPE svg PUBLIC "-//W3C//DTD SVG 1.1//EN" "http://www.w3.org/Graphics/SVG/1.1/DTD/svg11.dtd">
<svg version="1.1" id="Layer_1" xmlns="http://www.w3.org/2000/svg" xmlns:xlink="http://www.w3.org/1999/xlink" x="0px" y="0px"
	 width="600px" height="178.813px" viewBox="0 0 600 178.813" enable-background="new 0 0 600 178.813" xml:space="preserve">
<rect x="6.5" y="50.618" fill="#FFFFFF" stroke="#000000" stroke-width="3" stroke-miterlimit="10" width="66" height="66"/>
<rect x="72.5" y="50.618" fill="#FFFFFF" stroke="#000000" stroke-width="3" stroke-miterlimit="10" width="65" height="66"/>
<rect x="136.5" y="50.618" fill="#FFFFFF" stroke="#000000" stroke-width="3" stroke-miterlimit="10" width="66" height="66"/>
<rect x="202.5" y="50.618" fill="#FFFFFF" stroke="#000000" stroke-width="3" stroke-miterlimit="10" width="65" height="66"/>
<rect x="267.5" y="50.618" fill="#FFFFFF" stroke="#000000" stroke-width="3" stroke-miterlimit="10" width="66" height="66"/>
<rect x="333.5" y="50.618" fill="#FFFFFF" stroke="#000000" stroke-width="3" stroke-miterlimit="10" width="65" height="66"/>
<rect x="397.5" y="50.618" fill="#FFFFFF" stroke="#000000" stroke-width="3" stroke-miterlimit="10" width="66" height="66"/>
<rect x="463.5" y="50.618" fill="#FFFFFF" stroke="#000000" stroke-width="3" stroke-miterlimit="10" width="65" height="66"/>
<rect x="528.5" y="50.618" fill="#FFFFFF" stroke="#000000" stroke-width="3" stroke-miterlimit="10" width="66" height="66"/>
<circle stroke="#FFFFFF" stroke-width="3" stroke-miterlimit="10" cx="105.5" cy="83.618" r="22.585"/>
<path stroke="#FFFFFF" stroke-width="3" stroke-miterlimit="10" d="M392.5,86.618c0,6.075-4.925,11-11,11h-163
	c-6.075,0-11-4.925-11-11v-6c0-6.075,4.925-11,11-11h163c6.075,0,11,4.925,11,11V86.618z"/>
<g>
	<path d="M160.579,132.531c-0.04,1.12-0.16,2.199-0.2,3.319c-0.16,2.2-0.08,4.439,0,6.639c0.12,3.04,0.8,6.679-0.72,9.479
		c-0.8,1.44-2.28,2.56-3.959,2.6c-0.96,0.04-4.279-0.24-3.159-1.76c0.36-0.48,0.8-0.88,1.2-1.36c0.52-0.6,1.2,0.2,1.68,0.48
		c0.8,0.44,1.479-0.32,1.879-0.92c0.56-0.76,0.68-1.68,0.52-2.64c0.04,0.32-1.72,0.44-1.919,0.48c-1.36,0.08-2.479-0.32-3.319-1.28
		c-1.68-1.799-1.84-4.479-1.84-6.719c0-1.68-0.2-3.399,0.08-4.999c0.2-1.4,0.52-2.959,1.439-4.12c0.72-0.88,1.8-1.479,3-1.56
		c0.64,0,1.2,0.16,1.8,0.4c0.36,0.16,0.84,0.6,1.28,0.52c0.2-0.36-0.36-1.04,0.2-1.24c0.56-0.24,1.24-0.04,1.839-0.08
		c0.32,0.32,0.2,0.64,0.2,1C160.579,131.331,160.579,131.931,160.579,132.531z M153.58,135.49c-0.36,1.76-0.56,3.599-0.4,5.399
		c0.04,1.24,0.12,2.6,0.64,3.799c0.52,1.12,2.04,1.959,3.119,1.12c0.88-0.72,0.76-2.08,0.8-3.079c0.08-1.8,0.2-3.64,0.2-5.479
		c-0.04-1.68,0.32-4.64-2.24-4.359C154.379,133.05,153.86,134.41,153.58,135.49z"/>
	<path d="M173.938,142.169v4.199c0,0.72,0.36,2.8-0.76,2.76c-0.52,0-1.16,0.44-1.6,0.28c-0.36-0.12-0.36-0.48-0.48-0.92
		c0,0-1.479,1.04-2.599,0.88c-0.96-0.16-1.96-0.68-2.56-1.4c-0.36-0.36-0.68-0.8-1-1.2c-0.36-0.44-0.48-1.16-0.64-1.68
		c-0.32-1.12-0.44-2.28-0.4-3.439c0.12-2.16,1-4.359,3.12-5.239c0.76-0.32,1.68-0.56,2.56-0.36c0.08,0,1.48,0.36,1.48,0.32
		c0.56-1.12,0.36-3-0.92-3.52c-1.68-0.68-1.44,1.56-2.16,2.319c-0.68,0.08-1.76,0.12-2.16-0.32c-0.72-2.719,2.479-5.799,5.199-5.079
		c1.64,0.4,2.439,1.68,2.759,3.319c0.36,1.68,0.56,3.68,0.2,5.319c0,0,0.04,0,0.04-0.04
		C174.138,139.649,173.938,140.929,173.938,142.169z M171.299,142.409c0-1.28-0.08-3.359-1.48-3.919c-0.76,0-1.399,0.2-1.839,0.479
		c0,0-0.04,0-0.04,0.04h-0.04l-0.04,0.08c0,0.04-0.04,0.04-0.08,0.08c0,0-0.04,0-0.08,0.04c-1.28,1.68-1.2,8.438,1.68,7.159
		C170.819,145.729,171.299,143.889,171.299,142.409z M167.939,139.009h-0.04l-0.04,0.08l-0.16,0.12c0.08-0.04,0.24-0.2,0.28-0.24
		C167.939,138.969,167.939,139.009,167.939,139.009z"/>
	<path d="M180.579,155.127c-0.8,0.04-1.879,0.08-2.64,0c-0.479-5.359-0.24-10.638-0.12-15.797c0-1.36,0.04-10.559,1.2-10.638
		c0.44-0.04,0.88,0,1.32,0c0.32,0,0.44,0.08,0.68,0.2c0.08,0.32,0.04,0.6,0.12,0.88c1.16-0.32,2.359-0.6,3.52-0.24
		c1,0.32,1.839,1.08,2.359,2c1.36,2.319,1.4,5.159,1.24,7.759c-0.08,1.439,0.08,2.799-0.2,4.199c-0.24,1.2-0.64,2.359-1.44,3.319
		c-0.96,1.2-2.439,2.12-4.079,2.04c-0.64-0.04-1.2-0.44-1.8-0.52C180.739,148.328,180.659,152.807,180.579,155.127z M185.578,135.61
		c-0.08-0.959-0.52-1.959-1.08-2.759c-0.56-0.88-1.48-0.88-2.359-0.4c-0.96,0.48-1.12,1.52-1.24,2.52
		c-0.32,2.28-0.2,4.599-0.28,6.839c0,0.92-0.08,2,0.28,2.799c0.64,0.72,1.68,1.6,3,1.12c0.8-0.6,1.28-1.68,1.48-3
		C185.738,140.409,185.738,137.93,185.578,135.61z"/>
</g>
<circle stroke="#FFFFFF" stroke-width="3" stroke-miterlimit="10" cx="495.5" cy="83.618" r="22.585"/>
<g>
	<path d="M422.578,132.531c-0.039,1.12-0.16,2.199-0.199,3.319c-0.16,2.2-0.08,4.439,0,6.639c0.119,3.04,0.799,6.679-0.721,9.479
		c-0.799,1.44-2.279,2.56-3.959,2.6c-0.96,0.04-4.279-0.24-3.159-1.76c0.36-0.48,0.8-0.88,1.2-1.36c0.52-0.6,1.199,0.2,1.68,0.48
		c0.799,0.44,1.479-0.32,1.879-0.92c0.561-0.76,0.68-1.68,0.52-2.64c0.041,0.32-1.719,0.44-1.919,0.48
		c-1.36,0.08-2.479-0.32-3.319-1.28c-1.68-1.799-1.84-4.479-1.84-6.719c0-1.68-0.2-3.399,0.08-4.999
		c0.199-1.4,0.52-2.959,1.439-4.12c0.721-0.88,1.8-1.479,3-1.56c0.64,0,1.199,0.16,1.799,0.4c0.36,0.16,0.84,0.6,1.28,0.52
		c0.2-0.36-0.36-1.04,0.2-1.24c0.56-0.24,1.24-0.04,1.84-0.08c0.32,0.32,0.199,0.64,0.199,1
		C422.578,131.331,422.578,131.931,422.578,132.531z M415.58,135.49c-0.36,1.76-0.561,3.599-0.4,5.399
		c0.04,1.24,0.12,2.6,0.641,3.799c0.52,1.12,2.039,1.959,3.119,1.12c0.879-0.72,0.76-2.08,0.799-3.079
		c0.08-1.8,0.201-3.64,0.201-5.479c-0.041-1.68,0.319-4.64-2.24-4.359C416.379,133.05,415.859,134.41,415.58,135.49z"/>
	<path d="M435.938,142.169v4.199c0,0.72,0.36,2.8-0.76,2.76c-0.521,0-1.16,0.44-1.601,0.28c-0.359-0.12-0.359-0.48-0.479-0.92
		c0,0-1.479,1.04-2.599,0.88c-0.961-0.16-1.961-0.68-2.561-1.4c-0.359-0.36-0.68-0.8-1-1.2c-0.359-0.44-0.479-1.16-0.64-1.68
		c-0.319-1.12-0.44-2.28-0.399-3.439c0.119-2.16,1-4.359,3.119-5.239c0.76-0.32,1.68-0.56,2.56-0.36c0.08,0,1.479,0.36,1.479,0.32
		c0.561-1.12,0.36-3-0.92-3.52c-1.68-0.68-1.439,1.56-2.159,2.319c-0.681,0.08-1.76,0.12-2.159-0.32
		c-0.721-2.719,2.479-5.799,5.199-5.079c1.639,0.4,2.439,1.68,2.759,3.319c0.36,1.68,0.56,3.68,0.2,5.319c0,0,0.04,0,0.04-0.04
		C436.139,139.649,435.938,140.929,435.938,142.169z M433.299,142.409c0-1.28-0.08-3.359-1.48-3.919c-0.76,0-1.398,0.2-1.839,0.479
		c0,0-0.04,0-0.04,0.04h-0.04l-0.04,0.08c0,0.04-0.04,0.04-0.08,0.08c0,0-0.04,0-0.08,0.04c-1.279,1.68-1.199,8.438,1.68,7.159
		C432.818,145.729,433.299,143.889,433.299,142.409z M429.939,139.009h-0.04l-0.04,0.08l-0.16,0.12c0.08-0.04,0.24-0.2,0.28-0.24
		C429.939,138.969,429.939,139.009,429.939,139.009z"/>
	<path d="M442.579,155.127c-0.8,0.04-1.88,0.08-2.64,0c-0.479-5.359-0.24-10.638-0.119-15.797c0-1.36,0.039-10.559,1.199-10.638
		c0.439-0.04,0.88,0,1.32,0c0.319,0,0.439,0.08,0.68,0.2c0.08,0.32,0.039,0.6,0.119,0.88c1.16-0.32,2.359-0.6,3.52-0.24
		c1,0.32,1.84,1.08,2.359,2c1.36,2.319,1.4,5.159,1.24,7.759c-0.08,1.439,0.08,2.799-0.199,4.199c-0.24,1.2-0.641,2.359-1.44,3.319
		c-0.96,1.2-2.439,2.12-4.079,2.04c-0.641-0.04-1.2-0.44-1.8-0.52C442.739,148.328,442.659,152.807,442.579,155.127z
		 M447.578,135.61c-0.08-0.959-0.52-1.959-1.08-2.759c-0.56-0.88-1.479-0.88-2.359-0.4c-0.959,0.48-1.119,1.52-1.24,2.52
		c-0.319,2.28-0.199,4.599-0.279,6.839c0,0.92-0.08,2,0.279,2.799c0.641,0.72,1.681,1.6,3,1.12c0.801-0.6,1.279-1.68,1.48-3
		C447.738,140.409,447.738,137.93,447.578,135.61z"/>
</g>
</svg>
