<?xml version="1.0" encoding="utf-8"?>
<!-- Generator: Adobe Illustrator 16.0.4, SVG Export Plug-In . SVG Version: 6.00 Build 0)  -->
<!DOCTYPE svg PUBLIC "-//W3C//DTD SVG 1.1//EN" "http://www.w3.org/Graphics/SVG/1.1/DTD/svg11.dtd">
<svg version="1.1" xmlns="http://www.w3.org/2000/svg" xmlns:xlink="http://www.w3.org/1999/xlink" x="0px" y="0px"
	 width="400.108px" height="180px" viewBox="0 0 400.108 180" enable-background="new 0 0 400.108 180" xml:space="preserve">
<g id="Layer_2">
	<g>
		<g>
			
				<line fill="none" stroke="#000000" stroke-width="2" stroke-miterlimit="10" x1="16.346" y1="159.208" x2="16.679" y2="158.265"/>
			
				<line fill="none" stroke="#000000" stroke-width="2" stroke-miterlimit="10" stroke-dasharray="2.0033,2.0033" x1="17.345" y1="156.376" x2="27.68" y2="127.096"/>
			
				<line fill="none" stroke="#000000" stroke-width="2" stroke-miterlimit="10" x1="28.013" y1="126.151" x2="28.346" y2="125.208"/>
		</g>
	</g>
	<g>
		<g>
			
				<line fill="none" stroke="#000000" stroke-width="2" stroke-miterlimit="10" x1="28.346" y1="125.208" x2="28.938" y2="124.402"/>
			
				<line fill="none" stroke="#000000" stroke-width="2" stroke-miterlimit="10" stroke-dasharray="1.9144,1.9144" x1="30.072" y1="122.86" x2="52.187" y2="92.785"/>
			<line fill="none" stroke="#000000" stroke-width="2" stroke-miterlimit="10" x1="52.753" y1="92.014" x2="53.346" y2="91.208"/>
		</g>
	</g>
	<g>
		<g>
			<line fill="none" stroke="#000000" stroke-width="2" stroke-miterlimit="10" x1="53.346" y1="91.208" x2="54.173" y2="90.646"/>
			
				<line fill="none" stroke="#000000" stroke-width="2" stroke-miterlimit="10" stroke-dasharray="2.016,2.016" x1="55.84" y1="89.512" x2="101.685" y2="58.337"/>
			
				<line fill="none" stroke="#000000" stroke-width="2" stroke-miterlimit="10" x1="102.519" y1="57.771" x2="103.346" y2="57.208"/>
		</g>
	</g>
	<g>
		<g>
			
				<line fill="none" stroke="#000000" stroke-width="2" stroke-miterlimit="10" x1="103.346" y1="57.208" x2="104.243" y2="56.766"/>
			
				<line fill="none" stroke="#000000" stroke-width="2" stroke-miterlimit="10" stroke-dasharray="2.0229,2.0229" x1="106.057" y1="55.871" x2="170.459" y2="24.098"/>
			<line fill="none" stroke="#000000" stroke-width="2" stroke-miterlimit="10" x1="171.366" y1="23.65" x2="172.263" y2="23.208"/>
		</g>
	</g>
	<g>
		<g>
			
				<line fill="none" stroke="#000000" stroke-width="2" stroke-miterlimit="10" x1="151.485" y1="91.208" x2="150.892" y2="92.014"/>
			
				<line fill="none" stroke="#000000" stroke-width="2" stroke-miterlimit="10" stroke-dasharray="1.9149,1.9149" x1="149.757" y1="93.556" x2="127.625" y2="123.631"/>
			
				<line fill="none" stroke="#000000" stroke-width="2" stroke-miterlimit="10" x1="127.058" y1="124.402" x2="126.465" y2="125.208"/>
		</g>
	</g>
	<g>
		<g>
			<line fill="none" stroke="#000000" stroke-width="2" stroke-miterlimit="10" x1="77.405" y1="125.208" x2="77.071" y2="126.15"/>
			
				<line fill="none" stroke="#000000" stroke-width="2" stroke-miterlimit="10" stroke-dasharray="2.0047,2.0047" x1="76.4" y1="128.04" x2="66.004" y2="157.321"/>
			
				<line fill="none" stroke="#000000" stroke-width="2" stroke-miterlimit="10" x1="65.669" y1="158.266" x2="65.334" y2="159.208"/>
		</g>
	</g>
	<g>
		<g>
			
				<line fill="none" stroke="#000000" stroke-width="2" stroke-miterlimit="10" x1="126.465" y1="125.208" x2="126.128" y2="126.15"/>
			
				<line fill="none" stroke="#000000" stroke-width="2" stroke-miterlimit="10" stroke-dasharray="2.006,2.006" x1="125.454" y1="128.039" x2="114.998" y2="157.321"/>
			
				<line fill="none" stroke="#000000" stroke-width="2" stroke-miterlimit="10" x1="114.66" y1="158.267" x2="114.324" y2="159.208"/>
		</g>
	</g>
	<g>
		<g>
			
				<line fill="none" stroke="#000000" stroke-width="2" stroke-miterlimit="10" x1="175.524" y1="125.208" x2="175.187" y2="126.149"/>
			
				<line fill="none" stroke="#000000" stroke-width="2" stroke-miterlimit="10" stroke-dasharray="2.0074,2.0074" x1="174.508" y1="128.039" x2="163.99" y2="157.322"/>
			
				<line fill="none" stroke="#000000" stroke-width="2" stroke-miterlimit="10" x1="163.65" y1="158.267" x2="163.312" y2="159.208"/>
		</g>
	</g>
	<g>
		<g>
			
				<line fill="none" stroke="#000000" stroke-width="2" stroke-miterlimit="10" x1="224.584" y1="125.208" x2="224.245" y2="126.148"/>
			
				<line fill="none" stroke="#000000" stroke-width="2" stroke-miterlimit="10" stroke-dasharray="2.0089,2.0089" x1="223.562" y1="128.038" x2="212.982" y2="157.323"/>
			
				<line fill="none" stroke="#000000" stroke-width="2" stroke-miterlimit="10" x1="212.641" y1="158.268" x2="212.301" y2="159.208"/>
		</g>
	</g>
	<g>
		<g>
			
				<line fill="none" stroke="#000000" stroke-width="2" stroke-miterlimit="10" x1="273.644" y1="125.208" x2="273.303" y2="126.148"/>
			
				<line fill="none" stroke="#000000" stroke-width="2" stroke-miterlimit="10" stroke-dasharray="2.0103,2.0103" x1="272.616" y1="128.037" x2="261.975" y2="157.323"/>
			
				<line fill="none" stroke="#000000" stroke-width="2" stroke-miterlimit="10" x1="261.631" y1="158.269" x2="261.29" y2="159.208"/>
		</g>
	</g>
	<g>
		<g>
			
				<line fill="none" stroke="#000000" stroke-width="2" stroke-miterlimit="10" x1="322.703" y1="125.208" x2="322.36" y2="126.147"/>
			
				<line fill="none" stroke="#000000" stroke-width="2" stroke-miterlimit="10" stroke-dasharray="2.0117,2.0117" x1="321.67" y1="128.037" x2="310.968" y2="157.324"/>
			
				<line fill="none" stroke="#000000" stroke-width="2" stroke-miterlimit="10" x1="310.622" y1="158.269" x2="310.279" y2="159.208"/>
		</g>
	</g>
	<g>
		<g>
			
				<line fill="none" stroke="#000000" stroke-width="2" stroke-miterlimit="10" x1="371.764" y1="125.208" x2="371.419" y2="126.146"/>
			
				<line fill="none" stroke="#000000" stroke-width="2" stroke-miterlimit="10" stroke-dasharray="2.0131,2.0131" x1="370.725" y1="128.036" x2="359.961" y2="157.324"/>
			
				<line fill="none" stroke="#000000" stroke-width="2" stroke-miterlimit="10" x1="359.613" y1="158.27" x2="359.269" y2="159.208"/>
		</g>
	</g>
	<g>
		<g>
			
				<line fill="none" stroke="#000000" stroke-width="2" stroke-miterlimit="10" x1="249.624" y1="91.208" x2="249.031" y2="92.013"/>
			
				<line fill="none" stroke="#000000" stroke-width="2" stroke-miterlimit="10" stroke-dasharray="1.9155,1.9155" x1="247.895" y1="93.556" x2="225.746" y2="123.632"/>
			
				<line fill="none" stroke="#000000" stroke-width="2" stroke-miterlimit="10" x1="225.177" y1="124.403" x2="224.584" y2="125.208"/>
		</g>
	</g>
	<g>
		<g>
			
				<line fill="none" stroke="#000000" stroke-width="2" stroke-miterlimit="10" x1="302.487" y1="57.208" x2="301.646" y2="57.749"/>
			
				<line fill="none" stroke="#000000" stroke-width="2" stroke-miterlimit="10" stroke-dasharray="1.963,1.963" x1="299.995" y1="58.811" x2="251.29" y2="90.136"/>
			
				<line fill="none" stroke="#000000" stroke-width="2" stroke-miterlimit="10" x1="250.464" y1="90.667" x2="249.624" y2="91.208"/>
		</g>
	</g>
	<g>
		<g>
			
				<line fill="none" stroke="#000000" stroke-width="2" stroke-miterlimit="10" x1="347.763" y1="91.208" x2="347.169" y2="92.013"/>
			
				<line fill="none" stroke="#000000" stroke-width="2" stroke-miterlimit="10" stroke-dasharray="1.9161,1.9161" x1="346.032" y1="93.555" x2="323.865" y2="123.632"/>
			
				<line fill="none" stroke="#000000" stroke-width="2" stroke-miterlimit="10" x1="323.297" y1="124.403" x2="322.703" y2="125.208"/>
		</g>
	</g>
</g>
<g id="Layer_3">
	
		<line fill="none" stroke="#000000" stroke-width="2" stroke-miterlimit="10" stroke-dasharray="6,2" x1="227.846" y1="23.208" x2="302.487" y2="57.208"/>
	
		<line fill="none" stroke="#000000" stroke-width="2" stroke-miterlimit="10" stroke-dasharray="6,2" x1="302.487" y1="57.208" x2="347.763" y2="91.208"/>
	
		<line fill="none" stroke="#000000" stroke-width="2" stroke-miterlimit="10" stroke-dasharray="6,2" x1="347.763" y1="91.208" x2="371.764" y2="125.208"/>
	
		<line fill="none" stroke="#000000" stroke-width="2" stroke-miterlimit="10" stroke-dasharray="6,2" x1="371.764" y1="125.208" x2="383.763" y2="159.208"/>
	
		<line fill="none" stroke="#000000" stroke-width="2" stroke-miterlimit="10" stroke-dasharray="6,2" x1="322.703" y1="125.208" x2="334.773" y2="159.208"/>
	
		<line fill="none" stroke="#000000" stroke-width="2" stroke-miterlimit="10" stroke-dasharray="6,2" x1="273.644" y1="125.208" x2="285.784" y2="159.208"/>
	
		<line fill="none" stroke="#000000" stroke-width="2" stroke-miterlimit="10" stroke-dasharray="6,2" x1="224.584" y1="126" x2="236.796" y2="159.208"/>
	
		<line fill="none" stroke="#000000" stroke-width="2" stroke-miterlimit="10" stroke-dasharray="6,2" x1="249.624" y1="90" x2="273.644" y2="125.208"/>
	
		<line fill="none" stroke="#000000" stroke-width="2" stroke-miterlimit="10" stroke-dasharray="6,2" x1="175.524" y1="125.208" x2="187.807" y2="159.208"/>
	
		<line fill="none" stroke="#000000" stroke-width="2" stroke-miterlimit="10" stroke-dasharray="6,2" x1="151.485" y1="90" x2="175.524" y2="125.208"/>
	
		<line fill="none" stroke="#000000" stroke-width="2" stroke-miterlimit="10" stroke-dasharray="6,2" x1="127" y1="125.208" x2="138.818" y2="159.208"/>
	
		<line fill="none" stroke="#000000" stroke-width="2" stroke-miterlimit="10" stroke-dasharray="6,2" x1="78.346" y1="126" x2="89.829" y2="159.208"/>
	
		<line fill="none" stroke="#000000" stroke-width="2" stroke-miterlimit="10" stroke-dasharray="6,2" x1="28.066" y1="126" x2="40.84" y2="159.208"/>
	
		<line fill="none" stroke="#000000" stroke-width="2" stroke-miterlimit="10" stroke-dasharray="6,2" x1="53.346" y1="91.5" x2="78.346" y2="126"/>
	
		<line fill="none" stroke="#000000" stroke-width="2" stroke-miterlimit="10" stroke-dasharray="6,2" x1="103.346" y1="57.208" x2="151.485" y2="90"/>
</g>
<g id="Layer_1">
	<circle fill="#FFFFFF" stroke="#000000" stroke-miterlimit="10" cx="334.774" cy="159.208" r="7.792"/>
	<circle fill="#FFFFFF" stroke="#000000" stroke-miterlimit="10" cx="359.269" cy="159.208" r="7.792"/>
	<circle fill="#FFFFFF" stroke="#000000" stroke-miterlimit="10" cx="310.279" cy="159.208" r="7.792"/>
	<circle fill="#FFFFFF" stroke="#000000" stroke-miterlimit="10" cx="285.784" cy="159.208" r="7.792"/>
	<circle fill="#FFFFFF" stroke="#000000" stroke-miterlimit="10" cx="261.29" cy="159.208" r="7.792"/>
	<circle fill="#FFFFFF" stroke="#000000" stroke-miterlimit="10" cx="236.796" cy="159.208" r="7.792"/>
	<circle fill="#FFFFFF" stroke="#000000" stroke-miterlimit="10" cx="212.301" cy="159.208" r="7.792"/>
	<circle fill="#FFFFFF" stroke="#000000" stroke-miterlimit="10" cx="187.807" cy="159.208" r="7.792"/>
	<circle fill="#FFFFFF" stroke="#000000" stroke-miterlimit="10" cx="163.312" cy="159.208" r="7.792"/>
	<circle fill="#FFFFFF" stroke="#000000" stroke-miterlimit="10" cx="138.818" cy="159.208" r="7.792"/>
	<circle fill="#FFFFFF" stroke="#000000" stroke-miterlimit="10" cx="114.324" cy="159.208" r="7.792"/>
	<circle fill="#FFFFFF" stroke="#000000" stroke-miterlimit="10" cx="89.829" cy="159.208" r="7.792"/>
	<circle fill="#FFFFFF" stroke="#000000" stroke-miterlimit="10" cx="65.334" cy="159.208" r="7.792"/>
	<circle fill="#FFFFFF" stroke="#000000" stroke-miterlimit="10" cx="383.763" cy="159.208" r="7.792"/>
	<g>
		<circle fill="#FFFFFF" stroke="#000000" stroke-miterlimit="10" cx="40.84" cy="159.208" r="7.792"/>
		<circle fill="#FFFFFF" stroke="#000000" stroke-miterlimit="10" cx="16.346" cy="159.208" r="7.792"/>
	</g>
	<circle fill="#FFFFFF" stroke="#000000" stroke-miterlimit="10" cx="371.763" cy="125.208" r="7.792"/>
	<circle fill="#FFFFFF" stroke="#000000" stroke-miterlimit="10" cx="322.704" cy="125.208" r="7.792"/>
	<circle fill="#FFFFFF" stroke="#000000" stroke-miterlimit="10" cx="273.644" cy="125.208" r="7.792"/>
	<circle fill="#FFFFFF" stroke="#000000" stroke-miterlimit="10" cx="224.584" cy="125.208" r="7.792"/>
	<circle fill="#FFFFFF" stroke="#000000" stroke-miterlimit="10" cx="175.524" cy="125.208" r="7.792"/>
	<circle fill="#FFFFFF" stroke="#000000" stroke-miterlimit="10" cx="126.465" cy="125.208" r="7.792"/>
	<circle fill="#FFFFFF" stroke="#000000" stroke-miterlimit="10" cx="77.405" cy="125.208" r="7.792"/>
	<circle fill="#FFFFFF" stroke="#000000" stroke-miterlimit="10" cx="28.346" cy="125.208" r="7.792"/>
	<circle fill="#FFFFFF" stroke="#000000" stroke-miterlimit="10" cx="347.763" cy="91.208" r="7.792"/>
	<circle fill="#FFFFFF" stroke="#000000" stroke-miterlimit="10" cx="249.624" cy="91.208" r="7.792"/>
	<circle fill="#FFFFFF" stroke="#000000" stroke-miterlimit="10" cx="151.485" cy="91.208" r="7.792"/>
	<circle fill="#FFFFFF" stroke="#000000" stroke-miterlimit="10" cx="53.346" cy="91.208" r="7.792"/>
	<circle fill="#FFFFFF" stroke="#000000" stroke-miterlimit="10" cx="299.763" cy="57.208" r="7.792"/>
	<circle fill="#FFFFFF" stroke="#000000" stroke-miterlimit="10" cx="103.346" cy="57.208" r="7.792"/>
	<path fill="#FFFFFF" stroke="#000000" stroke-miterlimit="10" d="M220.054,15.416h-40c-4.303,0-7.791,3.488-7.791,7.792
		S175.751,31,180.054,31h40c4.304,0,7.792-3.488,7.792-7.792S224.357,15.416,220.054,15.416z"/>
	<rect x="174.304" y="18.5" fill="none" width="51.5" height="19.5"/>
	<text transform="matrix(1 0 0 1 184.2324 27.02)" font-family="'MyriadPro-Regular'" font-size="12">START</text>
</g>
</svg>
