<?xml version="1.0" encoding="utf-8"?>
<!-- Generator: Adobe Illustrator 16.0.4, SVG Export Plug-In . SVG Version: 6.00 Build 0)  -->
<!DOCTYPE svg PUBLIC "-//W3C//DTD SVG 1.1//EN" "http://www.w3.org/Graphics/SVG/1.1/DTD/svg11.dtd">
<svg version="1.1" id="Layer_1" xmlns="http://www.w3.org/2000/svg" xmlns:xlink="http://www.w3.org/1999/xlink" x="0px" y="0px"
	 width="128px" height="19.834px" viewBox="0 0 128 19.834" enable-background="new 0 0 128 19.834" xml:space="preserve">
<g>
	<path d="M6.318,7.412H4.483v1.702h2.045v0.511H3.874V4.904h2.549v0.511h-1.94v1.492h1.835V7.412z"/>
	<path d="M8.627,4.904v4.721H8.018V4.904H8.627z"/>
	<path d="M11.288,5.423H9.852V4.904h3.495v0.519h-1.443v4.202h-0.616V5.423z"/>
	<path d="M14.444,8.883c0.273,0.168,0.672,0.308,1.093,0.308c0.623,0,0.987-0.329,0.987-0.806c0-0.441-0.252-0.693-0.89-0.938
		c-0.77-0.273-1.247-0.672-1.247-1.338c0-0.735,0.609-1.281,1.527-1.281c0.483,0,0.833,0.112,1.043,0.231L16.79,5.556
		c-0.154-0.084-0.469-0.224-0.896-0.224c-0.644,0-0.89,0.385-0.89,0.708c0,0.441,0.288,0.658,0.939,0.911
		c0.798,0.308,1.205,0.693,1.205,1.387c0,0.728-0.54,1.359-1.653,1.359c-0.456,0-0.953-0.133-1.205-0.301L14.444,8.883z"/>
	<path d="M19.442,8.14l-0.49,1.485h-0.63l1.604-4.721h0.735l1.611,4.721H21.62L21.116,8.14H19.442z M20.99,7.664l-0.462-1.359
		c-0.105-0.308-0.175-0.588-0.245-0.861h-0.014c-0.07,0.28-0.147,0.567-0.238,0.854l-0.462,1.366H20.99z"/>
	<path d="M23.663,9.625V4.904h0.666l1.513,2.389c0.35,0.553,0.624,1.05,0.848,1.534l0.014-0.007c-0.056-0.63-0.07-1.205-0.07-1.94
		V4.904h0.574v4.721h-0.616l-1.499-2.396c-0.329-0.525-0.644-1.064-0.882-1.576l-0.021,0.007c0.035,0.596,0.049,1.163,0.049,1.947
		v2.017H23.663z"/>
	<path d="M29.578,4.904v1.975h2.283V4.904h0.616v4.721h-0.616V7.412h-2.283v2.213h-0.609V4.904H29.578z"/>
	<path d="M34.842,4.904v2.794c0,1.058,0.469,1.506,1.1,1.506c0.7,0,1.148-0.462,1.148-1.506V4.904h0.617v2.752
		c0,1.45-0.764,2.045-1.786,2.045c-0.966,0-1.695-0.553-1.695-2.017V4.904H34.842z"/>
	<path d="M39.462,4.967c0.308-0.063,0.75-0.098,1.17-0.098c0.651,0,1.071,0.119,1.366,0.385c0.238,0.21,0.371,0.532,0.371,0.896
		c0,0.623-0.392,1.036-0.89,1.205v0.021c0.364,0.126,0.582,0.462,0.693,0.952c0.154,0.659,0.266,1.114,0.364,1.296h-0.63
		c-0.077-0.133-0.182-0.539-0.315-1.127c-0.14-0.651-0.393-0.896-0.946-0.917h-0.574v2.045h-0.609V4.967z M40.071,7.118h0.624
		c0.651,0,1.064-0.357,1.064-0.896c0-0.609-0.441-0.875-1.085-0.882c-0.294,0-0.504,0.028-0.603,0.056V7.118z"/>
	<path d="M43.928,4.967c0.371-0.056,0.812-0.098,1.296-0.098c0.875,0,1.499,0.203,1.912,0.588c0.42,0.385,0.665,0.932,0.665,1.695
		c0,0.77-0.238,1.4-0.679,1.835c-0.441,0.441-1.17,0.679-2.087,0.679c-0.434,0-0.798-0.021-1.106-0.056V4.967z M44.537,9.142
		c0.154,0.028,0.378,0.035,0.616,0.035c1.303,0,2.01-0.729,2.01-2.003c0.007-1.114-0.624-1.821-1.912-1.821
		c-0.315,0-0.553,0.028-0.714,0.063V9.142z"/>
	<path d="M53.268,7.552c-0.035-0.658-0.077-1.45-0.07-2.038h-0.021c-0.161,0.553-0.357,1.142-0.595,1.793l-0.833,2.291h-0.462
		l-0.763-2.249c-0.224-0.665-0.414-1.274-0.546-1.835h-0.014c-0.014,0.588-0.049,1.38-0.091,2.087l-0.126,2.024h-0.581l0.329-4.721
		h0.777l0.806,2.283c0.196,0.582,0.357,1.1,0.476,1.59h0.021c0.119-0.476,0.287-0.994,0.498-1.59l0.84-2.283h0.777l0.294,4.721
		h-0.595L53.268,7.552z"/>
	<path d="M56.388,9.625L55.19,4.904h0.645l0.56,2.389c0.14,0.588,0.266,1.176,0.35,1.632h0.014c0.077-0.469,0.224-1.03,0.385-1.639
		l0.63-2.381h0.637L58.986,7.3c0.133,0.56,0.259,1.121,0.33,1.618h0.014c0.098-0.518,0.231-1.043,0.378-1.632l0.623-2.381h0.624
		l-1.338,4.721h-0.637l-0.595-2.458c-0.147-0.602-0.245-1.064-0.308-1.541h-0.014c-0.084,0.469-0.189,0.931-0.364,1.541
		l-0.672,2.458H56.388z"/>
	<path d="M65.832,9.415c-0.272,0.098-0.812,0.259-1.449,0.259c-0.715,0-1.303-0.182-1.765-0.623
		c-0.406-0.392-0.659-1.022-0.659-1.758c0.007-1.408,0.974-2.438,2.557-2.438c0.546,0,0.974,0.119,1.177,0.217L65.545,5.57
		c-0.252-0.112-0.567-0.203-1.043-0.203c-1.149,0-1.898,0.714-1.898,1.898c0,1.198,0.721,1.905,1.821,1.905
		c0.398,0,0.672-0.056,0.812-0.126V7.636h-0.96v-0.49h1.555V9.415z"/>
	<path d="M68.498,9.625l-1.541-4.721h0.658l0.735,2.325c0.203,0.638,0.378,1.212,0.504,1.765h0.015
		c0.133-0.546,0.329-1.142,0.539-1.758l0.798-2.333h0.651L69.17,9.625H68.498z"/>
	<path d="M72.067,4.904h0.609v4.209h2.018v0.511h-2.627V4.904z"/>
	<path d="M76.071,4.904h2.542v0.511h-1.933v1.569h1.786v0.504h-1.786v2.136h-0.609V4.904z"/>
	<path d="M80.181,4.967c0.267-0.056,0.687-0.098,1.113-0.098c0.609,0,1.002,0.105,1.296,0.343c0.245,0.182,0.393,0.462,0.393,0.833
		c0,0.456-0.302,0.854-0.799,1.037v0.014c0.448,0.112,0.974,0.483,0.974,1.184c0,0.406-0.161,0.714-0.399,0.945
		c-0.329,0.302-0.861,0.441-1.632,0.441c-0.42,0-0.742-0.028-0.945-0.056V4.967z M80.79,6.9h0.554c0.644,0,1.022-0.336,1.022-0.792
		c0-0.553-0.421-0.77-1.037-0.77c-0.28,0-0.441,0.021-0.539,0.042V6.9z M80.79,9.163c0.119,0.021,0.294,0.028,0.512,0.028
		c0.63,0,1.211-0.231,1.211-0.917c0-0.645-0.553-0.911-1.219-0.911H80.79V9.163z"/>
	<path d="M84.674,4.904h0.609v2.276h0.021c0.126-0.182,0.252-0.35,0.371-0.504l1.442-1.772h0.757l-1.709,2.003l1.842,2.717h-0.722
		l-1.555-2.318l-0.448,0.519v1.8h-0.609V4.904z"/>
	<path d="M93.083,7.216c0,1.625-0.987,2.486-2.192,2.486c-1.246,0-2.122-0.967-2.122-2.396c0-1.499,0.932-2.479,2.192-2.479
		C92.25,4.828,93.083,5.815,93.083,7.216z M89.42,7.293c0,1.008,0.547,1.912,1.506,1.912c0.967,0,1.513-0.889,1.513-1.961
		c0-0.938-0.49-1.919-1.506-1.919C89.925,5.325,89.42,6.256,89.42,7.293z"/>
	<path d="M94.572,4.96c0.294-0.049,0.68-0.091,1.17-0.091c0.603,0,1.043,0.14,1.323,0.392c0.26,0.224,0.413,0.567,0.413,0.987
		c0,0.427-0.126,0.764-0.364,1.009c-0.321,0.343-0.847,0.518-1.442,0.518c-0.182,0-0.351-0.007-0.49-0.042v1.891h-0.609V4.96z
		 M95.182,7.237c0.133,0.035,0.301,0.049,0.504,0.049c0.735,0,1.184-0.357,1.184-1.008c0-0.624-0.44-0.925-1.113-0.925
		c-0.266,0-0.469,0.021-0.574,0.049V7.237z"/>
	<path d="M99.445,4.904h0.609v3.159c0,1.254-0.616,1.639-1.429,1.639c-0.225,0-0.498-0.049-0.651-0.112l0.091-0.497
		c0.126,0.049,0.308,0.091,0.511,0.091c0.547,0,0.869-0.245,0.869-1.169V4.904z"/>
	<path d="M104.353,9.625l-0.602-1.043c-0.245-0.399-0.399-0.659-0.547-0.932h-0.014c-0.133,0.273-0.267,0.525-0.512,0.938
		l-0.567,1.037h-0.7l1.443-2.388l-1.387-2.333h0.707l0.623,1.107c0.176,0.308,0.309,0.546,0.435,0.798h0.021
		c0.133-0.28,0.252-0.498,0.427-0.798l0.645-1.107h0.7l-1.436,2.297l1.471,2.423H104.353z"/>
	<path d="M109.561,9.471c-0.224,0.112-0.672,0.225-1.247,0.225c-1.33,0-2.332-0.841-2.332-2.389c0-1.478,1.002-2.479,2.466-2.479
		c0.588,0,0.959,0.126,1.12,0.21l-0.146,0.497c-0.231-0.112-0.561-0.196-0.953-0.196c-1.106,0-1.842,0.707-1.842,1.947
		c0,1.156,0.665,1.898,1.814,1.898c0.371,0,0.749-0.077,0.994-0.196L109.561,9.471z"/>
	<path d="M110.7,9.268l2.619-3.831V5.416h-2.395V4.904h3.187v0.372l-2.605,3.817v0.021h2.641v0.511H110.7V9.268z"/>
	<path d="M116.644,9.625V7.622l-1.492-2.718h0.693l0.666,1.303c0.182,0.357,0.321,0.645,0.469,0.974h0.014
		c0.134-0.308,0.295-0.616,0.477-0.974l0.68-1.303h0.693l-1.583,2.71v2.01H116.644z"/>
	<path d="M123.723,10.318c-0.638-0.168-1.261-0.357-1.808-0.546c-0.098-0.035-0.196-0.07-0.287-0.07
		c-1.12-0.042-2.08-0.869-2.08-2.388c0-1.513,0.925-2.486,2.199-2.486c1.282,0,2.115,0.994,2.115,2.388
		c0,1.211-0.561,1.989-1.345,2.262v0.028c0.47,0.119,0.98,0.231,1.38,0.301L123.723,10.318z M123.218,7.244
		c0-0.945-0.49-1.919-1.491-1.919c-1.03,0-1.534,0.953-1.527,1.975c-0.007,1.001,0.547,1.905,1.499,1.905
		C122.672,9.205,123.218,8.322,123.218,7.244z"/>
</g>
<g>
	<path d="M7,16.563c-0.096,0.049-0.289,0.097-0.535,0.097c-0.571,0-1.001-0.361-1.001-1.025c0-0.634,0.43-1.064,1.058-1.064
		c0.252,0,0.412,0.055,0.481,0.091L6.94,14.874C6.841,14.826,6.7,14.79,6.531,14.79c-0.475,0-0.791,0.304-0.791,0.836
		c0,0.496,0.286,0.814,0.778,0.814c0.16,0,0.322-0.033,0.427-0.084L7,16.563z"/>
	<path d="M8.599,15.891c0,0.538-0.373,0.772-0.725,0.772c-0.394,0-0.697-0.289-0.697-0.749c0-0.486,0.318-0.772,0.721-0.772
		C8.316,15.142,8.599,15.445,8.599,15.891z M7.445,15.905c0,0.318,0.183,0.56,0.442,0.56c0.252,0,0.442-0.237,0.442-0.565
		c0-0.246-0.124-0.56-0.436-0.56S7.445,15.629,7.445,15.905z"/>
	<path d="M8.929,15.568c0-0.149-0.003-0.273-0.012-0.394h0.231l0.012,0.234h0.009c0.081-0.138,0.216-0.268,0.457-0.268
		c0.198,0,0.349,0.12,0.412,0.292h0.006c0.045-0.081,0.103-0.145,0.163-0.189c0.087-0.066,0.183-0.103,0.322-0.103
		c0.192,0,0.478,0.127,0.478,0.632v0.856h-0.258v-0.823c0-0.28-0.102-0.448-0.315-0.448c-0.15,0-0.268,0.111-0.313,0.24
		c-0.012,0.036-0.021,0.084-0.021,0.133v0.898H9.84v-0.872c0-0.231-0.103-0.399-0.304-0.399c-0.166,0-0.286,0.132-0.328,0.265
		c-0.015,0.039-0.021,0.084-0.021,0.129v0.878H8.929V15.568z"/>
	<path d="M11.431,15.568c0-0.149-0.003-0.273-0.012-0.394h0.231l0.012,0.234h0.009c0.081-0.138,0.216-0.268,0.457-0.268
		c0.198,0,0.349,0.12,0.412,0.292h0.006c0.045-0.081,0.103-0.145,0.163-0.189c0.087-0.066,0.183-0.103,0.322-0.103
		c0.192,0,0.478,0.127,0.478,0.632v0.856H13.25v-0.823c0-0.28-0.102-0.448-0.315-0.448c-0.15,0-0.268,0.111-0.313,0.24
		c-0.012,0.036-0.021,0.084-0.021,0.133v0.898h-0.258v-0.872c0-0.231-0.103-0.399-0.304-0.399c-0.166,0-0.286,0.132-0.328,0.265
		c-0.015,0.039-0.021,0.084-0.021,0.129v0.878h-0.259V15.568z"/>
	<path d="M15.25,15.891c0,0.538-0.373,0.772-0.725,0.772c-0.394,0-0.697-0.289-0.697-0.749c0-0.486,0.318-0.772,0.721-0.772
		C14.967,15.142,15.25,15.445,15.25,15.891z M14.095,15.905c0,0.318,0.183,0.56,0.442,0.56c0.252,0,0.442-0.237,0.442-0.565
		c0-0.246-0.124-0.56-0.436-0.56S14.095,15.629,14.095,15.905z"/>
	<path d="M15.58,15.568c0-0.149-0.003-0.273-0.012-0.394h0.234l0.015,0.24h0.006c0.072-0.138,0.241-0.273,0.481-0.273
		c0.202,0,0.514,0.12,0.514,0.619v0.869h-0.265v-0.839c0-0.234-0.087-0.43-0.336-0.43c-0.175,0-0.31,0.123-0.355,0.271
		c-0.012,0.033-0.018,0.078-0.018,0.123v0.875H15.58V15.568z"/>
</g>
<g>
	<path d="M107.471,14.604v1.2c0,0.453,0.201,0.646,0.472,0.646c0.301,0,0.493-0.198,0.493-0.646v-1.2h0.264v1.182
		c0,0.622-0.327,0.878-0.766,0.878c-0.415,0-0.728-0.237-0.728-0.866v-1.193H107.471z"/>
	<path d="M109.141,15.568c0-0.149-0.003-0.273-0.012-0.394h0.234l0.016,0.24h0.006c0.072-0.138,0.24-0.273,0.48-0.273
		c0.201,0,0.514,0.12,0.514,0.619v0.869h-0.264v-0.839c0-0.234-0.088-0.43-0.337-0.43c-0.175,0-0.31,0.123-0.354,0.271
		c-0.013,0.033-0.019,0.078-0.019,0.123v0.875h-0.265V15.568z"/>
	<path d="M111.843,16.576c-0.069,0.036-0.222,0.084-0.417,0.084c-0.439,0-0.725-0.298-0.725-0.743c0-0.447,0.307-0.772,0.781-0.772
		c0.156,0,0.295,0.039,0.367,0.075l-0.061,0.205c-0.063-0.036-0.162-0.069-0.307-0.069c-0.334,0-0.514,0.246-0.514,0.55
		c0,0.337,0.216,0.544,0.504,0.544c0.15,0,0.25-0.039,0.325-0.072L111.843,16.576z"/>
	<path d="M113.448,15.891c0,0.538-0.373,0.772-0.725,0.772c-0.394,0-0.697-0.289-0.697-0.749c0-0.486,0.319-0.772,0.722-0.772
		C113.166,15.142,113.448,15.445,113.448,15.891z M112.294,15.905c0,0.318,0.183,0.56,0.442,0.56c0.252,0,0.441-0.237,0.441-0.565
		c0-0.246-0.123-0.56-0.436-0.56S112.294,15.629,112.294,15.905z"/>
	<path d="M113.778,15.568c0-0.149-0.003-0.273-0.012-0.394h0.231l0.012,0.234h0.01c0.08-0.138,0.216-0.268,0.457-0.268
		c0.197,0,0.348,0.12,0.411,0.292h0.006c0.046-0.081,0.103-0.145,0.163-0.189c0.086-0.066,0.183-0.103,0.321-0.103
		c0.192,0,0.478,0.127,0.478,0.632v0.856h-0.258v-0.823c0-0.28-0.103-0.448-0.316-0.448c-0.15,0-0.268,0.111-0.312,0.24
		c-0.012,0.036-0.021,0.084-0.021,0.133v0.898h-0.258v-0.872c0-0.231-0.103-0.399-0.304-0.399c-0.165,0-0.286,0.132-0.327,0.265
		c-0.016,0.039-0.021,0.084-0.021,0.129v0.878h-0.259V15.568z"/>
	<path d="M116.28,15.568c0-0.149-0.003-0.273-0.012-0.394h0.231l0.012,0.234h0.01c0.08-0.138,0.216-0.268,0.457-0.268
		c0.197,0,0.348,0.12,0.411,0.292h0.006c0.046-0.081,0.103-0.145,0.163-0.189c0.086-0.066,0.183-0.103,0.321-0.103
		c0.192,0,0.478,0.127,0.478,0.632v0.856H118.1v-0.823c0-0.28-0.103-0.448-0.316-0.448c-0.15,0-0.268,0.111-0.312,0.24
		c-0.012,0.036-0.021,0.084-0.021,0.133v0.898h-0.258v-0.872c0-0.231-0.103-0.399-0.304-0.399c-0.165,0-0.286,0.132-0.327,0.265
		c-0.016,0.039-0.021,0.084-0.021,0.129v0.878h-0.259V15.568z"/>
	<path d="M120.1,15.891c0,0.538-0.373,0.772-0.725,0.772c-0.395,0-0.697-0.289-0.697-0.749c0-0.486,0.318-0.772,0.721-0.772
		C119.816,15.142,120.1,15.445,120.1,15.891z M118.945,15.905c0,0.318,0.183,0.56,0.441,0.56c0.252,0,0.441-0.237,0.441-0.565
		c0-0.246-0.123-0.56-0.436-0.56S118.945,15.629,118.945,15.905z"/>
	<path d="M120.43,15.568c0-0.149-0.004-0.273-0.012-0.394h0.234l0.015,0.24h0.006c0.072-0.138,0.241-0.273,0.481-0.273
		c0.201,0,0.514,0.12,0.514,0.619v0.869h-0.265v-0.839c0-0.234-0.087-0.43-0.337-0.43c-0.174,0-0.31,0.123-0.354,0.271
		c-0.013,0.033-0.019,0.078-0.019,0.123v0.875h-0.264V15.568z"/>
</g>
<line fill="none" stroke="#000000" stroke-width="0.5" stroke-miterlimit="10" x1="123.875" y1="12.688" x2="3.356" y2="12.688"/>
<polyline fill="none" stroke="#000000" stroke-width="0.5" stroke-miterlimit="10" points="4.688,14.021 3.356,12.688 4.896,11.146 
	"/>
<polyline fill="none" stroke="#000000" stroke-width="0.5" stroke-miterlimit="10" points="122.563,14.021 123.896,12.688 
	122.355,11.146 "/>
</svg>
