<?xml version="1.0" encoding="utf-8"?>
<!-- Generator: Adobe Illustrator 15.1.0, SVG Export Plug-In . SVG Version: 6.00 Build 0)  -->
<!DOCTYPE svg PUBLIC "-//W3C//DTD SVG 1.1//EN" "http://www.w3.org/Graphics/SVG/1.1/DTD/svg11.dtd">
<svg version="1.1" id="Layer_1" xmlns="http://www.w3.org/2000/svg" xmlns:xlink="http://www.w3.org/1999/xlink" x="0px" y="0px"
	 width="1243px" height="713px" viewBox="0 0 1243 713" enable-background="new 0 0 1243 713" xml:space="preserve">
<path fill="#00A3E3" stroke="#00A3E3" stroke-width="0.5" d="M184,238l3-0.5l1-0.3l1-0.2l2.2,0.5c1.533,0.333,4.466,4.833,8.8,13.5
	c4.333,8.667,10.333,19.333,18,32c7.666,12.667,12,19.667,13,21s1.666,2.333,2,3l0.5,1l0.3,0.2l0.2,0.3l0.2,0.3l0.3,0.2l0.5,1l0.5,1
	h0.3h0.2l0.2,1.5l0.3,1.5l9,18c6,12,11.333,24.667,16,38c4.666,13.334,7.5,23,8.5,29s1.333,12.834,1,20.5
	c-0.334,7.667-1.4,14.1-3.2,19.3c-1.867,5.134-6.2,11.467-13,19c-6.867,7.467-10.8,12.367-11.8,14.7s-1.601,4.167-1.8,5.5l-0.2,2
	l-1.5-0.2l-1.5-0.3l-0.2-0.3c-0.2-0.134-0.4-0.267-0.6-0.4c-0.134-0.2-2.534-1.633-7.2-4.3c-4.667-2.667-10-4.566-16-5.7l-9-1.8
	l-0.5-0.2c-0.334-0.2-4.5-0.3-12.5-0.3s-16.834,0.5-26.5,1.5c-9.667,1-22.167,1.934-37.5,2.8c-15.334,0.8-24-2.3-26-9.3L99,451
	l-0.2-4c-0.2-2.667-0.3-7.333-0.3-14s1.5-23.166,4.5-49.5s6-46.833,9-61.5s6.333-26.333,10-35c3.666-8.667,7.333-15.333,11-20
	c3.666-4.667,8.399-9.167,14.2-13.5l8.8-6.5l12.5-4.2C176.833,239.934,182,238.333,184,238z"/>
<path fill="#F57C26" stroke="#F57C26" stroke-width="0.5" d="M1038,172.2V172l17.8,25c11.8,16.667,20.033,32.333,24.7,47
	c4.666,14.667,7.166,22.667,7.5,24l0.5,2l0.5,1.5l0.5,1.5l0.3,1l0.2,1l16.199,54.5c10.867,36.334,16.134,57.334,15.801,63
	c-0.334,5.666-1.4,9.233-3.2,10.7c-1.867,1.533-8.634,4.134-20.3,7.8c-11.667,3.666-19.334,6.666-23,9
	c-3.667,2.333-5.567,3.6-5.7,3.8l-0.3,0.2l-0.301,0.2l-0.199,0.3l-0.2,0.3l-0.3,0.2l-0.301,0.2l-0.199,0.3l-0.2,0.3l-0.3,0.2
	l-0.301,0.2l-0.199,0.3l-0.2,0.3l-0.3,0.2l-0.301,0.2l-0.199,0.3l-0.2,0.3l-0.3,0.2l-0.5-5.5c-0.334-3.666-1.5-7.666-3.5-12
	s-4.667-7.666-8-10l-5-3.5l-0.301-0.2l-0.199-0.3l-1.5-0.3l-1.5-0.2l-0.2-0.5c-0.2-0.334-0.4-0.5-0.601-0.5H1044l-1-0.2
	c-0.667-0.2-1.5-0.466-2.5-0.8s-8-0.5-21-0.5S995,394.666,985,397s-18.834,5.267-26.5,8.8L947,411l-0.2-0.5l-0.3-0.5l-0.301-0.2
	L946,409.5l-1-0.5l-1-0.5l-1.5-0.5c-1-0.334-1.834-0.666-2.5-1c-0.667-0.334-5-1.066-13-2.2c-8-1.2-12.268-2.466-12.801-3.8
	c-0.467-1.334-0.866-5.166-1.199-11.5c-0.334-6.334-0.167-11.834,0.5-16.5c0.666-4.666,3.333-15.334,8-32
	c4.666-16.667,8.767-32,12.3-46l5.2-21h0.199h0.301l6-20.5c4-13.667,6.833-22.167,8.5-25.5c1.666-3.333,2.6-5,2.8-5h0.2v0.2v0.3h1h1
	l0.199-0.3l0.301-0.2l0.3-0.2l0.2-0.3l0.199-0.3l0.301-0.2l0.3-0.2l0.2-0.3l0.199-0.3l0.301-0.2l0.3-0.2l0.2-0.3l0.199-0.3
	l0.301-0.2l0.3-0.2l0.2-0.3l0.199-0.3l0.301-0.2l0.3-0.2l0.2-0.3l19.5-15c13-10,23-17.167,30-21.5s12.833-7,17.5-8
	C1035.666,173,1038,172.4,1038,172.2z"/>
<path fill="#EC068A" stroke="#EC068A" stroke-width="0.5" d="M496.5,214.5V213l1,1.5c0.666,1,1.1,1.566,1.3,1.7l0.2,0.3l0.199,0.3
	l0.301,0.2l0.5,1l0.5,1l0.3,0.2l0.2,0.3l0.199,0.3l0.301,0.2l0.3,0.2l0.2,0.3l0.199,0.3l0.301,0.2l0.3,0.2l0.2,0.3l7.5,7
	c5,4.667,10.666,8.667,17,12c6.333,3.333,12,5.5,17,6.5s10.5,1.333,16.5,1s12.833-2,20.5-5c7.666-3,11.833-4.667,12.5-5l1-0.5
	l0.199-0.3l0.301-0.2l0.3-0.2l0.2-0.3l0.199-0.3l0.301-0.2l0.5,1.5l0.5,1.5l0.3,0.5l0.2,0.5l2.5,8.2
	c1.666,5.533,7.767,17.866,18.3,37C629.267,304.4,636,317,639,323s4.666,9.833,5,11.5l0.5,2.5l0.5,1l0.5,1l0.3,0.2l0.2,0.3l0.5,0.3
	l0.5,0.2l8.199,33.5c5.533,22.334,8.967,37.834,10.301,46.5c1.333,8.667,1.833,18.167,1.5,28.5c-0.334,10.333-1.4,16.434-3.2,18.3
	c-1.867,1.8-4.967,2.533-9.3,2.2c-4.334-0.333-8.101-1.066-11.301-2.2c-3.133-1.2-6.933-4.066-11.399-8.6
	c-4.533-4.467-8.634-7.533-12.3-9.2c-3.667-1.667-6.167-2.667-7.5-3l-2-0.5l-1-0.3l-1-0.2l-0.5-0.2l-0.5-0.3l-2-0.5
	c-1.334-0.333-5.167-1.167-11.5-2.5c-6.334-1.333-16.167-2-29.5-2c-13.334,0-22.667,0.9-28,2.7c-5.334,1.866-8,3.133-8,3.8
	s-0.667,1.4-2,2.2c-1.334,0.866-3.167,1.3-5.5,1.3c-2.334,0-6-0.233-11-0.7L502,448v-0.2v-0.3l-1-0.5l-1-0.5l-1-0.5l-1-0.5l-1-0.5
	l-1-0.5l-0.2-0.3c-0.2-0.134-1.467-1.2-3.8-3.2c-2.334-2-4.667-5.333-7-10c-2.334-4.667-3.667-12.834-4-24.5
	c-0.334-11.666,0.666-24.666,3-39c2.333-14.333,3.6-23.667,3.8-28l0.2-6.5l0.199-1c0.2-0.667,2.301-5.333,6.301-14s8-18.667,12-30
	s6-20,6-26s-0.9-10.267-2.7-12.8c-1.867-2.467-4.467-3.934-7.8-4.4l-5-0.8l0.199-2c0.2-1.333,0.301-5.333,0.301-12v-10l-0.5-2
	C496.666,216.667,496.5,215.5,496.5,214.5z"/>
<path fill="#202021" stroke="#202021" stroke-width="0.5" d="M195,45.2l1-0.2l0.5,1.5c0.333,1,0.767,1.667,1.3,2
	c0.467,0.333,0.533,0.833,0.2,1.5l-0.5,1l-0.3,0.2l-0.2,0.3l1,0.3c0.666,0.134,0.833,0.6,0.5,1.4c-0.334,0.866-0.5,1.4-0.5,1.6V55
	l-7.2,4c-4.867,2.667-8.3,5.333-10.3,8s-2.834,6-2.5,10c0.333,4,1.066,7.066,2.2,9.2c1.199,2.2,5.8,3.633,13.8,4.3
	s13.5,1.667,16.5,3s4.666,2.1,5,2.3L216,96v0.2c0,0.2,0.166,0.4,0.5,0.6L217,97v0.2c0,0.2,0.166,0.4,0.5,0.6L218,98l0.2,0.5
	c0.199,0.333,0.399,0.566,0.6,0.7l0.2,0.3l0.2,0.3l0.3,0.2l0.3,0.2l0.2,0.3l-2,0.3l-2,0.2l-0.2,2c-0.2,1.333-0.733,2.167-1.6,2.5
	L213,106l-1-0.2l-1-0.3l-0.2-0.3l-0.3-0.2l-0.3-0.2l-0.2-0.3l-1-0.5l-1-0.5l-1-0.5l-1-0.5h-1.5H203l0.2,0.3l0.3,0.2l0.3,0.2l0.2,0.3
	l0.2,0.3l0.3,0.2l0.3,0.2l0.2,0.3l0.2,0.3l0.3,0.2l0.3,0.2l0.2,0.3l0.2,0.3l0.3,0.2l0.3,0.2l0.2,0.3l0.2,0.3l0.3,0.2l0.3,0.2
	l0.2,0.3l1,0.3c0.666,0.134,2.933,3.367,6.8,9.7c3.8,6.333,6.7,13.167,8.7,20.5s2.833,15.167,2.5,23.5
	c-0.334,8.333-1.167,15.667-2.5,22c-1.334,6.333-4.101,12.434-8.3,18.3c-4.134,5.8-6.367,8.8-6.7,9L209,211l-0.2-0.5
	c-0.2-0.333-0.4-0.434-0.6-0.3l-0.2,0.3l-1.5,0.3L205,211l-0.2,1l-0.3,1l-0.3,0.2l-0.2,0.3l-1,0.3l-1,0.2l-0.2-1.5l-0.3-1.5
	l-0.5-2.5l-0.5-2.5l-0.5-1l-0.5-1l-0.3-1l-0.2-1l0.5-0.2c0.333-0.2,0.5-0.4,0.5-0.6V201v-0.2c0-0.2,1-1.466,3-3.8
	s3.933-5.733,5.8-10.2c1.8-4.533,2.866-11.3,3.2-20.3c0.333-9-0.5-16.333-2.5-22s-6.667-13.5-14-23.5
	c-7.334-10-12.434-15.733-15.3-17.2c-2.801-1.533-8.867-2.466-18.2-2.8c-9.334-0.333-17.5,0.5-24.5,2.5s-14.767,11.566-23.3,28.7
	c-8.467,17.2-12.7,31.966-12.7,44.3s1,21.167,3,26.5s4.899,9.934,8.7,13.8c3.866,3.8,8.3,6.7,13.3,8.7s11,3.167,18,3.5
	s12.166,0.167,15.5-0.5c3.333-0.667,6.333-1.767,9-3.3l4-2.2v0.2v0.3l0.2,0.3l0.3,0.2l0.3,0.2l0.2,0.3l1,0.5l1,0.5l0.2,0.3l0.3,0.2
	l0.5,1.5c0.333,1,0.399,1.566,0.2,1.7c-0.134,0.2,0.966,0.466,3.3,0.8l3.5,0.5l1.5,0.5l1.5,0.5l0.2,0.3l0.3,0.2l0.5,1l0.5,1l0.3,0.2
	l0.2,0.3l0.2,0.3l0.3,0.2l0.3,0.2l0.2,0.3l-0.2,0.3l-0.3,0.2l-0.3,0.5L189,237l-1,0.2l-1,0.3l-3,0.5c-2,0.333-7.167,1.934-15.5,4.8
	L156,247h-0.2c-0.2,0-0.4-0.5-0.6-1.5c-0.134-1-0.534-1.566-1.2-1.7c-0.667-0.2-1.334-0.866-2-2c-0.667-1.2-2.167-1.8-4.5-1.8H144
	l-4.5-0.2c-3-0.2-5.334-0.466-7-0.8c-1.667-0.333-5.334-1.667-11-4c-5.667-2.333-10.767-5.733-15.3-10.2
	c-4.467-4.533-8.034-9.966-10.7-16.3l-4-9.5l-0.5-2l-0.5-2l-0.5-1.5l-0.5-1.5l-0.5,1.5l-0.5,1.5l-0.5,1.5l-0.5,1.5l-0.5,1.5
	c-0.334,1-1.601,3.333-3.8,7c-2.134,3.667-3.7,5.767-4.7,6.3c-1,0.467-3.334,1.867-7,4.2c-3.667,2.333-8,3.667-13,4s-10-0.5-15-2.5
	s-9.233-4.767-12.7-8.3l-5.3-5.2l-0.3-0.2l-0.2-0.3l-0.2-0.3l-0.3-0.2l-0.3-0.2l-0.2-0.3l-0.2-0.3l-0.3-0.2l-0.3-0.2l-0.2-0.3
	l-0.2-0.3l-0.3-0.2l-0.3-1l-0.2-1l1,0.2l1,0.3l1.5,0.5l1.5,0.5h1h1l0.2-0.3l0.3-0.2l0.3-1l0.2-1l1-0.2l1-0.3l-0.2-0.3l-0.3-0.2
	l-0.3-0.2l-0.2-0.3l-0.2-0.3l-0.3-0.2l-0.3-0.2l-0.2-0.3l0.2-0.3l0.3-0.2l0.3-0.2l0.2-0.3v-0.3V195h0.2h0.3l0.5,1l0.5,1l0.5,1
	c0.333,0.667,1.267,1.733,2.8,3.2c1.467,1.533,4.2,3.466,8.2,5.8s8.166,3.5,12.5,3.5c4.333,0,8-1.167,11-3.5s5.566-5.4,7.7-9.2
	C77.4,193.934,79.333,184,81,168c1.666-16,3.333-26.667,5-32c1.666-5.333,4.399-10.6,8.2-15.8c3.866-5.134,8.466-9.7,13.8-13.7
	c5.333-4,8.399-6.767,9.2-8.3l1.3-2.2v-3v-3l-0.5-1l-0.5-1l-0.3-0.2l-0.2-0.3l-0.2-0.3l-0.3-0.2l-0.3-0.2l-0.2-0.3l-1-0.5
	c-0.667-0.333-3.5-1-8.5-2s-9.834-0.733-14.5,0.8L85,87v-0.2v-0.3L84,86l-1-0.5l-0.2-0.3L82.5,85l-0.3,0.2L82,85.5l-0.2,0.3L81.5,86
	l-0.3-2L81,82h-1h-1l0.2-1l0.3-1v-0.5V79h-0.3H79v-0.2v-0.3l1-0.5l1-0.5l1-0.5l1-0.5l6-2c4-1.333,8.833-1.833,14.5-1.5
	c5.666,0.333,10.5,1.5,14.5,3.5s6.733,4.233,8.2,6.7c1.533,2.533,2.399,4.966,2.6,7.3L129,94l11.5-2.2c7.666-1.533,14-2.3,19-2.3
	h7.5l1,0.3l1,0.2l-1.2-8.5c-0.867-5.667-0.3-10.833,1.7-15.5s4.899-8.6,8.7-11.8c3.866-3.134,7.466-5.367,10.8-6.7
	C192.333,46.167,194.333,45.4,195,45.2z"/>
<path fill="#222121" stroke="#222121" stroke-width="0.5" d="M1041.5,48.5h3.5l0.199,0.3l0.301,0.2l1.699,8
	c1.2,5.333,5.467,8.267,12.801,8.8c7.333,0.467,11.267,0.934,11.8,1.4c0.467,0.533,0.7,2.466,0.7,5.8s-0.101,5.667-0.301,7L1072,82
	l6.199,1c4.2,0.667,6.967,1.667,8.301,3c1.333,1.333,2,3.5,2,6.5s-0.101,5-0.301,6c-0.133,1,1.634,2.167,5.301,3.5
	c3.666,1.333,5.833,4.4,6.5,9.2c0.666,4.866,2.333,7.966,5,9.3c2.666,1.333,4.399,2.566,5.199,3.7c0.867,1.2,1.067,4.133,0.601,8.8
	c-0.533,4.667,1.033,7.733,4.7,9.2c3.666,1.533,5.899,2.866,6.699,4c0.867,1.2,1.467,2.3,1.801,3.3l0.5,1.5v4v4l-0.301,0.2
	l-0.199,0.3l-0.2,0.3l-0.3,0.2l-0.301,0.2l-0.199,0.3h-2.5h-2.5l-1-0.3l-1-0.2l-0.2-1c-0.2-0.667-0.634-2-1.3-4
	c-0.667-2-1.768-3.267-3.301-3.8c-1.467-0.467-3.467-1.467-6-3c-2.467-1.467-3.933-5.034-4.399-10.7
	c-0.533-5.667-1.134-8.566-1.8-8.7c-0.667-0.2-2.067-1.066-4.2-2.6c-2.2-1.467-3.533-4.367-4-8.7c-0.533-4.333-1.8-6.767-3.8-7.3
	c-2-0.467-3.934-1.467-5.801-3c-1.8-1.467-2.699-4.2-2.699-8.2s-1.567-6.267-4.7-6.8c-3.2-0.467-5.867-1.467-8-3
	c-2.2-1.467-3.4-4.034-3.601-7.7L1062,76l-7,0.2l-7,0.3l0.199,0.3l0.301,0.2l0.5,1l0.5,1l0.3,0.2l0.2,0.3l0.199,0.3l0.301,0.2l4,8.5
	c2.666,5.667,4.1,9.167,4.3,10.5c0.133,1.333,1.7,2.6,4.7,3.8c3,1.134,6,4.034,9,8.7s5.1,7.566,6.3,8.7c1.133,1.2,1.7,2.633,1.7,4.3
	s-0.167,3.833-0.5,6.5l-0.5,4l-0.5,1.5l-0.5,1.5l-0.301,1l-0.199,1l-1,0.2l-1,0.3h-1.5h-1.5l-1-0.5l-1-0.5l-0.2-0.3l-0.3-0.2
	l-0.301-0.2l-0.199-0.3l-0.2-0.3l-0.3-0.2v-3.5c0-2.333,0-4.167,0-5.5s-0.334-2.333-1-3l-1-1l-0.5-1l-0.5-1l-0.5-1l-0.5-1l-0.301-1
	l-0.199-1l-1-0.2l-1-0.3l-0.2-0.3l-0.3-0.2l-0.301,0.2l-0.199,0.3l-0.2,0.3l-0.3,0.2l-0.5,3.5c-0.334,2.333-1,5.333-2,9
	s-2.733,7.767-5.2,12.3l-3.8,6.7l0.199,0.3l0.301,0.2l7.3,5.2c4.8,3.533,8.6,7.2,11.399,11c2.867,3.866,5.533,7.066,8,9.6
	c2.533,2.467,7.733,6.8,15.601,13c7.8,6.134,18.6,15.8,32.399,29c13.867,13.134,23.467,21.034,28.801,23.7
	c5.333,2.667,16.333,7.167,33,13.5c16.666,6.333,28,9.5,34,9.5s10.399,1.1,13.199,3.3c2.867,2.134,4.967,4.867,6.301,8.2
	c1.333,3.333,2.1,5,2.3,5h0.2v3.5v3.5h-0.2h-0.3l-0.5,2.5l-0.5,2.5l-0.5,1l-0.5,1l-0.5,1c-0.334,0.667-0.834,1.5-1.5,2.5
	c-0.667,1-2.567,2.566-5.7,4.7c-3.2,2.2-8.134,3.3-14.8,3.3c-6.667,0-10.934-0.9-12.801-2.7c-1.8-1.866-2.866-4.3-3.199-7.3
	c-0.334-3,0.066-7.833,1.199-14.5c1.2-6.667,0.967-10.267-0.699-10.8c-1.667-0.467-9.834-3.367-24.5-8.7
	c-14.667-5.333-24.667-9.5-30-12.5c-5.334-3-12.167-8.333-20.5-16c-8.334-7.667-17.768-16.267-28.301-25.8
	c-10.467-9.467-17.133-14.8-20-16l-4.199-1.7l-0.2-0.3l-0.3-0.2l-0.301-0.2l-0.199-0.3l-1.5-0.5l-1.5-0.5l-0.2-0.3l-0.3-0.2l-0.5,1
	l-0.5,1l-0.301-0.2l-0.199-0.3l-0.2-0.3l-0.3-0.2v2.5v2.5l0.5,1l0.5,1l7,11c4.666,7.333,9.333,18.667,14,34
	c4.666,15.333,7.1,23.667,7.3,25l0.2,2l-0.5,0.2l-0.5,0.3l-0.2,0.3l-0.3,0.2l-0.301,0.2l-0.199,0.3l-0.2,0.3l-0.3,0.2l-0.301,0.2
	l-0.199,0.3l-0.2,0.3l-0.3,0.2l-0.301,0.2l-0.199,0.3l-0.2,0.3l-0.3,0.2l-0.301,0.2l-0.199,0.3l-0.2,0.3l-0.3,0.2l-0.5,1l-0.5,1
	l-0.301-0.2l-0.199-0.3l-0.2-0.3l-0.3-0.2h-0.301H1090l-0.2-1l-0.3-1l-0.5-1.5l-0.5-1.5l-0.5-2c-0.334-1.333-2.834-9.333-7.5-24
	c-4.667-14.667-12.9-30.333-24.7-47l-17.8-25l-0.2-1c-0.2-0.667-0.533-1.833-1-3.5l-0.8-2.5l-1,0.2c-0.667,0.2-1.5,0.633-2.5,1.3
	s-4.667,2.167-11,4.5c-6.334,2.333-14,3.6-23,3.8c-9,0.134-13.567,1.367-13.7,3.7c-0.2,2.333-0.733,4.333-1.601,6
	c-0.8,1.667-1.699,2.767-2.699,3.3c-1,0.467-4.567,5.267-10.7,14.4l-9.3,13.8l-0.5,1l-0.5,1l-0.301,0.2L959,218.5l-0.2,0.3l-0.3,0.2
	l-0.5,1l-0.5,1l-0.301,1L957,223h-0.2c-0.2,0-1.134,1.667-2.8,5c-1.667,3.333-4.5,11.833-8.5,25.5l-6,20.5h-0.301H939l-0.5-0.2
	l-0.5-0.3l-0.2-0.3l-0.3-0.2l-0.301-0.2L937,272.5l-0.2-0.3l-0.3-0.2l-0.301-0.2L936,271.5l-0.2-0.3l-0.3-0.2l-0.5-1l-0.5-1
	l-0.301,0.2L934,269.5l-0.2,0.3l-0.3,0.2l-0.301,0.2L933,270.5l-0.2,0.3l-0.3,0.2l-0.301-0.2L932,270.5l-0.2-0.3l-0.3-0.2
	l-0.301,0.2L931,270.5l-0.2,0.3l-0.3,0.2h-0.301H930l0.199-1.5l0.301-1.5l6-20c4-13.333,8.232-24.066,12.699-32.2
	c4.533-8.2,6.867-12.4,7-12.6l0.301-0.2l0.5-1l0.5-1l0.5-1l0.5-1l0.3-0.2l0.2-0.3l0.199-0.3l0.301-0.2l0.5-1l0.5-1l0.3-0.2l0.2-0.3
	h-1h-1l-1,0.5l-1,0.5l-0.2,0.3l-0.3,0.2l-0.5,1l-0.5,1l-0.301,0.2L955,199.5l-0.2,0.3l-0.3,0.2l-0.301,0.2L954,200.5l-0.2,0.3
	l-0.3,0.2l-0.5,1c-0.334,0.667-3.834,6.833-10.5,18.5l-10,17.5l-0.5,1l-0.5,1h-0.301H931l-0.2-0.5l-0.3-0.5l-0.301-0.2L930,238.5h-1
	h-1l-0.2,0.3l-0.3,0.2l-0.301,0.2L927,239.5l-0.2,0.3l-0.3,0.2l-0.5-1l-0.5-1l-0.301,0.2L925,238.5h-1h-1l-0.2-0.3l-0.3-0.2
	l-0.301-0.2L922,237.5v-0.3V237l0.199-1l0.301-1l0.5-1l0.5-1l12.699-21.8C944.733,196.733,951,188.5,955,186.5s6.833-3.167,8.5-3.5
	c1.666-0.333,3.166-0.6,4.5-0.8l2-0.2l0.199-1l0.301-1l0.5-1l0.5-1l0.3-2l0.2-2l-3.5-0.2c-2.334-0.2-4.167-0.466-5.5-0.8l-2-0.5
	v-0.3V172h2c1.333,0,1.933-0.5,1.8-1.5l-0.3-1.5l-0.301-1L964,167h-1h-1v-1v-1h2c1.333,0,2-0.333,2-1v-1l7.5,1.2
	c5,0.866,12.833,0.966,23.5,0.3c10.666-0.667,19-2.5,25-5.5s10.933-6.4,14.8-10.2c3.8-3.866,6.866-8.3,9.2-13.3
	c2.333-5,3.5-11.5,3.5-19.5s-1.5-15.333-4.5-22s-6.733-12.4-11.2-17.2c-4.533-4.866-6.867-7.4-7-7.6l-0.3-0.2h-0.301H1026l-0.5-0.2
	l-0.5-0.3v-0.3V68l2.5-1c1.666-0.667,2.433-1.333,2.3-2l-0.3-1l-0.301-0.2L1029,63.5l-0.2-0.3l-0.3-0.2v-1v-1l0.3-1l0.2-1h1h1
	l-0.2-1l-0.3-1l-0.301-1L1030,55h0.199c0.2,0,0.4-0.167,0.601-0.5l0.2-0.5h0.199c0.2,0,0.4-0.167,0.601-0.5l0.2-0.5l3-2.2
	C1037,49.267,1039.166,48.5,1041.5,48.5z"/>
<path fill="#222121" stroke="#222121" stroke-width="0.5" d="M502.8,87.8l0.2-0.3l0.199-0.3L503.5,87l0.3,0.2l0.2,0.3h1h1l0.199-0.3
	L506.5,87l1.699,2.2c1.2,1.533,1.967,2.4,2.301,2.6L511,92l-0.2,0.5c-0.2,0.333-2.8,3.833-7.8,10.5s-9.834,15-14.5,25
	c-4.667,10-8,20.833-10,32.5s-4.167,21-6.5,28c-2.334,7-5.934,14.1-10.801,21.3c-4.8,7.134-8.699,11.467-11.699,13L445,225l0.199,1
	l0.301,1l0.3,0.2l0.2,0.3l0.199,0.3l0.301,0.2l0.3,0.2l0.2,0.3l0.199,0.3l0.301,0.2l0.3,0.2l0.2,0.3l0.199,0.3l0.301,0.2l0.3,0.2
	l0.2,0.3l7,4.5c4.666,3,8.666,5,12,6c3.333,1,6.833,1.333,10.5,1c3.666-0.333,6.1-1.4,7.3-3.2c1.133-1.866,1.533-5.466,1.2-10.8
	c-0.334-5.333-1.334-11.167-3-17.5c-1.667-6.333-2.334-15-2-26c0.333-11,1.833-21,4.5-30c2.666-9,5.566-16.1,8.699-21.3
	c3.2-5.134,6.801-9.7,10.801-13.7s6.399-6.233,7.199-6.7c0.867-0.533,1.4-0.866,1.601-1l0.2-0.3l1-0.5l1-0.5l1-0.5l1-0.5l1-0.3
	l1-0.2h0.199h0.301l0.5,1l0.5,1l0.3,1l0.2,1l-1,0.2l-1,0.3l0.199,0.3l0.301,0.2l0.5,1l0.5,1v1v1l-0.301,0.2L522,118.5v0.3v0.2
	l-0.5,0.2c-0.334,0.2-0.5,0.4-0.5,0.6v0.2l-0.5,0.2c-0.334,0.2-2.334,1.966-6,5.3c-3.667,3.333-7.233,8.1-10.7,14.3
	c-3.533,6.134-6.4,13.7-8.601,22.7L492,176l4.5,0.2c3,0.2,5.767,1.2,8.3,3c2.467,1.866,4.533,4.966,6.2,9.3
	c1.666,4.333,3.333,10,5,17c1.666,7,3.732,11.767,6.199,14.3c2.533,2.467,6.134,4.2,10.801,5.2c4.666,1,16.666,0.934,36-0.2
	c19.333-1.2,29-2.133,29-2.8v-1h1h1l0.199,1.5l0.301,1.5l0.5,1l0.5,1v2.5v2.5l-0.301,0.2L601,231.5l-1.2,4.3
	c-0.867,2.8-1.4,4.2-1.601,4.2H598l-0.2-0.5l-0.3-0.5l-0.5-1.5l-0.5-1.5l-0.301,0.2L596,236.5l-0.2,0.3l-0.3,0.2l-0.301,0.2
	L595,237.5l-1,0.5c-0.667,0.333-4.834,2-12.5,5c-7.667,3-14.5,4.667-20.5,5s-11.5,0-16.5-1s-10.667-3.167-17-6.5
	c-6.334-3.333-12-7.333-17-12l-7.5-7l-0.2-0.3l-0.3-0.2l-0.301-0.2L502,220.5l-0.2-0.3l-0.3-0.2l-0.301-0.2L501,219.5l-0.2-0.3
	l-0.3-0.2l-0.5-1l-0.5-1l-0.301-0.2L499,216.5l-1-0.3l-1-0.2l0.199,2l0.301,2v10c0,6.667-0.101,10.667-0.301,12L497,244l5,0.8
	c3.333,0.467,5.933,1.934,7.8,4.4c1.8,2.533,2.7,6.8,2.7,12.8s-2,14.667-6,26s-8,21.333-12,30s-6.101,13.333-6.301,14L488,333
	l-5.2,12.5c-3.533,8.333-5.467,12.834-5.8,13.5l-0.5,1l-0.5,1.5l-0.5,1.5l-0.301,0.2L475,363.5v0.3v0.2l-0.5,0.2l-0.5,0.3l-0.2,0.3
	l-0.3,0.2l-0.301-0.2L473,364.5l-1-0.5l-1-0.5l-0.2-0.3l-0.3-0.2l-0.5-1l-0.5-1l-0.301-0.2L469,360.5l-0.2-0.3l-0.3-0.2l-0.301-0.2
	L468,359.5l-0.2-0.3l-0.3-0.2l-0.301-0.2L467,358.5v-0.3V358l0.199-1.5c0.2-1,3.134-8.167,8.801-21.5
	c5.666-13.333,11.166-26.667,16.5-40c5.333-13.333,8.333-22.833,9-28.5l1-8.5l-0.301-1.5L502,255l-1-0.2l-1-0.3h-2h-2l-2,0.5
	c-1.334,0.333-2.5,0.667-3.5,1s-5.5,2.833-13.5,7.5s-15.834,10.833-23.5,18.5c-7.667,7.667-13.434,14.733-17.301,21.2
	c-3.8,6.533-6.366,13.8-7.699,21.8c-1.334,8-2.834,17.667-4.5,29c-1.667,11.334-4,20-7,26s-6.4,10.066-10.2,12.2
	c-3.867,2.2-8.634,3.3-14.3,3.3c-5.667,0-11.567-1.566-17.7-4.7l-9.3-4.8l-0.301-0.2L365,385.5l-0.2-0.3l-0.3-0.2l-0.301-0.2
	L364,384.5l-0.2-0.3l-0.3-0.2h-0.301H363l-0.2-0.5l-0.3-0.5h-0.301H362l0.199-0.5l0.301-0.5l0.3-0.2l0.2-0.3l0.199-0.3l0.301-0.2
	l0.3-0.2l0.2-0.3l0.199-0.3l0.301-0.2l0.3,0.2l0.2,0.3l0.199,0.3l0.301,0.2l0.3,0.2l0.2,0.3l0.199,0.3l0.301,0.2l0.3-1l0.2-1h1h1
	l0.199-1.5l0.301-1.5h0.3h0.2l8,4.2c5.333,2.866,10.5,4.134,15.5,3.8s8.566-1.6,10.699-3.8c2.2-2.134,4.301-6.2,6.301-12.2
	s4-16.667,6-32s5-27,9-35s9.433-15.733,16.3-23.2c6.8-7.533,12.2-12.8,16.2-15.8s6.333-4.667,7-5l1-0.5l0.199-0.3l0.301-0.2l0.3-0.2
	l0.2-0.3l1-0.5l1-0.5l0.199-0.3l0.301-0.2l0.3-0.2l0.2-0.3l1-0.5l1-0.5l-1.5-0.5l-1.5-0.5l-2-0.5c-1.334-0.333-5.334-2.167-12-5.5
	c-6.667-3.333-11.733-7.1-15.2-11.3c-3.533-4.134-5.634-8.534-6.3-13.2l-1-7l0.5-2l0.5-2l0.5-1l0.5-1l0.3-0.2l0.2-0.3l1-0.5l1-0.5
	l3,0.3c2,0.134,3.267,1.034,3.8,2.7c0.467,1.667,0.8,2.566,1,2.7l0.2,0.3l0.199,0.3l0.301,0.2l0.3-0.2l0.2-0.3l0.199-0.3l0.301-0.2
	l0.3-0.2l0.2-0.3l0.199-0.3l0.301-0.2l0.3-0.2l0.2-0.3l6.8-10.7c4.467-7.2,7.7-15.8,9.7-25.8s4-19.167,6-27.5S476,130,481,120
	s9.267-17.4,12.8-22.2c3.467-4.866,5.366-7.4,5.7-7.6L500,90h0.199h0.301l0.3-0.2l0.2-0.3l0.199-0.3L501.5,89l0.3-0.2l0.2-0.3
	l0.199-0.3L502.5,88L502.8,87.8z M507,92c0-0.667,0.333-1,1-1c0.666,0,1,0.333,1,1v1h-1h-1V92z M496.199,213.8
	c-0.133-0.2-0.133-0.4,0-0.6l0.301-0.2v0.5C496.5,213.833,496.4,213.934,496.199,213.8z"/>
<path fill="#222121" stroke="#222121" stroke-width="0.5" d="M652.199,335.5l0.301-1.5h0.3h0.2l5.199,15
	c3.533,10,7.634,25.166,12.301,45.5c4.666,20.334,7.333,35.5,8,45.5c0.666,10,0.5,17.667-0.5,23s-3.601,9.4-7.801,12.2
	c-4.133,2.866-7.533,4.467-10.199,4.8c-2.667,0.333-5.167,0.333-7.5,0c-2.334-0.333-4.334-0.6-6-0.8L644,479l-0.2,11
	c-0.2,7.333-0.8,13.833-1.8,19.5s-0.334,12.333,2,20c2.333,7.667,4.666,23.167,7,46.5c2.333,23.333,4,39.833,5,49.5
	s1.666,15.667,2,18l0.5,3.5l0.3,1.5l0.2,1.5l1.5-0.2l1.5-0.3l1.5-0.5c1-0.333,2-0.667,3-1s5.333-1.667,13-4
	c7.666-2.333,13.333-3.167,17-2.5c3.666,0.667,6.433,1.767,8.3,3.3c1.8,1.467,3.866,4.033,6.2,7.7c2.333,3.667,3.5,7.5,3.5,11.5
	s-1.101,7.4-3.301,10.2c-2.133,2.866-5.199,5.3-9.199,7.3s-10.167,3-18.5,3c-8.334,0-14.567-1.434-18.7-4.3
	c-4.2-2.8-7.533-6.7-10-11.7c-2.533-5-4.467-7.566-5.8-7.7c-1.334-0.2-3.934-1.399-7.801-3.6c-3.8-2.134-7.366-6.033-10.699-11.7
	c-3.334-5.667-6.167-13-8.5-22c-2.334-9-3.667-19.167-4-30.5c-0.334-11.333-0.167-20.167,0.5-26.5c0.666-6.333,2.5-15.833,5.5-28.5
	s3.333-22.833,1-30.5c-2.334-7.667-3.667-14.5-4-20.5c-0.334-6,0.5-10.667,2.5-14l3-5l0.3-0.2l0.2-0.3l-1-0.5
	c-0.667-0.333-4.334-2.167-11-5.5l-10-5l-0.2-0.3l-0.3-0.2h-0.301H604l-0.2-0.5l-0.3-0.5h-0.301H603v-1.5V452l1-0.2l1-0.3l-0.2-0.3
	l-0.3-0.2l-0.301-0.2L604,450.5l0.199-0.3l0.301-0.2l0.3-0.2l0.2-0.3l0.199-0.3l0.301-0.2l0.5-1l0.5-1l0.3-0.2l0.2-0.3l0.199-0.3
	l0.301-0.2l0.3-0.5l0.2-0.5l1,0.2l1,0.3l2,0.5c1.333,0.333,3.833,1.333,7.5,3c3.666,1.667,7.767,4.733,12.3,9.2
	c4.467,4.533,8.267,7.399,11.399,8.6c3.2,1.134,6.967,1.867,11.301,2.2c4.333,0.333,7.433-0.4,9.3-2.2
	c1.8-1.866,2.866-7.967,3.2-18.3c0.333-10.333-0.167-19.833-1.5-28.5c-1.334-8.666-4.768-24.166-10.301-46.5L647,340l1,0.2l1,0.3
	l0.199,0.3l0.301,0.2l0.3,0.2l0.2,0.3l0.199,0.3l0.301,0.2v-1.5V339l-0.301-1L650,337h1h1L652.199,335.5z M631.8,553.2
	c2.133-11.134,3.6-15.267,4.399-12.4c0.867,2.8,3.067,21.533,6.601,56.2c3.467,34.667,4.8,51.833,4,51.5
	c-0.867-0.333-2.8-2.5-5.8-6.5s-5.667-10-8-18c-2.334-8-3.667-19-4-33C628.666,577,629.6,564.4,631.8,553.2z M667.199,669.8
	L667,669.5l-0.2-0.3l-0.3-0.2l-0.301-0.2L666,668.5l-0.2-0.3l-0.3-0.2l-0.5-1l-0.5-1l-0.301-0.2L664,665.5l-0.2-0.3l-0.3-0.2l-0.5-1
	l-0.5-1l-0.301-1.5L662,660l1.5-0.2l1.5-0.3l11.5-4c7.666-2.667,13.166-3.833,16.5-3.5c3.333,0.333,5.933,1.4,7.8,3.2
	c1.8,1.866,2.7,4.467,2.7,7.8s-0.101,5.333-0.301,6c-0.133,0.667-2.533,1.934-7.199,3.8c-4.667,1.8-9.5,2.533-14.5,2.2
	s-8.567-1.267-10.7-2.8C668.6,670.733,667.4,669.934,667.199,669.8z"/>
<path fill="#212222" stroke="#212222" stroke-width="0.5" d="M236.8,307.5l0.2-2.5l2,0.2l2,0.3l1,0.3l1,0.2l11.8,22.5
	c7.8,15,13.866,29,18.2,42c4.333,13,6.833,21.5,7.5,25.5c0.666,4,0.833,11.5,0.5,22.5c-0.334,11-1.601,19.434-3.8,25.3
	c-2.134,5.8-6.601,12.467-13.4,20c-6.867,7.467-10.634,12.033-11.3,13.7c-0.667,1.667-0.667,6.333,0,14
	c0.666,7.667,3.166,22.667,7.5,45c4.333,22.333,6.5,41.833,6.5,58.5s-1.167,29.833-3.5,39.5c-2.334,9.667-4.834,17.167-7.5,22.5
	c-2.667,5.333-3,9.667-1,13s2.833,8.333,2.5,15c-0.334,6.667-1.667,12-4,16c-2.334,4-3.733,6.267-4.2,6.8
	c-0.533,0.467-1.134,0.867-1.8,1.2l-1,0.5l-1,0.5l-1,0.5l-1,0.5l-1,0.5l-1.5,0.5l-1.5,0.5v0.3v0.2h-5.5H228v-0.2v-0.3l-1.5-0.3
	L225,712l-0.2-1l-0.3-1v-7.5c0-5,0.5-9.167,1.5-12.5s3.333-8.333,7-15c3.666-6.667,5.333-10.5,5-11.5c-0.334-1-0.5-4.667-0.5-11
	s0.5-16,1.5-29s1.833-34.5,2.5-64.5c0.666-30,0.5-47.167-0.5-51.5s-2.667-8.5-5-12.5c-2.334-4-5.601-7.4-9.8-10.2
	c-4.134-2.866-9.534-4.866-16.2-6l-10-1.8v-0.2v-0.3l1.5-0.3l1.5-0.2v-1.5V473l1-0.2l1-0.3l-0.2-0.3l-0.3-0.2l-0.3-0.2l-0.2-0.3
	l0.2-0.3l0.3-0.2l0.3-2l0.2-2l9,1.8c6,1.134,11.333,3.033,16,5.7c4.666,2.667,7.066,4.1,7.2,4.3c0.199,0.134,0.399,0.267,0.6,0.4
	l0.2,0.3l1.5,0.3l1.5,0.2l0.2-2c0.199-1.333,0.8-3.167,1.8-5.5s4.933-7.233,11.8-14.7c6.8-7.533,11.133-13.866,13-19
	c1.8-5.2,2.866-11.633,3.2-19.3c0.333-7.666,0-14.5-1-20.5s-3.834-15.666-8.5-29c-4.667-13.333-10-26-16-38l-9-18l-0.3-1.5L236,311
	l0.2-0.5l0.3-0.5L236.8,307.5z"/>
<path fill="#222121" stroke="#222121" stroke-width="0.5" d="M1096.8,269.8l0.2-0.3l0.5-0.3l0.5-0.2h0.199
	c0.2,0,1.467,3.833,3.801,11.5c2.333,7.667,8,26.167,17,55.5c9,29.334,13.666,47.166,14,53.5c0.333,6.334,0.166,10.5-0.5,12.5
	c-0.667,2-2.567,4.6-5.7,7.8c-3.2,3.134-10.8,6.534-22.8,10.2c-12,3.667-20,7-24,10s-7.601,7.066-10.801,12.2
	c-3.133,5.2-5.699,11.467-7.699,18.8s-3.167,18.167-3.5,32.5c-0.334,14.333,0.666,32.333,3,54c2.333,21.667,4.333,35.833,6,42.5
	c1.666,6.667,2.666,13.167,3,19.5c0.333,6.333-0.167,11.667-1.5,16c-1.334,4.333-3.667,8.667-7,13
	c-3.334,4.333-7.101,7.9-11.301,10.7c-4.133,2.866-8.533,4.633-13.199,5.3c-4.667,0.667-8.268,0.434-10.801-0.7
	c-2.467-1.2-4.866-3.467-7.199-6.8c-2.334-3.333-3.667-8.167-4-14.5c-0.334-6.333-0.167-10.667,0.5-13
	c0.666-2.333,2.566-5.1,5.699-8.3c3.2-3.134,7.634-4.7,13.301-4.7c5.666,0,9.767-2.9,12.3-8.7c2.467-5.866,4.033-11.3,4.7-16.3
	c0.666-5-0.834-19.5-4.5-43.5c-3.667-24-5.667-42-6-54c-0.334-12,0.666-21.333,3-28c2.333-6.667,4.666-13.5,7-20.5
	c2.333-7,3.166-12.167,2.5-15.5c-0.667-3.334-1.9-5.4-3.7-6.2c-1.867-0.866-3.2-2.066-4-3.6c-0.867-1.467-2.067-2.534-3.601-3.2
	l-2.199-1l-0.2-0.5l-0.3-0.5h-0.301H1039v-0.2v-0.3l0.199-0.3l0.301-0.2l0.5-1.5l0.5-1.5l0.3-0.2l0.2-0.3l1-0.5l1-0.5l-0.2-0.3
	l-0.3-0.2l-0.301-0.2l-0.199-0.3l0.199-0.3l0.301-0.2l0.3-0.2l0.2-0.3l0.199-0.3l0.301-0.2l0.3-1l0.2-1l1,0.2l1,0.3l1,0.5l1,0.5
	l0.199,0.3l0.301,0.2l5,3.5c3.333,2.334,6,5.666,8,10s3.166,8.334,3.5,12l0.5,5.5l0.3-0.2l0.2-0.3l0.199-0.3l0.301-0.2l0.3-0.2
	l0.2-0.3l0.199-0.3l0.301-0.2l0.3-0.2l0.2-0.3l0.199-0.3l0.301-0.2l0.3-0.2l0.2-0.3l0.199-0.3l0.301-0.2l0.3-0.2
	c0.133-0.2,2.033-1.467,5.7-3.8c3.666-2.334,11.333-5.334,23-9c11.666-3.666,18.433-6.267,20.3-7.8c1.8-1.467,2.866-5.034,3.2-10.7
	c0.333-5.666-4.934-26.666-15.801-63L1090,275h0.199h0.301l0.3,0.2l0.2,0.3l0.199,0.3l0.301,0.2l0.5-1l0.5-1l0.3-0.2l0.2-0.3
	l0.199-0.3l0.301-0.2l0.3-0.2l0.2-0.3l0.199-0.3l0.301-0.2l0.3-0.2l0.2-0.3l0.199-0.3l0.301-0.2l0.3-0.2l0.2-0.3l0.199-0.3
	l0.301-0.2L1096.8,269.8z M1034,644.5h-4l-1-0.5l-1-0.5l-0.2-0.3l-0.3-0.2l-1.5-5.5c-1-3.667-1.067-7.566-0.2-11.7
	c0.8-4.2,2.2-6.967,4.2-8.3s4.399-1.566,7.199-0.7c2.867,0.8,4.733,3.134,5.601,7c0.8,3.8,2.8,5.934,6,6.4
	c3.133,0.533,4.267,1.533,3.399,3c-0.8,1.533-2.866,3.633-6.199,6.3c-3.334,2.667-5.5,4.167-6.5,4.5S1036.666,644.5,1034,644.5z"/>
<path fill="#212222" stroke="#212222" stroke-width="0.5" d="M921.8,237h0.2v0.2v0.3l0.199,0.3l0.301,0.2l0.3,0.2l0.2,0.3h1h1
	l0.199-0.3l0.301-0.2l0.5,1l0.5,1l0.3-0.2l0.2-0.3l0.199-0.3l0.301-0.2l0.3-0.2l0.2-0.3h1h1l0.199,0.3l0.301,0.2l0.3,0.5l0.2,0.5
	l-0.2,1c-0.2,0.667-1.3,3-3.3,7s-6.167,11.167-12.5,21.5c-6.334,10.333-13.167,19.833-20.5,28.5
	c-7.334,8.667-14.233,15.066-20.7,19.2c-6.533,4.2-14.134,7.633-22.8,10.3c-8.667,2.667-13.268,4.767-13.801,6.3
	c-0.467,1.467-1.366,3.367-2.699,5.7c-1.334,2.333-4.233,4.9-8.7,7.7c-4.533,2.866-10.134,4.466-16.8,4.8
	c-6.667,0.333-11.167,0-13.5-1c-2.334-1-4.334-2.4-6-4.2c-1.667-1.866-6-2.2-13-1c-7,1.134-15.167,1.867-24.5,2.2
	c-9.334,0.333-16,0.167-20-0.5s-10.167-2.333-18.5-5c-8.334-2.667-17.167-6.667-26.5-12c-9.334-5.333-17.733-11.233-25.2-17.7
	c-7.533-6.533-12.2-10.3-14-11.3c-1.867-1-2.967-1.9-3.3-2.7l-0.5-1.3l-1-0.5l-1-0.5v-0.3V296l-0.2-0.5
	c-0.2-0.333-0.4-0.5-0.601-0.5H641l-0.2-0.5l-0.3-0.5h-0.301H640l-0.2-0.5l-0.3-0.5h-0.301H639v-1v-1l1.5-0.2l1.5-0.3l-0.2-0.3
	l-0.3-0.2l-0.301-0.2L641,289.5l1-0.3l1-0.2l0.199-1l0.301-1l0.3-0.2l0.2-0.3l1-0.5l1-0.5l0.5-0.3l0.5-0.2v0.2v0.3l0.5,0.3l0.5,0.2
	h0.199h0.301l0.3,0.2l0.2,0.3l12,11.5c8,7.667,16.833,14.5,26.5,20.5c9.666,6,19,10.5,28,13.5s17.333,4.833,25,5.5
	c7.666,0.667,16.433,0.1,26.3-1.7c9.8-1.867,15.366-5.133,16.7-9.8c1.333-4.667,3.232-8.267,5.699-10.8
	c2.533-2.467,5.801-4.534,9.801-6.2s8.666-2.333,14-2c5.333,0.333,9.666,1.667,13,4c3.333,2.333,6,4.5,8,6.5s7.333,1.667,16-1
	c8.666-2.667,15.933-6.233,21.8-10.7c5.8-4.533,12.866-12.133,21.2-22.8c8.333-10.667,15.166-21,20.5-31
	C918.833,242,921.6,237,921.8,237z"/>
<path fill="#222222" stroke="#222222" stroke-width="0.5" d="M665.5,209v5l0.5,1l0.5,1l0.3,0.2l0.2,0.3l0.199,0.3l0.301,0.2l0.3,0.2
	l0.2,0.3l0.199,0.3l0.301,0.2l0.3,0.2l0.2,0.3l0.199,0.3l0.301,0.2l0.3,0.2l0.2,0.3l4-0.3c2.666-0.134,4.666-0.934,6-2.4
	c1.333-1.533,2.5-2.3,3.5-2.3s1.833,0.167,2.5,0.5l1,0.5l0.199,0.3l0.301,0.2l0.3,0.2l0.2,0.3l0.199,0.3l0.301,0.2l0.3,0.2l0.2,0.3
	l0.199,0.3l0.301,0.2l0.5,1l0.5,1l0.5,1l0.5,1l0.5,1.5c0.333,1,0,3.5-1,7.5s-3.167,7.667-6.5,11l-5,5l-0.301,0.2L679,247.5l-1,0.3
	l-1,0.2v1v1h-1h-1l0.199-1l0.301-1l0.5-1.5l0.5-1.5l0.3-1l0.2-1l-1-0.2l-1-0.3h-1h-1h-1h-1l0.199-0.3l0.301-0.2l0.3-0.2l0.2-0.3
	l0.199-0.3l0.301-0.2l0.3-0.2l0.2-0.3l0.199-0.3l0.301-0.2v-0.5V239h-0.301H673l1-0.8c0.666-0.467,1.066-0.8,1.199-1l0.301-0.2
	l0.3-0.2l0.2-0.3l0.199-0.3l0.301-0.2l0.3-0.2l0.2-0.3l0.199-0.3l0.301-0.2l0.3-0.2l0.2-0.3l0.199-0.3l0.301-0.2l0.3-0.2l0.2-0.3
	l0.199-0.3l0.301-0.2l0.5-1l0.5-1v-1v-1l-0.301,0.2L680,229.5l-1.5,0.5l-1.5,0.5h-3.5c-2.334,0-5.167-0.767-8.5-2.3
	c-3.334-1.467-5.733-3.534-7.2-6.2c-1.533-2.667-2.467-6.167-2.8-10.5c-0.334-4.333-0.167-7.833,0.5-10.5
	c0.666-2.667,1.166-6.5,1.5-11.5c0.333-5-0.667-15.667-3-32c-2.334-16.333-4.834-28.833-7.5-37.5c-2.667-8.667-6.334-16.833-11-24.5
	c-4.667-7.667-8.434-12.566-11.301-14.7c-2.8-2.2-8.033-4.466-15.699-6.8c-7.667-2.333-16.334-5.167-26-8.5
	c-9.667-3.333-17.167-5-22.5-5c-5.334,0-11.334,1.833-18,5.5c-6.667,3.667-13.5,8.934-20.5,15.8L511,92l-0.5-0.2
	c-0.334-0.2-0.667-0.066-1,0.4L509,93h-1h-1l-0.2-1.5l-0.3-1.5l-0.301-0.2L506,89.5l0.199-0.3L506.5,89v-1v-1l-0.301,0.2L506,87.5
	h-1h-1l-0.2-0.3l-0.3-0.2l-0.301,0.2L503,87.5l-0.2,0.3l-0.3,0.2l-0.301,0.2L502,88.5l-0.2,0.3l-0.3,0.2l-0.301,0.2L501,89.5
	l-0.2,0.3l-0.3,0.2h-0.301H500l0.199-1l0.301-1l0.3-0.2l0.2-0.3l0.199-0.3L501.5,87l0.3-0.2l0.2-0.3l0.199-0.3L502.5,86l0.3-0.2
	l0.2-0.3l10-10c6.666-6.667,13.833-12.333,21.5-17c7.666-4.667,13.333-7.5,17-8.5c3.666-1,7.833-1.167,12.5-0.5
	c4.666,0.667,11.166,2.5,19.5,5.5c8.333,3,17,5.833,26,8.5s15.433,5.233,19.3,7.7c3.8,2.533,5.8,4.133,6,4.8
	c0.133,0.667,0.533,1,1.2,1c0.666,0,3.732,4.833,9.199,14.5c5.533,9.667,9.801,20,12.801,31s5.333,22.833,7,35.5
	c1.666,12.667,2.333,22.833,2,30.5c-0.334,7.667-0.667,12.167-1,13.5C665.666,203.333,665.5,205.667,665.5,209z"/>
<path fill="#222222" stroke="#222222" stroke-width="0.5" d="M978,38v-1l1.5,0.2l1.5,0.3l0.199,0.3L981.5,38l0.3-0.2l0.2-0.3
	l0.199-0.3L982.5,37l0.3,0.2l0.2,0.3l0.199,0.3L983.5,38l0.3-0.2l0.2-0.3l0.199-0.3L984.5,37l0.5,1l0.5,1l0.3,0.2l0.2,0.3l1.5,0.3
	L989,40h0.199h0.301l0.3,0.2l0.2,0.3l1,0.5l1,0.5l6,1.3c4,0.8,7.333-0.4,10-3.6c2.666-3.134,6.666-5.367,12-6.7
	c5.333-1.333,13-1.333,23,0s16.166,2.833,18.5,4.5c2.333,1.667,5.166,3.5,8.5,5.5c3.333,2,6,3.434,8,4.3c2,0.8,3.5,2.134,4.5,4
	c1,1.8,3.333,3.134,7,4c3.666,0.8,5.666,2.034,6,3.7c0.333,1.667,2.1,3.167,5.3,4.5c3.133,1.333,5.267,3.6,6.399,6.8
	c1.2,3.134,2.533,5.8,4,8c1.533,2.134,2.533,3.934,3,5.4c0.533,1.533,1.134,2.466,1.801,2.8c0.666,0.333,1.066,0.6,1.199,0.8
	l0.301,0.2l0.5,1.5l0.5,1.5v1v1l-0.5,1l-0.5,1l-0.301,0.2L1117,94.5l-0.2,0.3l-0.3,0.2l-0.301,0.2L1116,95.5l-1,0.5l-1,0.5h-1h-1
	l-1-0.5l-1-0.5l-0.2-0.3l-0.3-0.2l-0.301-0.2L1109,94.5l-0.2-0.3l-0.3-0.2l-0.301-0.2L1108,93.5l-0.2-0.3l-0.3-0.2l-0.301-0.2
	c-0.133-0.2-0.8-1.733-2-4.6c-1.133-2.8-2.267-4.6-3.399-5.4c-1.2-0.866-2.533-2.733-4-5.6c-1.533-2.8-3.533-4.8-6-6
	c-2.533-1.134-4.3-2.6-5.3-4.4c-1-1.866-2.667-3.066-5-3.6c-2.334-0.467-4.233-1.6-5.7-3.4c-1.533-1.866-3.4-3.2-5.601-4
	c-2.133-0.866-3.8-1.866-5-3c-1.133-1.2-5.267-3.2-12.399-6c-7.2-2.866-13.634-4.3-19.3-4.3c-5.667,0-8.834,0.333-9.5,1
	c-0.667,0.667-2,1.167-4,1.5l-3,0.5l-0.2-0.3l-0.3-0.2l-0.301,0.2L1016,45.5l-0.2,0.3l-0.3,0.2l-0.301,0.2L1015,46.5l-0.2,0.3
	l-0.3,0.2v1v1l0.3,0.2l0.2,0.3l1,0.5l1,0.5l1,0.5l1,0.5l0.199,0.3l0.301,0.2l0.3,0.2l0.2,0.3l1,0.5l1,0.5l1,0.5l1,0.5l2,1
	c1.333,0.667,2.066,0.9,2.199,0.7c0.2-0.134,0.467-0.534,0.801-1.2l0.5-1l0.3-0.2l0.2-0.3l1-0.3l1-0.2l-0.2,1l-0.3,1l-0.301,0.2
	L1031,55.5l-0.2,0.3l-0.3,0.2l-0.301,0.2L1030,56.5l0.199,0.3l0.301,0.2l0.3,1l0.2,1h-1h-1l-0.2,1l-0.3,1v1v1l0.3,0.2l0.2,0.3
	l0.199,0.3l0.301,0.2v1v1l-0.301,1L1029,68l-1,0.2l-1,0.3l-0.2,0.3l-0.3,0.2h-0.301H1026l-0.5-0.2l-0.5-0.3v-0.3V68l-0.5-0.2
	l-0.5-0.3l-0.2-0.3c-0.2-0.134-2.4-1.467-6.601-4c-4.133-2.467-9.866-5.034-17.199-7.7c-7.334-2.667-15-4.167-23-4.5
	s-13.167-0.267-15.5,0.2L958,52l-0.5-0.2l-0.5-0.3l-0.2-0.3l-0.3-0.2l0.3-4.2c0.133-2.866,0.2-4.4,0.2-4.6V42v-0.2
	c0-0.2,0.066-0.4,0.199-0.6L957.5,41l0.3-1l0.2-1l-1.5,0.2c-1,0.2-2.834,0.3-5.5,0.3c-2.667,0-5.067-1.9-7.2-5.7l-3.3-5.8
	l-0.301,0.2L940,28.5l-0.2,0.3c-0.2,0.134-1.2,0.8-3,2c-1.867,1.134-4.3,1.867-7.3,2.2s-6.167-0.333-9.5-2l-5-2.5l-0.2-0.3l-0.3-0.2
	l-0.301-0.2L914,27.5l-0.2-0.3l-0.3-0.2l-0.301,0.2L913,27.5l-0.2,0.3l-0.3,0.2v1c0,0.667-0.167,2-0.5,4c-0.334,2-1.4,4.267-3.2,6.8
	c-1.867,2.467-4.967,3.934-9.3,4.4c-4.334,0.533-6.567,1.966-6.7,4.3c-0.2,2.333-1.3,6-3.3,11s-3,10.833-3,17.5
	s-0.233,10.267-0.7,10.8c-0.533,0.467-1.533,4.267-3,11.4l-2.3,10.8l-0.301,0.2L880,110.5l-0.2,0.3l-0.3,0.2l-0.301,0.2L879,111.5
	l-0.2,0.3l-0.3,0.2l-0.301,0.2L878,112.5h-2h-2l-1-0.3l-1-0.2l-0.2-1l-0.3-1l1-10c0.666-6.667,1.333-11.333,2-14
	c0.666-2.667,1.166-6.833,1.5-12.5c0.333-5.667,1.5-11.333,3.5-17s3.232-10.1,3.699-13.3c0.533-3.134,1.801-5.367,3.801-6.7
	s4.833-2.167,8.5-2.5c3.666-0.333,5.899-2.733,6.699-7.2c0.867-4.533,2.067-7.2,3.601-8c1.467-0.866,4.033-1.133,7.7-0.8
	c3.666,0.333,7.166,1.333,10.5,3c3.333,1.667,6.833,0.833,10.5-2.5c3.666-3.333,6.333-4.833,8-4.5c1.666,0.333,3.833,2.833,6.5,7.5
	c2.666,4.667,6.066,7.434,10.199,8.3C963.4,30.6,966,31.667,967,33s1.6,2.667,1.8,4c0.133,1.333,1.7,2,4.7,2S978,38.667,978,38z"/>
<path fill="#222222" stroke="#222222" stroke-width="0.5" d="M955.5,42.2L957,42v0.2c0,0.2-0.067,1.733-0.2,4.6l-0.3,4.2l0.3,0.2
	l0.2,0.3l0.5,0.3L958,52l-8.2,5.5c-5.533,3.667-9.2,7-11,10c-1.867,3-3.134,4.5-3.8,4.5c-0.667,0-2.067,3.333-4.2,10
	c-2.2,6.667-3.134,13.167-2.8,19.5c0.333,6.333,2.833,14.667,7.5,25c4.666,10.333,8.566,16.667,11.699,19
	c3.2,2.333,6.801,5.767,10.801,10.3c4,4.467,6.333,6.8,7,7l1,0.2v1c0,0.667-0.334,1-1,1c-0.667,0-1,0.333-1,1v1h1h1l-0.2,1l-0.3,1
	l-0.301,0.2L965,169.5l1,0.3l1,0.2v1v1h-3h-3l-1-0.2l-1-0.3l-1-0.5c-0.667-0.333-2.268-1.733-4.801-4.2
	C950.733,164.267,947,160.667,942,156s-9.167-10.333-12.5-17l-5-10l-0.5-1l-0.5-1l-0.5-1l-0.5-1l-0.5-1l-0.5-1l-0.5,1l-0.5,1v9
	c0,6-0.334,9.667-1,11c-0.667,1.333-0.834,3.667-0.5,7c0.333,3.333,2.666,8,7,14c4.333,6,6.833,9.667,7.5,11
	c0.666,1.333,1.166,2.5,1.5,3.5l0.5,1.5v2v2l-0.301,1L935,188l-1,0.2l-1,0.3h-2.5H928l-0.2-0.3l-0.3-0.2l-0.301-0.2L927,187.5
	l-0.2-0.3l-0.3-0.2l-0.5-1c-0.334-0.667-0.667-1.5-1-2.5c-0.334-1-1.667-3.167-4-6.5c-2.334-3.333-5-7.333-8-12s-4.667-8.833-5-12.5
	c-0.334-3.667-0.167-6.5,0.5-8.5c0.666-2,1-6.5,1-13.5s-0.334-11-1-12c-0.667-1-1.167-2.833-1.5-5.5c-0.334-2.667,0-4.833,1-6.5
	s1.666-5.833,2-12.5c0.333-6.667,1.399-10.934,3.199-12.8c1.867-1.8,3.301-4.267,4.301-7.4c1-3.2,1.833-4.866,2.5-5
	c0.666-0.2,3-2.3,7-6.3l6-6l0.199-0.3L933.5,56l0.3-0.2l0.2-0.3l0.199-0.3L934.5,55l0.3-0.2l0.2-0.3l0.199-0.3L935.5,54l0.3-0.2
	l0.2-0.3l0.199-0.3L936.5,53l0.3-0.2l0.2-0.3l0.199-0.3L937.5,52l0.3-0.2l0.2-0.3l0.199-0.3L938.5,51l0.3-0.2l0.2-0.3h-3.5H932
	l-1,0.5l-1,0.5l-4,0.5c-2.667,0.333-5.733,1.6-9.2,3.8c-3.533,2.134-5.8,5.034-6.8,8.7s-2,8.667-3,15s-2.334,11.167-4,14.5
	c-1.667,3.333-2.167,8.5-1.5,15.5c0.666,7,0.767,11.767,0.3,14.3c-0.533,2.467-0.2,4.6,1,6.4c1.133,1.866,1.533,4.3,1.2,7.3
	c-0.334,3-1.334,5.333-3,7c-1.667,1.667-1.4,5.833,0.8,12.5c2.133,6.667,3.8,10.333,5,11c1.133,0.667,1.8,2,2,4
	c0.133,2,0.933,3.333,2.399,4c1.533,0.667,2.467,1.833,2.801,3.5c0.333,1.667,0.5,3.333,0.5,5v2.5v2.5v2.5l-0.301,0.2L914,192.5
	l-0.2,0.3l-0.3,0.2l-0.301,0.2L913,193.5l-0.2,0.3l-0.3,0.2l-0.301,0.2L912,194.5h-2h-2l-0.2-0.3l-0.3-0.2l-0.301-0.2L907,193.5
	l-0.2-0.3l-0.3-0.2l-0.301-0.2L906,192.5l-0.2-0.3l-0.3-0.2l-0.5-1l-0.5-1l-4-8c-2.667-5.333-4.834-10.5-6.5-15.5c-1.667-5-3-9-4-12
	s-1.334-5.833-1-8.5c0.333-2.667,1.166-5.167,2.5-7.5c1.333-2.333,1.5-4.167,0.5-5.5s-1.5-6-1.5-14s-0.334-13.667-1-17
	c-0.667-3.333,0.333-7.167,3-11.5c2.666-4.333,4.666-11,6-20c1.333-9,3.232-15.1,5.699-18.3c2.533-3.134,6.134-6.034,10.801-8.7
	c4.666-2.667,11-3.833,19-3.5s12.5,1.066,13.5,2.2c1,1.2,2.333,1.533,4,1C953.166,42.733,954.5,42.4,955.5,42.2z"/>
<path fill="#222121" stroke="#222121" stroke-width="0.5" d="M672.5,239.2l0.5-0.2h0.199h0.301v0.5v0.5l-0.301,0.2L673,240.5
	l-0.2,0.3l-0.3,0.2l-0.301,0.2L672,241.5l-0.2,0.3l-0.3,0.2l-0.301,0.2L671,242.5h1h1h1h1l1,0.5l1,0.5l1,0.3l1,0.2v1v1l-1-0.2
	l-1-0.3l-0.2-0.3l-0.3-0.2l-0.301,2L676,249l-0.5,0.2l-0.5,0.3v0.3v0.2l-0.5,0.2l-0.5,0.3l-0.2,0.3c-0.2,0.134-1.867,0.934-5,2.4
	c-3.2,1.533-7.8,2.466-13.8,2.8s-10.5-0.167-13.5-1.5s-5.9-3.767-8.7-7.3c-2.867-3.467-5.3-8.534-7.3-15.2l-3-10l-0.5-2l-0.5-2
	l-0.301,0.2L621,218.5l-1.5,0.5l-1.5,0.5l-0.2,0.3l-0.3,0.2l-0.301,0.2L617,220.5l-0.2,0.3l-0.3,0.2l-0.301,0.2L616,221.5l-1,0.5
	l-1,0.5l-0.2,0.3l-0.3,0.2l-0.301,0.2L613,223.5l-0.2,0.3l-0.3,0.2l-0.5,1l-0.5,1l-0.301,0.2L611,226.5l-0.2,0.3l-0.3,0.2l-0.5,1
	l-0.5,1l0.699,2.2c0.533,1.533,2.4,4.4,5.601,8.6c3.133,4.134,7.8,10.934,14,20.4c6.133,9.533,10.533,15.8,13.2,18.8
	c2.666,3,4.066,4.6,4.199,4.8l0.301,0.2l0.3,1l0.2,1l-2,0.2l-2,0.3l-0.2,0.3l-0.3,0.2l-0.301,1L643,289l-1,0.2l-1,0.3l0.199,0.3
	l0.301,0.2l0.3,0.2l0.2,0.3l-1.2,0.7c-0.867,0.533-0.967,1.133-0.3,1.8c0.666,0.667,1.1,1.333,1.3,2l0.2,1l-1-0.2
	c-0.667-0.2-1.4-0.733-2.2-1.6l-1.3-1.2v1.5v1.5l0.5,1l0.5,1l0.5,1l0.5,1l6.5,15.5c4.333,10.333,6.6,16,6.8,17l0.2,1.5h-0.2h-0.3
	l-0.301,1.5L652,337h-1h-1l0.199,1l0.301,1v1.5v1.5l-0.301-0.2L650,341.5l-0.2-0.3l-0.3-0.2l-0.301-0.2L649,340.5l-1-0.3l-1-0.2
	l-0.5-0.2l-0.5-0.3l-0.2-0.3l-0.3-0.2l-0.5-1l-0.5-1l-0.5-2.5c-0.334-1.667-2-5.5-5-11.5s-9.733-18.6-20.2-37.8
	c-10.533-19.134-16.634-31.467-18.3-37L598,240h0.199c0.2,0,0.733-1.4,1.601-4.2l1.2-4.3l0.199-0.3l0.301-0.2v-2.5V226l-0.5-1
	l-0.5-1l-0.301-0.2c-0.133-0.2-0.366-0.533-0.699-1L599,222h0.199c0.2,0,0.4-0.167,0.601-0.5l0.2-0.5v-0.2
	c0-0.2,1.166-1.466,3.5-3.8c2.333-2.333,5.566-6.066,9.699-11.2c4.2-5.2,7.467-11.3,9.801-18.3c2.333-7,3.666-15.667,4-26
	c0.333-10.333-0.5-19.667-2.5-28s-4.167-14.167-6.5-17.5c-2.334-3.333-5.601-5.934-9.801-7.8c-4.133-1.8-10.866-2.867-20.199-3.2
	c-9.334-0.333-16.834,0-22.5,1c-5.667,1-14,3.333-25,7l-16.5,5.5l-0.2,0.3l-0.3,0.2l-0.301,0.2L523,119.5l-1,0.3l-1,0.2v-1v-1h1h1
	v-1v-1h-1.5H520l0.199-1l0.301-1l0.3-0.2l0.2-0.3l1-0.3l1-0.2l-0.2-1l-0.3-1l-0.5-1l-0.5-1h-0.301H521l10.5-4.2
	c7-2.866,15.166-5.3,24.5-7.3c9.333-2,19.166-3,29.5-3c10.333,0,18.333,1,24,3c5.666,2,10.1,4.566,13.3,7.7
	c3.133,3.2,6.033,8.133,8.7,14.8c2.666,6.667,4.333,11.833,5,15.5c0.666,3.667,0.833,12.167,0.5,25.5
	c-0.334,13.333-1.667,23.5-4,30.5c-2.334,7-3.834,11.333-4.5,13c-0.667,1.667-0.5,2.833,0.5,3.5s2.666,5.667,5,15
	c2.333,9.333,4.933,15.4,7.8,18.2c2.8,2.866,6.7,4.3,11.7,4.3s9.333-1,13-3C670.166,240.5,672.166,239.4,672.5,239.2z"/>
<path fill="#212222" stroke="#212222" stroke-width="0.5" d="M199,201h1l-0.5,1.2c-0.334,0.866-0.434,1.4-0.3,1.6l0.3,0.2l0.5,1
	l0.5,1l0.7,1.2c0.533,0.866,1.066,1.4,1.6,1.6c0.467,0.134,0.533,0.534,0.2,1.2c-0.334,0.667-0.601,1.5-0.8,2.5L202,214l1-0.2l1-0.3
	l0.2-0.3l0.3-0.2l0.3-1l0.2-1l1.5-0.2l1.5-0.3l0.2-0.3c0.199-0.134,0.399-0.034,0.6,0.3l0.2,0.5l-1.8,3c-1.134,2-1.867,3.5-2.2,4.5
	l-0.5,1.5l-0.5,1.5l-0.5,1.5l-0.3,1l-0.2,1l19.5,1.2c13,0.866,26.5,3.133,40.5,6.8s25.666,7.833,35,12.5
	c9.333,4.667,18.267,10.434,26.8,17.3c8.467,6.8,16.033,14.2,22.7,22.2c6.666,8,13,16.5,19,25.5s9.833,15.833,11.5,20.5
	c1.666,4.667,2.333,9.5,2,14.5c-0.334,5-1.5,10-3.5,15s-3.768,8.1-5.301,9.3c-1.467,1.134-2.533,1.8-3.199,2l-1,0.2l0.199,1l0.301,1
	l0.3,0.2l0.2,0.3l0.199,0.3l0.301,0.2l0.3,0.2l0.2,0.3l0.199,0.3l0.301,0.2l0.3,0.5l0.2,0.5h-0.2h-0.3l-0.301,1.5L369,380h-1h-1
	l-0.2,1l-0.3,1l-0.301-0.2L366,381.5l-0.2-0.3l-0.3-0.2l-0.301-0.2L365,380.5l-0.2-0.3l-0.3-0.2l-0.301,0.2L364,380.5l-0.2,0.3
	l-0.3,0.2l-0.301,1.5L363,384h-1h-1l-0.2-1c-0.2-0.666-0.867-1.6-2-2.8c-1.2-1.134-3.533-3.934-7-8.4
	c-3.533-4.533-6.533-7.066-9-7.6c-2.533-0.467-3.867-1.934-4-4.4c-0.2-2.533,0.133-4.533,1-6c0.8-1.533,1.933-4.733,3.399-9.6
	c1.533-4.8,3.4-8.267,5.601-10.4c2.133-2.2,5.366-3.3,9.7-3.3h6.5l1,0.3l1,0.2l-0.2-1l-0.3-1l-0.5-1l-0.5-1l-0.5-1l-0.5-1
	l-0.301-0.2L364,324.5l-0.2-0.3l-0.3-0.2l-0.5-1c-0.334-0.667-0.834-1.5-1.5-2.5c-0.667-1-5.667-7.5-15-19.5
	c-9.334-12-18.233-21.6-26.7-28.8c-8.533-7.134-18.134-13.2-28.8-18.2c-10.667-5-22.334-9-35-12c-12.667-3-24.5-4.733-35.5-5.2
	L204,236l0.2,1l0.3,1l0.5,1.5l0.5,1.5l17.5,30.5c11.666,20.333,17.6,30.566,17.8,30.7l0.2,0.3l0.2,0.3l0.3,0.2l0.5,1l0.5,1l0.3,0.5
	l0.2,0.5l-1-0.2l-1-0.3l-2-0.3l-2-0.2l-0.2,2.5l-0.3,2.5l-0.3,0.5L236,311h-0.2h-0.3l-0.5-1l-0.5-1l-0.3-0.2l-0.2-0.3l-0.2-0.3
	l-0.3-0.2l-0.5-1c-0.334-0.667-1-1.667-2-3s-5.334-8.333-13-21c-7.667-12.667-13.667-23.333-18-32
	c-4.334-8.667-7.267-13.167-8.8-13.5L189,237l0.2-0.5l0.3-0.5l0.3-0.2l0.2-0.3l-0.2-0.3l-0.3-0.2l-0.3-0.2l-0.2-0.3l-0.2-0.3
	l-0.3-0.2l-0.5-1l-0.5-1l-0.3-0.2l-0.2-0.3l-1.5-0.5l-1.5-0.5l-3.5-0.5c-2.334-0.333-3.434-0.6-3.3-0.8
	c0.199-0.134,0.133-0.7-0.2-1.7l-0.5-1.5l-0.3-0.2l-0.2-0.3l-1-0.5l-1-0.5l-0.2-0.3l-0.3-0.2l-0.3-0.2l-0.2-0.3v-0.3V223l0.5-0.2
	l0.5-0.3l0.2-0.3l0.3-0.2l0.3-0.2l0.2-0.3l0.2-0.3l0.3-0.2l0.3-0.2l0.2-0.3l10.2-8.3c6.866-5.467,10.533-8.7,11-9.7
	C197.734,201.5,198.333,201,199,201z"/>
<path fill="#222222" stroke="#222222" stroke-width="0.5" d="M197,44.8l1-0.3l12,0.5c8,0.333,15,2,21,5s10.399,6.4,13.2,10.2
	c2.866,3.866,4.633,6.8,5.3,8.8c0.666,2,0.833,7.333,0.5,16c-0.334,8.667-1.334,17.667-3,27c-1.667,9.333-2,16.833-1,22.5
	s3.066,10.1,6.2,13.3c3.199,3.134,6.633,5.034,10.3,5.7c3.666,0.667,6.833,0.333,9.5-1c2.666-1.333,4.933-3.1,6.8-5.3
	c1.8-2.134,2.8-3.534,3-4.2l0.2-1l2,0.2l2,0.3l1,0.5l1,0.5l1,0.5l1,0.5l1,0.3l1,0.2l-0.2,1.5l-0.3,1.5l-0.5,2.5
	c-0.334,1.667-1.5,5.833-3.5,12.5s-4.567,11.066-7.7,13.2c-3.2,2.2-6.967,3.3-11.3,3.3c-4.334,0-8.167-0.9-11.5-2.7
	c-3.334-1.866-5.4-3.466-6.2-4.8c-0.867-1.333-5.3-10.167-13.3-26.5s-14.101-26.9-18.3-31.7l-6.2-7.3v-0.3V106l1.2-0.5
	c0.866-0.333,1.399-1.167,1.6-2.5l0.2-2l2-0.2l2-0.3l-0.2-0.3l-0.3-0.2l-0.3-0.2l-0.2-0.3l-1-0.5l-1-0.5l-0.2-0.3l-0.3-0.2l-0.3-1
	l-0.2-1l1,0.2l1,0.3l0.2,0.3l0.3,0.2l0.3,0.2l0.2,0.3l0.2,0.3l0.3,0.2l0.3,0.2l0.2,0.3l0.2,0.3l0.3,0.2l0.3,0.2l0.2,0.3l4.8,5.3
	c3.133,3.467,4.8,5.267,5,5.4l0.2,0.3l0.2,0.3l0.3,0.2l0.5,1l0.5,1l0.3,0.2l0.2,0.3l0.2,0.3l0.3,0.2l0.5,1l0.5,1l0.5-1l0.5-1l0.5-3
	l0.5-3l0.5-2c0.333-1.333,0.833-3.667,1.5-7c0.666-3.333,1-8.833,1-16.5s-1.101-12.9-3.3-15.7c-2.134-2.866-5.534-5.466-10.2-7.8
	c-4.667-2.333-10.5-3.6-17.5-3.8L198,55h-0.2h-0.3v-1v-1v-0.5V52l-0.3-0.2l-0.2-0.3l0.2-0.3l0.3-0.2l0.5-1
	c0.333-0.667,0.267-1.167-0.2-1.5c-0.533-0.333-0.967-1-1.3-2L196,45L197,44.8z"/>
<path fill="#222121" stroke="#222121" stroke-width="0.5" d="M1043,394.8l1,0.2v0.2c0,0.2,0.166,0.399,0.5,0.6l0.5,0.2v0.2
	c0,0.2-0.334,0.466-1,0.8l-1,0.5l-0.2,0.3l-0.3,0.2l-0.301,0.2l-0.199,0.3l0.199,0.3l0.301,0.2l0.3,0.2l0.2,0.3l-1,0.5l-1,0.5
	l-0.2,0.3l-0.3,0.2l-0.301,2.5L1040,406l-1-0.2c-0.667-0.2-1.167-0.466-1.5-0.8c-0.334-0.334-5.667-0.666-16-1
	c-10.334-0.334-19.167,0.166-26.5,1.5c-7.334,1.334-15.667,3.767-25,7.3c-9.334,3.467-13.268,8.034-11.801,13.7
	c1.533,5.667,2.301,18,2.301,37s-1.667,38.5-5,58.5c-3.334,20-6.5,35.5-9.5,46.5l-4.5,16.5l-0.5,1l-0.5,1l-0.5,1l-0.5,1h-0.301H939
	h-0.2h-0.3l-0.5-1l-0.5-1l-0.301,0.2L937,587.5l-0.2,0.3l-0.3,0.2l-0.301-1.5L936,585l-1-0.2l-1-0.3l-1-0.3l-1-0.2l-0.2-2
	c-0.2-1.333,0.7-5.667,2.7-13s4.666-21,8-41l5-30l0.3-2.5l0.2-2.5h-1h-1l-0.2,2.5l-0.3,2.5l-1,9.5c-0.667,6.333-1.167,10.5-1.5,12.5
	l-0.5,3l-0.5,1l-0.5,1l-0.301,0.2L941,525.5l-0.2,0.3l-0.3,0.2l-0.5-1.5l-0.5-1.5l-0.301,0.2L939,523.5l-0.2,0.3l-0.3,0.2
	l-0.301-0.2L938,523.5l-0.2-0.3l-0.3-0.2l-0.301-0.2L937,522.5l-0.2-0.3l-0.3-0.2l-0.301-0.2L936,521.5l-1-0.3l-1-0.2l-0.2,1l-0.3,1
	l-0.301,0.2L933,523.5l-0.2,0.3l-0.3,0.2l-0.301-2.5L932,519l0.199-3.5c0.2-2.333,0.467-16,0.801-41c0.333-25,1.5-40.167,3.5-45.5
	l3-8l0.3-0.2l0.2-0.3l0.199-0.3l0.301-0.2l0.3-0.5l0.2-0.5l-0.2-1l-0.3-1l-0.301-0.2L940,416.5l0.199-0.3l0.301-0.2l0.3-0.2l0.2-0.3
	l1-0.5l1-0.5l0.199-0.3l0.301-0.2l0.3-1l0.2-1l1-0.2l1-0.3l0.5-0.3l0.5-0.2l11.5-5.2c7.666-3.533,16.5-6.466,26.5-8.8
	s21.5-3.5,34.5-3.5s20,0.166,21,0.5S1042.333,394.6,1043,394.8z"/>
<path fill="#212222" stroke="#212222" stroke-width="0.5" d="M26.5,303.8L36,296h0.2h0.3l0.3,0.2l0.2,0.3l0.2,0.3l0.3,0.2l2.7,1.2
	c1.866,0.866,2.8,1.633,2.8,2.3s0.066,1.1,0.2,1.3l0.3,0.2l0.3,0.2l0.2,0.3l-0.2,0.3l-0.3,0.2l-0.3,0.2l-0.2,0.3l-1,1.7
	c-0.667,1.2-1.334,1.866-2,2c-0.667,0.2-1.067,0.4-1.2,0.6l-0.3,0.2l-0.3,0.2l-0.2,0.3l-1,0.5l-1,0.5l-0.2,0.3l-0.3,0.2l-0.5,1
	l-0.5,1l-0.3,0.2l-0.2,0.3h1.5H37l1-0.5l1-0.5l0.2-0.3l0.3-0.2l0.3-1l0.2-1l1.5-0.2c1-0.2,3.666-1.733,8-4.6L56,300v1.5
	c0,1,0.666,1.5,2,1.5c1.333,0,2,0.667,2,2s0.333,2.066,1,2.2c0.666,0.2,1,0.4,1,0.6v0.2h-0.2c-0.2,0-0.4,0.167-0.6,0.5L61,309
	l-12,9.8c-8,6.467-13.733,11.934-17.2,16.4c-3.533,4.533-5.8,7.966-6.8,10.3s-1.334,5.833-1,10.5c0.333,4.666,2.066,9.267,5.2,13.8
	c3.199,4.467,6.966,8.2,11.3,11.2c4.333,3,8.566,5.934,12.7,8.8c4.199,2.8,8.966,6.534,14.3,11.2c5.333,4.666,8.333,7.5,9,8.5
	c0.666,1,1.166,1.834,1.5,2.5l0.5,1l0.5,1l0.5,1l0.5,1.5l0.5,1.5l0.3,0.2l0.2,0.3h0.5H82l0.2-0.3l0.3-0.2l0.5-2.5l0.5-2.5l0.3-0.2
	l0.2-0.3l0.2-0.3l0.3-0.2h0.3H85l0.2,3.5c0.199,2.334,0.399,8.5,0.6,18.5l0.2,15h-0.2h-0.3l-0.5-1l-0.5-1l-0.5-1.5l-0.5-1.5l-0.5-3
	l-0.5-3l-0.5-1.5l-0.5-1.5l-0.3,0.2l-0.2,0.3l-0.2,0.3l-0.3,0.2l-0.3,0.2l-0.2,0.3l-0.2,0.3c-0.2,0.134-0.4,0.533-0.6,1.2
	c-0.134,0.667-2.034,1.267-5.7,1.8c-3.667,0.467-6.334,0.367-8-0.3c-1.667-0.667-4-2.5-7-5.5s-5.434-6.6-7.3-10.8
	C49.4,419.066,49,414.666,50,410s-3.934-10.267-14.8-16.8c-10.801-6.467-18.134-11.601-22-15.4C9.4,373.934,6.267,369,3.8,363L0,354
	v-6.5V341h0.2h0.3l0.5-2.5l0.5-2.5l0.5-1.5l0.5-1.5l0.5-1c0.333-0.667,1-2,2-4s3.267-5.267,6.8-9.8
	C15.267,313.733,20.166,308.934,26.5,303.8z"/>
<path fill="#222222" stroke="#222222" stroke-width="0.5" d="M72.5,85.2L79,79h0.2h0.3v0.5V80l-0.3,1L79,82h1h1l0.2,2l0.3,2l0.3-0.2
	l0.2-0.3l0.2-0.3l0.3-0.2l0.3,0.2l0.2,0.3l1,0.5l1,0.5v0.3V87l-5.8,6c-3.801,4-6.867,8.833-9.2,14.5c-2.334,5.667-3.5,12-3.5,19
	S67.333,140,69,146c1.666,6,2.333,11.833,2,17.5c-0.334,5.667-1.667,10.333-4,14c-2.334,3.667-4.934,6.566-7.8,8.7
	c-2.801,2.2-5.034,3.633-6.7,4.3c-1.667,0.667-4.834,0.833-9.5,0.5c-4.667-0.333-7.334-0.667-8-1c-0.667-0.333-1.334-0.667-2-1
	l-1-0.5l-0.2-0.3l-0.3-0.2l-0.3-0.2l-0.2-0.3l-0.2-0.3l-0.3-0.2l-0.3-0.2l-0.2-0.3h-1h-1l0.2,0.3l0.3,0.2l0.5,2l0.5,2l0.5,1l0.5,1
	l0.3,1l0.2,1v0.2v0.3l-0.2,0.3l-0.3,0.2l-0.3,0.2l-0.2,0.3l0.2,0.3l0.3,0.2l0.3,0.2l0.2,0.3l0.2,0.3l0.3,0.2l0.3,0.2l0.2,0.3l-1,0.3
	l-1,0.2l-0.2,1l-0.3,1l-0.3,0.2l-0.2,0.3l-0.2,0.3l-0.3,0.2l-0.3,0.2l-0.2,0.3h-1h-1l-1-0.3l-1-0.2l-0.2-0.5l-0.3-0.5h-0.3H23
	l-0.2-0.5l-0.3-0.5h-0.3H22l-0.2-1l-0.3-1l-0.3-0.2l-0.2-0.3l-0.2-0.3c-0.2-0.134-0.467-0.7-0.8-1.7c-0.334-1-0.667-4.667-1-11
	c-0.334-6.333,0.267-11.1,1.8-14.3l2.2-4.7l0.2-0.3l0.3-0.2l0.5-1l0.5-1l0.5-1l0.5-1l0.5-1l0.5-1l0.3-0.2l0.2-0.3l0.2-0.3l0.3-0.2
	l0.3,0.2l0.2,0.3l0.2,0.3l0.3,0.2l0.5,1.5l0.5,1.5l0.5,2c0.333,1.333,1.166,3.667,2.5,7c1.333,3.333,3.233,5.934,5.7,7.8
	c2.533,1.8,5.466,2.367,8.8,1.7c3.333-0.667,6.399-2.767,9.2-6.3c2.866-3.467,4.466-6.867,4.8-10.2c0.333-3.333-0.334-8.167-2-14.5
	c-1.667-6.333-2.667-13.167-3-20.5c-0.334-7.333-0.167-12.5,0.5-15.5c0.666-3,2.433-7.434,5.3-13.3C64.6,94.4,68.166,89.4,72.5,85.2
	z"/>
<path fill="#222222" stroke="#222222" stroke-width="0.5" d="M996,0.2V0h2.5h2.5l1.199,2c0.867,1.333,1.467,2.833,1.801,4.5l0.5,2.5
	l0.3,0.2l0.2,0.3l0.199,0.3l0.301,0.2l0.3-0.2l0.2-0.3l0.199-0.3L1006.5,9l0.3-0.2l0.2-0.3l4-2c2.666-1.333,5.833-1.833,9.5-1.5
	c3.666,0.333,6.166,1.267,7.5,2.8c1.333,1.467,4.166,1.6,8.5,0.4c4.333-1.134,8.333-1.467,12-1c3.666,0.533,6,2.066,7,4.6
	c1,2.467,3.666,3.867,8,4.2c4.333,0.333,7.232,1.267,8.699,2.8c1.533,1.467,2.867,2.934,4,4.4c1.2,1.533,3.634,2.8,7.301,3.8
	c3.666,1,6.433,2.267,8.3,3.8c1.8,1.467,3.133,2.934,4,4.4c0.8,1.533,3.533,3.466,8.2,5.8c4.666,2.333,7.267,3.733,7.8,4.2
	c0.467,0.533,0.866,1.133,1.2,1.8l0.5,1l0.5,1l0.5,1v3.5V57l-0.301,0.2L1114,57.5l-0.2,0.3l-0.3,0.2l-0.301,0.2L1113,58.5h-3h-3
	l-0.2-0.3l-0.3-0.2l-0.301-0.2L1106,57.5l-0.2-0.3c-0.2-0.134-0.634-1.034-1.3-2.7c-0.667-1.667-3.101-3.434-7.301-5.3
	c-4.133-1.8-7.133-3.934-9-6.4c-1.8-2.533-5.033-4.633-9.699-6.3c-4.667-1.667-8-3.667-10-6s-5.233-3.767-9.7-4.3
	c-4.533-0.467-7.2-0.934-8-1.4c-0.867-0.533-1.867-1.966-3-4.3c-1.2-2.333-3.3-3.1-6.3-2.3c-3,0.866-6.334,1.466-10,1.8
	c-3.667,0.333-6.233-0.267-7.7-1.8c-1.533-1.467-3.2-2.267-5-2.4c-1.867-0.2-4.3,0.867-7.3,3.2s-5.834,3.5-8.5,3.5
	c-2.667,0-4.667-0.667-6-2c-1.334-1.333-2.834-1.167-4.5,0.5l-2.5,2.5l-0.2,0.3l-0.3,0.2l-0.301,0.2L989,24.5l-1,0.5l-1,0.5
	l-0.2,0.3l-0.3,0.2v2v2l0.5,1.5c0.333,1,0.666,2.167,1,3.5l0.5,2l0.3,1.5L989,40l-1.5-0.2l-1.5-0.3l-0.2-0.3l-0.3-0.2l-0.5-1l-0.5-1
	l-0.301,0.2L984,37.5l-0.2,0.3l-0.3,0.2l-0.301-0.2L983,37.5l-0.2-0.3l-0.3-0.2l-0.301,0.2L982,37.5l-0.2,0.3l-0.3,0.2l-0.301-0.2
	L981,37.5l-1.5-0.3L978,37h-0.2h-0.3l-1.5-9c-1-6-0.834-10.333,0.5-13c1.333-2.667,2.232-4.267,2.699-4.8
	c0.533-0.467,1.967-0.6,4.301-0.4c2.333,0.134,4.666-1.2,7-4c2.333-2.866,3.833-4.466,4.5-4.8C995.666,0.667,996,0.4,996,0.2z"/>
<path fill="#232323" stroke="#232323" stroke-width="0.5" d="M947.8,494.5l-0.3,3.5l-5,30c-3.334,20-6,33.667-8,41
	s-2.9,11.667-2.7,13l0.2,2l1,0.2l1,0.3l1,0.3l1,0.2l0.199,1.5l0.301,1.5l0.3-0.2l0.2-0.3l0.199-0.3l0.301-0.2l0.5,1l0.5,1h0.3h0.2
	l-0.2,0.5c-0.2,0.333-1.467,2.333-3.8,6c-2.334,3.667-6.334,7.5-12,11.5c-5.667,4-8,7.167-7,9.5s1.666,5,2,8
	c0.333,3-0.4,6.333-2.2,10c-1.867,3.667-3.8,6.1-5.8,7.3c-2,1.134-5.167,2.2-9.5,3.2c-4.334,1-8.334,0.934-12-0.2
	c-3.667-1.2-5.9-2.633-6.7-4.3c-0.867-1.667-1.467-4.333-1.8-8c-0.334-3.667,0.399-7.333,2.199-11c1.867-3.667,5.301-6.9,10.301-9.7
	c5-2.866,7.899-5.399,8.699-7.6c0.867-2.134,4.634-10.867,11.301-26.2c6.666-15.333,11.5-29,14.5-41l4.5-18h0.3h0.2l0.199,2.5
	l0.301,2.5l0.3-0.2l0.2-0.3l0.199-0.3l0.301-0.2l0.3-1l0.2-1l1,0.2l1,0.3l0.199,0.3l0.301,0.2l0.3,0.2l0.2,0.3l0.199,0.3l0.301,0.2
	l0.3,0.2l0.2,0.3l0.199,0.3l0.301,0.2l0.3-0.2l0.2-0.3l0.199-0.3l0.301-0.2l0.5,1.5l0.5,1.5l0.3-0.2l0.2-0.3l0.199-0.3l0.301-0.2
	l0.5-1l0.5-1l0.5-3c0.333-2,0.833-6.167,1.5-12.5l1-9.5l0.3-3.5c0.133-2.333,0.533-3.5,1.2-3.5
	C947.666,491,947.933,492.167,947.8,494.5z M891,635.2l-1-0.2l0.199-4c0.2-2.667,0.467-4.167,0.801-4.5l0.5-0.5l6-4.5
	c4-3,6.666-3.5,8-1.5c1.333,2,1.833,4.167,1.5,6.5c-0.334,2.333-1.733,4.434-4.2,6.3c-2.533,1.8-4.967,2.7-7.3,2.7
	C893.166,635.5,891.666,635.4,891,635.2z"/>
<path fill="#1F2123" stroke="#1F2123" stroke-width="0.5" d="M144,241v-1h3.5c2.333,0,3.833,0.6,4.5,1.8c0.666,1.134,1.333,1.8,2,2
	c0.666,0.134,1.066,0.7,1.2,1.7c0.199,1,0.399,1.5,0.6,1.5h0.2l-8.8,6.5c-5.801,4.333-10.534,8.833-14.2,13.5
	c-3.667,4.667-7.334,11.333-11,20c-3.667,8.667-7,20.333-10,35s-6,35.166-9,61.5s-4.5,42.833-4.5,49.5s0.1,11.333,0.3,14l0.2,4
	l-0.5-0.2l-0.5-0.3l-0.2-0.3l-0.3-0.2l-0.5,1.5l-0.5,1.5l-0.3-0.2l-0.2-0.3h-2.5H91l-0.2,0.3l-0.3,0.2l-0.3,0.2l-0.2,0.3h-0.5H89
	l-0.2-0.3l-0.3-0.2l-0.3,0.2l-0.2,0.3l-0.5,0.3L87,454l-0.2-2.5c-0.2-1.667-0.4-2.5-0.6-2.5H86l-0.2-15c-0.2-10-0.4-16.166-0.6-18.5
	L85,412l-0.2-1c-0.2-0.666,0.2-7.334,1.2-20s2.666-26.334,5-41c2.333-14.667,5.833-29,10.5-43l7-21l0.5-1.5l0.5-1.5l0.5-1l0.5-1
	l0.3-1l0.2-1l-1.5,0.2l-1.5,0.3l-1,0.5l-1,0.5l-0.2,0.3l-0.3,0.2l-0.3,0.2l-0.2,0.3l-1,0.5l-1,0.5l-20,12.3
	c-13.334,8.134-20,12.534-20,13.2v1h-1h-1l-0.2-1c-0.2-0.667-0.8-1.5-1.8-2.5s-1.733-1.667-2.2-2c-0.533-0.333-0.8-1-0.8-2V300
	l-6.5,4.2c-4.334,2.866-7,4.4-8,4.6L40,309l-0.2,1l-0.3,1l-0.3,0.2l-0.2,0.3l-1,0.5l-1,0.5h-1.5H34l0.2-0.3l0.3-0.2l0.5-1l0.5-1
	l0.3-0.2l0.2-0.3l1-0.5l1-0.5l0.2-0.3l0.3-0.2l0.3-0.2c0.133-0.2,0.533-0.4,1.2-0.6c0.666-0.134,1.333-0.8,2-2l1-1.7l0.2-0.3
	l0.3-0.2l0.3-0.2l0.2-0.3l-0.2-0.3l-0.3-0.2l-0.3-0.2c-0.134-0.2-0.2-0.633-0.2-1.3s-0.934-1.434-2.8-2.3l-2.7-1.2l-0.3-0.2
	l-0.2-0.3l-0.2-0.3l-0.3-0.2h-0.3H36v-0.2v-0.3l1-0.5l1-0.5l0.2-0.3l0.3-0.2l0.3-0.2c0.133-0.2,5.033-3.466,14.7-9.8
	c9.666-6.333,19.5-12,29.5-17s19-8,27-9s14.666-3.333,20-7l8-5.5l0.2-0.3l0.3-0.2l0.3-0.2l0.2-0.3l1-0.5l1-0.5l0.2-0.3l0.3-0.2
	l0.3-0.2l0.2-0.3l1-0.3l1-0.2V241z M59.2,303.2c0.199-0.134,0.399-0.134,0.6,0c0.133,0.2,0.033,0.3-0.3,0.3
	C59.166,303.5,59.067,303.4,59.2,303.2z"/>
<path fill="#232220" stroke="#232220" stroke-width="0.5" d="M933.8,269.8l0.2-0.3l0.199-0.3l0.301-0.2l0.5,1l0.5,1l0.3,0.2l0.2,0.3
	l0.199,0.3l0.301,0.2l0.3,0.2l0.2,0.3l0.199,0.3l0.301,0.2l0.3,0.2l0.2,0.3l0.5,0.3l0.5,0.2l-5.2,21c-3.533,14-7.634,29.333-12.3,46
	c-4.667,16.666-7.334,27.334-8,32c-0.667,4.666-0.834,10.166-0.5,16.5c0.333,6.334,0.732,10.166,1.199,11.5
	c0.533,1.334,4.801,2.6,12.801,3.8c8,1.134,12.333,1.866,13,2.2c0.666,0.334,1.5,0.666,2.5,1l1.5,0.5l1,0.5l1,0.5l0.199,0.3
	l0.301,0.2l0.3,0.5l0.2,0.5l-0.5,0.2l-0.5,0.3l-1,0.3l-1,0.2l-0.2,1l-0.3,1l-0.301,0.2L943,414.5l-1,0.5l-1,0.5l-0.2,0.3l-0.3,0.2
	l-0.301,0.2L940,416.5l0.199,0.3l0.301,0.2l0.3,1l0.2,1l-0.5-0.2l-0.5-0.3l-1-0.5l-1-0.5l-1-0.5l-1-0.5l-2-0.5
	c-1.334-0.334-4.334-0.666-9-1c-4.667-0.334-8.601-1.066-11.801-2.2c-3.133-1.2-5.533-3.134-7.199-5.8
	c-1.667-2.666-2.5-9.834-2.5-21.5s1.433-23.9,4.3-36.7c2.8-12.867,7.2-29.066,13.2-48.6l9-29.2h0.199h0.301l0.3-0.2l0.2-0.3
	l0.199-0.3l0.301-0.2l0.3,0.2l0.2,0.3l0.199,0.3l0.301,0.2l0.3-0.2l0.2-0.3l0.199-0.3l0.301-0.2L933.8,269.8z"/>
<path fill="#232021" stroke="#232021" stroke-width="0.5" d="M462.8,371l4.2-13v0.2v0.3l0.199,0.3l0.301,0.2l0.3,0.2l0.2,0.3
	l0.199,0.3l0.301,0.2l0.3,0.2l0.2,0.3l0.199,0.3l0.301,0.2l0.5,1l0.5,1l0.3,0.2l0.2,0.3l1,0.5l1,0.5l0.199,0.3l0.301,0.2l0.3-0.2
	l0.2-0.3l0.5-0.3l0.5-0.2l-4.2,17c-2.867,11.334-4.3,23.334-4.3,36c0,12.667,1,21,3,25s3.899,6.4,5.699,7.2
	c1.867,0.866,4.467,1.3,7.801,1.3c3.333,0,6-0.167,8-0.5l3-0.5l3-0.5l3-0.5l1-0.3l1-0.2l7.5,0.8c5,0.467,8.666,0.7,11,0.7
	c2.333,0,4.166-0.434,5.5-1.3c1.333-0.8,2-1.533,2-2.2s2.666-1.934,8-3.8c5.333-1.8,14.666-2.7,28-2.7c13.333,0,23.166,0.667,29.5,2
	c6.333,1.333,10.166,2.167,11.5,2.5l2,0.5l0.5,0.3l0.5,0.2l-0.2,0.5l-0.3,0.5l-0.301,0.2L607,446.5l-0.2,0.3l-0.3,0.2l-0.5,1l-0.5,1
	l-0.301,0.2L605,449.5l-0.2,0.3l-0.3,0.2l-0.301,0.2L604,450.5l0.199,0.3l0.301,0.2l0.3,0.2l0.2,0.3l-1,0.3l-1,0.2l0.199,1l0.301,1
	l0.3,1l0.2,1l-1-0.2l-1-0.3l-0.2-0.3c-0.2-0.134-0.4-0.267-0.601-0.4c-0.133-0.2-3.366-1.133-9.699-2.8
	c-6.334-1.667-14.334-2.667-24-3c-9.667-0.333-17.167,0.167-22.5,1.5l-8,2l-1,0.5l-1,0.5l-0.2,0.3l-0.3,0.2l-0.301,0.2L534,454.5
	l-1,0.3l-1,0.2l0.199,1l0.301,1l0.3,0.2l0.2,0.3l0.199,0.3l0.301,0.2l0.3,0.2l0.2,0.3l0.199,0.3l0.301,0.2l0.3,0.2
	c0.133,0.2,0.467,0.533,1,1c0.467,0.533,2.6,3.2,6.399,8c3.867,4.866,7.2,10.866,10,18c2.867,7.2,5.134,16.633,6.801,28.3
	c1.666,11.667,2.166,21.5,1.5,29.5c-0.667,8-2.834,16.833-6.5,26.5c-3.667,9.667-5.5,21.167-5.5,34.5s-0.5,21.167-1.5,23.5
	s-1.834,4.5-2.5,6.5c-0.667,2,0.5,5.333,3.5,10s4.666,9.167,5,13.5c0.333,4.333-0.167,7.833-1.5,10.5
	c-1.334,2.667-4.101,5.4-8.301,8.2c-4.133,2.866-8.366,4.467-12.699,4.8c-4.334,0.333-8-0.333-11-2s-5.434-4.6-7.301-8.8
	c-1.8-4.134-2.366-8.533-1.699-13.2c0.666-4.667,2-8.667,4-12s4.767-6.167,8.3-8.5c3.467-2.333,5.133-7,5-14
	c-0.2-7,0.7-13.833,2.7-20.5s3-12.167,3-16.5S531,564.333,526,533s-7.667-51.167-8-59.5c-0.334-8.333-1.067-12.767-2.2-13.3
	c-1.2-0.467-4.467-0.7-9.8-0.7c-5.334,0-11.834,0.167-19.5,0.5c-7.667,0.333-12.667,0-15-1c-2.334-1-4.5-2.5-6.5-4.5
	s-3.934-5.1-5.801-9.3c-1.8-4.134-3.033-10.2-3.699-18.2c-0.667-8-0.334-17.166,1-27.5C457.833,389.166,459.933,379.666,462.8,371z
	 M546,563.5l-0.5,1.5l-0.5,1l-0.5,1l-0.5,1.5l-0.5,1.5l-0.301,0.2L543,570.5l-0.2,0.3l-0.3,0.2l-0.5-1.5l-0.5-1.5l-7-49.5
	c-4.667-33-6.667-49.5-6-49.5c0.666,0,2.666,2.167,6,6.5c3.333,4.333,6.5,11,9.5,20s4.833,15.833,5.5,20.5
	c0.666,4.667,0.833,12,0.5,22c-0.334,10-1,16.5-2,19.5S546.333,562.5,546,563.5z M534.5,671l-1.5,0.5l-1.5,0.5l-1.5,0.5h-1h-1
	l-1.5-0.5l-1.5-0.5l-1-0.5l-1-0.5l-0.2-0.3l-0.3-0.2l-0.5-1l-0.5-1l-0.5-1l-0.5-1l0.5-6c0.333-4,1.6-7.4,3.8-10.2
	c2.133-2.866,4.366-4.733,6.7-5.6c2.333-0.8,4.899,1.3,7.699,6.3c2.867,5,3.967,8.833,3.301,11.5c-0.667,2.667-1.9,4.733-3.7,6.2
	C536.933,669.733,535.5,670.667,534.5,671z"/>
<path fill="#202122" stroke="#202122" stroke-width="0.5" d="M97,451.5l0.5-1.5l0.3,0.2l0.2,0.3l0.5,0.3L99,451l3,10.5
	c2,7,10.666,10.1,26,9.3c15.333-0.866,27.833-1.8,37.5-2.8c9.666-1,18.5-1.5,26.5-1.5s12.166,0.1,12.5,0.3l0.5,0.2l-0.2,2l-0.3,2
	l-0.3,0.2l-0.2,0.3l0.2,0.3l0.3,0.2l0.3,1.5c0.133,1-0.134,1.566-0.8,1.7c-0.667,0.2-1.5,0.467-2.5,0.8l-1.5,0.5v0.3v0.2l-9.5,0.2
	c-6.334,0.2-19,1.133-38,2.8l-28.5,2.5l-0.2,0.3l-0.3,0.2l-0.3,0.2l-0.2,0.3l0.2,0.3l0.3,0.2l0.3,0.2l0.2,0.3l0.2,0.3l0.3,0.2
	l0.3,0.2l0.2,0.3l1.8,0.3c1.133,0.134,2.033,1.7,2.7,4.7c0.666,3,0.666,10.833,0,23.5c-0.667,12.667-2.334,23.333-5,32
	c-2.667,8.667-5.767,15.6-9.3,20.8c-3.467,5.134-8.034,9.533-13.7,13.2c-5.667,3.667-17.334,8.167-35,13.5
	c-17.667,5.333-26.834,8.167-27.5,8.5c-0.667,0.333-1.334,0.667-2,1l-1,0.5l-1,0.5l-1,0.5l-1,0.3l-1,0.2l0.2,1l0.3,1l0.3,0.2
	l0.2,0.3l1,0.5c0.666,0.333,1.5,1,2.5,2s3.433,4.733,7.3,11.2c3.8,6.533,5.866,11.633,6.2,15.3c0.333,3.667,0,6.5-1,8.5
	s-2.601,3.6-4.8,4.8c-2.134,1.134-6.034,1.867-11.7,2.2c-5.667,0.333-10,0.167-13-0.5s-6.101-2.233-9.3-4.7
	c-3.134-2.533-5.2-5.633-6.2-9.3s-0.834-7.833,0.5-12.5c1.333-4.667,3.666-9.167,7-13.5c3.333-4.333,6.166-8.167,8.5-11.5
	c2.333-3.333,7-7.167,14-11.5s19.733-11.233,38.2-20.7c18.533-9.533,29.732-16.2,33.6-20c3.8-3.866,6.866-9.633,9.2-17.3
	c2.333-7.667,3.666-15.167,4-22.5c0.333-7.333-0.067-11.934-1.2-13.8c-1.2-1.8-5.634-2.867-13.3-3.2
	c-7.667-0.333-12.334-0.733-14-1.2c-1.667-0.533-2.667-6.633-3-18.3L87,454l0.5-0.2l0.5-0.3l0.2-0.3l0.3-0.2l0.3,0.2l0.2,0.3h0.5H90
	l0.2-0.3l0.3-0.2l0.3-0.2l0.2-0.3h2.5H96l0.2,0.3l0.3,0.2L97,451.5z M39.8,637.5L40,641l-1,0.2l-1,0.3h-7.5c-5,0-8.834-0.5-11.5-1.5
	l-4-1.5l-0.2-0.3l-0.3-0.2l-0.5-1l-0.5-1l0.5-5.5c0.333-3.667,1.733-7.233,4.2-10.7c2.533-3.533,5.133-4.633,7.8-3.3
	c2.666,1.333,5.6,4.566,8.8,9.7C37.933,631.4,39.6,635.167,39.8,637.5z"/>
</svg>
