<?xml version="1.0" encoding="utf-8"?>
<!-- Generator: Adobe Illustrator 15.1.0, SVG Export Plug-In . SVG Version: 6.00 Build 0)  -->
<!DOCTYPE svg PUBLIC "-//W3C//DTD SVG 1.1//EN" "http://www.w3.org/Graphics/SVG/1.1/DTD/svg11.dtd">
<svg version="1.1" id="Layer_1" xmlns="http://www.w3.org/2000/svg" xmlns:xlink="http://www.w3.org/1999/xlink" x="0px" y="0px"
	 width="177.5px" height="500.75px" viewBox="0 0 177.5 500.75" enable-background="new 0 0 177.5 500.75" xml:space="preserve">
<rect x="16.733" y="15.934" fill="#FFFFFF" stroke="#000000" stroke-width="4" stroke-miterlimit="10" width="48.756" height="48.756"/>
<rect x="65.489" y="15.934" fill="#FFFFFF" stroke="#000000" stroke-width="4" stroke-miterlimit="10" width="48.756" height="48.756"/>
<rect x="114.245" y="15.934" fill="#FFFFFF" stroke="#000000" stroke-width="4" stroke-miterlimit="10" width="48.755" height="48.756"/>
<rect x="16.733" y="75.934" fill="#FFFFFF" stroke="#000000" stroke-width="4" stroke-miterlimit="10" width="48.756" height="48.756"/>
<rect x="65.489" y="75.934" fill="#FFFFFF" stroke="#000000" stroke-width="4" stroke-miterlimit="10" width="48.756" height="48.756"/>
<rect x="114.245" y="75.934" fill="#FFFFFF" stroke="#000000" stroke-width="4" stroke-miterlimit="10" width="48.755" height="48.756"/>
<rect x="16.733" y="135.934" fill="#FFFFFF" stroke="#000000" stroke-width="4" stroke-miterlimit="10" width="48.756" height="48.756"/>
<rect x="65.489" y="135.934" fill="#FFFFFF" stroke="#000000" stroke-width="4" stroke-miterlimit="10" width="48.756" height="48.756"/>
<rect x="22.703" y="81.905" width="36.815" height="36.814"/>
<rect x="114.245" y="135.934" fill="#FFFFFF" stroke="#000000" stroke-width="4" stroke-miterlimit="10" width="48.755" height="48.756"/>
<rect x="16.733" y="195.934" fill="#FFFFFF" stroke="#000000" stroke-width="4" stroke-miterlimit="10" width="48.756" height="48.756"/>
<rect x="65.489" y="195.934" fill="#FFFFFF" stroke="#000000" stroke-width="4" stroke-miterlimit="10" width="48.756" height="48.756"/>
<rect x="114.245" y="195.934" fill="#FFFFFF" stroke="#000000" stroke-width="4" stroke-miterlimit="10" width="48.755" height="48.756"/>
<rect x="16.733" y="255.934" fill="#FFFFFF" stroke="#000000" stroke-width="4" stroke-miterlimit="10" width="48.756" height="48.756"/>
<rect x="65.489" y="255.934" fill="#FFFFFF" stroke="#000000" stroke-width="4" stroke-miterlimit="10" width="48.756" height="48.756"/>
<rect x="114.245" y="255.934" fill="#FFFFFF" stroke="#000000" stroke-width="4" stroke-miterlimit="10" width="48.755" height="48.756"/>
<rect x="16.733" y="315.934" fill="#FFFFFF" stroke="#000000" stroke-width="4" stroke-miterlimit="10" width="48.756" height="48.756"/>
<rect x="65.489" y="315.934" fill="#FFFFFF" stroke="#000000" stroke-width="4" stroke-miterlimit="10" width="48.756" height="48.756"/>
<rect x="114.245" y="315.934" fill="#FFFFFF" stroke="#000000" stroke-width="4" stroke-miterlimit="10" width="48.755" height="48.756"/>
<rect x="16.733" y="375.934" fill="#FFFFFF" stroke="#000000" stroke-width="4" stroke-miterlimit="10" width="48.756" height="48.756"/>
<rect x="65.489" y="375.934" fill="#FFFFFF" stroke="#000000" stroke-width="4" stroke-miterlimit="10" width="48.756" height="48.756"/>
<rect x="114.245" y="375.934" fill="#FFFFFF" stroke="#000000" stroke-width="4" stroke-miterlimit="10" width="48.755" height="48.756"/>
<rect x="16.733" y="435.934" fill="#FFFFFF" stroke="#000000" stroke-width="4" stroke-miterlimit="10" width="48.756" height="48.756"/>
<rect x="65.489" y="435.934" fill="#FFFFFF" stroke="#000000" stroke-width="4" stroke-miterlimit="10" width="48.756" height="48.756"/>
<rect x="114.245" y="435.934" fill="#FFFFFF" stroke="#000000" stroke-width="4" stroke-miterlimit="10" width="48.755" height="48.756"/>
<rect x="22.704" y="441.905" width="36.815" height="36.814"/>
<rect x="71.46" y="441.905" width="36.814" height="36.814"/>
<rect x="120.216" y="441.905" width="36.814" height="36.814"/>
<rect x="71.46" y="141.905" width="36.814" height="36.814"/>
<rect x="120.215" y="201.905" width="36.814" height="36.814"/>
<rect x="22.704" y="261.905" width="36.813" height="36.814"/>
<rect x="71.46" y="261.905" width="36.813" height="36.814"/>
<rect x="22.704" y="321.905" width="36.813" height="36.814"/>
<rect x="120.216" y="321.905" width="36.813" height="36.814"/>
<rect x="71.46" y="381.905" width="36.813" height="36.814"/>
<rect x="120.216" y="381.905" width="36.813" height="36.814"/>
</svg>
